<svg id="svg" version="1.1" xmlns="http://www.w3.org/2000/svg" xmlns:xlink="http://www.w3.org/1999/xlink" width="50" height="50" viewBox="0, 0, 400,383.19327731092443"><g id="svgg"><path id="path0" d="M49.856 32.590 C 49.209 32.999,48.954 338.248,49.600 338.894 C 49.950 339.244,120.076 339.560,121.477 339.218 L 122.339 339.007 122.339 324.674 C 122.339 311.958,122.271 310.315,121.733 310.108 C 121.399 309.980,112.114 309.875,101.100 309.875 C 86.035 309.875,80.960 309.761,80.614 309.415 C 79.674 308.475,79.978 62.687,80.920 61.745 C 81.668 60.998,82.199 60.978,101.553 60.978 C 116.493 60.978,121.533 60.864,121.879 60.518 C 122.667 59.730,122.527 32.752,121.733 32.448 C 120.702 32.052,50.487 32.191,49.856 32.590 M272.933 32.469 C 272.198 33.203,272.663 60.177,273.417 60.581 C 273.900 60.840,280.985 60.978,293.772 60.978 L 313.386 60.978 314.507 62.099 L 315.628 63.220 315.628 185.148 C 315.628 299.387,315.563 308.325,314.728 309.579 C 314.695 309.628,305.264 309.757,293.768 309.867 L 272.867 310.067 272.766 324.337 C 272.669 338.161,272.689 338.619,273.416 339.008 C 273.927 339.281,285.573 339.378,309.932 339.312 L 345.699 339.214 345.966 338.255 C 346.301 337.050,346.307 35.124,345.972 33.557 L 345.726 32.407 309.458 32.309 C 289.511 32.255,273.074 32.327,272.933 32.469 M129.611 107.593 C 129.018 108.308,129.423 109.196,132.316 113.519 C 133.375 115.101,134.493 116.940,134.800 117.606 C 135.108 118.272,135.493 118.877,135.657 118.949 C 136.002 119.101,136.323 119.548,139.365 124.120 C 140.608 125.988,142.498 128.811,143.565 130.393 C 144.633 131.975,146.878 135.340,148.555 137.872 C 150.232 140.403,152.475 143.768,153.539 145.350 C 154.603 146.932,156.447 149.693,157.637 151.486 C 161.245 156.921,162.538 158.847,164.435 161.607 C 167.214 165.650,169.763 169.508,170.474 170.747 C 171.093 171.825,173.809 175.723,175.091 177.373 C 175.746 178.217,176.749 179.723,177.318 180.720 L 178.354 182.533 177.339 184.555 C 176.780 185.667,175.777 187.267,175.109 188.111 C 174.440 188.955,173.604 190.077,173.249 190.604 C 172.894 191.131,172.081 192.302,171.441 193.206 C 170.801 194.110,170.278 194.924,170.278 195.015 C 170.278 195.257,166.538 201.156,164.687 203.835 C 163.812 205.101,162.631 206.823,162.062 207.662 C 161.493 208.501,160.909 209.278,160.763 209.388 C 160.618 209.498,160.195 210.192,159.823 210.930 C 159.000 212.564,158.372 213.547,155.896 217.066 C 154.842 218.566,153.716 220.258,153.394 220.826 C 153.073 221.395,151.951 223.134,150.901 224.691 C 149.852 226.248,148.821 227.800,148.610 228.141 C 148.399 228.481,147.881 229.275,147.459 229.904 C 147.037 230.533,146.520 231.338,146.309 231.691 C 146.098 232.044,144.962 233.774,143.784 235.534 C 142.606 237.294,140.621 240.261,139.373 242.127 C 138.126 243.992,136.917 245.846,136.687 246.247 C 136.457 246.647,136.004 247.278,135.679 247.648 C 135.354 248.019,134.803 248.840,134.455 249.473 C 134.106 250.105,133.525 251.090,133.162 251.660 C 132.799 252.230,131.827 253.783,131.001 255.111 C 130.175 256.440,129.260 257.785,128.967 258.102 C 128.673 258.418,127.844 259.613,127.123 260.757 C 126.402 261.901,125.678 262.937,125.514 263.058 C 124.564 263.762,124.312 264.936,124.980 265.540 C 125.859 266.336,159.548 266.485,161.269 265.701 C 161.834 265.443,162.849 264.238,163.612 262.920 C 164.352 261.641,165.462 259.818,166.078 258.869 C 166.694 257.919,167.322 256.884,167.473 256.568 C 167.875 255.730,169.980 252.622,170.527 252.059 C 170.784 251.794,171.104 251.233,171.238 250.813 C 171.371 250.392,171.615 250.048,171.780 250.048 C 171.944 250.048,172.390 249.358,172.771 248.514 C 173.151 247.670,173.597 246.980,173.762 246.980 C 173.927 246.980,174.183 246.597,174.332 246.129 C 174.480 245.661,175.570 243.828,176.754 242.055 C 177.938 240.283,179.095 238.510,179.325 238.115 C 179.554 237.720,180.029 237.081,180.379 236.693 C 180.730 236.306,181.016 235.840,181.016 235.657 C 181.016 235.324,181.394 234.713,184.401 230.189 C 185.282 228.864,186.002 227.674,186.002 227.544 C 186.002 227.415,186.649 226.363,187.440 225.208 C 190.467 220.788,191.291 219.499,192.894 216.683 C 195.195 212.636,196.755 211.363,198.071 212.455 C 198.966 213.197,203.507 220.238,205.252 223.588 C 205.693 224.434,207.778 227.718,209.267 229.914 C 209.553 230.336,210.257 231.371,210.830 232.215 C 212.266 234.327,212.719 235.071,213.515 236.625 C 214.276 238.110,214.604 238.640,218.028 243.912 C 222.130 250.227,223.036 251.697,224.676 254.700 C 225.555 256.310,226.532 257.841,226.847 258.103 C 227.163 258.365,227.421 258.760,227.421 258.981 C 227.421 259.203,227.708 259.700,228.058 260.087 C 228.706 260.804,229.192 261.578,230.325 263.702 C 231.668 266.217,231.126 266.155,251.855 266.155 C 272.117 266.155,273.312 266.044,271.304 264.338 C 270.625 263.762,268.410 260.693,267.114 258.533 C 266.903 258.182,266.342 257.353,265.868 256.692 C 265.393 256.031,265.005 255.401,265.005 255.292 C 265.005 255.080,261.931 250.367,260.959 249.089 C 260.638 248.667,259.148 246.424,257.647 244.104 C 256.147 241.783,254.513 239.272,254.018 238.522 C 253.522 237.772,253.116 236.953,253.116 236.700 C 253.116 236.448,252.959 236.242,252.768 236.242 C 252.576 236.242,252.102 235.742,251.713 235.132 C 251.325 234.522,250.213 232.839,249.242 231.393 C 247.531 228.842,245.679 225.986,244.878 224.666 C 244.663 224.310,243.063 221.941,241.323 219.400 C 239.583 216.860,238.159 214.684,238.159 214.566 C 238.159 214.447,237.841 213.883,237.452 213.311 C 237.063 212.740,236.248 211.496,235.641 210.547 C 234.683 209.048,233.637 207.593,232.453 206.112 C 232.273 205.888,231.907 205.295,231.640 204.794 C 231.372 204.293,230.998 203.700,230.811 203.476 C 230.623 203.252,229.930 202.205,229.271 201.151 C 228.612 200.096,227.667 198.620,227.172 197.870 C 226.676 197.120,226.270 196.301,226.270 196.048 C 226.270 195.796,226.114 195.590,225.922 195.590 C 225.731 195.590,225.256 195.086,224.868 194.471 C 224.163 193.356,220.238 187.439,218.995 185.618 C 217.411 183.299,217.728 182.058,221.239 176.847 C 222.002 175.713,222.886 174.395,223.202 173.918 C 223.519 173.441,224.799 171.520,226.046 169.651 C 227.294 167.781,229.152 164.957,230.175 163.375 C 232.924 159.123,232.918 159.132,233.760 158.048 C 234.187 157.498,234.981 156.357,235.524 155.513 C 238.434 150.991,242.555 144.750,242.741 144.583 C 242.995 144.356,244.254 142.430,246.828 138.337 C 247.861 136.695,249.353 134.499,250.144 133.459 C 250.935 132.418,251.582 131.443,251.582 131.292 C 251.582 131.141,251.919 130.659,252.332 130.220 C 252.744 129.781,253.531 128.576,254.081 127.543 C 254.630 126.509,255.965 124.355,257.047 122.755 C 258.128 121.155,259.443 119.199,259.968 118.408 C 260.493 117.617,261.064 116.970,261.238 116.970 C 261.411 116.970,261.553 116.788,261.553 116.565 C 261.553 116.342,262.297 115.091,263.207 113.784 C 265.977 109.804,266.757 108.215,266.209 107.666 C 265.275 106.733,231.540 107.007,230.491 107.956 C 229.593 108.769,225.376 115.038,223.597 118.207 C 221.481 121.974,220.084 124.205,219.573 124.629 C 219.249 124.898,218.984 125.334,218.984 125.599 C 218.984 125.864,218.712 126.306,218.380 126.581 C 218.049 126.857,217.401 127.764,216.942 128.598 C 216.483 129.431,215.933 130.392,215.720 130.733 C 215.507 131.073,214.671 132.474,213.862 133.845 C 213.053 135.216,211.976 136.887,211.469 137.558 C 210.961 138.230,210.547 138.902,210.547 139.053 C 210.547 139.203,209.899 140.271,209.108 141.426 C 207.179 144.244,206.496 145.293,205.557 146.884 C 205.122 147.622,204.383 148.872,203.917 149.662 C 198.508 158.816,197.768 158.771,192.525 148.975 C 191.853 147.719,190.570 145.570,189.675 144.199 C 187.145 140.326,186.616 139.478,186.094 138.447 C 185.827 137.919,184.754 136.107,183.710 134.420 C 182.665 132.733,181.527 130.705,181.180 129.914 C 180.833 129.123,180.407 128.476,180.233 128.476 C 180.060 128.476,179.808 128.131,179.675 127.711 C 179.541 127.290,179.192 126.706,178.899 126.413 C 178.316 125.831,178.072 125.432,174.712 119.596 C 173.459 117.420,172.078 115.099,171.643 114.439 C 171.209 113.779,170.077 112.029,169.128 110.552 C 167.926 108.681,167.044 107.733,166.224 107.432 C 164.197 106.687,130.239 106.836,129.611 107.593 " stroke="none" fill="#060606" fill-rule="evenodd"></path><path id="path1" d="M0.000 191.755 L 0.000 383.509 200.000 383.509 L 400.000 383.509 400.000 191.755 L 400.000 0.000 200.000 0.000 L 0.000 0.000 0.000 191.755 M123.196 31.416 L 124.449 32.534 124.567 45.510 C 124.696 59.753,124.627 60.642,123.290 61.980 L 122.374 62.895 101.839 62.895 L 81.303 62.895 81.399 185.714 L 81.496 308.533 102.099 308.725 L 122.702 308.917 123.575 309.790 L 124.449 310.664 124.449 324.877 L 124.449 339.090 123.569 339.802 C 122.146 340.954,121.055 340.984,84.307 340.863 L 49.151 340.748 48.161 339.818 L 47.172 338.888 47.172 185.784 L 47.172 32.679 48.284 31.488 L 49.397 30.297 85.670 30.297 L 121.944 30.297 123.196 31.416 M346.990 31.426 L 348.226 32.555 348.226 185.971 L 348.226 339.388 347.188 340.068 C 345.574 341.126,273.460 341.122,272.401 340.063 C 271.502 339.165,271.146 311.554,272.011 309.875 L 272.506 308.917 293.012 308.725 L 313.519 308.533 313.615 185.714 L 313.712 62.895 293.458 62.895 C 276.573 62.895,273.081 62.805,272.461 62.351 C 271.314 61.513,271.301 32.371,272.447 31.105 L 273.177 30.297 309.466 30.297 L 345.754 30.297 346.990 31.426 M168.714 106.705 C 169.351 107.388,169.974 108.405,170.097 108.967 C 170.221 109.528,170.657 110.291,171.067 110.662 C 171.477 111.033,171.812 111.501,171.812 111.701 C 171.812 111.902,172.244 112.578,172.771 113.205 C 173.298 113.832,173.730 114.590,173.730 114.890 C 173.730 115.191,173.899 115.436,174.105 115.436 C 174.312 115.436,174.873 116.149,175.352 117.020 C 176.410 118.945,177.312 120.502,178.545 122.531 C 179.057 123.375,179.728 124.599,180.035 125.252 C 180.342 125.905,181.383 127.631,182.347 129.087 C 184.609 132.504,184.655 132.575,185.907 134.612 C 186.491 135.561,187.186 136.683,187.452 137.105 C 187.718 137.526,188.200 138.450,188.524 139.157 C 188.848 139.864,189.278 140.641,189.480 140.883 C 190.256 141.812,191.842 144.380,192.165 145.229 C 192.351 145.717,192.668 146.117,192.870 146.117 C 193.072 146.117,193.353 146.505,193.495 146.980 C 193.637 147.454,194.511 148.977,195.438 150.364 C 196.365 151.750,197.124 153.174,197.124 153.528 C 197.124 154.680,199.176 154.354,199.719 153.116 C 199.973 152.536,200.693 151.285,201.318 150.336 C 201.943 149.386,202.741 148.049,203.092 147.363 C 203.444 146.678,203.872 146.117,204.045 146.117 C 204.217 146.117,204.478 145.729,204.625 145.254 C 204.771 144.779,205.132 144.132,205.427 143.816 C 206.253 142.929,207.743 140.565,209.879 136.749 C 211.672 133.545,212.166 132.774,213.825 130.585 C 215.166 128.816,217.699 124.742,218.178 123.586 C 218.461 122.900,218.833 122.339,219.004 122.339 C 219.176 122.339,219.437 121.956,219.586 121.488 C 219.734 121.020,220.824 119.187,222.008 117.415 C 223.192 115.642,224.370 113.828,224.624 113.383 C 224.879 112.937,225.311 112.395,225.583 112.177 C 225.856 111.959,226.596 110.773,227.229 109.542 C 227.862 108.310,228.760 106.889,229.224 106.384 L 230.069 105.465 248.602 105.465 C 268.646 105.465,268.863 105.487,268.823 107.500 C 268.801 108.647,265.725 113.594,262.698 117.354 C 261.934 118.303,261.084 119.640,260.809 120.326 C 260.534 121.012,260.190 121.572,260.044 121.572 C 259.897 121.572,259.485 122.133,259.127 122.819 C 258.769 123.504,258.176 124.508,257.809 125.049 C 257.443 125.590,256.765 126.626,256.303 127.350 C 255.841 128.075,255.303 128.851,255.108 129.075 C 254.913 129.299,254.533 129.903,254.262 130.417 C 253.992 130.931,253.537 131.490,253.252 131.659 C 252.966 131.827,252.733 132.156,252.733 132.389 C 252.733 132.623,252.301 133.379,251.774 134.071 C 251.246 134.762,250.815 135.485,250.815 135.677 C 250.815 135.870,250.470 136.339,250.048 136.721 C 249.626 137.103,249.281 137.588,249.281 137.799 C 249.281 138.010,248.849 138.748,248.322 139.440 C 247.795 140.131,247.363 140.872,247.363 141.087 C 247.363 141.301,247.128 141.615,246.840 141.783 C 246.552 141.952,246.030 142.651,245.680 143.337 C 245.329 144.022,244.878 144.583,244.676 144.583 C 244.475 144.583,244.201 145.017,244.068 145.547 C 243.935 146.077,243.618 146.638,243.363 146.793 C 243.109 146.949,242.320 148.111,241.611 149.377 C 240.901 150.642,240.093 151.816,239.815 151.985 C 239.537 152.153,239.310 152.498,239.309 152.752 C 239.309 153.005,238.533 154.201,237.584 155.410 C 236.635 156.619,235.858 157.724,235.858 157.867 C 235.858 158.009,235.427 158.691,234.899 159.382 C 234.372 160.073,233.941 160.728,233.941 160.837 C 233.941 161.170,231.500 164.709,231.176 164.845 C 231.009 164.915,230.872 165.208,230.872 165.496 C 230.872 165.784,230.484 166.453,230.010 166.982 C 229.535 167.512,228.564 168.901,227.851 170.070 C 227.139 171.239,226.405 172.196,226.221 172.196 C 226.037 172.196,225.887 172.347,225.887 172.533 C 225.887 172.718,225.318 173.797,224.622 174.930 C 223.926 176.063,222.987 177.593,222.535 178.332 C 222.083 179.070,221.573 179.847,221.400 180.058 C 219.232 182.711,219.359 183.122,224.793 191.068 C 225.184 191.639,225.503 192.271,225.503 192.471 C 225.503 192.671,226.280 193.788,227.229 194.953 C 228.178 196.119,228.955 197.181,228.955 197.315 C 228.955 197.449,229.386 198.124,229.914 198.815 C 230.441 199.507,230.872 200.245,230.872 200.456 C 230.872 200.667,231.218 201.152,231.640 201.534 C 232.061 201.916,232.407 202.366,232.407 202.535 C 232.407 202.863,233.998 205.384,234.788 206.308 C 235.049 206.613,235.526 207.335,235.848 207.913 C 236.405 208.913,239.141 212.994,239.799 213.806 C 240.676 214.889,242.761 218.444,242.761 218.856 C 242.761 219.116,242.980 219.467,243.247 219.636 C 243.794 219.981,243.937 220.180,247.938 226.163 C 249.520 228.529,250.815 230.616,250.815 230.801 C 250.815 230.986,251.156 231.445,251.572 231.822 C 251.989 232.199,252.442 232.863,252.580 233.298 C 252.718 233.732,253.456 234.909,254.220 235.913 C 257.180 239.804,257.718 240.601,257.718 241.097 C 257.718 241.380,257.887 241.611,258.094 241.611 C 258.300 241.611,258.820 242.258,259.248 243.049 C 259.677 243.840,260.238 244.832,260.495 245.254 C 260.752 245.676,261.484 246.883,262.121 247.935 C 262.758 248.988,263.538 250.125,263.854 250.461 C 264.171 250.797,264.643 251.402,264.903 251.806 C 265.163 252.210,265.806 253.145,266.331 253.883 C 266.857 254.621,267.453 255.597,267.656 256.051 C 267.859 256.505,268.211 256.991,268.439 257.132 C 268.666 257.272,269.117 257.936,269.442 258.607 C 270.479 260.752,271.434 262.352,272.151 263.144 C 272.967 264.045,273.095 266.656,272.360 267.391 C 271.717 268.035,234.358 268.325,232.126 267.704 C 230.631 267.288,229.711 266.177,227.191 261.745 C 225.765 259.237,224.530 257.355,223.584 256.247 C 223.163 255.755,222.819 255.108,222.819 254.809 C 222.819 254.511,222.637 254.267,222.416 254.267 C 222.194 254.267,221.755 253.706,221.440 253.020 C 221.126 252.335,220.189 250.652,219.358 249.281 C 218.528 247.910,217.845 246.572,217.841 246.309 C 217.837 246.045,217.662 245.829,217.453 245.829 C 217.243 245.829,216.769 245.241,216.398 244.521 C 216.027 243.802,214.732 241.755,213.519 239.972 C 212.306 238.190,211.314 236.562,211.314 236.354 C 211.314 236.147,210.968 235.665,210.547 235.283 C 210.125 234.901,209.779 234.380,209.779 234.125 C 209.779 233.869,209.458 233.249,209.065 232.746 C 208.672 232.243,208.220 231.400,208.059 230.872 C 207.898 230.345,207.443 229.605,207.047 229.228 C 206.652 228.850,206.328 228.403,206.328 228.233 C 206.328 228.063,205.897 227.422,205.370 226.809 C 204.843 226.197,204.411 225.501,204.411 225.263 C 204.411 225.025,204.134 224.600,203.795 224.320 C 203.457 224.039,203.022 223.457,202.829 223.026 C 202.635 222.596,201.968 221.467,201.345 220.518 C 200.722 219.569,199.930 218.145,199.585 217.354 C 199.240 216.563,198.832 215.916,198.678 215.916 C 198.523 215.916,198.198 215.478,197.954 214.942 C 197.388 213.701,196.178 214.216,195.371 216.042 C 195.075 216.711,194.320 217.948,193.693 218.792 C 193.065 219.636,192.295 220.887,191.981 221.572 C 191.667 222.258,191.229 222.819,191.007 222.819 C 190.785 222.819,190.604 223.008,190.604 223.239 C 190.604 223.470,190.216 224.200,189.741 224.861 C 188.682 226.336,188.358 226.862,187.197 228.999 C 186.694 229.924,186.176 230.767,186.046 230.872 C 185.916 230.978,185.551 231.524,185.235 232.086 C 184.252 233.831,181.624 237.577,181.280 237.722 C 181.100 237.799,180.624 238.575,180.222 239.448 C 179.821 240.321,179.278 241.381,179.017 241.802 C 178.756 242.224,178.178 243.174,177.733 243.912 C 175.887 246.972,173.144 251.052,172.501 251.693 C 172.122 252.070,171.812 252.610,171.812 252.892 C 171.812 253.175,171.543 253.629,171.215 253.901 C 170.886 254.174,170.362 254.929,170.051 255.578 C 169.739 256.228,169.065 257.450,168.553 258.293 C 168.041 259.137,167.267 260.475,166.833 261.266 C 166.399 262.057,165.875 262.704,165.668 262.704 C 165.461 262.704,165.292 262.935,165.292 263.218 C 165.292 263.501,164.945 264.148,164.521 264.656 C 164.096 265.164,163.335 266.098,162.828 266.731 L 161.907 267.881 142.856 267.881 L 123.806 267.881 123.073 266.976 C 121.842 265.456,122.144 264.503,124.818 261.457 C 125.142 261.088,125.407 260.627,125.407 260.432 C 125.407 260.237,125.810 259.590,126.301 258.994 C 126.792 258.398,127.313 257.651,127.458 257.335 C 127.603 257.018,128.230 255.983,128.851 255.034 C 129.473 254.084,130.268 252.790,130.619 252.157 C 130.969 251.524,131.799 250.316,132.462 249.473 C 133.126 248.629,134.167 247.162,134.776 246.213 C 135.384 245.264,136.200 244.019,136.589 243.448 C 136.978 242.876,137.296 242.262,137.296 242.082 C 137.296 241.902,137.618 241.410,138.011 240.988 C 138.405 240.566,138.946 239.810,139.214 239.310 C 139.482 238.809,139.855 238.216,140.043 237.992 C 140.654 237.265,145.142 230.436,145.695 229.393 C 145.991 228.836,146.466 228.242,146.750 228.073 C 147.035 227.904,147.267 227.529,147.267 227.240 C 147.267 226.950,147.699 226.200,148.226 225.573 C 148.754 224.947,149.185 224.300,149.185 224.136 C 149.185 223.972,149.472 223.521,149.822 223.134 C 150.173 222.747,150.647 222.104,150.877 221.706 C 151.298 220.975,153.664 217.376,154.989 215.452 C 155.383 214.880,155.705 214.321,155.705 214.210 C 155.705 213.799,158.562 209.779,158.854 209.779 C 159.020 209.779,159.156 209.582,159.156 209.340 C 159.156 209.098,159.803 207.956,160.594 206.802 C 161.385 205.649,162.205 204.424,162.416 204.081 C 162.627 203.738,163.188 202.968,163.663 202.371 C 164.137 201.773,164.525 201.117,164.525 200.914 C 164.525 200.711,164.844 200.077,165.232 199.505 C 165.621 198.934,166.441 197.689,167.053 196.740 C 167.665 195.791,168.312 194.908,168.490 194.779 C 168.668 194.649,169.013 194.209,169.258 193.801 C 169.503 193.393,170.048 192.482,170.470 191.775 C 170.892 191.069,171.539 190.219,171.908 189.887 C 172.277 189.555,172.582 189.106,172.586 188.889 C 172.593 188.521,174.402 185.596,175.241 184.597 C 176.330 183.300,176.131 182.180,174.348 179.545 C 173.375 178.109,172.579 176.685,172.579 176.382 C 172.579 176.080,172.234 175.616,171.812 175.353 C 171.390 175.089,171.045 174.687,171.045 174.458 C 171.045 174.041,170.860 173.777,167.847 169.895 C 166.947 168.734,165.788 167.097,165.272 166.257 C 164.756 165.416,164.161 164.447,163.950 164.103 C 163.739 163.760,163.175 162.765,162.696 161.893 C 162.217 161.021,161.659 160.307,161.457 160.307 C 161.254 160.307,160.980 159.875,160.848 159.348 C 160.715 158.821,160.470 158.389,160.303 158.389 C 160.136 158.389,159.647 157.828,159.216 157.143 C 158.785 156.457,157.941 155.206,157.340 154.362 C 156.738 153.519,155.657 151.793,154.937 150.527 C 154.217 149.262,153.488 148.054,153.318 147.843 C 153.147 147.632,152.622 146.895,152.151 146.206 C 151.680 145.517,150.388 143.666,149.281 142.092 C 148.174 140.519,147.267 139.150,147.267 139.050 C 147.267 138.950,146.707 138.065,146.021 137.083 C 144.630 135.089,144.313 134.618,142.008 131.120 C 141.119 129.771,140.170 128.413,139.899 128.102 C 138.944 127.008,137.310 124.444,137.303 124.029 C 137.299 123.798,136.951 123.296,136.529 122.915 C 136.107 122.533,135.762 121.997,135.762 121.724 C 135.762 121.452,135.331 120.763,134.803 120.194 C 134.276 119.625,133.845 118.926,133.845 118.640 C 133.845 118.354,133.683 118.121,133.486 118.121 C 133.159 118.121,130.201 113.842,128.152 110.405 C 127.238 108.872,127.027 106.033,127.804 105.719 C 128.068 105.613,137.120 105.512,147.919 105.495 L 167.555 105.465 168.714 106.705 " stroke="none" fill="#fbfbfb" fill-rule="evenodd"></path><path id="path2" d="M68.140 31.352 C 77.668 31.409,93.373 31.409,103.039 31.352 C 112.705 31.295,104.909 31.248,85.714 31.248 C 66.520 31.248,58.611 31.295,68.140 31.352 M291.726 31.352 C 301.254 31.409,316.959 31.409,326.625 31.352 C 336.291 31.295,328.495 31.248,309.300 31.248 C 290.105 31.248,282.197 31.295,291.726 31.352 M48.925 32.050 C 47.940 33.035,48.009 338.682,48.993 339.454 C 49.588 339.921,49.610 339.911,49.185 339.366 C 48.802 338.875,48.724 307.734,48.801 185.590 L 48.897 32.429 49.856 31.944 C 50.513 31.612,50.612 31.457,50.171 31.453 C 49.817 31.450,49.256 31.719,48.925 32.050 M121.381 31.716 C 121.802 31.815,122.363 32.173,122.627 32.512 C 122.891 32.851,123.106 32.957,123.106 32.748 C 123.106 32.097,122.222 31.446,121.400 31.492 C 120.630 31.536,120.630 31.541,121.381 31.716 M345.979 32.181 L 346.884 32.914 346.981 185.458 C 347.068 321.704,347.016 338.097,346.493 338.895 C 345.818 339.926,345.984 340.059,346.857 339.186 C 347.402 338.641,347.459 324.204,347.459 186.026 L 347.459 33.469 346.664 32.458 C 346.227 31.902,345.690 31.448,345.471 31.448 C 345.252 31.448,345.481 31.778,345.979 32.181 M123.197 46.607 C 123.120 58.043,123.018 60.167,122.509 60.893 L 121.912 61.745 101.704 61.837 L 81.496 61.930 101.246 62.039 C 112.109 62.100,121.364 62.060,121.811 61.952 C 123.384 61.571,123.508 60.357,123.395 46.405 L 123.288 33.174 123.197 46.607 M273.004 61.844 C 273.164 62.004,282.346 62.091,293.407 62.036 L 313.519 61.936 293.116 61.745 C 281.894 61.639,272.844 61.684,273.004 61.844 M80.776 62.719 C 80.645 63.061,80.580 116.266,80.632 180.952 L 80.726 298.562 80.919 180.441 C 81.125 54.507,81.134 61.786,80.776 62.719 M314.667 185.618 C 314.667 252.800,314.711 280.283,314.765 246.692 C 314.819 213.102,314.819 158.135,314.765 124.545 C 314.711 90.954,314.667 118.437,314.667 185.618 M138.543 106.136 C 143.552 106.196,151.750 106.196,156.759 106.136 C 161.769 106.075,157.670 106.026,147.651 106.026 C 137.632 106.026,133.533 106.075,138.543 106.136 M240.390 106.136 C 245.098 106.197,252.691 106.197,257.265 106.136 C 261.838 106.075,257.987 106.025,248.706 106.025 C 239.425 106.025,235.683 106.075,240.390 106.136 M166.741 106.631 C 167.222 106.824,168.153 107.849,168.812 108.908 C 170.125 111.020,170.627 111.471,169.727 109.730 C 168.821 107.978,167.199 106.230,166.505 106.256 C 166.062 106.273,166.135 106.388,166.741 106.631 M229.666 107.287 C 229.134 107.867,228.324 109.032,227.865 109.875 C 226.980 111.503,227.645 110.770,229.078 108.539 C 229.550 107.803,230.363 106.986,230.884 106.723 C 231.458 106.432,231.595 106.241,231.232 106.238 C 230.902 106.235,230.197 106.707,229.666 107.287 M266.703 106.835 C 267.678 107.809,267.439 108.534,264.840 112.475 C 263.484 114.532,262.533 116.117,262.727 115.997 C 263.492 115.524,267.689 108.733,267.689 107.967 C 267.689 107.136,267.036 106.232,266.435 106.232 C 266.251 106.232,266.372 106.503,266.703 106.835 M127.709 108.043 C 127.709 108.266,128.064 108.856,128.498 109.353 L 129.288 110.259 128.614 109.108 C 127.728 107.594,127.709 107.572,127.709 108.043 M129.577 111.026 C 129.784 111.448,130.234 112.138,130.578 112.560 L 131.202 113.327 130.826 112.560 C 130.619 112.138,130.168 111.448,129.825 111.026 L 129.200 110.259 129.577 111.026 M171.154 112.583 C 171.621 113.334,172.466 114.672,173.030 115.555 C 173.595 116.439,175.047 118.888,176.258 120.997 C 178.600 125.080,179.866 126.922,179.866 126.249 C 179.866 126.022,179.712 125.741,179.525 125.626 C 179.337 125.510,178.185 123.644,176.964 121.480 C 175.743 119.316,174.452 117.114,174.096 116.587 C 173.741 116.059,172.813 114.636,172.035 113.423 C 171.257 112.210,170.549 111.218,170.462 111.218 C 170.375 111.218,170.686 111.832,171.154 112.583 M225.832 113.039 C 224.647 114.467,221.495 119.655,221.813 119.655 C 221.926 119.655,222.494 118.835,223.074 117.833 C 223.654 116.831,224.698 115.192,225.394 114.190 C 226.657 112.372,226.887 111.769,225.832 113.039 M131.766 114.618 C 132.160 115.286,132.879 116.303,133.363 116.880 C 133.938 117.566,133.817 117.225,133.014 115.895 C 132.339 114.776,131.621 113.758,131.418 113.633 C 131.216 113.508,131.372 113.951,131.766 114.618 M261.089 118.025 C 260.769 118.394,259.681 119.990,258.672 121.572 C 255.229 126.972,254.876 127.517,254.525 127.996 C 254.331 128.260,254.271 128.476,254.391 128.476 C 254.511 128.476,255.249 127.483,256.030 126.270 C 256.812 125.058,258.445 122.555,259.660 120.709 C 261.870 117.353,262.183 116.766,261.089 118.025 M135.378 119.942 C 135.879 120.628,136.350 121.189,136.423 121.189 C 136.714 121.189,135.763 119.751,135.135 119.240 C 134.720 118.903,134.813 119.171,135.378 119.942 M220.826 120.901 C 219.374 123.193,218.539 124.775,219.055 124.257 C 219.690 123.621,221.797 120.038,221.537 120.038 C 221.447 120.038,221.127 120.427,220.826 120.901 M139.895 126.729 C 140.892 128.300,141.841 129.594,142.006 129.606 C 142.171 129.617,141.432 128.332,140.364 126.750 C 137.861 123.039,137.546 123.026,139.895 126.729 M180.249 127.479 C 180.819 128.202,181.995 130.167,186.180 137.392 C 187.372 139.449,188.436 141.131,188.545 141.131 C 188.744 141.131,187.127 138.182,185.180 134.995 C 184.600 134.046,183.425 132.039,182.569 130.534 C 181.713 129.030,180.712 127.563,180.343 127.275 C 179.725 126.790,179.718 126.806,180.249 127.479 M214.419 130.991 C 213.976 131.742,213.787 132.249,214.000 132.118 C 214.416 131.861,215.661 129.626,215.388 129.626 C 215.298 129.626,214.862 130.240,214.419 130.991 M252.733 130.777 C 252.282 131.409,252.000 131.927,252.105 131.927 C 252.210 131.927,252.665 131.409,253.116 130.777 C 253.567 130.144,253.849 129.626,253.744 129.626 C 253.638 129.626,253.183 130.144,252.733 130.777 M142.931 131.190 C 143.312 131.839,143.869 132.572,144.169 132.820 C 144.468 133.067,144.230 132.536,143.638 131.640 C 142.397 129.757,141.907 129.446,142.931 131.190 M211.285 136.050 C 210.178 137.895,209.022 139.794,208.715 140.268 C 208.408 140.743,208.248 141.131,208.359 141.131 C 208.469 141.131,209.587 139.449,210.842 137.392 C 213.637 132.814,213.704 132.694,213.479 132.694 C 213.379 132.694,212.392 134.204,211.285 136.050 M144.930 134.161 C 145.163 134.596,145.543 135.069,145.774 135.212 C 146.075 135.398,146.073 135.247,145.770 134.679 C 145.537 134.244,145.157 133.771,144.926 133.628 C 144.625 133.442,144.627 133.593,144.930 134.161 M248.536 136.951 C 247.451 138.660,246.269 140.508,245.909 141.059 C 245.549 141.610,245.448 141.941,245.685 141.795 C 245.922 141.649,246.871 140.311,247.794 138.822 C 248.717 137.333,249.791 135.604,250.179 134.980 C 250.568 134.356,250.801 133.845,250.697 133.845 C 250.593 133.845,249.621 135.243,248.536 136.951 M147.014 137.115 C 148.692 139.696,149.221 140.260,148.209 138.388 C 147.678 137.406,146.969 136.375,146.634 136.097 C 146.298 135.819,146.470 136.277,147.014 137.115 M149.395 140.748 C 150.066 141.946,155.803 150.336,155.951 150.336 C 156.149 150.336,155.370 149.107,152.305 144.583 C 150.005 141.188,148.615 139.357,149.395 140.748 M244.636 142.953 C 243.439 144.427,241.861 146.884,242.110 146.884 C 242.199 146.884,242.982 145.849,243.850 144.583 C 245.378 142.356,245.755 141.575,244.636 142.953 M191.373 145.733 C 192.044 146.894,192.772 148.015,192.992 148.226 C 193.570 148.782,191.353 144.883,190.702 144.199 C 190.400 143.883,190.703 144.573,191.373 145.733 M206.051 144.295 C 205.301 145.265,205.046 145.860,205.500 145.580 C 205.954 145.299,206.862 143.816,206.580 143.816 C 206.493 143.816,206.255 144.032,206.051 144.295 M203.289 148.706 C 202.443 150.129,201.383 151.855,200.933 152.541 C 200.484 153.226,200.214 153.787,200.334 153.787 C 200.563 153.787,202.374 151.015,204.155 147.939 C 204.735 146.937,205.124 146.117,205.019 146.117 C 204.914 146.117,204.135 147.282,203.289 148.706 M241.334 147.747 C 240.584 148.716,240.329 149.312,240.782 149.031 C 241.237 148.751,242.145 147.267,241.863 147.267 C 241.776 147.267,241.538 147.483,241.334 147.747 M193.359 148.999 C 194.695 153.289,198.778 156.984,199.816 154.842 C 200.193 154.063,200.181 154.044,199.691 154.650 C 198.824 155.722,197.574 155.478,196.742 154.075 C 195.538 152.044,193.228 148.578,193.359 148.999 M156.327 151.103 C 156.849 152.089,158.819 154.938,158.979 154.938 C 159.207 154.938,157.732 152.577,156.822 151.486 C 156.382 150.959,156.159 150.786,156.327 151.103 M159.789 156.568 C 160.795 158.207,162.321 160.321,162.641 160.519 C 162.848 160.647,162.297 159.702,161.417 158.420 C 160.537 157.137,159.744 156.088,159.656 156.088 C 159.567 156.088,159.627 156.304,159.789 156.568 M234.851 157.526 C 233.717 159.084,233.368 159.877,234.302 158.773 C 235.166 157.751,235.972 156.472,235.752 156.472 C 235.679 156.472,235.273 156.946,234.851 157.526 M232.897 160.403 C 232.147 161.372,231.891 161.967,232.345 161.687 C 232.799 161.406,233.708 159.923,233.426 159.923 C 233.339 159.923,233.101 160.139,232.897 160.403 M163.267 161.553 C 163.471 161.817,165.136 164.312,166.968 167.098 C 168.799 169.883,170.454 172.259,170.645 172.377 C 170.836 172.495,169.270 170.000,167.164 166.833 C 165.059 163.665,163.237 161.074,163.117 161.074 C 162.996 161.074,163.064 161.290,163.267 161.553 M229.445 165.772 C 228.696 166.741,228.440 167.337,228.894 167.056 C 229.348 166.775,230.256 165.292,229.974 165.292 C 229.887 165.292,229.649 165.508,229.445 165.772 M225.368 171.908 C 224.587 173.015,223.067 175.302,221.990 176.989 C 220.913 178.677,219.710 180.525,219.316 181.097 C 218.922 181.668,218.621 182.531,218.646 183.014 C 218.689 183.863,218.699 183.860,218.933 182.934 C 219.066 182.407,219.458 181.544,219.804 181.016 C 222.826 176.407,226.519 170.764,226.769 170.374 C 227.622 169.040,226.606 170.153,225.368 171.908 M171.394 173.665 C 171.601 174.052,172.071 174.613,172.440 174.912 C 172.854 175.248,172.761 174.980,172.197 174.209 C 171.190 172.833,170.812 172.577,171.394 173.665 M172.963 175.944 C 172.963 176.178,173.113 176.462,173.298 176.576 C 173.482 176.690,174.364 177.993,175.258 179.472 C 177.127 182.567,177.115 183.137,175.116 186.194 C 174.426 187.248,173.553 188.586,173.176 189.166 C 172.799 189.746,172.575 190.221,172.678 190.221 C 173.051 190.221,176.755 184.252,176.996 183.263 C 177.273 182.130,176.697 180.819,174.590 177.784 C 172.921 175.381,172.963 175.429,172.963 175.944 M219.214 184.564 C 219.463 184.998,220.579 186.734,224.873 193.368 C 225.652 194.571,226.463 195.663,226.676 195.795 C 226.889 195.926,226.390 195.028,225.568 193.798 C 224.747 192.569,222.993 189.880,221.672 187.824 C 220.351 185.767,219.195 184.084,219.104 184.084 C 219.013 184.084,219.062 184.300,219.214 184.564 M170.214 193.576 C 169.654 194.240,167.243 197.928,166.641 199.041 C 165.938 200.343,167.186 198.700,169.045 195.877 C 170.975 192.946,171.322 192.263,170.214 193.576 M165.822 200.288 C 164.502 202.527,164.416 202.719,165.088 201.918 C 165.867 200.990,166.539 199.808,166.287 199.808 C 166.187 199.808,165.978 200.024,165.822 200.288 M230.806 202.351 C 231.654 203.896,232.509 204.737,231.853 203.380 C 231.527 202.708,231.070 202.040,230.837 201.896 C 230.533 201.708,230.524 201.837,230.806 202.351 M235.782 209.842 C 237.659 212.655,240.185 216.467,241.396 218.313 C 242.608 220.158,243.678 221.668,243.774 221.668 C 243.978 221.668,243.845 221.443,241.837 218.388 C 236.470 210.223,233.008 205.121,232.713 204.938 C 232.525 204.822,233.906 207.028,235.782 209.842 M162.150 205.849 C 161.475 206.635,160.968 207.478,161.171 207.478 C 161.249 207.478,161.696 206.961,162.164 206.328 C 163.088 205.078,163.079 204.767,162.150 205.849 M156.199 214.861 C 152.812 219.975,152.950 219.751,153.190 219.751 C 153.305 219.751,154.393 218.241,155.608 216.395 C 158.933 211.345,159.190 210.930,158.989 210.930 C 158.887 210.930,157.631 212.699,156.199 214.861 M196.346 213.096 C 196.023 213.183,195.582 213.551,195.365 213.914 C 195.148 214.277,194.578 215.221,194.098 216.012 C 193.618 216.802,193.312 217.450,193.416 217.450 C 193.521 217.450,194.128 216.602,194.766 215.566 C 195.741 213.980,197.249 212.804,197.681 213.292 C 197.990 213.642,201.286 218.786,202.301 220.502 C 203.955 223.298,206.591 227.431,206.915 227.736 C 207.315 228.112,206.168 226.106,204.212 223.011 C 203.279 221.534,202.229 219.808,201.879 219.175 C 200.439 216.576,197.760 212.851,197.360 212.892 C 197.125 212.917,196.668 213.008,196.346 213.096 M191.211 220.614 C 190.236 222.143,189.162 223.782,188.824 224.257 C 188.486 224.732,188.292 225.120,188.392 225.120 C 188.602 225.120,191.196 221.413,192.485 219.271 C 194.031 216.704,193.036 217.753,191.211 220.614 M246.841 226.529 C 249.848 231.151,251.278 233.066,249.655 230.297 C 248.163 227.753,244.596 222.429,244.231 222.204 C 244.044 222.088,245.218 224.034,246.841 226.529 M146.460 229.615 C 142.493 235.627,142.588 235.475,142.808 235.475 C 142.907 235.475,144.439 233.274,146.213 230.585 C 149.865 225.048,150.058 224.736,149.838 224.736 C 149.751 224.736,148.231 226.932,146.460 229.615 M186.163 228.476 C 185.153 230.110,184.080 231.836,183.778 232.311 C 183.476 232.785,183.317 233.174,183.425 233.174 C 183.533 233.174,184.448 231.836,185.458 230.201 C 186.468 228.567,187.541 226.841,187.843 226.366 C 188.144 225.892,188.303 225.503,188.195 225.503 C 188.087 225.503,187.173 226.841,186.163 228.476 M209.749 232.215 C 210.376 233.269,211.598 235.379,212.465 236.904 C 213.332 238.428,214.196 239.770,214.384 239.887 C 214.573 240.003,213.994 238.842,213.097 237.307 C 212.200 235.772,211.130 233.936,210.719 233.227 C 210.308 232.519,209.665 231.570,209.290 231.118 C 208.916 230.667,209.122 231.160,209.749 232.215 M250.680 232.502 C 251.635 234.061,252.733 235.536,252.733 235.261 C 252.733 234.895,250.795 232.023,250.548 232.023 C 250.459 232.023,250.518 232.239,250.680 232.502 M141.996 236.337 C 141.787 236.601,141.412 237.248,141.161 237.776 C 140.631 238.891,141.591 237.862,142.323 236.529 C 142.750 235.753,142.552 235.636,141.996 236.337 M180.446 237.488 C 179.623 238.660,178.478 240.460,176.240 244.104 C 175.203 245.791,174.085 247.596,173.755 248.116 C 173.425 248.635,173.337 248.947,173.560 248.810 C 173.783 248.672,174.713 247.299,175.627 245.757 C 177.414 242.743,179.524 239.380,180.696 237.680 C 181.096 237.100,181.339 236.625,181.237 236.625 C 181.136 236.625,180.779 237.013,180.446 237.488 M256.013 240.364 C 258.063 243.524,258.604 244.295,258.772 244.295 C 258.874 244.295,258.649 243.821,258.273 243.241 C 256.223 240.081,255.681 239.310,255.514 239.310 C 255.412 239.310,255.637 239.784,256.013 240.364 M215.034 240.960 C 215.202 241.234,216.014 242.486,216.837 243.740 C 219.292 247.483,219.967 248.571,221.640 251.486 C 222.518 253.015,223.329 254.267,223.442 254.267 C 223.556 254.267,223.289 253.663,222.850 252.924 C 222.411 252.186,221.682 250.935,221.231 250.144 C 219.508 247.124,215.145 240.460,214.892 240.460 C 214.801 240.460,214.865 240.685,215.034 240.960 M137.787 242.857 C 136.293 245.075,135.914 245.835,136.879 244.679 C 137.790 243.588,139.265 241.227,139.036 241.227 C 138.953 241.227,138.391 241.961,137.787 242.857 M259.216 245.378 C 259.449 245.814,259.829 246.287,260.059 246.430 C 260.360 246.615,260.359 246.464,260.055 245.897 C 259.822 245.461,259.443 244.988,259.212 244.846 C 258.911 244.660,258.912 244.811,259.216 245.378 M134.930 247.267 C 134.405 247.888,132.287 251.096,128.660 256.759 C 127.849 258.025,127.024 259.276,126.825 259.540 C 126.627 259.803,126.566 260.019,126.689 260.019 C 126.813 260.019,127.727 258.768,128.720 257.239 C 129.713 255.709,131.691 252.689,133.116 250.527 C 135.645 246.689,136.081 245.907,134.930 247.267 M172.153 250.719 C 170.956 252.194,169.377 254.650,169.627 254.650 C 169.715 254.650,170.498 253.615,171.367 252.349 C 172.895 250.122,173.272 249.341,172.153 250.719 M263.895 252.319 C 264.775 253.601,265.567 254.650,265.656 254.650 C 265.843 254.650,265.625 254.280,264.138 252.071 C 263.537 251.180,262.877 250.347,262.671 250.219 C 262.464 250.092,263.015 251.036,263.895 252.319 M224.427 256.112 C 225.330 257.605,227.342 260.296,226.775 259.252 C 226.027 257.876,223.888 254.650,223.723 254.650 C 223.624 254.650,223.940 255.308,224.427 256.112 M168.857 255.513 C 168.188 256.394,166.335 259.833,166.740 259.444 C 167.205 258.997,169.556 255.034,169.356 255.034 C 169.282 255.034,169.057 255.249,168.857 255.513 M266.565 256.376 C 267.367 257.718,269.591 261.163,271.053 263.325 C 272.542 265.527,270.392 261.714,268.541 258.869 C 266.272 255.381,265.052 253.842,266.565 256.376 M164.342 262.902 C 161.663 267.201,163.153 266.923,142.780 266.916 C 133.120 266.913,125.043 266.784,124.832 266.629 C 123.697 265.795,123.388 265.015,123.922 264.334 C 124.399 263.725,124.386 263.712,123.778 264.189 C 122.885 264.889,122.929 265.246,124.048 266.365 L 124.989 267.306 142.667 267.306 C 162.476 267.306,161.728 267.405,163.671 264.525 C 165.302 262.105,166.530 260.019,166.322 260.019 C 166.221 260.019,165.330 261.316,164.342 262.902 M227.842 261.338 C 228.285 262.089,228.721 262.704,228.811 262.704 C 229.083 262.704,227.839 260.469,227.423 260.212 C 227.210 260.081,227.399 260.587,227.842 261.338 M125.551 261.457 C 124.417 263.015,124.067 263.808,125.002 262.704 C 125.866 261.682,126.672 260.403,126.452 260.403 C 126.379 260.403,125.973 260.877,125.551 261.457 M229.759 264.337 C 231.537 267.502,230.073 267.306,251.941 267.306 C 271.992 267.306,272.328 267.281,272.267 265.791 C 272.252 265.426,272.109 265.530,271.896 266.059 L 271.549 266.922 252.018 266.922 L 232.488 266.922 231.392 265.825 C 230.790 265.222,229.994 264.316,229.623 263.812 C 229.219 263.264,229.274 263.475,229.759 264.337 M80.673 302.397 C 80.672 304.295,80.737 305.120,80.817 304.230 C 80.898 303.340,80.899 301.787,80.819 300.779 C 80.740 299.770,80.674 300.499,80.673 302.397 M80.575 307.785 C 80.492 309.504,80.400 309.497,101.419 309.401 L 121.381 309.310 101.264 309.113 L 81.147 308.917 80.880 307.958 C 80.657 307.155,80.607 307.127,80.575 307.785 M313.962 308.517 C 313.761 309.040,311.378 309.108,293.443 309.108 C 274.568 309.108,273.117 309.155,272.645 309.779 C 272.213 310.350,272.217 310.379,272.674 309.971 C 273.090 309.601,277.795 309.492,293.414 309.492 C 313.800 309.492,315.636 309.372,314.388 308.124 C 314.278 308.014,314.087 308.191,313.962 308.517 M123.280 325.024 C 123.279 332.617,123.331 335.778,123.393 332.048 C 123.456 328.318,123.456 322.105,123.394 318.242 C 123.331 314.378,123.280 317.430,123.280 325.024 M122.563 339.310 C 122.405 339.468,105.938 339.685,85.970 339.793 L 49.664 339.989 85.737 340.081 C 116.959 340.160,121.909 340.097,122.554 339.610 C 122.963 339.300,123.198 339.041,123.074 339.034 C 122.951 339.028,122.721 339.151,122.563 339.310 M272.626 339.501 C 273.122 340.133,275.272 340.167,309.443 340.079 L 345.733 339.985 309.529 339.885 C 281.353 339.807,273.188 339.679,272.712 339.308 C 272.170 338.885,272.160 338.907,272.626 339.501 " stroke="none" fill="#7c7c7c" fill-rule="evenodd"></path><path id="path3" d="M48.284 31.488 L 47.172 32.679 47.172 185.784 L 47.172 338.888 48.161 339.818 L 49.151 340.748 84.307 340.863 C 121.055 340.984,122.146 340.954,123.569 339.802 L 124.449 339.090 124.449 324.877 L 124.449 310.664 123.575 309.790 L 122.702 308.917 102.099 308.725 L 81.496 308.533 81.399 185.714 L 81.303 62.895 101.839 62.895 L 122.374 62.895 123.290 61.980 C 124.627 60.642,124.696 59.753,124.567 45.510 L 124.449 32.534 123.196 31.416 L 121.944 30.297 85.670 30.297 L 49.397 30.297 48.284 31.488 M272.447 31.105 C 271.301 32.371,271.314 61.513,272.461 62.351 C 273.081 62.805,276.573 62.895,293.458 62.895 L 313.712 62.895 313.615 185.714 L 313.519 308.533 293.012 308.725 L 272.506 308.917 272.011 309.875 C 271.146 311.554,271.502 339.165,272.401 340.063 C 273.460 341.122,345.574 341.126,347.188 340.068 L 348.226 339.388 348.226 185.971 L 348.226 32.555 346.990 31.426 L 345.754 30.297 309.466 30.297 L 273.177 30.297 272.447 31.105 M122.613 31.940 C 123.298 32.624,123.920 57.654,123.314 60.088 C 122.786 62.204,123.591 62.128,101.644 62.128 C 83.689 62.128,81.360 62.196,81.158 62.724 C 80.862 63.494,80.830 308.269,81.126 308.747 C 81.261 308.966,89.115 309.108,101.020 309.108 C 122.423 309.108,122.865 309.148,123.255 311.096 C 123.952 314.580,123.500 338.629,122.723 339.406 C 121.663 340.466,50.680 340.630,49.174 339.576 L 48.322 338.979 48.328 185.884 C 48.331 101.682,48.475 32.567,48.648 32.294 C 49.336 31.211,52.372 31.123,86.564 31.188 C 119.942 31.252,121.967 31.294,122.613 31.940 M346.534 32.332 L 347.459 33.408 347.453 185.927 C 347.450 269.813,347.321 338.637,347.166 338.869 C 346.316 340.142,345.420 340.173,309.210 340.173 C 281.723 340.173,273.103 340.064,272.752 339.712 C 272.091 339.052,272.091 310.229,272.752 309.569 C 273.098 309.222,278.220 309.108,293.448 309.108 C 313.062 309.108,313.696 309.086,314.080 308.367 C 314.693 307.222,314.631 63.202,314.017 62.589 C 313.671 62.242,308.549 62.128,293.321 62.128 C 273.707 62.128,273.073 62.106,272.688 61.387 C 272.231 60.531,272.133 32.673,272.585 31.966 C 273.086 31.183,274.293 31.158,310.196 31.208 L 345.608 31.256 346.534 32.332 M127.804 105.719 C 127.027 106.033,127.238 108.872,128.152 110.405 C 130.201 113.842,133.159 118.121,133.486 118.121 C 133.683 118.121,133.845 118.354,133.845 118.640 C 133.845 118.926,134.276 119.625,134.803 120.194 C 135.331 120.763,135.762 121.452,135.762 121.724 C 135.762 121.997,136.107 122.533,136.529 122.915 C 136.951 123.296,137.299 123.798,137.303 124.029 C 137.310 124.444,138.944 127.008,139.899 128.102 C 140.170 128.413,141.119 129.771,142.008 131.120 C 144.313 134.618,144.630 135.089,146.021 137.083 C 146.707 138.065,147.267 138.950,147.267 139.050 C 147.267 139.150,148.174 140.519,149.281 142.092 C 150.388 143.666,151.680 145.517,152.151 146.206 C 152.622 146.895,153.147 147.632,153.318 147.843 C 153.488 148.054,154.217 149.262,154.937 150.527 C 155.657 151.793,156.738 153.519,157.340 154.362 C 157.941 155.206,158.785 156.457,159.216 157.143 C 159.647 157.828,160.136 158.389,160.303 158.389 C 160.470 158.389,160.715 158.821,160.848 159.348 C 160.980 159.875,161.254 160.307,161.457 160.307 C 161.659 160.307,162.217 161.021,162.696 161.893 C 163.175 162.765,163.739 163.760,163.950 164.103 C 164.161 164.447,164.756 165.416,165.272 166.257 C 165.788 167.097,166.947 168.734,167.847 169.895 C 170.860 173.777,171.045 174.041,171.045 174.458 C 171.045 174.687,171.390 175.089,171.812 175.353 C 172.234 175.616,172.579 176.080,172.579 176.382 C 172.579 176.685,173.375 178.109,174.348 179.545 C 176.131 182.180,176.330 183.300,175.241 184.597 C 174.402 185.596,172.593 188.521,172.586 188.889 C 172.582 189.106,172.277 189.555,171.908 189.887 C 171.539 190.219,170.892 191.069,170.470 191.775 C 170.048 192.482,169.503 193.393,169.258 193.801 C 169.013 194.209,168.668 194.649,168.490 194.779 C 168.312 194.908,167.665 195.791,167.053 196.740 C 166.441 197.689,165.621 198.934,165.232 199.505 C 164.844 200.077,164.525 200.711,164.525 200.914 C 164.525 201.117,164.137 201.773,163.663 202.371 C 163.188 202.968,162.627 203.738,162.416 204.081 C 162.205 204.424,161.385 205.649,160.594 206.802 C 159.803 207.956,159.156 209.098,159.156 209.340 C 159.156 209.582,159.020 209.779,158.854 209.779 C 158.562 209.779,155.705 213.799,155.705 214.210 C 155.705 214.321,155.383 214.880,154.989 215.452 C 153.664 217.376,151.298 220.975,150.877 221.706 C 150.647 222.104,150.173 222.747,149.822 223.134 C 149.472 223.521,149.185 223.972,149.185 224.136 C 149.185 224.300,148.754 224.947,148.226 225.573 C 147.699 226.200,147.267 226.950,147.267 227.240 C 147.267 227.529,147.035 227.904,146.750 228.073 C 146.466 228.242,145.991 228.836,145.695 229.393 C 145.142 230.436,140.654 237.265,140.043 237.992 C 139.855 238.216,139.482 238.809,139.214 239.310 C 138.946 239.810,138.405 240.566,138.011 240.988 C 137.618 241.410,137.296 241.902,137.296 242.082 C 137.296 242.262,136.978 242.876,136.589 243.448 C 136.200 244.019,135.384 245.264,134.776 246.213 C 134.167 247.162,133.126 248.629,132.462 249.473 C 131.799 250.316,130.969 251.524,130.619 252.157 C 130.268 252.790,129.473 254.084,128.851 255.034 C 128.230 255.983,127.603 257.018,127.458 257.335 C 127.313 257.651,126.792 258.398,126.301 258.994 C 125.810 259.590,125.407 260.237,125.407 260.432 C 125.407 260.627,125.142 261.088,124.818 261.457 C 122.144 264.503,121.842 265.456,123.073 266.976 L 123.806 267.881 142.856 267.881 L 161.907 267.881 162.828 266.731 C 163.335 266.098,164.096 265.164,164.521 264.656 C 164.945 264.148,165.292 263.501,165.292 263.218 C 165.292 262.935,165.461 262.704,165.668 262.704 C 165.875 262.704,166.399 262.057,166.833 261.266 C 167.267 260.475,168.041 259.137,168.553 258.293 C 169.065 257.450,169.739 256.228,170.051 255.578 C 170.362 254.929,170.886 254.174,171.215 253.901 C 171.543 253.629,171.812 253.175,171.812 252.892 C 171.812 252.610,172.122 252.070,172.501 251.693 C 173.144 251.052,175.887 246.972,177.733 243.912 C 178.178 243.174,178.756 242.224,179.017 241.802 C 179.278 241.381,179.821 240.321,180.222 239.448 C 180.624 238.575,181.100 237.799,181.280 237.722 C 181.624 237.577,184.252 233.831,185.235 232.086 C 185.551 231.524,185.916 230.978,186.046 230.872 C 186.176 230.767,186.694 229.924,187.197 228.999 C 188.358 226.862,188.682 226.336,189.741 224.861 C 190.216 224.200,190.604 223.470,190.604 223.239 C 190.604 223.008,190.785 222.819,191.007 222.819 C 191.229 222.819,191.667 222.258,191.981 221.572 C 192.295 220.887,193.065 219.636,193.693 218.792 C 194.320 217.948,195.075 216.711,195.371 216.042 C 196.178 214.216,197.388 213.701,197.954 214.942 C 198.198 215.478,198.523 215.916,198.678 215.916 C 198.832 215.916,199.240 216.563,199.585 217.354 C 199.930 218.145,200.722 219.569,201.345 220.518 C 201.968 221.467,202.635 222.596,202.829 223.026 C 203.022 223.457,203.457 224.039,203.795 224.320 C 204.134 224.600,204.411 225.025,204.411 225.263 C 204.411 225.501,204.843 226.197,205.370 226.809 C 205.897 227.422,206.328 228.063,206.328 228.233 C 206.328 228.403,206.652 228.850,207.047 229.228 C 207.443 229.605,207.898 230.345,208.059 230.872 C 208.220 231.400,208.672 232.243,209.065 232.746 C 209.458 233.249,209.779 233.869,209.779 234.125 C 209.779 234.380,210.125 234.901,210.547 235.283 C 210.968 235.665,211.314 236.147,211.314 236.354 C 211.314 236.562,212.306 238.190,213.519 239.972 C 214.732 241.755,216.027 243.802,216.398 244.521 C 216.769 245.241,217.243 245.829,217.453 245.829 C 217.662 245.829,217.837 246.045,217.841 246.309 C 217.845 246.572,218.528 247.910,219.358 249.281 C 220.189 250.652,221.126 252.335,221.440 253.020 C 221.755 253.706,222.194 254.267,222.416 254.267 C 222.637 254.267,222.819 254.511,222.819 254.809 C 222.819 255.108,223.163 255.755,223.584 256.247 C 224.530 257.355,225.765 259.237,227.191 261.745 C 229.711 266.177,230.631 267.288,232.126 267.704 C 234.358 268.325,271.717 268.035,272.360 267.391 C 273.095 266.656,272.967 264.045,272.151 263.144 C 271.434 262.352,270.479 260.752,269.442 258.607 C 269.117 257.936,268.666 257.272,268.439 257.132 C 268.211 256.991,267.859 256.505,267.656 256.051 C 267.453 255.597,266.857 254.621,266.331 253.883 C 265.806 253.145,265.163 252.210,264.903 251.806 C 264.643 251.402,264.171 250.797,263.854 250.461 C 263.538 250.125,262.758 248.988,262.121 247.935 C 261.484 246.883,260.752 245.676,260.495 245.254 C 260.238 244.832,259.677 243.840,259.248 243.049 C 258.820 242.258,258.300 241.611,258.094 241.611 C 257.887 241.611,257.718 241.380,257.718 241.097 C 257.718 240.601,257.180 239.804,254.220 235.913 C 253.456 234.909,252.718 233.732,252.580 233.298 C 252.442 232.863,251.989 232.199,251.572 231.822 C 251.156 231.445,250.815 230.986,250.815 230.801 C 250.815 230.616,249.520 228.529,247.938 226.163 C 243.937 220.180,243.794 219.981,243.247 219.636 C 242.980 219.467,242.761 219.116,242.761 218.856 C 242.761 218.444,240.676 214.889,239.799 213.806 C 239.141 212.994,236.405 208.913,235.848 207.913 C 235.526 207.335,235.049 206.613,234.788 206.308 C 233.998 205.384,232.407 202.863,232.407 202.535 C 232.407 202.366,232.061 201.916,231.640 201.534 C 231.218 201.152,230.872 200.667,230.872 200.456 C 230.872 200.245,230.441 199.507,229.914 198.815 C 229.386 198.124,228.955 197.449,228.955 197.315 C 228.955 197.181,228.178 196.119,227.229 194.953 C 226.280 193.788,225.503 192.671,225.503 192.471 C 225.503 192.271,225.184 191.639,224.793 191.068 C 219.359 183.122,219.232 182.711,221.400 180.058 C 221.573 179.847,222.083 179.070,222.535 178.332 C 222.987 177.593,223.926 176.063,224.622 174.930 C 225.318 173.797,225.887 172.718,225.887 172.533 C 225.887 172.347,226.037 172.196,226.221 172.196 C 226.405 172.196,227.139 171.239,227.851 170.070 C 228.564 168.901,229.535 167.512,230.010 166.982 C 230.484 166.453,230.872 165.784,230.872 165.496 C 230.872 165.208,231.009 164.915,231.176 164.845 C 231.500 164.709,233.941 161.170,233.941 160.837 C 233.941 160.728,234.372 160.073,234.899 159.382 C 235.427 158.691,235.858 158.009,235.858 157.867 C 235.858 157.724,236.635 156.619,237.584 155.410 C 238.533 154.201,239.309 153.005,239.309 152.752 C 239.310 152.498,239.537 152.153,239.815 151.985 C 240.093 151.816,240.901 150.642,241.611 149.377 C 242.320 148.111,243.109 146.949,243.363 146.793 C 243.618 146.638,243.935 146.077,244.068 145.547 C 244.201 145.017,244.475 144.583,244.676 144.583 C 244.878 144.583,245.329 144.022,245.680 143.337 C 246.030 142.651,246.552 141.952,246.840 141.783 C 247.128 141.615,247.363 141.301,247.363 141.087 C 247.363 140.872,247.795 140.131,248.322 139.440 C 248.849 138.748,249.281 138.010,249.281 137.799 C 249.281 137.588,249.626 137.103,250.048 136.721 C 250.470 136.339,250.815 135.870,250.815 135.677 C 250.815 135.485,251.246 134.762,251.774 134.071 C 252.301 133.379,252.733 132.623,252.733 132.389 C 252.733 132.156,252.966 131.827,253.252 131.659 C 253.537 131.490,253.992 130.931,254.262 130.417 C 254.533 129.903,254.913 129.299,255.108 129.075 C 255.303 128.851,255.841 128.075,256.303 127.350 C 256.765 126.626,257.443 125.590,257.809 125.049 C 258.176 124.508,258.769 123.504,259.127 122.819 C 259.485 122.133,259.897 121.572,260.044 121.572 C 260.190 121.572,260.534 121.012,260.809 120.326 C 261.084 119.640,261.934 118.303,262.698 117.354 C 265.725 113.594,268.801 108.647,268.823 107.500 C 268.863 105.487,268.646 105.465,248.602 105.465 L 230.069 105.465 229.224 106.384 C 228.760 106.889,227.862 108.310,227.229 109.542 C 226.596 110.773,225.856 111.959,225.583 112.177 C 225.311 112.395,224.879 112.937,224.624 113.383 C 224.370 113.828,223.192 115.642,222.008 117.415 C 220.824 119.187,219.734 121.020,219.586 121.488 C 219.437 121.956,219.176 122.339,219.004 122.339 C 218.833 122.339,218.461 122.900,218.178 123.586 C 217.699 124.742,215.166 128.816,213.825 130.585 C 212.166 132.774,211.672 133.545,209.879 136.749 C 207.743 140.565,206.253 142.929,205.427 143.816 C 205.132 144.132,204.771 144.779,204.625 145.254 C 204.478 145.729,204.217 146.117,204.045 146.117 C 203.872 146.117,203.444 146.678,203.092 147.363 C 202.741 148.049,201.943 149.386,201.318 150.336 C 200.693 151.285,199.973 152.536,199.719 153.116 C 199.176 154.354,197.124 154.680,197.124 153.528 C 197.124 153.174,196.365 151.750,195.438 150.364 C 194.511 148.977,193.637 147.454,193.495 146.980 C 193.353 146.505,193.072 146.117,192.870 146.117 C 192.668 146.117,192.351 145.717,192.165 145.229 C 191.842 144.380,190.256 141.812,189.480 140.883 C 189.278 140.641,188.848 139.864,188.524 139.157 C 188.200 138.450,187.718 137.526,187.452 137.105 C 187.186 136.683,186.491 135.561,185.907 134.612 C 184.655 132.575,184.609 132.504,182.347 129.087 C 181.383 127.631,180.342 125.905,180.035 125.252 C 179.728 124.599,179.057 123.375,178.545 122.531 C 177.312 120.502,176.410 118.945,175.352 117.020 C 174.873 116.149,174.312 115.436,174.105 115.436 C 173.899 115.436,173.730 115.191,173.730 114.890 C 173.730 114.590,173.298 113.832,172.771 113.205 C 172.244 112.578,171.812 111.902,171.812 111.701 C 171.812 111.501,171.477 111.033,171.067 110.662 C 170.657 110.291,170.221 109.528,170.097 108.967 C 169.974 108.405,169.351 107.388,168.714 106.705 L 167.555 105.465 147.919 105.495 C 137.120 105.512,128.068 105.613,127.804 105.719 M166.435 106.190 C 167.450 106.473,168.663 107.981,171.429 112.399 C 172.378 113.915,173.510 115.696,173.945 116.356 C 174.586 117.331,177.832 122.867,179.689 126.154 C 179.908 126.542,180.340 127.163,180.648 127.534 C 181.206 128.206,182.430 130.245,186.329 137.000 C 187.459 138.956,189.061 141.592,189.890 142.857 C 190.719 144.123,192.735 147.402,194.371 150.144 C 198.236 156.625,198.422 156.671,201.342 151.872 C 202.502 149.966,204.385 146.985,205.526 145.248 C 206.667 143.511,208.805 140.105,210.278 137.680 C 211.751 135.254,214.198 131.371,215.718 129.051 C 217.237 126.731,219.670 122.848,221.125 120.422 C 222.580 117.996,224.328 115.235,225.009 114.286 C 225.690 113.337,226.853 111.515,227.592 110.239 C 228.332 108.962,229.386 107.495,229.935 106.979 L 230.934 106.040 248.678 106.040 C 270.401 106.040,269.706 105.791,265.484 112.060 C 264.271 113.862,261.912 117.386,260.242 119.892 C 258.571 122.398,255.896 126.399,254.297 128.782 C 252.698 131.165,250.995 133.754,250.512 134.534 C 249.208 136.643,246.859 140.195,238.115 153.274 C 233.766 159.779,228.008 168.466,225.319 172.579 C 222.629 176.692,220.104 180.525,219.706 181.097 C 219.309 181.668,218.984 182.487,218.984 182.917 C 218.984 183.690,222.379 189.159,227.781 197.088 C 228.154 197.635,229.287 199.377,230.299 200.959 C 231.311 202.541,232.611 204.525,233.187 205.369 C 233.763 206.213,235.664 209.060,237.411 211.697 C 239.158 214.334,241.896 218.441,243.496 220.825 C 245.096 223.208,247.081 226.228,247.908 227.536 C 250.244 231.230,252.869 235.243,253.226 235.666 C 253.874 236.434,260.076 245.977,260.655 247.098 C 260.983 247.732,261.403 248.439,261.588 248.670 C 262.918 250.326,263.897 251.694,265.182 253.691 C 270.015 261.204,270.928 262.612,271.575 263.551 C 272.393 264.738,272.505 266.172,271.831 266.846 C 271.485 267.191,266.535 267.306,251.910 267.306 L 232.449 267.306 231.473 266.443 C 230.434 265.525,227.337 260.834,222.802 253.308 C 219.455 247.754,219.029 247.074,215.825 242.186 C 214.443 240.077,212.764 237.402,212.093 236.242 C 210.215 232.992,209.475 231.797,206.351 226.960 C 204.756 224.492,202.934 221.591,202.301 220.514 C 201.241 218.711,197.985 213.632,197.653 213.265 C 197.090 212.641,195.339 214.575,192.778 218.649 C 187.206 227.511,184.471 231.824,182.109 235.475 C 179.186 239.991,177.694 242.350,176.042 245.062 C 175.336 246.222,173.339 249.329,171.605 251.965 C 169.871 254.602,167.203 258.803,165.675 261.300 C 161.645 267.887,163.875 267.303,142.744 267.304 L 124.989 267.306 124.019 266.336 C 123.486 265.803,123.106 265.242,123.174 265.090 C 123.315 264.776,129.778 254.952,133.035 250.103 C 135.907 245.825,135.927 245.794,138.646 241.611 C 139.948 239.607,143.571 234.084,146.696 229.338 C 149.821 224.593,154.018 218.207,156.021 215.149 C 158.025 212.090,160.245 208.725,160.954 207.670 C 161.663 206.616,163.231 204.236,164.439 202.383 C 167.728 197.336,169.766 194.244,173.120 189.212 C 177.298 182.942,177.315 182.863,175.225 179.477 C 173.294 176.348,172.762 175.531,171.429 173.645 C 170.562 172.420,164.408 163.339,160.829 158.006 C 160.050 156.846,156.742 151.841,153.476 146.884 C 147.106 137.214,147.224 137.391,144.263 133.078 C 141.872 129.596,142.613 130.694,136.240 121.186 C 126.990 107.386,126.604 106.582,128.996 106.114 C 130.402 105.839,165.430 105.910,166.435 106.190 " stroke="none" fill="#adadad" fill-rule="evenodd"></path><path id="path4" d="M49.856 31.940 L 48.897 32.429 48.801 185.590 C 48.730 298.499,48.818 338.887,49.136 339.270 C 49.751 340.011,121.459 340.046,122.472 339.305 C 123.411 338.618,123.284 310.464,122.339 309.867 C 121.996 309.650,113.630 309.501,101.611 309.498 C 86.454 309.493,81.343 309.378,80.997 309.032 C 80.200 308.235,80.342 63.145,81.140 62.348 C 81.672 61.815,84.079 61.745,101.827 61.745 L 121.912 61.745 122.509 60.893 C 123.362 59.675,123.411 33.544,122.562 32.384 C 121.868 31.435,51.686 31.006,49.856 31.940 M273.634 31.728 C 273.212 31.834,272.740 32.116,272.585 32.355 C 272.155 33.018,272.231 59.618,272.665 60.761 L 273.040 61.745 293.110 61.745 C 309.838 61.745,313.304 61.836,313.925 62.289 C 314.871 62.981,315.308 306.483,314.366 308.341 L 313.880 309.300 293.600 309.399 C 279.401 309.469,273.166 309.627,272.806 309.926 C 272.096 310.515,272.044 338.621,272.752 339.329 C 273.103 339.680,281.801 339.789,309.560 339.789 L 345.908 339.789 346.493 338.895 C 347.016 338.097,347.068 321.704,346.981 185.458 L 346.884 32.914 345.979 32.181 C 345.106 31.474,276.372 31.044,273.634 31.728 M121.733 32.448 C 122.527 32.752,122.667 59.730,121.879 60.518 C 121.533 60.864,116.493 60.978,101.553 60.978 C 82.199 60.978,81.668 60.998,80.920 61.745 C 79.978 62.687,79.674 308.475,80.614 309.415 C 80.960 309.761,86.035 309.875,101.100 309.875 C 112.114 309.875,121.399 309.980,121.733 310.108 C 122.271 310.315,122.339 311.958,122.339 324.674 L 122.339 339.007 121.477 339.218 C 120.076 339.560,49.950 339.244,49.600 338.894 C 48.954 338.248,49.209 32.999,49.856 32.590 C 50.487 32.191,120.702 32.052,121.733 32.448 M345.972 33.557 C 346.307 35.124,346.301 337.050,345.966 338.255 L 345.699 339.214 309.932 339.312 C 285.573 339.378,273.927 339.281,273.416 339.008 C 272.689 338.619,272.669 338.161,272.766 324.337 L 272.867 310.067 293.768 309.867 C 305.264 309.757,314.695 309.628,314.728 309.579 C 315.563 308.325,315.628 299.387,315.628 185.148 L 315.628 63.220 314.507 62.099 L 313.386 60.978 293.772 60.978 C 280.985 60.978,273.900 60.840,273.417 60.581 C 272.663 60.177,272.198 33.203,272.933 32.469 C 273.074 32.327,289.511 32.255,309.458 32.309 L 345.726 32.407 345.972 33.557 M128.763 106.496 C 127.574 106.807,128.043 108.248,130.611 112.176 C 131.990 114.286,133.620 116.788,134.232 117.737 C 134.845 118.686,136.180 120.671,137.200 122.148 C 139.375 125.296,146.833 136.241,147.615 137.433 C 154.446 147.836,159.651 155.721,161.194 158.006 C 162.263 159.588,165.120 163.816,167.543 167.402 C 179.285 184.775,178.645 181.558,172.259 191.095 C 165.623 201.004,160.530 208.655,160.116 209.339 C 159.707 210.013,152.754 220.636,144.892 232.598 C 142.258 236.606,137.896 243.250,135.200 247.363 C 132.503 251.477,128.757 257.144,126.875 259.958 C 123.335 265.251,123.265 265.478,124.832 266.629 C 125.650 267.230,160.256 266.968,161.447 266.352 C 162.171 265.978,163.503 264.234,165.329 261.271 C 166.858 258.790,169.072 255.314,170.248 253.547 C 172.244 250.548,177.600 242.026,179.037 239.560 C 179.387 238.959,180.019 238.017,180.441 237.466 C 180.863 236.915,183.020 233.582,185.235 230.059 C 192.757 218.093,195.695 213.423,195.739 213.358 C 196.835 211.748,198.545 213.508,202.685 220.513 C 204.389 223.397,208.730 230.277,210.914 233.557 C 211.265 234.084,212.134 235.551,212.844 236.817 C 213.555 238.082,215.171 240.671,216.435 242.570 C 219.455 247.103,220.115 248.159,222.069 251.582 C 222.972 253.164,224.777 256.098,226.080 258.102 C 227.383 260.105,229.023 262.650,229.724 263.755 C 231.875 267.149,230.267 266.922,252.153 266.922 L 271.543 266.922 271.920 265.931 C 272.303 264.924,272.213 264.598,271.248 263.507 C 270.951 263.171,269.881 261.601,268.871 260.019 C 267.862 258.437,264.708 253.605,261.863 249.281 C 259.018 244.957,255.857 240.125,254.838 238.543 C 253.820 236.961,252.876 235.580,252.740 235.475 C 252.605 235.369,251.729 234.075,250.793 232.598 C 249.857 231.122,246.693 226.290,243.763 221.860 C 240.832 217.430,236.603 211.039,234.366 207.656 C 232.128 204.273,229.866 200.765,229.338 199.860 C 228.811 198.955,227.775 197.408,227.035 196.422 C 226.296 195.437,225.243 193.941,224.696 193.097 C 217.680 182.285,218.004 183.007,219.311 181.097 C 219.702 180.525,220.850 178.763,221.863 177.181 C 222.876 175.599,224.124 173.701,224.635 172.963 C 225.146 172.224,227.044 169.377,228.853 166.635 C 230.661 163.893,235.005 157.361,238.506 152.121 C 242.006 146.880,246.174 140.581,247.768 138.123 C 249.361 135.664,251.432 132.580,252.370 131.270 C 253.307 129.959,254.748 127.802,255.570 126.476 C 257.020 124.138,258.055 122.566,264.333 113.172 C 269.318 105.713,270.410 106.184,248.443 106.317 L 230.807 106.424 229.854 107.574 C 228.698 108.970,224.912 114.771,222.091 119.468 C 220.953 121.364,218.898 124.640,217.524 126.750 C 214.641 131.177,214.315 131.695,210.531 137.872 C 208.980 140.403,207.172 143.250,206.514 144.199 C 205.856 145.149,204.712 146.961,203.972 148.226 C 198.733 157.190,198.330 157.393,195.394 152.546 C 194.341 150.809,193.415 149.232,193.335 149.042 C 193.255 148.852,192.318 147.297,191.252 145.585 C 190.187 143.874,188.289 140.748,187.034 138.639 C 185.780 136.529,184.463 134.372,184.108 133.845 C 183.752 133.317,182.878 131.850,182.165 130.585 C 181.451 129.319,180.329 127.507,179.670 126.558 C 179.012 125.609,177.449 123.059,176.197 120.892 C 171.231 112.292,167.906 107.275,166.805 106.718 C 165.891 106.255,130.476 106.049,128.763 106.496 M166.224 107.432 C 167.044 107.733,167.926 108.681,169.128 110.552 C 170.077 112.029,171.209 113.779,171.643 114.439 C 172.078 115.099,173.459 117.420,174.712 119.596 C 178.072 125.432,178.316 125.831,178.899 126.413 C 179.192 126.706,179.541 127.290,179.675 127.711 C 179.808 128.131,180.060 128.476,180.233 128.476 C 180.407 128.476,180.833 129.123,181.180 129.914 C 181.527 130.705,182.665 132.733,183.710 134.420 C 184.754 136.107,185.827 137.919,186.094 138.447 C 186.616 139.478,187.145 140.326,189.675 144.199 C 190.570 145.570,191.853 147.719,192.525 148.975 C 197.768 158.771,198.508 158.816,203.917 149.662 C 204.383 148.872,205.122 147.622,205.557 146.884 C 206.496 145.293,207.179 144.244,209.108 141.426 C 209.899 140.271,210.547 139.203,210.547 139.053 C 210.547 138.902,210.961 138.230,211.469 137.558 C 211.976 136.887,213.053 135.216,213.862 133.845 C 214.671 132.474,215.507 131.073,215.720 130.733 C 215.933 130.392,216.483 129.431,216.942 128.598 C 217.401 127.764,218.049 126.857,218.380 126.581 C 218.712 126.306,218.984 125.864,218.984 125.599 C 218.984 125.334,219.249 124.898,219.573 124.629 C 220.084 124.205,221.481 121.974,223.597 118.207 C 225.376 115.038,229.593 108.769,230.491 107.956 C 231.540 107.007,265.275 106.733,266.209 107.666 C 266.757 108.215,265.977 109.804,263.207 113.784 C 262.297 115.091,261.553 116.342,261.553 116.565 C 261.553 116.788,261.411 116.970,261.238 116.970 C 261.064 116.970,260.493 117.617,259.968 118.408 C 259.443 119.199,258.128 121.155,257.047 122.755 C 255.965 124.355,254.630 126.509,254.081 127.543 C 253.531 128.576,252.744 129.781,252.332 130.220 C 251.919 130.659,251.582 131.141,251.582 131.292 C 251.582 131.443,250.935 132.418,250.144 133.459 C 249.353 134.499,247.861 136.695,246.828 138.337 C 244.254 142.430,242.995 144.356,242.741 144.583 C 242.555 144.750,238.434 150.991,235.524 155.513 C 234.981 156.357,234.187 157.498,233.760 158.048 C 232.918 159.132,232.924 159.123,230.175 163.375 C 229.152 164.957,227.294 167.781,226.046 169.651 C 224.799 171.520,223.519 173.441,223.202 173.918 C 222.886 174.395,222.002 175.713,221.239 176.847 C 217.728 182.058,217.411 183.299,218.995 185.618 C 220.238 187.439,224.163 193.356,224.868 194.471 C 225.256 195.086,225.731 195.590,225.922 195.590 C 226.114 195.590,226.270 195.796,226.270 196.048 C 226.270 196.301,226.676 197.120,227.172 197.870 C 227.667 198.620,228.612 200.096,229.271 201.151 C 229.930 202.205,230.623 203.252,230.811 203.476 C 230.998 203.700,231.372 204.293,231.640 204.794 C 231.907 205.295,232.273 205.888,232.453 206.112 C 233.637 207.593,234.683 209.048,235.641 210.547 C 236.248 211.496,237.063 212.740,237.452 213.311 C 237.841 213.883,238.159 214.447,238.159 214.566 C 238.159 214.684,239.583 216.860,241.323 219.400 C 243.063 221.941,244.663 224.310,244.878 224.666 C 245.679 225.986,247.531 228.842,249.242 231.393 C 250.213 232.839,251.325 234.522,251.713 235.132 C 252.102 235.742,252.576 236.242,252.768 236.242 C 252.959 236.242,253.116 236.448,253.116 236.700 C 253.116 236.953,253.522 237.772,254.018 238.522 C 254.513 239.272,256.147 241.783,257.647 244.104 C 259.148 246.424,260.638 248.667,260.959 249.089 C 261.931 250.367,265.005 255.080,265.005 255.292 C 265.005 255.401,265.393 256.031,265.868 256.692 C 266.342 257.353,266.903 258.182,267.114 258.533 C 268.410 260.693,270.625 263.762,271.304 264.338 C 273.312 266.044,272.117 266.155,251.855 266.155 C 231.126 266.155,231.668 266.217,230.325 263.702 C 229.192 261.578,228.706 260.804,228.058 260.087 C 227.708 259.700,227.421 259.203,227.421 258.981 C 227.421 258.760,227.163 258.365,226.847 258.103 C 226.532 257.841,225.555 256.310,224.676 254.700 C 223.036 251.697,222.130 250.227,218.028 243.912 C 214.604 238.640,214.276 238.110,213.515 236.625 C 212.719 235.071,212.266 234.327,210.830 232.215 C 210.257 231.371,209.553 230.336,209.267 229.914 C 207.778 227.718,205.693 224.434,205.252 223.588 C 203.507 220.238,198.966 213.197,198.071 212.455 C 196.755 211.363,195.195 212.636,192.894 216.683 C 191.291 219.499,190.467 220.788,187.440 225.208 C 186.649 226.363,186.002 227.415,186.002 227.544 C 186.002 227.674,185.282 228.864,184.401 230.189 C 181.394 234.713,181.016 235.324,181.016 235.657 C 181.016 235.840,180.730 236.306,180.379 236.693 C 180.029 237.081,179.554 237.720,179.325 238.115 C 179.095 238.510,177.938 240.283,176.754 242.055 C 175.570 243.828,174.480 245.661,174.332 246.129 C 174.183 246.597,173.927 246.980,173.762 246.980 C 173.597 246.980,173.151 247.670,172.771 248.514 C 172.390 249.358,171.944 250.048,171.780 250.048 C 171.615 250.048,171.371 250.392,171.238 250.813 C 171.104 251.233,170.784 251.794,170.527 252.059 C 169.980 252.622,167.875 255.730,167.473 256.568 C 167.322 256.884,166.694 257.919,166.078 258.869 C 165.462 259.818,164.352 261.641,163.612 262.920 C 162.849 264.238,161.834 265.443,161.269 265.701 C 159.548 266.485,125.859 266.336,124.980 265.540 C 124.312 264.936,124.564 263.762,125.514 263.058 C 125.678 262.937,126.402 261.901,127.123 260.757 C 127.844 259.613,128.673 258.418,128.967 258.102 C 129.260 257.785,130.175 256.440,131.001 255.111 C 131.827 253.783,132.799 252.230,133.162 251.660 C 133.525 251.090,134.106 250.105,134.455 249.473 C 134.803 248.840,135.354 248.019,135.679 247.648 C 136.004 247.278,136.457 246.647,136.687 246.247 C 136.917 245.846,138.126 243.992,139.373 242.127 C 140.621 240.261,142.606 237.294,143.784 235.534 C 144.962 233.774,146.098 232.044,146.309 231.691 C 146.520 231.338,147.037 230.533,147.459 229.904 C 147.881 229.275,148.399 228.481,148.610 228.141 C 148.821 227.800,149.852 226.248,150.901 224.691 C 151.951 223.134,153.073 221.395,153.394 220.826 C 153.716 220.258,154.842 218.566,155.896 217.066 C 158.372 213.547,159.000 212.564,159.823 210.930 C 160.195 210.192,160.618 209.498,160.763 209.388 C 160.909 209.278,161.493 208.501,162.062 207.662 C 162.631 206.823,163.812 205.101,164.687 203.835 C 166.538 201.156,170.278 195.257,170.278 195.015 C 170.278 194.924,170.801 194.110,171.441 193.206 C 172.081 192.302,172.894 191.131,173.249 190.604 C 173.604 190.077,174.440 188.955,175.109 188.111 C 175.777 187.267,176.780 185.667,177.339 184.555 L 178.354 182.533 177.318 180.720 C 176.749 179.723,175.746 178.217,175.091 177.373 C 173.809 175.723,171.093 171.825,170.474 170.747 C 169.763 169.508,167.214 165.650,164.435 161.607 C 162.538 158.847,161.245 156.921,157.637 151.486 C 156.447 149.693,154.603 146.932,153.539 145.350 C 152.475 143.768,150.232 140.403,148.555 137.872 C 146.878 135.340,144.633 131.975,143.565 130.393 C 142.498 128.811,140.608 125.988,139.365 124.120 C 136.323 119.548,136.002 119.101,135.657 118.949 C 135.493 118.877,135.108 118.272,134.800 117.606 C 134.493 116.940,133.375 115.101,132.316 113.519 C 129.423 109.196,129.018 108.308,129.611 107.593 C 130.239 106.836,164.197 106.687,166.224 107.432 " stroke="none" fill="#747474" fill-rule="evenodd"></path></g></svg>