<?xml version="1.0" encoding="UTF-8"?>
<svg xmlns="http://www.w3.org/2000/svg" xmlns:xlink="http://www.w3.org/1999/xlink" width="50px" height="50px" viewBox="0 0 50 50" version="1.1">
<g id="surface1">
<path style=" stroke:none;fill-rule:evenodd;fill:rgb(2.352941%,2.352941%,2.352941%);fill-opacity:1;" d="M 6.230469 5.125 C 6.152344 5.175781 6.121094 43.332031 6.199219 43.414062 C 6.242188 43.457031 15.007812 43.496094 15.183594 43.453125 L 15.292969 43.425781 L 15.292969 41.632812 C 15.292969 40.046875 15.285156 39.839844 15.214844 39.8125 C 15.175781 39.796875 14.015625 39.785156 12.636719 39.785156 C 10.753906 39.785156 10.121094 39.769531 10.078125 39.726562 C 9.960938 39.609375 9.996094 8.886719 10.113281 8.769531 C 10.207031 8.675781 10.273438 8.671875 12.695312 8.671875 C 14.5625 8.671875 15.191406 8.660156 15.234375 8.613281 C 15.332031 8.515625 15.316406 5.144531 15.214844 5.105469 C 15.085938 5.058594 6.3125 5.074219 6.230469 5.125 M 34.117188 5.109375 C 34.023438 5.199219 34.082031 8.574219 34.175781 8.621094 C 34.238281 8.65625 35.125 8.671875 36.722656 8.671875 L 39.171875 8.671875 L 39.453125 8.953125 L 39.453125 24.195312 C 39.453125 38.472656 39.445312 39.589844 39.339844 39.746094 C 39.335938 39.753906 38.15625 39.769531 36.722656 39.785156 L 34.109375 39.808594 L 34.097656 41.59375 C 34.082031 43.320312 34.085938 43.378906 34.175781 43.425781 C 34.242188 43.460938 35.695312 43.472656 38.742188 43.464844 L 43.210938 43.453125 L 43.246094 43.332031 C 43.289062 43.183594 43.289062 5.441406 43.246094 5.246094 L 43.214844 5.101562 L 38.683594 5.089844 C 36.1875 5.082031 34.132812 5.089844 34.117188 5.109375 M 16.203125 14.5 C 16.128906 14.589844 16.179688 14.699219 16.539062 15.242188 C 16.671875 15.4375 16.8125 15.667969 16.851562 15.75 C 16.886719 15.835938 16.9375 15.910156 16.957031 15.917969 C 17 15.9375 17.039062 15.992188 17.421875 16.566406 C 17.574219 16.800781 17.8125 17.152344 17.945312 17.347656 C 18.078125 17.546875 18.359375 17.96875 18.570312 18.285156 C 18.777344 18.601562 19.058594 19.019531 19.191406 19.21875 C 19.324219 19.417969 19.554688 19.761719 19.703125 19.984375 C 20.15625 20.664062 20.316406 20.90625 20.554688 21.25 C 20.902344 21.757812 21.21875 22.238281 21.308594 22.394531 C 21.386719 22.527344 21.726562 23.015625 21.886719 23.222656 C 21.96875 23.328125 22.09375 23.515625 22.164062 23.640625 L 22.292969 23.867188 L 22.167969 24.121094 C 22.097656 24.257812 21.972656 24.457031 21.886719 24.5625 C 21.804688 24.667969 21.699219 24.808594 21.65625 24.875 C 21.613281 24.941406 21.511719 25.089844 21.429688 25.199219 C 21.351562 25.3125 21.285156 25.414062 21.285156 25.425781 C 21.285156 25.457031 20.816406 26.195312 20.585938 26.53125 C 20.476562 26.6875 20.328125 26.902344 20.257812 27.007812 C 20.1875 27.113281 20.113281 27.210938 20.09375 27.222656 C 20.078125 27.238281 20.023438 27.324219 19.976562 27.417969 C 19.875 27.621094 19.796875 27.742188 19.488281 28.183594 C 19.355469 28.371094 19.214844 28.582031 19.175781 28.652344 C 19.132812 28.726562 18.992188 28.941406 18.863281 29.136719 C 18.730469 29.332031 18.601562 29.527344 18.578125 29.566406 C 18.550781 29.609375 18.484375 29.710938 18.433594 29.789062 C 18.378906 29.867188 18.316406 29.96875 18.289062 30.011719 C 18.261719 30.054688 18.121094 30.273438 17.972656 30.492188 C 17.824219 30.710938 17.578125 31.082031 17.421875 31.316406 C 17.265625 31.550781 17.113281 31.78125 17.085938 31.832031 C 17.058594 31.882812 17 31.960938 16.960938 32.007812 C 16.917969 32.054688 16.851562 32.15625 16.808594 32.234375 C 16.761719 32.3125 16.691406 32.4375 16.644531 32.507812 C 16.601562 32.578125 16.476562 32.773438 16.375 32.9375 C 16.273438 33.105469 16.15625 33.273438 16.121094 33.3125 C 16.085938 33.351562 15.980469 33.503906 15.890625 33.644531 C 15.800781 33.789062 15.710938 33.917969 15.6875 33.933594 C 15.570312 34.019531 15.539062 34.167969 15.621094 34.242188 C 15.730469 34.34375 19.945312 34.359375 20.160156 34.261719 C 20.230469 34.230469 20.355469 34.082031 20.453125 33.914062 C 20.542969 33.753906 20.683594 33.527344 20.757812 33.410156 C 20.835938 33.289062 20.914062 33.160156 20.933594 33.121094 C 20.984375 33.015625 21.246094 32.628906 21.316406 32.558594 C 21.347656 32.523438 21.386719 32.453125 21.40625 32.402344 C 21.421875 32.347656 21.453125 32.304688 21.472656 32.304688 C 21.492188 32.304688 21.546875 32.21875 21.597656 32.113281 C 21.644531 32.007812 21.699219 31.921875 21.71875 31.921875 C 21.742188 31.921875 21.773438 31.875 21.792969 31.816406 C 21.808594 31.757812 21.945312 31.527344 22.09375 31.308594 C 22.242188 31.085938 22.386719 30.863281 22.414062 30.816406 C 22.445312 30.765625 22.503906 30.683594 22.546875 30.636719 C 22.589844 30.589844 22.628906 30.53125 22.628906 30.507812 C 22.628906 30.464844 22.675781 30.390625 23.050781 29.824219 C 23.160156 29.660156 23.25 29.507812 23.25 29.492188 C 23.25 29.476562 23.332031 29.347656 23.429688 29.203125 C 23.808594 28.648438 23.910156 28.488281 24.113281 28.136719 C 24.398438 27.628906 24.59375 27.472656 24.757812 27.605469 C 24.871094 27.699219 25.4375 28.582031 25.65625 29 C 25.710938 29.105469 25.972656 29.515625 26.160156 29.789062 C 26.195312 29.84375 26.28125 29.972656 26.355469 30.078125 C 26.535156 30.339844 26.589844 30.433594 26.6875 30.628906 C 26.785156 30.8125 26.824219 30.878906 27.253906 31.539062 C 27.765625 32.328125 27.878906 32.511719 28.085938 32.886719 C 28.195312 33.089844 28.316406 33.28125 28.355469 33.3125 C 28.394531 33.347656 28.425781 33.394531 28.425781 33.421875 C 28.425781 33.449219 28.464844 33.511719 28.507812 33.5625 C 28.589844 33.652344 28.648438 33.746094 28.789062 34.011719 C 28.957031 34.328125 28.890625 34.320312 31.480469 34.320312 C 34.015625 34.320312 34.164062 34.304688 33.914062 34.09375 C 33.828125 34.019531 33.550781 33.636719 33.390625 33.367188 C 33.363281 33.324219 33.292969 33.21875 33.234375 33.136719 C 33.175781 33.054688 33.125 32.976562 33.125 32.960938 C 33.125 32.933594 32.742188 32.347656 32.621094 32.1875 C 32.578125 32.132812 32.394531 31.851562 32.207031 31.5625 C 32.019531 31.273438 31.8125 30.960938 31.753906 30.867188 C 31.691406 30.773438 31.640625 30.667969 31.640625 30.636719 C 31.640625 30.605469 31.621094 30.582031 31.597656 30.582031 C 31.570312 30.582031 31.511719 30.519531 31.464844 30.441406 C 31.414062 30.367188 31.277344 30.15625 31.15625 29.972656 C 30.941406 29.65625 30.710938 29.296875 30.609375 29.132812 C 30.582031 29.089844 30.382812 28.792969 30.164062 28.476562 C 29.949219 28.15625 29.769531 27.886719 29.769531 27.871094 C 29.769531 27.855469 29.730469 27.785156 29.679688 27.714844 C 29.632812 27.644531 29.53125 27.488281 29.457031 27.367188 C 29.335938 27.179688 29.203125 27 29.054688 26.8125 C 29.035156 26.785156 28.988281 26.710938 28.953125 26.648438 C 28.921875 26.585938 28.875 26.511719 28.851562 26.484375 C 28.828125 26.457031 28.742188 26.324219 28.660156 26.195312 C 28.578125 26.0625 28.457031 25.878906 28.398438 25.785156 C 28.335938 25.691406 28.285156 25.589844 28.285156 25.554688 C 28.285156 25.523438 28.265625 25.5 28.242188 25.5 C 28.214844 25.5 28.15625 25.4375 28.109375 25.359375 C 28.019531 25.21875 27.53125 24.480469 27.375 24.253906 C 27.175781 23.960938 27.214844 23.808594 27.65625 23.15625 C 27.75 23.015625 27.859375 22.851562 27.898438 22.789062 C 27.941406 22.730469 28.101562 22.492188 28.253906 22.257812 C 28.410156 22.023438 28.644531 21.671875 28.773438 21.472656 C 29.117188 20.941406 29.113281 20.941406 29.21875 20.804688 C 29.273438 20.738281 29.371094 20.59375 29.441406 20.488281 C 29.804688 19.925781 30.320312 19.144531 30.34375 19.125 C 30.375 19.09375 30.53125 18.855469 30.851562 18.34375 C 30.984375 18.136719 31.167969 17.863281 31.269531 17.734375 C 31.367188 17.601562 31.449219 17.480469 31.449219 17.460938 C 31.449219 17.441406 31.488281 17.382812 31.542969 17.328125 C 31.59375 17.273438 31.691406 17.121094 31.761719 16.992188 C 31.828125 16.863281 31.996094 16.59375 32.132812 16.394531 C 32.265625 16.195312 32.429688 15.949219 32.496094 15.851562 C 32.5625 15.753906 32.632812 15.671875 32.65625 15.671875 C 32.675781 15.671875 32.695312 15.648438 32.695312 15.621094 C 32.695312 15.59375 32.789062 15.4375 32.902344 15.273438 C 33.246094 14.777344 33.34375 14.578125 33.277344 14.507812 C 33.160156 14.390625 28.941406 14.425781 28.8125 14.542969 C 28.699219 14.648438 28.171875 15.429688 27.949219 15.828125 C 27.683594 16.296875 27.511719 16.574219 27.445312 16.628906 C 27.40625 16.664062 27.371094 16.71875 27.371094 16.75 C 27.371094 16.785156 27.339844 16.839844 27.296875 16.871094 C 27.257812 16.90625 27.175781 17.019531 27.117188 17.125 C 27.058594 17.230469 26.992188 17.347656 26.964844 17.390625 C 26.9375 17.433594 26.832031 17.609375 26.734375 17.78125 C 26.632812 17.953125 26.496094 18.160156 26.433594 18.246094 C 26.371094 18.328125 26.320312 18.414062 26.320312 18.433594 C 26.320312 18.449219 26.238281 18.585938 26.136719 18.730469 C 25.898438 19.082031 25.8125 19.210938 25.695312 19.410156 C 25.640625 19.503906 25.546875 19.660156 25.488281 19.757812 C 24.8125 20.902344 24.722656 20.898438 24.066406 19.671875 C 23.980469 19.515625 23.820312 19.246094 23.710938 19.074219 C 23.394531 18.589844 23.328125 18.484375 23.261719 18.355469 C 23.226562 18.289062 23.09375 18.0625 22.964844 17.851562 C 22.832031 17.640625 22.691406 17.386719 22.648438 17.289062 C 22.605469 17.191406 22.550781 17.109375 22.527344 17.109375 C 22.507812 17.109375 22.476562 17.066406 22.460938 17.015625 C 22.441406 16.960938 22.398438 16.886719 22.363281 16.851562 C 22.289062 16.777344 22.257812 16.730469 21.839844 16 C 21.683594 15.726562 21.507812 15.4375 21.457031 15.355469 C 21.402344 15.273438 21.257812 15.054688 21.140625 14.871094 C 20.992188 14.636719 20.878906 14.515625 20.777344 14.480469 C 20.523438 14.386719 16.28125 14.40625 16.203125 14.5 "/>
<path style=" stroke:none;fill-rule:evenodd;fill:rgb(98.431373%,98.431373%,98.431373%);fill-opacity:1;" d="M 0 25.019531 L 0 48.988281 L 50 48.988281 L 50 1.050781 L 0 1.050781 L 0 25.019531 M 15.398438 4.976562 L 15.554688 5.117188 L 15.570312 6.738281 C 15.585938 8.519531 15.578125 8.628906 15.410156 8.796875 L 15.296875 8.914062 L 10.164062 8.914062 L 10.1875 39.617188 L 15.335938 39.664062 L 15.554688 39.882812 L 15.554688 43.4375 L 15.445312 43.527344 C 15.269531 43.667969 15.132812 43.671875 10.539062 43.660156 L 6.144531 43.644531 L 6.019531 43.527344 L 5.898438 43.410156 L 5.898438 5.136719 L 6.035156 4.988281 L 6.175781 4.835938 L 15.242188 4.835938 L 15.398438 4.976562 M 43.375 4.980469 L 43.527344 5.121094 L 43.527344 43.472656 L 43.398438 43.558594 C 43.195312 43.691406 34.183594 43.691406 34.050781 43.558594 C 33.9375 43.445312 33.894531 39.996094 34 39.785156 L 34.0625 39.664062 L 36.625 39.640625 L 39.191406 39.617188 L 39.214844 8.914062 L 36.683594 8.914062 C 34.570312 8.914062 34.136719 8.902344 34.058594 8.84375 C 33.914062 8.738281 33.914062 5.097656 34.054688 4.9375 L 34.148438 4.835938 L 43.21875 4.835938 L 43.375 4.980469 M 21.089844 14.386719 C 21.167969 14.472656 21.246094 14.601562 21.261719 14.671875 C 21.277344 14.742188 21.332031 14.835938 21.382812 14.882812 C 21.433594 14.929688 21.476562 14.988281 21.476562 15.011719 C 21.476562 15.039062 21.53125 15.121094 21.597656 15.199219 C 21.664062 15.28125 21.714844 15.375 21.714844 15.410156 C 21.714844 15.449219 21.738281 15.480469 21.761719 15.480469 C 21.789062 15.480469 21.859375 15.570312 21.917969 15.679688 C 22.050781 15.917969 22.164062 16.113281 22.316406 16.367188 C 22.382812 16.472656 22.464844 16.625 22.503906 16.707031 C 22.542969 16.789062 22.671875 17.003906 22.792969 17.1875 C 23.074219 17.613281 23.082031 17.621094 23.238281 17.875 C 23.3125 17.996094 23.398438 18.136719 23.429688 18.1875 C 23.464844 18.242188 23.523438 18.355469 23.566406 18.445312 C 23.605469 18.535156 23.660156 18.628906 23.683594 18.660156 C 23.78125 18.777344 23.980469 19.097656 24.019531 19.203125 C 24.042969 19.265625 24.082031 19.316406 24.109375 19.316406 C 24.132812 19.316406 24.167969 19.363281 24.1875 19.421875 C 24.203125 19.480469 24.3125 19.671875 24.429688 19.847656 C 24.546875 20.019531 24.640625 20.195312 24.640625 20.242188 C 24.640625 20.386719 24.898438 20.34375 24.964844 20.191406 C 24.996094 20.117188 25.085938 19.960938 25.164062 19.84375 C 25.242188 19.722656 25.34375 19.554688 25.386719 19.472656 C 25.429688 19.386719 25.484375 19.316406 25.503906 19.316406 C 25.527344 19.316406 25.558594 19.265625 25.578125 19.207031 C 25.597656 19.148438 25.640625 19.066406 25.679688 19.027344 C 25.78125 18.917969 25.96875 18.621094 26.234375 18.144531 C 26.460938 17.742188 26.519531 17.648438 26.726562 17.375 C 26.894531 17.152344 27.210938 16.644531 27.273438 16.5 C 27.308594 16.414062 27.355469 16.34375 27.375 16.34375 C 27.398438 16.34375 27.429688 16.292969 27.449219 16.238281 C 27.464844 16.179688 27.601562 15.949219 27.75 15.726562 C 27.898438 15.503906 28.046875 15.277344 28.078125 15.222656 C 28.109375 15.167969 28.164062 15.101562 28.199219 15.074219 C 28.230469 15.046875 28.324219 14.898438 28.402344 14.742188 C 28.484375 14.589844 28.59375 14.410156 28.652344 14.347656 L 28.757812 14.234375 L 31.074219 14.234375 C 33.582031 14.234375 33.609375 14.234375 33.601562 14.488281 C 33.601562 14.632812 33.214844 15.25 32.835938 15.71875 C 32.742188 15.839844 32.636719 16.003906 32.601562 16.089844 C 32.566406 16.175781 32.523438 16.246094 32.503906 16.246094 C 32.488281 16.246094 32.4375 16.316406 32.390625 16.402344 C 32.347656 16.488281 32.273438 16.613281 32.226562 16.679688 C 32.179688 16.75 32.09375 16.878906 32.039062 16.96875 C 31.980469 17.058594 31.914062 17.15625 31.886719 17.183594 C 31.863281 17.210938 31.816406 17.289062 31.78125 17.351562 C 31.75 17.417969 31.691406 17.488281 31.65625 17.507812 C 31.621094 17.527344 31.589844 17.570312 31.589844 17.597656 C 31.589844 17.628906 31.539062 17.722656 31.472656 17.808594 C 31.40625 17.894531 31.351562 17.984375 31.351562 18.011719 C 31.351562 18.035156 31.308594 18.09375 31.257812 18.140625 C 31.203125 18.1875 31.160156 18.25 31.160156 18.273438 C 31.160156 18.300781 31.105469 18.394531 31.039062 18.480469 C 30.972656 18.566406 30.921875 18.660156 30.921875 18.6875 C 30.921875 18.714844 30.890625 18.753906 30.855469 18.773438 C 30.820312 18.792969 30.753906 18.882812 30.710938 18.96875 C 30.667969 19.054688 30.609375 19.125 30.585938 19.125 C 30.558594 19.125 30.523438 19.175781 30.507812 19.242188 C 30.492188 19.308594 30.453125 19.378906 30.421875 19.398438 C 30.386719 19.417969 30.289062 19.5625 30.203125 19.722656 C 30.113281 19.878906 30.011719 20.027344 29.976562 20.046875 C 29.941406 20.070312 29.914062 20.113281 29.914062 20.144531 C 29.914062 20.175781 29.816406 20.324219 29.699219 20.476562 C 29.578125 20.628906 29.480469 20.765625 29.480469 20.785156 C 29.480469 20.800781 29.429688 20.886719 29.363281 20.972656 C 29.296875 21.058594 29.242188 21.140625 29.242188 21.15625 C 29.242188 21.195312 28.9375 21.640625 28.898438 21.65625 C 28.875 21.664062 28.859375 21.703125 28.859375 21.738281 C 28.859375 21.773438 28.808594 21.855469 28.75 21.921875 C 28.691406 21.988281 28.570312 22.164062 28.480469 22.308594 C 28.390625 22.457031 28.300781 22.574219 28.277344 22.574219 C 28.253906 22.574219 28.234375 22.59375 28.234375 22.617188 C 28.234375 22.640625 28.164062 22.773438 28.078125 22.917969 C 27.992188 23.058594 27.875 23.25 27.816406 23.34375 C 27.761719 23.433594 27.695312 23.53125 27.675781 23.558594 C 27.402344 23.890625 27.417969 23.941406 28.097656 24.933594 C 28.148438 25.003906 28.1875 25.085938 28.1875 25.109375 C 28.1875 25.132812 28.285156 25.273438 28.402344 25.417969 C 28.523438 25.566406 28.621094 25.699219 28.621094 25.714844 C 28.621094 25.730469 28.671875 25.816406 28.738281 25.902344 C 28.804688 25.988281 28.859375 26.082031 28.859375 26.105469 C 28.859375 26.132812 28.902344 26.195312 28.953125 26.242188 C 29.007812 26.289062 29.050781 26.347656 29.050781 26.367188 C 29.050781 26.410156 29.25 26.722656 29.347656 26.839844 C 29.382812 26.878906 29.441406 26.96875 29.480469 27.039062 C 29.550781 27.164062 29.894531 27.675781 29.976562 27.777344 C 30.085938 27.910156 30.34375 28.355469 30.34375 28.40625 C 30.34375 28.441406 30.371094 28.484375 30.40625 28.503906 C 30.472656 28.546875 30.492188 28.574219 30.992188 29.320312 C 31.191406 29.617188 31.351562 29.878906 31.351562 29.902344 C 31.351562 29.921875 31.394531 29.980469 31.445312 30.027344 C 31.5 30.074219 31.554688 30.160156 31.574219 30.210938 C 31.589844 30.265625 31.683594 30.414062 31.777344 30.539062 C 32.148438 31.027344 32.214844 31.125 32.214844 31.1875 C 32.214844 31.222656 32.234375 31.25 32.261719 31.25 C 32.289062 31.25 32.351562 31.332031 32.40625 31.429688 C 32.460938 31.53125 32.53125 31.65625 32.5625 31.707031 C 32.59375 31.761719 32.683594 31.910156 32.765625 32.042969 C 32.84375 32.175781 32.941406 32.316406 32.980469 32.359375 C 33.019531 32.398438 33.082031 32.476562 33.113281 32.527344 C 33.144531 32.578125 33.226562 32.695312 33.292969 32.785156 C 33.355469 32.878906 33.429688 33 33.457031 33.058594 C 33.480469 33.113281 33.527344 33.175781 33.554688 33.191406 C 33.582031 33.210938 33.640625 33.292969 33.679688 33.375 C 33.808594 33.644531 33.929688 33.84375 34.019531 33.945312 C 34.121094 34.054688 34.136719 34.382812 34.046875 34.472656 C 33.964844 34.554688 29.292969 34.589844 29.015625 34.511719 C 28.828125 34.460938 28.714844 34.324219 28.398438 33.769531 C 28.21875 33.453125 28.066406 33.21875 27.949219 33.082031 C 27.894531 33.019531 27.851562 32.9375 27.851562 32.902344 C 27.851562 32.863281 27.828125 32.832031 27.800781 32.832031 C 27.773438 32.832031 27.71875 32.761719 27.679688 32.679688 C 27.640625 32.59375 27.523438 32.382812 27.417969 32.210938 C 27.316406 32.039062 27.230469 31.871094 27.230469 31.839844 C 27.230469 31.804688 27.207031 31.777344 27.179688 31.777344 C 27.15625 31.777344 27.097656 31.707031 27.050781 31.617188 C 27.003906 31.527344 26.839844 31.269531 26.691406 31.046875 C 26.539062 30.824219 26.414062 30.621094 26.414062 30.59375 C 26.414062 30.570312 26.371094 30.507812 26.320312 30.460938 C 26.265625 30.414062 26.222656 30.347656 26.222656 30.316406 C 26.222656 30.285156 26.183594 30.207031 26.132812 30.144531 C 26.085938 30.082031 26.027344 29.976562 26.007812 29.910156 C 25.988281 29.84375 25.929688 29.75 25.882812 29.703125 C 25.832031 29.65625 25.789062 29.601562 25.789062 29.578125 C 25.789062 29.558594 25.738281 29.476562 25.671875 29.402344 C 25.605469 29.324219 25.550781 29.238281 25.550781 29.207031 C 25.550781 29.179688 25.515625 29.125 25.472656 29.089844 C 25.433594 29.054688 25.378906 28.984375 25.355469 28.929688 C 25.328125 28.875 25.246094 28.734375 25.167969 28.613281 C 25.089844 28.496094 24.992188 28.320312 24.949219 28.21875 C 24.90625 28.121094 24.855469 28.039062 24.835938 28.039062 C 24.816406 28.039062 24.773438 27.984375 24.746094 27.917969 C 24.671875 27.761719 24.523438 27.828125 24.421875 28.054688 C 24.382812 28.140625 24.289062 28.292969 24.210938 28.398438 C 24.132812 28.503906 24.035156 28.660156 23.996094 28.746094 C 23.957031 28.832031 23.902344 28.902344 23.875 28.902344 C 23.847656 28.902344 23.824219 28.925781 23.824219 28.957031 C 23.824219 28.984375 23.777344 29.074219 23.71875 29.15625 C 23.585938 29.34375 23.542969 29.40625 23.398438 29.675781 C 23.335938 29.789062 23.273438 29.894531 23.253906 29.910156 C 23.238281 29.921875 23.195312 29.992188 23.15625 30.0625 C 23.03125 30.277344 22.703125 30.746094 22.660156 30.765625 C 22.636719 30.773438 22.578125 30.871094 22.527344 30.980469 C 22.476562 31.089844 22.410156 31.222656 22.378906 31.277344 C 22.34375 31.328125 22.273438 31.445312 22.214844 31.539062 C 21.984375 31.921875 21.644531 32.433594 21.5625 32.511719 C 21.515625 32.558594 21.476562 32.625 21.476562 32.660156 C 21.476562 32.699219 21.441406 32.753906 21.402344 32.789062 C 21.359375 32.820312 21.296875 32.917969 21.257812 32.996094 C 21.21875 33.078125 21.132812 33.230469 21.070312 33.335938 C 21.003906 33.441406 20.910156 33.609375 20.855469 33.707031 C 20.800781 33.808594 20.734375 33.886719 20.707031 33.886719 C 20.683594 33.886719 20.660156 33.917969 20.660156 33.953125 C 20.660156 33.988281 20.617188 34.070312 20.566406 34.132812 C 20.511719 34.195312 20.417969 34.3125 20.351562 34.390625 L 20.238281 34.535156 L 15.476562 34.535156 L 15.382812 34.421875 C 15.230469 34.230469 15.269531 34.113281 15.601562 33.734375 C 15.644531 33.6875 15.675781 33.628906 15.675781 33.605469 C 15.675781 33.578125 15.726562 33.5 15.789062 33.425781 C 15.847656 33.351562 15.914062 33.257812 15.933594 33.21875 C 15.949219 33.175781 16.027344 33.046875 16.105469 32.929688 C 16.183594 32.8125 16.285156 32.648438 16.328125 32.570312 C 16.371094 32.492188 16.476562 32.339844 16.558594 32.234375 C 16.640625 32.128906 16.769531 31.945312 16.847656 31.828125 C 16.921875 31.707031 17.023438 31.554688 17.074219 31.480469 C 17.121094 31.410156 17.160156 31.332031 17.160156 31.3125 C 17.160156 31.289062 17.203125 31.226562 17.25 31.175781 C 17.300781 31.121094 17.367188 31.027344 17.402344 30.964844 C 17.433594 30.902344 17.480469 30.828125 17.503906 30.800781 C 17.582031 30.707031 18.144531 29.855469 18.210938 29.722656 C 18.25 29.65625 18.308594 29.582031 18.34375 29.558594 C 18.378906 29.539062 18.410156 29.492188 18.410156 29.457031 C 18.410156 29.417969 18.460938 29.324219 18.527344 29.246094 C 18.59375 29.167969 18.648438 29.089844 18.648438 29.066406 C 18.648438 29.046875 18.683594 28.992188 18.726562 28.941406 C 18.773438 28.894531 18.832031 28.8125 18.859375 28.761719 C 18.914062 28.671875 19.207031 28.222656 19.375 27.980469 C 19.421875 27.910156 19.464844 27.839844 19.464844 27.828125 C 19.464844 27.773438 19.820312 27.273438 19.855469 27.273438 C 19.878906 27.273438 19.894531 27.25 19.894531 27.21875 C 19.894531 27.1875 19.976562 27.042969 20.074219 26.902344 C 20.171875 26.757812 20.277344 26.601562 20.300781 26.558594 C 20.328125 26.519531 20.398438 26.421875 20.457031 26.347656 C 20.515625 26.273438 20.566406 26.191406 20.566406 26.164062 C 20.566406 26.140625 20.605469 26.058594 20.652344 25.988281 C 20.703125 25.917969 20.804688 25.761719 20.882812 25.644531 C 20.957031 25.523438 21.039062 25.414062 21.0625 25.398438 C 21.082031 25.382812 21.125 25.328125 21.15625 25.277344 C 21.1875 25.222656 21.257812 25.109375 21.308594 25.023438 C 21.363281 24.933594 21.441406 24.828125 21.488281 24.785156 C 21.535156 24.746094 21.574219 24.6875 21.574219 24.660156 C 21.574219 24.617188 21.800781 24.25 21.90625 24.125 C 22.042969 23.964844 22.015625 23.824219 21.792969 23.492188 C 21.671875 23.3125 21.574219 23.136719 21.574219 23.097656 C 21.574219 23.058594 21.527344 23.003906 21.476562 22.96875 C 21.421875 22.9375 21.378906 22.886719 21.378906 22.859375 C 21.378906 22.804688 21.359375 22.773438 20.980469 22.289062 C 20.867188 22.140625 20.722656 21.9375 20.660156 21.832031 C 20.59375 21.726562 20.519531 21.605469 20.492188 21.5625 C 20.46875 21.519531 20.398438 21.394531 20.335938 21.285156 C 20.277344 21.179688 20.207031 21.089844 20.183594 21.089844 C 20.15625 21.089844 20.121094 21.035156 20.105469 20.96875 C 20.089844 20.902344 20.058594 20.847656 20.039062 20.847656 C 20.015625 20.847656 19.957031 20.777344 19.902344 20.691406 C 19.847656 20.609375 19.742188 20.449219 19.667969 20.34375 C 19.59375 20.242188 19.457031 20.023438 19.367188 19.867188 C 19.277344 19.707031 19.1875 19.558594 19.164062 19.53125 C 19.144531 19.503906 19.078125 19.414062 19.019531 19.324219 C 18.960938 19.238281 18.796875 19.007812 18.660156 18.8125 C 18.523438 18.617188 18.410156 18.445312 18.410156 18.433594 C 18.410156 18.417969 18.339844 18.308594 18.253906 18.1875 C 18.078125 17.9375 18.039062 17.878906 17.75 17.441406 C 17.640625 17.273438 17.519531 17.101562 17.488281 17.0625 C 17.367188 16.925781 17.164062 16.605469 17.164062 16.554688 C 17.164062 16.523438 17.117188 16.460938 17.066406 16.414062 C 17.011719 16.367188 16.96875 16.300781 16.96875 16.265625 C 16.96875 16.230469 16.917969 16.144531 16.851562 16.074219 C 16.785156 16.003906 16.730469 15.917969 16.730469 15.878906 C 16.730469 15.84375 16.710938 15.816406 16.6875 15.816406 C 16.644531 15.816406 16.273438 15.28125 16.019531 14.851562 C 15.90625 14.660156 15.878906 14.304688 15.976562 14.265625 C 16.007812 14.253906 17.140625 14.238281 18.488281 14.238281 L 20.945312 14.234375 L 21.089844 14.386719 "/>
<path style=" stroke:none;fill-rule:evenodd;fill:rgb(48.627451%,48.627451%,48.627451%);fill-opacity:1;" d="M 8.515625 4.96875 C 9.707031 4.976562 11.671875 4.976562 12.878906 4.96875 C 14.089844 4.960938 13.113281 4.957031 10.714844 4.957031 C 8.316406 4.957031 7.328125 4.960938 8.515625 4.96875 M 36.464844 4.96875 C 37.65625 4.976562 39.621094 4.976562 40.828125 4.96875 C 42.035156 4.960938 41.0625 4.957031 38.664062 4.957031 C 36.261719 4.957031 35.273438 4.960938 36.464844 4.96875 M 6.117188 5.058594 C 5.992188 5.179688 6 43.386719 6.125 43.480469 C 6.199219 43.539062 6.203125 43.539062 6.148438 43.472656 C 6.101562 43.410156 6.089844 39.515625 6.101562 24.25 L 6.113281 5.105469 L 6.230469 5.042969 C 6.3125 5 6.328125 4.984375 6.269531 4.980469 C 6.226562 4.980469 6.15625 5.015625 6.117188 5.058594 M 15.171875 5.015625 C 15.226562 5.027344 15.296875 5.070312 15.328125 5.113281 C 15.363281 5.15625 15.386719 5.171875 15.386719 5.144531 C 15.386719 5.0625 15.277344 4.980469 15.175781 4.988281 C 15.078125 4.992188 15.078125 4.992188 15.171875 5.015625 M 43.246094 5.074219 L 43.359375 5.164062 L 43.371094 24.234375 C 43.382812 41.261719 43.378906 43.3125 43.3125 43.414062 C 43.226562 43.542969 43.246094 43.558594 43.355469 43.449219 C 43.425781 43.378906 43.433594 41.574219 43.433594 24.304688 L 43.433594 5.234375 L 43.332031 5.109375 C 43.277344 5.039062 43.210938 4.980469 43.183594 4.980469 C 43.15625 4.980469 43.183594 5.023438 43.246094 5.074219 M 15.398438 6.875 C 15.390625 8.304688 15.378906 8.570312 15.3125 8.660156 L 15.238281 8.769531 L 12.714844 8.78125 L 10.1875 8.792969 L 12.65625 8.804688 C 14.011719 8.8125 15.171875 8.808594 15.226562 8.792969 C 15.421875 8.746094 15.4375 8.59375 15.425781 6.851562 L 15.410156 5.195312 L 15.398438 6.875 M 34.125 8.78125 C 34.144531 8.800781 35.292969 8.8125 36.675781 8.804688 L 39.191406 8.792969 L 36.640625 8.769531 C 35.238281 8.753906 34.105469 8.761719 34.125 8.78125 M 10.097656 8.890625 C 10.082031 8.933594 10.074219 15.582031 10.078125 23.667969 L 10.089844 38.371094 L 10.113281 23.605469 C 10.140625 7.863281 10.140625 8.773438 10.097656 8.890625 M 39.332031 24.253906 C 39.332031 32.652344 39.339844 36.085938 39.34375 31.886719 C 39.351562 27.6875 39.351562 20.816406 39.34375 16.617188 C 39.339844 12.417969 39.332031 15.855469 39.332031 24.253906 M 17.316406 14.316406 C 17.945312 14.324219 18.96875 14.324219 19.59375 14.316406 C 20.222656 14.308594 19.707031 14.304688 18.457031 14.304688 C 17.203125 14.304688 16.691406 14.308594 17.316406 14.316406 M 30.046875 14.316406 C 30.636719 14.324219 31.585938 14.324219 32.15625 14.316406 C 32.730469 14.308594 32.25 14.304688 31.089844 14.304688 C 29.929688 14.304688 29.460938 14.308594 30.046875 14.316406 M 20.84375 14.378906 C 20.902344 14.402344 21.019531 14.53125 21.101562 14.664062 C 21.265625 14.929688 21.328125 14.984375 21.214844 14.765625 C 21.101562 14.546875 20.898438 14.328125 20.8125 14.332031 C 20.757812 14.335938 20.765625 14.347656 20.84375 14.378906 M 28.707031 14.460938 C 28.640625 14.535156 28.539062 14.679688 28.484375 14.785156 C 28.371094 14.988281 28.457031 14.898438 28.632812 14.617188 C 28.695312 14.527344 28.796875 14.421875 28.859375 14.390625 C 28.933594 14.355469 28.949219 14.332031 28.902344 14.332031 C 28.863281 14.328125 28.773438 14.390625 28.707031 14.460938 M 33.335938 14.40625 C 33.460938 14.527344 33.429688 14.617188 33.105469 15.109375 C 32.933594 15.367188 32.816406 15.566406 32.839844 15.550781 C 32.9375 15.492188 33.460938 14.640625 33.460938 14.546875 C 33.460938 14.441406 33.378906 14.328125 33.304688 14.328125 C 33.28125 14.328125 33.296875 14.363281 33.335938 14.40625 M 15.964844 14.554688 C 15.964844 14.582031 16.007812 14.65625 16.0625 14.71875 L 16.160156 14.832031 L 16.078125 14.6875 C 15.964844 14.5 15.964844 14.496094 15.964844 14.554688 M 16.195312 14.929688 C 16.222656 14.980469 16.277344 15.066406 16.320312 15.121094 L 16.398438 15.214844 L 16.351562 15.121094 C 16.328125 15.066406 16.269531 14.980469 16.226562 14.929688 L 16.148438 14.832031 L 16.195312 14.929688 M 21.394531 15.125 C 21.453125 15.21875 21.558594 15.382812 21.628906 15.496094 C 21.699219 15.605469 21.882812 15.910156 22.03125 16.175781 C 22.324219 16.683594 22.484375 16.914062 22.484375 16.832031 C 22.484375 16.804688 22.464844 16.769531 22.441406 16.753906 C 22.417969 16.738281 22.273438 16.507812 22.121094 16.234375 C 21.96875 15.964844 21.804688 15.691406 21.761719 15.625 C 21.71875 15.558594 21.601562 15.378906 21.503906 15.226562 C 21.40625 15.078125 21.320312 14.953125 21.308594 14.953125 C 21.296875 14.953125 21.335938 15.03125 21.394531 15.125 M 28.230469 15.179688 C 28.082031 15.359375 27.6875 16.007812 27.726562 16.007812 C 27.742188 16.007812 27.8125 15.90625 27.882812 15.78125 C 27.957031 15.652344 28.085938 15.449219 28.175781 15.324219 C 28.332031 15.097656 28.359375 15.023438 28.230469 15.179688 M 16.472656 15.378906 C 16.519531 15.460938 16.609375 15.589844 16.671875 15.660156 C 16.742188 15.746094 16.726562 15.703125 16.625 15.539062 C 16.542969 15.398438 16.453125 15.269531 16.425781 15.253906 C 16.402344 15.238281 16.421875 15.292969 16.472656 15.378906 M 32.636719 15.804688 C 32.597656 15.851562 32.460938 16.050781 32.335938 16.246094 C 31.902344 16.921875 31.859375 16.988281 31.816406 17.050781 C 31.792969 17.082031 31.785156 17.109375 31.800781 17.109375 C 31.8125 17.109375 31.90625 16.984375 32.003906 16.835938 C 32.101562 16.683594 32.304688 16.371094 32.457031 16.140625 C 32.734375 15.71875 32.773438 15.644531 32.636719 15.804688 M 16.921875 16.042969 C 16.984375 16.128906 17.042969 16.199219 17.054688 16.199219 C 17.089844 16.199219 16.96875 16.019531 16.890625 15.957031 C 16.839844 15.914062 16.851562 15.945312 16.921875 16.042969 M 27.601562 16.164062 C 27.421875 16.449219 27.316406 16.648438 27.382812 16.582031 C 27.460938 16.503906 27.726562 16.054688 27.691406 16.054688 C 27.679688 16.054688 27.640625 16.105469 27.601562 16.164062 M 17.488281 16.890625 C 17.613281 17.089844 17.730469 17.25 17.75 17.25 C 17.769531 17.253906 17.679688 17.09375 17.546875 16.894531 C 17.234375 16.429688 17.191406 16.429688 17.488281 16.890625 M 22.53125 16.984375 C 22.601562 17.074219 22.75 17.320312 23.273438 18.222656 C 23.421875 18.480469 23.554688 18.691406 23.566406 18.691406 C 23.59375 18.691406 23.390625 18.324219 23.148438 17.925781 C 23.074219 17.804688 22.929688 17.554688 22.820312 17.367188 C 22.714844 17.179688 22.589844 16.996094 22.542969 16.960938 C 22.464844 16.898438 22.464844 16.902344 22.53125 16.984375 M 26.800781 17.425781 C 26.746094 17.519531 26.722656 17.582031 26.75 17.566406 C 26.800781 17.53125 26.957031 17.253906 26.921875 17.253906 C 26.914062 17.253906 26.859375 17.332031 26.800781 17.425781 M 31.589844 17.398438 C 31.535156 17.476562 31.5 17.542969 31.511719 17.542969 C 31.527344 17.542969 31.582031 17.476562 31.640625 17.398438 C 31.695312 17.320312 31.730469 17.253906 31.71875 17.253906 C 31.703125 17.253906 31.648438 17.320312 31.589844 17.398438 M 17.867188 17.449219 C 17.914062 17.53125 17.984375 17.621094 18.019531 17.652344 C 18.058594 17.683594 18.027344 17.617188 17.953125 17.503906 C 17.800781 17.269531 17.738281 17.230469 17.867188 17.449219 M 26.410156 18.058594 C 26.273438 18.289062 26.128906 18.523438 26.089844 18.582031 C 26.050781 18.644531 26.03125 18.691406 26.042969 18.691406 C 26.058594 18.691406 26.199219 18.480469 26.355469 18.222656 C 26.703125 17.652344 26.714844 17.636719 26.683594 17.636719 C 26.671875 17.636719 26.550781 17.824219 26.410156 18.058594 M 18.117188 17.820312 C 18.144531 17.875 18.191406 17.933594 18.222656 17.953125 C 18.257812 17.976562 18.257812 17.957031 18.222656 17.886719 C 18.191406 17.832031 18.144531 17.773438 18.117188 17.753906 C 18.078125 17.730469 18.078125 17.75 18.117188 17.820312 M 31.066406 18.167969 C 30.929688 18.382812 30.785156 18.613281 30.738281 18.683594 C 30.695312 18.75 30.679688 18.792969 30.710938 18.773438 C 30.742188 18.757812 30.859375 18.589844 30.972656 18.402344 C 31.089844 18.21875 31.222656 18 31.273438 17.921875 C 31.320312 17.84375 31.351562 17.78125 31.335938 17.78125 C 31.324219 17.78125 31.203125 17.957031 31.066406 18.167969 M 18.375 18.191406 C 18.585938 18.511719 18.652344 18.582031 18.527344 18.347656 C 18.460938 18.226562 18.371094 18.097656 18.328125 18.0625 C 18.289062 18.027344 18.308594 18.085938 18.375 18.191406 M 18.675781 18.644531 C 18.757812 18.792969 19.476562 19.84375 19.492188 19.84375 C 19.519531 19.84375 19.421875 19.6875 19.039062 19.125 C 18.75 18.699219 18.578125 18.46875 18.675781 18.644531 M 30.578125 18.917969 C 30.429688 19.105469 30.234375 19.410156 30.265625 19.410156 C 30.273438 19.410156 30.371094 19.28125 30.480469 19.125 C 30.671875 18.84375 30.71875 18.746094 30.578125 18.917969 M 23.921875 19.265625 C 24.003906 19.414062 24.097656 19.550781 24.125 19.578125 C 24.195312 19.648438 23.917969 19.160156 23.835938 19.074219 C 23.800781 19.035156 23.835938 19.121094 23.921875 19.265625 M 25.757812 19.085938 C 25.664062 19.207031 25.628906 19.28125 25.6875 19.246094 C 25.746094 19.210938 25.859375 19.027344 25.824219 19.027344 C 25.8125 19.027344 25.78125 19.054688 25.757812 19.085938 M 25.410156 19.636719 C 25.304688 19.816406 25.171875 20.03125 25.117188 20.117188 C 25.058594 20.203125 25.027344 20.273438 25.042969 20.273438 C 25.070312 20.273438 25.296875 19.925781 25.519531 19.542969 C 25.59375 19.417969 25.640625 19.316406 25.628906 19.316406 C 25.613281 19.316406 25.515625 19.460938 25.410156 19.636719 M 30.167969 19.519531 C 30.074219 19.640625 30.042969 19.714844 30.097656 19.679688 C 30.15625 19.644531 30.269531 19.457031 30.234375 19.457031 C 30.222656 19.457031 30.191406 19.484375 30.167969 19.519531 M 24.167969 19.675781 C 24.335938 20.210938 24.847656 20.671875 24.976562 20.40625 C 25.023438 20.308594 25.023438 20.304688 24.960938 20.382812 C 24.851562 20.515625 24.695312 20.484375 24.59375 20.308594 C 24.441406 20.054688 24.152344 19.621094 24.167969 19.675781 M 19.539062 19.9375 C 19.605469 20.0625 19.851562 20.417969 19.871094 20.417969 C 19.902344 20.417969 19.714844 20.121094 19.601562 19.984375 C 19.546875 19.921875 19.519531 19.898438 19.539062 19.9375 M 19.972656 20.621094 C 20.097656 20.828125 20.289062 21.089844 20.332031 21.117188 C 20.355469 21.132812 20.289062 21.011719 20.175781 20.851562 C 20.066406 20.691406 19.96875 20.5625 19.957031 20.5625 C 19.945312 20.5625 19.953125 20.589844 19.972656 20.621094 M 29.355469 20.742188 C 29.214844 20.9375 29.171875 21.035156 29.289062 20.898438 C 29.394531 20.769531 29.496094 20.609375 29.46875 20.609375 C 29.460938 20.609375 29.410156 20.667969 29.355469 20.742188 M 29.113281 21.101562 C 29.019531 21.222656 28.988281 21.296875 29.042969 21.261719 C 29.101562 21.226562 29.214844 21.039062 29.179688 21.039062 C 29.167969 21.039062 29.136719 21.066406 29.113281 21.101562 M 20.410156 21.246094 C 20.433594 21.277344 20.640625 21.589844 20.871094 21.9375 C 21.101562 22.285156 21.308594 22.582031 21.332031 22.597656 C 21.355469 22.613281 21.160156 22.300781 20.894531 21.90625 C 20.632812 21.507812 20.40625 21.183594 20.390625 21.183594 C 20.375 21.183594 20.382812 21.210938 20.410156 21.246094 M 28.679688 21.773438 C 28.585938 21.894531 28.554688 21.96875 28.613281 21.933594 C 28.667969 21.898438 28.78125 21.710938 28.746094 21.710938 C 28.734375 21.710938 28.707031 21.738281 28.679688 21.773438 M 28.171875 22.539062 C 28.074219 22.675781 27.882812 22.964844 27.75 23.175781 C 27.613281 23.386719 27.464844 23.617188 27.414062 23.6875 C 27.367188 23.757812 27.328125 23.867188 27.332031 23.925781 C 27.335938 24.035156 27.335938 24.03125 27.367188 23.917969 C 27.382812 23.851562 27.433594 23.742188 27.476562 23.675781 C 27.851562 23.101562 28.316406 22.394531 28.347656 22.347656 C 28.453125 22.179688 28.324219 22.320312 28.171875 22.539062 M 21.425781 22.757812 C 21.449219 22.808594 21.507812 22.878906 21.554688 22.914062 C 21.605469 22.957031 21.59375 22.921875 21.523438 22.828125 C 21.398438 22.65625 21.351562 22.621094 21.425781 22.757812 M 21.621094 23.042969 C 21.621094 23.074219 21.640625 23.109375 21.664062 23.121094 C 21.683594 23.136719 21.796875 23.300781 21.90625 23.484375 C 22.140625 23.871094 22.140625 23.941406 21.890625 24.324219 C 21.804688 24.457031 21.695312 24.625 21.648438 24.695312 C 21.601562 24.769531 21.570312 24.828125 21.585938 24.828125 C 21.632812 24.828125 22.09375 24.082031 22.125 23.957031 C 22.160156 23.816406 22.085938 23.652344 21.824219 23.273438 C 21.613281 22.972656 21.621094 22.980469 21.621094 23.042969 M 27.402344 24.121094 C 27.433594 24.175781 27.574219 24.390625 28.109375 25.222656 C 28.207031 25.371094 28.308594 25.507812 28.335938 25.523438 C 28.359375 25.542969 28.296875 25.429688 28.195312 25.273438 C 28.09375 25.121094 27.875 24.785156 27.710938 24.527344 C 27.542969 24.269531 27.398438 24.0625 27.386719 24.0625 C 27.375 24.0625 27.382812 24.089844 27.402344 24.121094 M 21.277344 25.246094 C 21.207031 25.332031 20.90625 25.792969 20.832031 25.929688 C 20.742188 26.09375 20.898438 25.886719 21.128906 25.535156 C 21.371094 25.167969 21.414062 25.082031 21.277344 25.246094 M 20.726562 26.085938 C 20.5625 26.367188 20.550781 26.390625 20.636719 26.289062 C 20.734375 26.175781 20.816406 26.027344 20.785156 26.027344 C 20.773438 26.027344 20.746094 26.054688 20.726562 26.085938 M 28.851562 26.34375 C 28.957031 26.539062 29.0625 26.640625 28.980469 26.472656 C 28.941406 26.390625 28.882812 26.304688 28.855469 26.289062 C 28.816406 26.265625 28.816406 26.28125 28.851562 26.34375 M 29.472656 27.28125 C 29.707031 27.632812 30.023438 28.109375 30.175781 28.339844 C 30.324219 28.570312 30.460938 28.757812 30.472656 28.757812 C 30.496094 28.757812 30.480469 28.730469 30.230469 28.347656 C 29.558594 27.328125 29.125 26.691406 29.089844 26.667969 C 29.066406 26.652344 29.238281 26.929688 29.472656 27.28125 M 20.269531 26.78125 C 20.183594 26.878906 20.121094 26.984375 20.144531 26.984375 C 20.15625 26.984375 20.210938 26.921875 20.269531 26.839844 C 20.386719 26.683594 20.386719 26.644531 20.269531 26.78125 M 19.523438 27.90625 C 19.101562 28.546875 19.117188 28.519531 19.148438 28.519531 C 19.164062 28.519531 19.300781 28.332031 19.449219 28.101562 C 19.867188 27.46875 19.898438 27.417969 19.875 27.417969 C 19.859375 27.417969 19.703125 27.636719 19.523438 27.90625 M 24.542969 27.6875 C 24.503906 27.699219 24.449219 27.746094 24.421875 27.789062 C 24.394531 27.835938 24.320312 27.953125 24.261719 28.050781 C 24.203125 28.152344 24.164062 28.230469 24.175781 28.230469 C 24.191406 28.230469 24.265625 28.125 24.347656 27.996094 C 24.46875 27.796875 24.65625 27.652344 24.710938 27.710938 C 24.75 27.753906 25.160156 28.398438 25.289062 28.613281 C 25.496094 28.960938 25.824219 29.480469 25.863281 29.515625 C 25.914062 29.5625 25.769531 29.3125 25.527344 28.925781 C 25.410156 28.742188 25.277344 28.527344 25.234375 28.449219 C 25.054688 28.121094 24.71875 27.65625 24.671875 27.660156 C 24.640625 27.664062 24.582031 27.675781 24.542969 27.6875 M 23.902344 28.628906 C 23.78125 28.816406 23.644531 29.023438 23.601562 29.082031 C 23.5625 29.140625 23.535156 29.191406 23.550781 29.191406 C 23.574219 29.191406 23.898438 28.726562 24.0625 28.460938 C 24.253906 28.136719 24.128906 28.269531 23.902344 28.628906 M 30.855469 29.367188 C 31.230469 29.945312 31.410156 30.183594 31.207031 29.835938 C 31.019531 29.519531 30.574219 28.855469 30.527344 28.824219 C 30.503906 28.8125 30.652344 29.054688 30.855469 29.367188 M 18.308594 29.753906 C 17.8125 30.503906 17.824219 30.484375 17.851562 30.484375 C 17.863281 30.484375 18.054688 30.210938 18.277344 29.875 C 18.734375 29.179688 18.757812 29.140625 18.730469 29.140625 C 18.71875 29.140625 18.527344 29.417969 18.308594 29.753906 M 23.269531 29.609375 C 23.144531 29.8125 23.011719 30.03125 22.972656 30.089844 C 22.933594 30.148438 22.914062 30.195312 22.929688 30.195312 C 22.941406 30.195312 23.054688 30.03125 23.183594 29.824219 C 23.308594 29.621094 23.441406 29.40625 23.480469 29.347656 C 23.519531 29.285156 23.539062 29.238281 23.523438 29.238281 C 23.511719 29.238281 23.398438 29.40625 23.269531 29.609375 M 26.21875 30.078125 C 26.296875 30.210938 26.449219 30.472656 26.558594 30.664062 C 26.667969 30.855469 26.773438 31.023438 26.796875 31.035156 C 26.820312 31.050781 26.75 30.90625 26.636719 30.714844 C 26.523438 30.523438 26.390625 30.292969 26.339844 30.203125 C 26.289062 30.117188 26.207031 29.996094 26.160156 29.941406 C 26.113281 29.882812 26.140625 29.945312 26.21875 30.078125 M 31.335938 30.113281 C 31.453125 30.308594 31.589844 30.492188 31.589844 30.457031 C 31.589844 30.414062 31.347656 30.054688 31.320312 30.054688 C 31.308594 30.054688 31.316406 30.082031 31.335938 30.113281 M 17.75 30.59375 C 17.722656 30.625 17.675781 30.707031 17.644531 30.773438 C 17.578125 30.910156 17.699219 30.78125 17.789062 30.617188 C 17.84375 30.519531 17.820312 30.503906 17.75 30.59375 M 22.554688 30.738281 C 22.453125 30.882812 22.308594 31.109375 22.03125 31.5625 C 21.898438 31.773438 21.761719 32 21.71875 32.066406 C 21.679688 32.128906 21.667969 32.167969 21.695312 32.152344 C 21.722656 32.132812 21.839844 31.960938 21.953125 31.769531 C 22.175781 31.394531 22.441406 30.972656 22.585938 30.761719 C 22.636719 30.6875 22.667969 30.628906 22.65625 30.628906 C 22.640625 30.628906 22.597656 30.675781 22.554688 30.738281 M 32 31.097656 C 32.257812 31.492188 32.324219 31.585938 32.347656 31.585938 C 32.359375 31.585938 32.332031 31.527344 32.285156 31.457031 C 32.027344 31.058594 31.960938 30.964844 31.9375 30.964844 C 31.925781 30.964844 31.953125 31.023438 32 31.097656 M 26.878906 31.171875 C 26.898438 31.203125 27 31.359375 27.105469 31.519531 C 27.410156 31.984375 27.496094 32.121094 27.703125 32.484375 C 27.816406 32.675781 27.917969 32.832031 27.929688 32.832031 C 27.945312 32.832031 27.910156 32.757812 27.855469 32.664062 C 27.800781 32.574219 27.710938 32.417969 27.652344 32.320312 C 27.4375 31.941406 26.894531 31.109375 26.863281 31.109375 C 26.851562 31.109375 26.859375 31.136719 26.878906 31.171875 M 17.222656 31.40625 C 17.035156 31.683594 16.988281 31.78125 17.109375 31.636719 C 17.222656 31.5 17.40625 31.203125 17.378906 31.203125 C 17.367188 31.203125 17.300781 31.296875 17.222656 31.40625 M 32.402344 31.722656 C 32.429688 31.777344 32.480469 31.835938 32.507812 31.855469 C 32.546875 31.878906 32.542969 31.859375 32.507812 31.789062 C 32.476562 31.734375 32.429688 31.675781 32.402344 31.65625 C 32.363281 31.632812 32.363281 31.652344 32.402344 31.722656 M 16.867188 31.957031 C 16.800781 32.035156 16.535156 32.4375 16.082031 33.144531 C 15.980469 33.304688 15.878906 33.460938 15.851562 33.492188 C 15.828125 33.527344 15.820312 33.554688 15.835938 33.554688 C 15.851562 33.554688 15.964844 33.394531 16.089844 33.207031 C 16.214844 33.015625 16.460938 32.636719 16.640625 32.367188 C 16.957031 31.886719 17.011719 31.789062 16.867188 31.957031 M 21.519531 32.390625 C 21.371094 32.574219 21.171875 32.882812 21.203125 32.882812 C 21.214844 32.882812 21.3125 32.753906 21.421875 32.59375 C 21.613281 32.316406 21.660156 32.21875 21.519531 32.390625 M 32.988281 32.589844 C 33.097656 32.75 33.195312 32.882812 33.207031 32.882812 C 33.230469 32.882812 33.203125 32.835938 33.015625 32.558594 C 32.941406 32.449219 32.859375 32.34375 32.832031 32.328125 C 32.808594 32.3125 32.875 32.429688 32.988281 32.589844 M 28.054688 33.0625 C 28.167969 33.25 28.417969 33.585938 28.347656 33.457031 C 28.253906 33.285156 27.984375 32.882812 27.964844 32.882812 C 27.953125 32.882812 27.992188 32.964844 28.054688 33.0625 M 21.105469 32.988281 C 21.023438 33.101562 20.792969 33.53125 20.84375 33.480469 C 20.902344 33.425781 21.195312 32.929688 21.167969 32.929688 C 21.160156 32.929688 21.132812 32.957031 21.105469 32.988281 M 33.320312 33.097656 C 33.421875 33.265625 33.699219 33.695312 33.882812 33.964844 C 34.066406 34.242188 33.800781 33.765625 33.566406 33.410156 C 33.285156 32.972656 33.132812 32.78125 33.320312 33.097656 M 20.542969 33.914062 C 20.207031 34.449219 20.394531 34.414062 17.847656 34.414062 C 16.640625 34.414062 15.628906 34.398438 15.605469 34.378906 C 15.460938 34.273438 15.421875 34.175781 15.492188 34.09375 C 15.550781 34.015625 15.546875 34.015625 15.472656 34.074219 C 15.359375 34.160156 15.367188 34.207031 15.507812 34.347656 L 15.625 34.464844 L 17.832031 34.464844 C 20.308594 34.464844 20.214844 34.476562 20.457031 34.117188 C 20.664062 33.8125 20.816406 33.554688 20.789062 33.554688 C 20.777344 33.554688 20.667969 33.714844 20.542969 33.914062 M 28.480469 33.71875 C 28.535156 33.8125 28.589844 33.886719 28.601562 33.886719 C 28.636719 33.886719 28.480469 33.609375 28.429688 33.578125 C 28.402344 33.558594 28.425781 33.625 28.480469 33.71875 M 15.695312 33.734375 C 15.550781 33.925781 15.507812 34.027344 15.625 33.886719 C 15.734375 33.761719 15.835938 33.601562 15.804688 33.601562 C 15.796875 33.601562 15.746094 33.660156 15.695312 33.734375 M 28.71875 34.09375 C 28.941406 34.488281 28.757812 34.464844 31.492188 34.464844 C 34 34.464844 34.039062 34.460938 34.035156 34.273438 C 34.03125 34.230469 34.011719 34.242188 33.988281 34.308594 L 33.945312 34.414062 L 29.0625 34.414062 L 28.925781 34.277344 C 28.847656 34.203125 28.75 34.089844 28.703125 34.027344 C 28.652344 33.957031 28.660156 33.984375 28.71875 34.09375 M 10.085938 38.851562 C 10.085938 39.085938 10.09375 39.191406 10.101562 39.078125 C 10.113281 38.96875 10.113281 38.773438 10.101562 38.648438 C 10.09375 38.523438 10.085938 38.613281 10.085938 38.851562 M 10.070312 39.523438 C 10.0625 39.738281 10.050781 39.738281 12.675781 39.726562 L 15.171875 39.714844 L 12.65625 39.691406 L 10.144531 39.664062 L 10.109375 39.546875 C 10.082031 39.445312 10.074219 39.441406 10.070312 39.523438 M 39.246094 39.613281 C 39.21875 39.679688 38.921875 39.6875 36.679688 39.6875 C 34.320312 39.6875 34.140625 39.695312 34.082031 39.773438 C 34.027344 39.84375 34.027344 39.847656 34.085938 39.796875 C 34.136719 39.75 34.722656 39.738281 36.675781 39.738281 C 39.226562 39.738281 39.453125 39.722656 39.296875 39.566406 C 39.285156 39.550781 39.261719 39.574219 39.246094 39.613281 M 15.410156 41.679688 C 15.410156 42.628906 15.417969 43.023438 15.425781 42.554688 C 15.433594 42.089844 15.433594 41.3125 15.425781 40.832031 C 15.417969 40.347656 15.410156 40.730469 15.410156 41.679688 M 15.320312 43.464844 C 15.300781 43.484375 13.242188 43.511719 10.746094 43.523438 L 6.207031 43.550781 L 10.71875 43.558594 C 14.621094 43.570312 15.238281 43.5625 15.320312 43.5 C 15.371094 43.464844 15.398438 43.429688 15.382812 43.429688 C 15.367188 43.429688 15.339844 43.445312 15.320312 43.464844 M 34.078125 43.488281 C 34.140625 43.566406 34.410156 43.570312 38.679688 43.558594 L 43.214844 43.546875 L 38.691406 43.535156 C 35.167969 43.527344 34.148438 43.511719 34.089844 43.464844 C 34.019531 43.410156 34.019531 43.414062 34.078125 43.488281 "/>
<path style=" stroke:none;fill-rule:evenodd;fill:rgb(67.843139%,67.843139%,67.843139%);fill-opacity:1;" d="M 6.035156 4.988281 L 5.898438 5.136719 L 5.898438 43.410156 L 6.019531 43.527344 L 6.144531 43.644531 L 10.539062 43.660156 C 15.132812 43.671875 15.269531 43.667969 15.445312 43.527344 L 15.554688 43.4375 L 15.554688 39.882812 L 15.335938 39.664062 L 10.1875 39.617188 L 10.164062 8.914062 L 15.296875 8.914062 L 15.410156 8.796875 C 15.578125 8.628906 15.585938 8.519531 15.570312 6.738281 L 15.554688 5.117188 L 15.242188 4.835938 L 6.175781 4.835938 L 6.035156 4.988281 M 34.054688 4.9375 C 33.914062 5.097656 33.914062 8.738281 34.058594 8.84375 C 34.136719 8.902344 34.570312 8.914062 36.683594 8.914062 L 39.214844 8.914062 L 39.191406 39.617188 L 36.625 39.640625 L 34.0625 39.664062 L 34 39.785156 C 33.894531 39.996094 33.9375 43.445312 34.050781 43.558594 C 34.183594 43.691406 43.195312 43.691406 43.398438 43.558594 L 43.527344 43.472656 L 43.527344 5.121094 L 43.375 4.980469 L 43.21875 4.835938 L 34.148438 4.835938 L 34.054688 4.9375 M 15.328125 5.042969 C 15.414062 5.128906 15.488281 8.257812 15.414062 8.5625 C 15.347656 8.824219 15.449219 8.816406 12.707031 8.816406 C 10.460938 8.816406 10.171875 8.824219 10.144531 8.890625 C 10.109375 8.988281 10.105469 39.585938 10.140625 39.644531 C 10.15625 39.671875 11.140625 39.6875 12.628906 39.6875 C 15.304688 39.6875 15.359375 39.695312 15.40625 39.9375 C 15.492188 40.371094 15.4375 43.378906 15.339844 43.476562 C 15.207031 43.609375 6.335938 43.628906 6.148438 43.496094 L 6.039062 43.421875 L 6.039062 24.285156 C 6.042969 13.761719 6.058594 5.121094 6.082031 5.085938 C 6.167969 4.953125 6.546875 4.941406 10.820312 4.949219 C 14.992188 4.957031 15.246094 4.960938 15.328125 5.042969 M 43.316406 5.09375 L 43.433594 5.226562 L 43.429688 24.292969 C 43.429688 34.777344 43.414062 43.378906 43.394531 43.410156 C 43.289062 43.566406 43.175781 43.570312 38.652344 43.570312 C 35.214844 43.570312 34.136719 43.558594 34.09375 43.515625 C 34.011719 43.433594 34.011719 39.828125 34.09375 39.746094 C 34.136719 39.703125 34.777344 39.6875 36.679688 39.6875 C 39.132812 39.6875 39.210938 39.6875 39.261719 39.597656 C 39.335938 39.453125 39.328125 8.949219 39.253906 8.875 C 39.207031 8.832031 38.570312 8.816406 36.664062 8.816406 C 34.214844 8.816406 34.132812 8.8125 34.085938 8.722656 C 34.027344 8.617188 34.015625 5.132812 34.074219 5.046875 C 34.136719 4.949219 34.285156 4.945312 38.773438 4.953125 L 43.199219 4.957031 L 43.316406 5.09375 M 15.976562 14.265625 C 15.878906 14.304688 15.90625 14.660156 16.019531 14.851562 C 16.273438 15.28125 16.644531 15.816406 16.6875 15.816406 C 16.710938 15.816406 16.730469 15.84375 16.730469 15.878906 C 16.730469 15.917969 16.785156 16.003906 16.851562 16.074219 C 16.917969 16.144531 16.96875 16.230469 16.96875 16.265625 C 16.96875 16.300781 17.011719 16.367188 17.066406 16.414062 C 17.117188 16.460938 17.164062 16.523438 17.164062 16.554688 C 17.164062 16.605469 17.367188 16.925781 17.488281 17.0625 C 17.519531 17.101562 17.640625 17.273438 17.75 17.441406 C 18.039062 17.878906 18.078125 17.9375 18.253906 18.1875 C 18.339844 18.308594 18.410156 18.417969 18.410156 18.433594 C 18.410156 18.445312 18.523438 18.617188 18.660156 18.8125 C 18.796875 19.007812 18.960938 19.238281 19.019531 19.324219 C 19.078125 19.414062 19.144531 19.503906 19.164062 19.53125 C 19.1875 19.558594 19.277344 19.707031 19.367188 19.867188 C 19.457031 20.023438 19.59375 20.242188 19.667969 20.34375 C 19.742188 20.449219 19.847656 20.609375 19.902344 20.691406 C 19.957031 20.777344 20.015625 20.847656 20.039062 20.847656 C 20.058594 20.847656 20.089844 20.902344 20.105469 20.96875 C 20.121094 21.035156 20.15625 21.089844 20.183594 21.089844 C 20.207031 21.089844 20.277344 21.179688 20.335938 21.285156 C 20.398438 21.394531 20.46875 21.519531 20.492188 21.5625 C 20.519531 21.605469 20.59375 21.726562 20.660156 21.832031 C 20.722656 21.9375 20.867188 22.140625 20.980469 22.289062 C 21.359375 22.773438 21.378906 22.804688 21.378906 22.859375 C 21.378906 22.886719 21.421875 22.9375 21.476562 22.96875 C 21.527344 23.003906 21.574219 23.058594 21.574219 23.097656 C 21.574219 23.136719 21.671875 23.3125 21.792969 23.492188 C 22.015625 23.824219 22.042969 23.964844 21.90625 24.125 C 21.800781 24.25 21.574219 24.617188 21.574219 24.660156 C 21.574219 24.6875 21.535156 24.746094 21.488281 24.785156 C 21.441406 24.828125 21.363281 24.933594 21.308594 25.023438 C 21.257812 25.109375 21.1875 25.222656 21.15625 25.277344 C 21.125 25.328125 21.082031 25.382812 21.0625 25.398438 C 21.039062 25.414062 20.957031 25.523438 20.882812 25.644531 C 20.804688 25.761719 20.703125 25.917969 20.652344 25.988281 C 20.605469 26.058594 20.566406 26.140625 20.566406 26.164062 C 20.566406 26.191406 20.515625 26.273438 20.457031 26.347656 C 20.398438 26.421875 20.328125 26.519531 20.300781 26.558594 C 20.277344 26.601562 20.171875 26.757812 20.074219 26.902344 C 19.976562 27.042969 19.894531 27.1875 19.894531 27.21875 C 19.894531 27.25 19.878906 27.273438 19.855469 27.273438 C 19.820312 27.273438 19.464844 27.773438 19.464844 27.828125 C 19.464844 27.839844 19.421875 27.910156 19.375 27.980469 C 19.207031 28.222656 18.914062 28.671875 18.859375 28.761719 C 18.832031 28.8125 18.773438 28.894531 18.726562 28.941406 C 18.683594 28.992188 18.648438 29.046875 18.648438 29.066406 C 18.648438 29.089844 18.59375 29.167969 18.527344 29.246094 C 18.460938 29.324219 18.410156 29.417969 18.410156 29.457031 C 18.410156 29.492188 18.378906 29.539062 18.34375 29.558594 C 18.308594 29.582031 18.25 29.65625 18.210938 29.722656 C 18.144531 29.855469 17.582031 30.707031 17.503906 30.800781 C 17.480469 30.828125 17.433594 30.902344 17.402344 30.964844 C 17.367188 31.027344 17.300781 31.121094 17.25 31.175781 C 17.203125 31.226562 17.160156 31.289062 17.160156 31.3125 C 17.160156 31.332031 17.121094 31.410156 17.074219 31.480469 C 17.023438 31.554688 16.921875 31.707031 16.847656 31.828125 C 16.769531 31.945312 16.640625 32.128906 16.558594 32.234375 C 16.476562 32.339844 16.371094 32.492188 16.328125 32.570312 C 16.285156 32.648438 16.183594 32.8125 16.105469 32.929688 C 16.027344 33.046875 15.949219 33.175781 15.933594 33.21875 C 15.914062 33.257812 15.847656 33.351562 15.789062 33.425781 C 15.726562 33.5 15.675781 33.578125 15.675781 33.605469 C 15.675781 33.628906 15.644531 33.6875 15.601562 33.734375 C 15.269531 34.113281 15.230469 34.230469 15.382812 34.421875 L 15.476562 34.535156 L 20.238281 34.535156 L 20.351562 34.390625 C 20.417969 34.3125 20.511719 34.195312 20.566406 34.132812 C 20.617188 34.070312 20.660156 33.988281 20.660156 33.953125 C 20.660156 33.917969 20.683594 33.886719 20.707031 33.886719 C 20.734375 33.886719 20.800781 33.808594 20.855469 33.707031 C 20.910156 33.609375 21.003906 33.441406 21.070312 33.335938 C 21.132812 33.230469 21.21875 33.078125 21.257812 32.996094 C 21.296875 32.917969 21.359375 32.820312 21.402344 32.789062 C 21.441406 32.753906 21.476562 32.699219 21.476562 32.660156 C 21.476562 32.625 21.515625 32.558594 21.5625 32.511719 C 21.644531 32.433594 21.984375 31.921875 22.214844 31.539062 C 22.273438 31.445312 22.34375 31.328125 22.378906 31.277344 C 22.410156 31.222656 22.476562 31.089844 22.527344 30.980469 C 22.578125 30.871094 22.636719 30.773438 22.660156 30.765625 C 22.703125 30.746094 23.03125 30.277344 23.15625 30.0625 C 23.195312 29.992188 23.238281 29.921875 23.253906 29.910156 C 23.273438 29.894531 23.335938 29.789062 23.398438 29.675781 C 23.542969 29.40625 23.585938 29.34375 23.71875 29.15625 C 23.777344 29.074219 23.824219 28.984375 23.824219 28.957031 C 23.824219 28.925781 23.847656 28.902344 23.875 28.902344 C 23.902344 28.902344 23.957031 28.832031 23.996094 28.746094 C 24.035156 28.660156 24.132812 28.503906 24.210938 28.398438 C 24.289062 28.292969 24.382812 28.140625 24.421875 28.054688 C 24.523438 27.828125 24.671875 27.761719 24.746094 27.917969 C 24.773438 27.984375 24.816406 28.039062 24.835938 28.039062 C 24.855469 28.039062 24.90625 28.121094 24.949219 28.21875 C 24.992188 28.320312 25.089844 28.496094 25.167969 28.613281 C 25.246094 28.734375 25.328125 28.875 25.355469 28.929688 C 25.378906 28.984375 25.433594 29.054688 25.472656 29.089844 C 25.515625 29.125 25.550781 29.179688 25.550781 29.207031 C 25.550781 29.238281 25.605469 29.324219 25.671875 29.402344 C 25.738281 29.476562 25.789062 29.558594 25.789062 29.578125 C 25.789062 29.601562 25.832031 29.65625 25.882812 29.703125 C 25.929688 29.75 25.988281 29.84375 26.007812 29.910156 C 26.027344 29.976562 26.085938 30.082031 26.132812 30.144531 C 26.183594 30.207031 26.222656 30.285156 26.222656 30.316406 C 26.222656 30.347656 26.265625 30.414062 26.320312 30.460938 C 26.371094 30.507812 26.414062 30.570312 26.414062 30.59375 C 26.414062 30.621094 26.539062 30.824219 26.691406 31.046875 C 26.839844 31.269531 27.003906 31.527344 27.050781 31.617188 C 27.097656 31.707031 27.15625 31.777344 27.179688 31.777344 C 27.207031 31.777344 27.230469 31.804688 27.230469 31.839844 C 27.230469 31.871094 27.316406 32.039062 27.417969 32.210938 C 27.523438 32.382812 27.640625 32.59375 27.679688 32.679688 C 27.71875 32.761719 27.773438 32.832031 27.800781 32.832031 C 27.828125 32.832031 27.851562 32.863281 27.851562 32.902344 C 27.851562 32.9375 27.894531 33.019531 27.949219 33.082031 C 28.066406 33.21875 28.21875 33.453125 28.398438 33.769531 C 28.714844 34.324219 28.828125 34.460938 29.015625 34.511719 C 29.292969 34.589844 33.964844 34.554688 34.046875 34.472656 C 34.136719 34.382812 34.121094 34.054688 34.019531 33.945312 C 33.929688 33.84375 33.808594 33.644531 33.679688 33.375 C 33.640625 33.292969 33.582031 33.210938 33.554688 33.191406 C 33.527344 33.175781 33.480469 33.113281 33.457031 33.058594 C 33.429688 33 33.355469 32.878906 33.292969 32.785156 C 33.226562 32.695312 33.144531 32.578125 33.113281 32.527344 C 33.082031 32.476562 33.019531 32.398438 32.980469 32.359375 C 32.941406 32.316406 32.84375 32.175781 32.765625 32.042969 C 32.683594 31.910156 32.59375 31.761719 32.5625 31.707031 C 32.53125 31.65625 32.460938 31.53125 32.40625 31.429688 C 32.351562 31.332031 32.289062 31.25 32.261719 31.25 C 32.234375 31.25 32.214844 31.222656 32.214844 31.1875 C 32.214844 31.125 32.148438 31.027344 31.777344 30.539062 C 31.683594 30.414062 31.589844 30.265625 31.574219 30.210938 C 31.554688 30.160156 31.5 30.074219 31.445312 30.027344 C 31.394531 29.980469 31.351562 29.921875 31.351562 29.902344 C 31.351562 29.878906 31.191406 29.617188 30.992188 29.320312 C 30.492188 28.574219 30.472656 28.546875 30.40625 28.503906 C 30.371094 28.484375 30.34375 28.441406 30.34375 28.40625 C 30.34375 28.355469 30.085938 27.910156 29.976562 27.777344 C 29.894531 27.675781 29.550781 27.164062 29.480469 27.039062 C 29.441406 26.96875 29.382812 26.878906 29.347656 26.839844 C 29.25 26.722656 29.050781 26.410156 29.050781 26.367188 C 29.050781 26.347656 29.007812 26.289062 28.953125 26.242188 C 28.902344 26.195312 28.859375 26.132812 28.859375 26.105469 C 28.859375 26.082031 28.804688 25.988281 28.738281 25.902344 C 28.671875 25.816406 28.621094 25.730469 28.621094 25.714844 C 28.621094 25.699219 28.523438 25.566406 28.402344 25.417969 C 28.285156 25.273438 28.1875 25.132812 28.1875 25.109375 C 28.1875 25.085938 28.148438 25.003906 28.097656 24.933594 C 27.417969 23.941406 27.402344 23.890625 27.675781 23.558594 C 27.695312 23.53125 27.761719 23.433594 27.816406 23.34375 C 27.875 23.25 27.992188 23.058594 28.078125 22.917969 C 28.164062 22.773438 28.234375 22.640625 28.234375 22.617188 C 28.234375 22.59375 28.253906 22.574219 28.277344 22.574219 C 28.300781 22.574219 28.390625 22.457031 28.480469 22.308594 C 28.570312 22.164062 28.691406 21.988281 28.75 21.921875 C 28.808594 21.855469 28.859375 21.773438 28.859375 21.738281 C 28.859375 21.703125 28.875 21.664062 28.898438 21.65625 C 28.9375 21.640625 29.242188 21.195312 29.242188 21.15625 C 29.242188 21.140625 29.296875 21.058594 29.363281 20.972656 C 29.429688 20.886719 29.480469 20.800781 29.480469 20.785156 C 29.480469 20.765625 29.578125 20.628906 29.699219 20.476562 C 29.816406 20.324219 29.914062 20.175781 29.914062 20.144531 C 29.914062 20.113281 29.941406 20.070312 29.976562 20.046875 C 30.011719 20.027344 30.113281 19.878906 30.203125 19.722656 C 30.289062 19.5625 30.386719 19.417969 30.421875 19.398438 C 30.453125 19.378906 30.492188 19.308594 30.507812 19.242188 C 30.523438 19.175781 30.558594 19.125 30.585938 19.125 C 30.609375 19.125 30.667969 19.054688 30.710938 18.96875 C 30.753906 18.882812 30.820312 18.792969 30.855469 18.773438 C 30.890625 18.753906 30.921875 18.714844 30.921875 18.6875 C 30.921875 18.660156 30.972656 18.566406 31.039062 18.480469 C 31.105469 18.394531 31.160156 18.300781 31.160156 18.273438 C 31.160156 18.25 31.203125 18.1875 31.257812 18.140625 C 31.308594 18.09375 31.351562 18.035156 31.351562 18.011719 C 31.351562 17.984375 31.40625 17.894531 31.472656 17.808594 C 31.539062 17.722656 31.589844 17.628906 31.589844 17.597656 C 31.589844 17.570312 31.621094 17.527344 31.65625 17.507812 C 31.691406 17.488281 31.75 17.417969 31.78125 17.351562 C 31.816406 17.289062 31.863281 17.210938 31.886719 17.183594 C 31.914062 17.15625 31.980469 17.058594 32.039062 16.96875 C 32.09375 16.878906 32.179688 16.75 32.226562 16.679688 C 32.273438 16.613281 32.347656 16.488281 32.390625 16.402344 C 32.4375 16.316406 32.488281 16.246094 32.503906 16.246094 C 32.523438 16.246094 32.566406 16.175781 32.601562 16.089844 C 32.636719 16.003906 32.742188 15.839844 32.835938 15.71875 C 33.214844 15.25 33.601562 14.632812 33.601562 14.488281 C 33.609375 14.234375 33.582031 14.234375 31.074219 14.234375 L 28.757812 14.234375 L 28.652344 14.347656 C 28.59375 14.410156 28.484375 14.589844 28.402344 14.742188 C 28.324219 14.898438 28.230469 15.046875 28.199219 15.074219 C 28.164062 15.101562 28.109375 15.167969 28.078125 15.222656 C 28.046875 15.277344 27.898438 15.503906 27.75 15.726562 C 27.601562 15.949219 27.464844 16.179688 27.449219 16.238281 C 27.429688 16.292969 27.398438 16.34375 27.375 16.34375 C 27.355469 16.34375 27.308594 16.414062 27.273438 16.5 C 27.210938 16.644531 26.894531 17.152344 26.726562 17.375 C 26.519531 17.648438 26.460938 17.742188 26.234375 18.144531 C 25.96875 18.621094 25.78125 18.917969 25.679688 19.027344 C 25.640625 19.066406 25.597656 19.148438 25.578125 19.207031 C 25.558594 19.265625 25.527344 19.316406 25.503906 19.316406 C 25.484375 19.316406 25.429688 19.386719 25.386719 19.472656 C 25.34375 19.554688 25.242188 19.722656 25.164062 19.84375 C 25.085938 19.960938 24.996094 20.117188 24.964844 20.191406 C 24.898438 20.34375 24.640625 20.386719 24.640625 20.242188 C 24.640625 20.195312 24.546875 20.019531 24.429688 19.847656 C 24.3125 19.671875 24.203125 19.480469 24.1875 19.421875 C 24.167969 19.363281 24.132812 19.316406 24.109375 19.316406 C 24.082031 19.316406 24.042969 19.265625 24.019531 19.203125 C 23.980469 19.097656 23.78125 18.777344 23.683594 18.660156 C 23.660156 18.628906 23.605469 18.535156 23.566406 18.445312 C 23.523438 18.355469 23.464844 18.242188 23.429688 18.1875 C 23.398438 18.136719 23.3125 17.996094 23.238281 17.875 C 23.082031 17.621094 23.074219 17.613281 22.792969 17.1875 C 22.671875 17.003906 22.542969 16.789062 22.503906 16.707031 C 22.464844 16.625 22.382812 16.472656 22.316406 16.367188 C 22.164062 16.113281 22.050781 15.917969 21.917969 15.679688 C 21.859375 15.570312 21.789062 15.480469 21.761719 15.480469 C 21.738281 15.480469 21.714844 15.449219 21.714844 15.410156 C 21.714844 15.375 21.664062 15.28125 21.597656 15.199219 C 21.53125 15.121094 21.476562 15.039062 21.476562 15.011719 C 21.476562 14.988281 21.433594 14.929688 21.382812 14.882812 C 21.332031 14.835938 21.277344 14.742188 21.261719 14.671875 C 21.246094 14.601562 21.167969 14.472656 21.089844 14.386719 L 20.945312 14.234375 L 18.488281 14.238281 C 17.140625 14.238281 16.007812 14.253906 15.976562 14.265625 M 20.804688 14.324219 C 20.929688 14.359375 21.082031 14.546875 21.429688 15.101562 C 21.546875 15.289062 21.6875 15.511719 21.742188 15.59375 C 21.824219 15.714844 22.230469 16.410156 22.460938 16.820312 C 22.488281 16.867188 22.542969 16.945312 22.582031 16.992188 C 22.652344 17.074219 22.804688 17.332031 23.292969 18.175781 C 23.433594 18.417969 23.632812 18.75 23.734375 18.90625 C 23.839844 19.066406 24.09375 19.476562 24.296875 19.820312 C 24.78125 20.628906 24.804688 20.632812 25.167969 20.035156 C 25.3125 19.796875 25.546875 19.421875 25.691406 19.207031 C 25.832031 18.988281 26.101562 18.5625 26.285156 18.261719 C 26.46875 17.957031 26.773438 17.472656 26.964844 17.183594 C 27.15625 16.890625 27.457031 16.40625 27.640625 16.101562 C 27.824219 15.800781 28.039062 15.453125 28.125 15.335938 C 28.210938 15.21875 28.355469 14.988281 28.449219 14.832031 C 28.542969 14.671875 28.671875 14.488281 28.742188 14.421875 L 28.867188 14.304688 L 31.085938 14.304688 C 33.800781 14.304688 33.714844 14.273438 33.183594 15.058594 C 33.035156 15.28125 32.738281 15.722656 32.53125 16.035156 C 32.320312 16.351562 31.988281 16.851562 31.789062 17.148438 C 31.585938 17.445312 31.375 17.769531 31.3125 17.867188 C 31.152344 18.128906 30.855469 18.574219 29.765625 20.210938 C 29.222656 21.023438 28.5 22.109375 28.164062 22.621094 C 27.828125 23.136719 27.511719 23.617188 27.464844 23.6875 C 27.414062 23.757812 27.371094 23.859375 27.371094 23.914062 C 27.371094 24.011719 27.796875 24.695312 28.472656 25.6875 C 28.519531 25.753906 28.660156 25.972656 28.789062 26.171875 C 28.914062 26.367188 29.078125 26.617188 29.148438 26.722656 C 29.21875 26.828125 29.457031 27.183594 29.675781 27.511719 C 29.894531 27.84375 30.238281 28.355469 30.4375 28.652344 C 30.636719 28.953125 30.886719 29.328125 30.988281 29.492188 C 31.28125 29.953125 31.609375 30.457031 31.652344 30.507812 C 31.734375 30.605469 32.507812 31.796875 32.582031 31.9375 C 32.621094 32.015625 32.675781 32.105469 32.699219 32.132812 C 32.863281 32.339844 32.988281 32.511719 33.148438 32.761719 C 33.75 33.699219 33.867188 33.875 33.945312 33.996094 C 34.050781 34.144531 34.0625 34.320312 33.980469 34.40625 C 33.9375 34.449219 33.316406 34.464844 31.488281 34.464844 L 29.054688 34.464844 L 28.933594 34.355469 C 28.804688 34.242188 28.417969 33.65625 27.851562 32.714844 C 27.433594 32.019531 27.378906 31.933594 26.976562 31.324219 C 26.804688 31.058594 26.59375 30.726562 26.511719 30.582031 C 26.277344 30.175781 26.183594 30.023438 25.792969 29.421875 C 25.59375 29.113281 25.367188 28.75 25.289062 28.613281 C 25.15625 28.390625 24.75 27.753906 24.707031 27.707031 C 24.636719 27.628906 24.417969 27.871094 24.097656 28.382812 C 23.402344 29.488281 23.058594 30.027344 22.761719 30.484375 C 22.398438 31.050781 22.210938 31.34375 22.003906 31.683594 C 21.917969 31.828125 21.667969 32.214844 21.449219 32.546875 C 21.234375 32.875 20.898438 33.402344 20.710938 33.714844 C 20.207031 34.535156 20.484375 34.464844 17.84375 34.464844 L 15.625 34.464844 L 15.503906 34.34375 C 15.4375 34.277344 15.386719 34.207031 15.398438 34.1875 C 15.414062 34.148438 16.222656 32.917969 16.628906 32.3125 C 16.988281 31.777344 16.992188 31.773438 17.332031 31.25 C 17.492188 31 17.945312 30.3125 18.335938 29.71875 C 18.726562 29.125 19.253906 28.328125 19.503906 27.945312 C 19.753906 27.5625 20.03125 27.140625 20.121094 27.007812 C 20.207031 26.878906 20.402344 26.578125 20.554688 26.347656 C 20.964844 25.71875 21.222656 25.332031 21.640625 24.703125 C 22.164062 23.917969 22.164062 23.910156 21.902344 23.484375 C 21.660156 23.09375 21.59375 22.992188 21.429688 22.757812 C 21.320312 22.601562 20.550781 21.46875 20.105469 20.800781 C 20.007812 20.65625 19.59375 20.03125 19.183594 19.410156 C 18.386719 18.203125 18.402344 18.222656 18.03125 17.683594 C 17.734375 17.25 17.828125 17.386719 17.03125 16.199219 C 15.875 14.472656 15.824219 14.375 16.125 14.316406 C 16.300781 14.28125 20.679688 14.289062 20.804688 14.324219 "/>
<path style=" stroke:none;fill-rule:evenodd;fill:rgb(45.490196%,45.490196%,45.490196%);fill-opacity:1;" d="M 6.230469 5.042969 L 6.113281 5.105469 L 6.101562 24.25 C 6.089844 38.363281 6.101562 43.410156 6.140625 43.460938 C 6.21875 43.550781 15.183594 43.554688 15.308594 43.464844 C 15.425781 43.378906 15.410156 39.859375 15.292969 39.785156 C 15.25 39.757812 14.203125 39.738281 12.703125 39.738281 C 10.808594 39.738281 10.167969 39.722656 10.125 39.679688 C 10.023438 39.578125 10.042969 8.945312 10.140625 8.84375 C 10.210938 8.777344 10.511719 8.769531 12.726562 8.769531 L 15.238281 8.769531 L 15.3125 8.660156 C 15.421875 8.511719 15.425781 5.242188 15.320312 5.097656 C 15.234375 4.980469 6.460938 4.925781 6.230469 5.042969 M 34.203125 5.015625 C 34.152344 5.03125 34.09375 5.066406 34.074219 5.09375 C 34.019531 5.175781 34.027344 8.503906 34.082031 8.644531 L 34.128906 8.769531 L 36.640625 8.769531 C 38.730469 8.769531 39.164062 8.78125 39.242188 8.835938 C 39.359375 8.921875 39.414062 39.359375 39.296875 39.59375 L 39.234375 39.714844 L 36.699219 39.726562 C 34.925781 39.734375 34.144531 39.753906 34.101562 39.792969 C 34.011719 39.863281 34.003906 43.378906 34.09375 43.464844 C 34.136719 43.511719 35.226562 43.523438 38.695312 43.523438 L 43.238281 43.523438 L 43.3125 43.414062 C 43.378906 43.3125 43.382812 41.261719 43.371094 24.234375 L 43.359375 5.164062 L 43.246094 5.074219 C 43.136719 4.984375 34.546875 4.929688 34.203125 5.015625 M 15.214844 5.105469 C 15.316406 5.144531 15.332031 8.515625 15.234375 8.613281 C 15.191406 8.660156 14.5625 8.671875 12.695312 8.671875 C 10.273438 8.671875 10.207031 8.675781 10.113281 8.769531 C 9.996094 8.886719 9.960938 39.609375 10.078125 39.726562 C 10.121094 39.769531 10.753906 39.785156 12.636719 39.785156 C 14.015625 39.785156 15.175781 39.796875 15.214844 39.8125 C 15.285156 39.839844 15.292969 40.046875 15.292969 41.632812 L 15.292969 43.425781 L 15.183594 43.453125 C 15.007812 43.496094 6.242188 43.457031 6.199219 43.414062 C 6.121094 43.332031 6.152344 5.175781 6.230469 5.125 C 6.3125 5.074219 15.085938 5.058594 15.214844 5.105469 M 43.246094 5.246094 C 43.289062 5.441406 43.289062 43.183594 43.246094 43.332031 L 43.210938 43.453125 L 38.742188 43.464844 C 35.695312 43.472656 34.242188 43.460938 34.175781 43.425781 C 34.085938 43.378906 34.082031 43.320312 34.097656 41.59375 L 34.109375 39.808594 L 36.722656 39.785156 C 38.15625 39.769531 39.335938 39.753906 39.339844 39.746094 C 39.445312 39.589844 39.453125 38.472656 39.453125 24.195312 L 39.453125 8.953125 L 39.171875 8.671875 L 36.722656 8.671875 C 35.125 8.671875 34.238281 8.65625 34.175781 8.621094 C 34.082031 8.574219 34.023438 5.199219 34.117188 5.109375 C 34.132812 5.089844 36.1875 5.082031 38.683594 5.089844 L 43.214844 5.101562 L 43.246094 5.246094 M 16.09375 14.363281 C 15.945312 14.402344 16.003906 14.582031 16.328125 15.074219 C 16.5 15.335938 16.703125 15.648438 16.777344 15.765625 C 16.855469 15.886719 17.023438 16.132812 17.148438 16.320312 C 17.421875 16.710938 18.355469 18.082031 18.453125 18.230469 C 19.304688 19.53125 19.957031 20.515625 20.148438 20.800781 C 20.28125 21 20.640625 21.527344 20.941406 21.976562 C 22.410156 24.148438 22.332031 23.746094 21.53125 24.9375 C 20.703125 26.175781 20.066406 27.132812 20.015625 27.21875 C 19.964844 27.300781 19.09375 28.628906 18.113281 30.125 C 17.78125 30.625 17.238281 31.457031 16.898438 31.972656 C 16.5625 32.484375 16.09375 33.195312 15.859375 33.546875 C 15.417969 34.207031 15.40625 34.234375 15.605469 34.378906 C 15.707031 34.453125 20.03125 34.421875 20.179688 34.34375 C 20.269531 34.296875 20.4375 34.078125 20.667969 33.710938 C 20.855469 33.398438 21.132812 32.964844 21.28125 32.742188 C 21.53125 32.367188 22.199219 31.304688 22.378906 30.996094 C 22.421875 30.921875 22.503906 30.800781 22.554688 30.734375 C 22.609375 30.664062 22.878906 30.25 23.15625 29.808594 C 24.09375 28.3125 24.460938 27.726562 24.46875 27.71875 C 24.605469 27.519531 24.816406 27.738281 25.335938 28.613281 C 25.546875 28.976562 26.089844 29.835938 26.363281 30.246094 C 26.40625 30.3125 26.515625 30.496094 26.605469 30.652344 C 26.695312 30.8125 26.894531 31.132812 27.054688 31.371094 C 27.433594 31.9375 27.515625 32.070312 27.757812 32.5 C 27.871094 32.695312 28.097656 33.0625 28.261719 33.3125 C 28.421875 33.5625 28.628906 33.882812 28.714844 34.019531 C 28.984375 34.445312 28.785156 34.414062 31.519531 34.414062 L 33.941406 34.414062 L 33.988281 34.292969 C 34.039062 34.164062 34.027344 34.125 33.90625 33.988281 C 33.867188 33.945312 33.734375 33.75 33.609375 33.554688 C 33.484375 33.355469 33.089844 32.75 32.734375 32.210938 C 32.378906 31.671875 31.980469 31.066406 31.855469 30.867188 C 31.726562 30.671875 31.609375 30.496094 31.59375 30.484375 C 31.574219 30.472656 31.464844 30.308594 31.347656 30.125 C 31.230469 29.941406 30.835938 29.335938 30.46875 28.78125 C 30.105469 28.230469 29.574219 27.429688 29.296875 27.007812 C 29.015625 26.585938 28.734375 26.144531 28.667969 26.03125 C 28.601562 25.917969 28.472656 25.726562 28.378906 25.601562 C 28.285156 25.480469 28.15625 25.292969 28.085938 25.1875 C 27.210938 23.835938 27.25 23.925781 27.414062 23.6875 C 27.460938 23.617188 27.605469 23.394531 27.734375 23.199219 C 27.859375 23 28.015625 22.761719 28.078125 22.671875 C 28.144531 22.578125 28.378906 22.222656 28.605469 21.878906 C 28.832031 21.535156 29.375 20.71875 29.8125 20.066406 C 30.25 19.410156 30.773438 18.621094 30.972656 18.316406 C 31.171875 18.007812 31.429688 17.621094 31.546875 17.460938 C 31.664062 17.296875 31.84375 17.027344 31.945312 16.859375 C 32.128906 16.566406 32.257812 16.371094 33.042969 15.195312 C 33.664062 14.265625 33.800781 14.324219 31.054688 14.339844 L 28.851562 14.351562 L 28.730469 14.496094 C 28.585938 14.671875 28.113281 15.398438 27.761719 15.984375 C 27.617188 16.222656 27.363281 16.628906 27.191406 16.894531 C 26.832031 17.449219 26.789062 17.511719 26.316406 18.285156 C 26.121094 18.601562 25.898438 18.957031 25.8125 19.074219 C 25.730469 19.195312 25.589844 19.421875 25.496094 19.578125 C 24.839844 20.699219 24.792969 20.722656 24.425781 20.117188 C 24.292969 19.902344 24.175781 19.703125 24.167969 19.679688 C 24.15625 19.65625 24.039062 19.460938 23.90625 19.25 C 23.773438 19.035156 23.535156 18.644531 23.378906 18.378906 C 23.222656 18.117188 23.058594 17.847656 23.011719 17.78125 C 22.96875 17.714844 22.859375 17.53125 22.769531 17.375 C 22.679688 17.214844 22.542969 16.988281 22.457031 16.871094 C 22.375 16.75 22.179688 16.433594 22.023438 16.160156 C 21.402344 15.085938 20.988281 14.460938 20.851562 14.390625 C 20.738281 14.332031 16.308594 14.304688 16.09375 14.363281 M 20.777344 14.480469 C 20.878906 14.515625 20.992188 14.636719 21.140625 14.871094 C 21.257812 15.054688 21.402344 15.273438 21.457031 15.355469 C 21.507812 15.4375 21.683594 15.726562 21.839844 16 C 22.257812 16.730469 22.289062 16.777344 22.363281 16.851562 C 22.398438 16.886719 22.441406 16.960938 22.460938 17.015625 C 22.476562 17.066406 22.507812 17.109375 22.527344 17.109375 C 22.550781 17.109375 22.605469 17.191406 22.648438 17.289062 C 22.691406 17.386719 22.832031 17.640625 22.964844 17.851562 C 23.09375 18.0625 23.226562 18.289062 23.261719 18.355469 C 23.328125 18.484375 23.394531 18.589844 23.710938 19.074219 C 23.820312 19.246094 23.980469 19.515625 24.066406 19.671875 C 24.722656 20.898438 24.8125 20.902344 25.488281 19.757812 C 25.546875 19.660156 25.640625 19.503906 25.695312 19.410156 C 25.8125 19.210938 25.898438 19.082031 26.136719 18.730469 C 26.238281 18.585938 26.320312 18.449219 26.320312 18.433594 C 26.320312 18.414062 26.371094 18.328125 26.433594 18.246094 C 26.496094 18.160156 26.632812 17.953125 26.734375 17.78125 C 26.832031 17.609375 26.9375 17.433594 26.964844 17.390625 C 26.992188 17.347656 27.058594 17.230469 27.117188 17.125 C 27.175781 17.019531 27.257812 16.90625 27.296875 16.871094 C 27.339844 16.839844 27.371094 16.785156 27.371094 16.75 C 27.371094 16.71875 27.40625 16.664062 27.445312 16.628906 C 27.511719 16.574219 27.683594 16.296875 27.949219 15.828125 C 28.171875 15.429688 28.699219 14.648438 28.8125 14.542969 C 28.941406 14.425781 33.160156 14.390625 33.277344 14.507812 C 33.34375 14.578125 33.246094 14.777344 32.902344 15.273438 C 32.789062 15.4375 32.695312 15.59375 32.695312 15.621094 C 32.695312 15.648438 32.675781 15.671875 32.65625 15.671875 C 32.632812 15.671875 32.5625 15.753906 32.496094 15.851562 C 32.429688 15.949219 32.265625 16.195312 32.132812 16.394531 C 31.996094 16.59375 31.828125 16.863281 31.761719 16.992188 C 31.691406 17.121094 31.59375 17.273438 31.542969 17.328125 C 31.488281 17.382812 31.449219 17.441406 31.449219 17.460938 C 31.449219 17.480469 31.367188 17.601562 31.269531 17.734375 C 31.167969 17.863281 30.984375 18.136719 30.851562 18.34375 C 30.53125 18.855469 30.375 19.09375 30.34375 19.125 C 30.320312 19.144531 29.804688 19.925781 29.441406 20.488281 C 29.371094 20.59375 29.273438 20.738281 29.21875 20.804688 C 29.113281 20.941406 29.117188 20.941406 28.773438 21.472656 C 28.644531 21.671875 28.410156 22.023438 28.253906 22.257812 C 28.101562 22.492188 27.941406 22.730469 27.898438 22.789062 C 27.859375 22.851562 27.75 23.015625 27.65625 23.15625 C 27.214844 23.808594 27.175781 23.960938 27.375 24.253906 C 27.53125 24.480469 28.019531 25.21875 28.109375 25.359375 C 28.15625 25.4375 28.214844 25.5 28.242188 25.5 C 28.265625 25.5 28.285156 25.523438 28.285156 25.554688 C 28.285156 25.589844 28.335938 25.691406 28.398438 25.785156 C 28.457031 25.878906 28.578125 26.0625 28.660156 26.195312 C 28.742188 26.324219 28.828125 26.457031 28.851562 26.484375 C 28.875 26.511719 28.921875 26.585938 28.953125 26.648438 C 28.988281 26.710938 29.035156 26.785156 29.054688 26.8125 C 29.203125 27 29.335938 27.179688 29.457031 27.367188 C 29.53125 27.488281 29.632812 27.644531 29.679688 27.714844 C 29.730469 27.785156 29.769531 27.855469 29.769531 27.871094 C 29.769531 27.886719 29.949219 28.15625 30.164062 28.476562 C 30.382812 28.792969 30.582031 29.089844 30.609375 29.132812 C 30.710938 29.296875 30.941406 29.65625 31.15625 29.972656 C 31.277344 30.15625 31.414062 30.367188 31.464844 30.441406 C 31.511719 30.519531 31.570312 30.582031 31.597656 30.582031 C 31.621094 30.582031 31.640625 30.605469 31.640625 30.636719 C 31.640625 30.667969 31.691406 30.773438 31.753906 30.867188 C 31.8125 30.960938 32.019531 31.273438 32.207031 31.5625 C 32.394531 31.851562 32.578125 32.132812 32.621094 32.1875 C 32.742188 32.347656 33.125 32.933594 33.125 32.960938 C 33.125 32.976562 33.175781 33.054688 33.234375 33.136719 C 33.292969 33.21875 33.363281 33.324219 33.390625 33.367188 C 33.550781 33.636719 33.828125 34.019531 33.914062 34.09375 C 34.164062 34.304688 34.015625 34.320312 31.480469 34.320312 C 28.890625 34.320312 28.957031 34.328125 28.789062 34.011719 C 28.648438 33.746094 28.589844 33.652344 28.507812 33.5625 C 28.464844 33.511719 28.425781 33.449219 28.425781 33.421875 C 28.425781 33.394531 28.394531 33.347656 28.355469 33.3125 C 28.316406 33.28125 28.195312 33.089844 28.085938 32.886719 C 27.878906 32.511719 27.765625 32.328125 27.253906 31.539062 C 26.824219 30.878906 26.785156 30.8125 26.6875 30.628906 C 26.589844 30.433594 26.535156 30.339844 26.355469 30.078125 C 26.28125 29.972656 26.195312 29.84375 26.160156 29.789062 C 25.972656 29.515625 25.710938 29.105469 25.65625 29 C 25.4375 28.582031 24.871094 27.699219 24.757812 27.605469 C 24.59375 27.472656 24.398438 27.628906 24.113281 28.136719 C 23.910156 28.488281 23.808594 28.648438 23.429688 29.203125 C 23.332031 29.347656 23.25 29.476562 23.25 29.492188 C 23.25 29.507812 23.160156 29.660156 23.050781 29.824219 C 22.675781 30.390625 22.628906 30.464844 22.628906 30.507812 C 22.628906 30.53125 22.589844 30.589844 22.546875 30.636719 C 22.503906 30.683594 22.445312 30.765625 22.414062 30.816406 C 22.386719 30.863281 22.242188 31.085938 22.09375 31.308594 C 21.945312 31.527344 21.808594 31.757812 21.792969 31.816406 C 21.773438 31.875 21.742188 31.921875 21.71875 31.921875 C 21.699219 31.921875 21.644531 32.007812 21.597656 32.113281 C 21.546875 32.21875 21.492188 32.304688 21.472656 32.304688 C 21.453125 32.304688 21.421875 32.347656 21.40625 32.402344 C 21.386719 32.453125 21.347656 32.523438 21.316406 32.558594 C 21.246094 32.628906 20.984375 33.015625 20.933594 33.121094 C 20.914062 33.160156 20.835938 33.289062 20.757812 33.410156 C 20.683594 33.527344 20.542969 33.753906 20.453125 33.914062 C 20.355469 34.082031 20.230469 34.230469 20.160156 34.261719 C 19.945312 34.359375 15.730469 34.34375 15.621094 34.242188 C 15.539062 34.167969 15.570312 34.019531 15.6875 33.933594 C 15.710938 33.917969 15.800781 33.789062 15.890625 33.644531 C 15.980469 33.503906 16.085938 33.351562 16.121094 33.3125 C 16.15625 33.273438 16.273438 33.105469 16.375 32.9375 C 16.476562 32.773438 16.601562 32.578125 16.644531 32.507812 C 16.691406 32.4375 16.761719 32.3125 16.808594 32.234375 C 16.851562 32.15625 16.917969 32.054688 16.960938 32.007812 C 17 31.960938 17.058594 31.882812 17.085938 31.832031 C 17.113281 31.78125 17.265625 31.550781 17.421875 31.316406 C 17.578125 31.082031 17.824219 30.710938 17.972656 30.492188 C 18.121094 30.273438 18.261719 30.054688 18.289062 30.011719 C 18.316406 29.96875 18.378906 29.867188 18.433594 29.789062 C 18.484375 29.710938 18.550781 29.609375 18.578125 29.566406 C 18.601562 29.527344 18.730469 29.332031 18.863281 29.136719 C 18.992188 28.941406 19.132812 28.726562 19.175781 28.652344 C 19.214844 28.582031 19.355469 28.371094 19.488281 28.183594 C 19.796875 27.742188 19.875 27.621094 19.976562 27.417969 C 20.023438 27.324219 20.078125 27.238281 20.09375 27.222656 C 20.113281 27.210938 20.1875 27.113281 20.257812 27.007812 C 20.328125 26.902344 20.476562 26.6875 20.585938 26.53125 C 20.816406 26.195312 21.285156 25.457031 21.285156 25.425781 C 21.285156 25.414062 21.351562 25.3125 21.429688 25.199219 C 21.511719 25.089844 21.613281 24.941406 21.65625 24.875 C 21.699219 24.808594 21.804688 24.667969 21.886719 24.5625 C 21.972656 24.457031 22.097656 24.257812 22.167969 24.121094 L 22.292969 23.867188 L 22.164062 23.640625 C 22.09375 23.515625 21.96875 23.328125 21.886719 23.222656 C 21.726562 23.015625 21.386719 22.527344 21.308594 22.394531 C 21.21875 22.238281 20.902344 21.757812 20.554688 21.25 C 20.316406 20.90625 20.15625 20.664062 19.703125 19.984375 C 19.554688 19.761719 19.324219 19.417969 19.191406 19.21875 C 19.058594 19.019531 18.777344 18.601562 18.570312 18.285156 C 18.359375 17.96875 18.078125 17.546875 17.945312 17.347656 C 17.8125 17.152344 17.574219 16.800781 17.421875 16.566406 C 17.039062 15.992188 17 15.9375 16.957031 15.917969 C 16.9375 15.910156 16.886719 15.835938 16.851562 15.75 C 16.8125 15.667969 16.671875 15.4375 16.539062 15.242188 C 16.179688 14.699219 16.128906 14.589844 16.203125 14.5 C 16.28125 14.40625 20.523438 14.386719 20.777344 14.480469 "/>
</g>
</svg>
