<?xml version="1.0" encoding="UTF-8"?>
<svg xmlns="http://www.w3.org/2000/svg" xmlns:xlink="http://www.w3.org/1999/xlink" width="50px" height="50px" viewBox="0 0 50 50" version="1.1">
<g id="surface1">
<path style=" stroke:none;fill-rule:evenodd;fill:rgb(16.078432%,41.568628%,94.509804%);fill-opacity:1;" d="M 25.375 8.347656 C 25.242188 8.367188 24.953125 8.421875 24.734375 8.46875 C 24.519531 8.515625 24.171875 8.585938 23.964844 8.621094 C 23.757812 8.660156 23.410156 8.75 23.1875 8.824219 C 22.964844 8.898438 22.742188 8.957031 22.691406 8.957031 C 22.640625 8.957031 22.484375 9.011719 22.34375 9.082031 C 22.203125 9.152344 22.011719 9.234375 21.917969 9.261719 C 21.746094 9.316406 21.40625 9.46875 20.710938 9.808594 C 19.347656 10.472656 17.347656 12.191406 16.484375 13.433594 C 16.390625 13.570312 16.214844 13.824219 16.09375 13.992188 C 15.824219 14.375 15.238281 15.390625 15.15625 15.625 C 15.121094 15.722656 15.035156 15.917969 14.964844 16.0625 C 14.890625 16.203125 14.816406 16.382812 14.800781 16.453125 C 14.78125 16.527344 14.710938 16.714844 14.644531 16.871094 C 14.574219 17.03125 14.496094 17.28125 14.46875 17.433594 C 14.441406 17.582031 14.371094 17.835938 14.3125 17.992188 C 14.203125 18.285156 14.1875 18.371094 14.027344 19.574219 C 13.898438 20.523438 13.898438 21.703125 14.023438 22.589844 C 14.070312 22.941406 14.125 23.34375 14.140625 23.492188 C 14.160156 23.636719 14.226562 23.902344 14.292969 24.085938 C 14.359375 24.265625 14.425781 24.523438 14.445312 24.65625 C 14.460938 24.789062 14.542969 25.054688 14.621094 25.25 C 14.699219 25.441406 14.777344 25.652344 14.796875 25.710938 C 14.890625 26.039062 15.429688 27.152344 15.730469 27.636719 C 15.988281 28.050781 16.664062 29.042969 16.699219 29.0625 C 16.71875 29.070312 16.839844 29.195312 16.972656 29.339844 C 18.109375 30.597656 19.011719 31.359375 20.320312 32.152344 C 21.054688 32.601562 22.664062 33.246094 23.4375 33.40625 C 23.570312 33.433594 23.816406 33.503906 23.984375 33.5625 C 24.875 33.886719 28.382812 33.871094 29.53125 33.539062 C 29.769531 33.46875 30.046875 33.402344 30.144531 33.386719 C 30.242188 33.371094 30.554688 33.28125 30.835938 33.183594 C 31.121094 33.089844 31.375 33.011719 31.398438 33.011719 C 31.421875 33.011719 31.519531 32.964844 31.609375 32.910156 C 31.699219 32.851562 31.871094 32.769531 31.992188 32.726562 C 32.113281 32.679688 32.261719 32.609375 32.324219 32.566406 C 32.386719 32.523438 32.542969 32.441406 32.675781 32.382812 C 32.808594 32.324219 33.058594 32.1875 33.230469 32.074219 C 33.40625 31.964844 33.652344 31.820312 33.78125 31.753906 C 33.910156 31.691406 34.078125 31.585938 34.152344 31.519531 C 34.226562 31.457031 34.382812 31.335938 34.496094 31.253906 C 35.101562 30.800781 36.542969 29.445312 36.542969 29.328125 C 36.542969 29.304688 36.648438 29.175781 36.773438 29.039062 C 36.902344 28.90625 37.054688 28.714844 37.117188 28.613281 C 37.175781 28.511719 37.34375 28.25 37.488281 28.03125 C 37.632812 27.8125 37.792969 27.5625 37.839844 27.476562 C 37.886719 27.386719 37.988281 27.207031 38.066406 27.074219 C 38.140625 26.941406 38.21875 26.785156 38.234375 26.722656 C 38.253906 26.664062 38.324219 26.523438 38.390625 26.414062 C 38.457031 26.304688 38.535156 26.121094 38.5625 26.003906 C 38.589844 25.882812 38.652344 25.714844 38.699219 25.625 C 38.824219 25.375 39.140625 24.441406 39.191406 24.171875 C 39.214844 24.039062 39.296875 23.625 39.371094 23.25 L 39.511719 22.566406 L 39.511719 21.070312 C 39.511719 19.78125 39.5 19.53125 39.429688 19.246094 C 39.386719 19.066406 39.308594 18.648438 39.25 18.324219 C 39.1875 17.957031 39.097656 17.601562 39.011719 17.394531 C 38.9375 17.207031 38.875 17.039062 38.875 17.015625 C 38.875 16.996094 38.785156 16.761719 38.675781 16.496094 C 38.570312 16.230469 38.480469 15.992188 38.480469 15.964844 C 38.476562 15.894531 37.828125 14.648438 37.660156 14.386719 C 37.578125 14.265625 37.457031 14.089844 37.386719 13.992188 C 37.316406 13.894531 37.234375 13.765625 37.203125 13.707031 C 36.890625 13.101562 35.273438 11.4375 34.476562 10.902344 C 34.273438 10.761719 34.019531 10.585938 33.917969 10.507812 C 33.816406 10.429688 33.648438 10.324219 33.542969 10.273438 C 33.441406 10.222656 33.324219 10.152344 33.289062 10.117188 C 33.203125 10.046875 32.742188 9.789062 32.410156 9.632812 C 32.277344 9.570312 32.050781 9.464844 31.90625 9.394531 C 31.761719 9.320312 31.617188 9.265625 31.582031 9.265625 C 31.550781 9.265625 31.394531 9.195312 31.234375 9.109375 C 31.074219 9.027344 30.890625 8.957031 30.824219 8.957031 C 30.757812 8.957031 30.488281 8.890625 30.226562 8.808594 C 29.964844 8.726562 29.601562 8.636719 29.417969 8.605469 C 29.238281 8.578125 28.921875 8.515625 28.714844 8.46875 C 27.960938 8.300781 26.078125 8.230469 25.375 8.347656 M 25.105469 15.507812 C 25.300781 15.578125 25.535156 15.683594 25.625 15.742188 C 25.957031 15.949219 26.324219 16.160156 26.539062 16.265625 C 26.660156 16.324219 26.898438 16.453125 27.070312 16.550781 C 27.238281 16.652344 27.535156 16.816406 27.730469 16.917969 C 28.371094 17.261719 28.460938 17.308594 28.511719 17.351562 C 28.542969 17.375 28.710938 17.472656 28.894531 17.566406 C 29.074219 17.660156 29.390625 17.832031 29.59375 17.949219 C 29.800781 18.066406 30.066406 18.214844 30.1875 18.277344 C 30.308594 18.34375 30.558594 18.484375 30.738281 18.585938 C 31.101562 18.796875 31.523438 19.023438 31.863281 19.199219 C 32.9375 19.746094 33.175781 20.632812 32.460938 21.417969 C 32.339844 21.550781 31.65625 22.015625 31.585938 22.015625 C 31.5625 22.015625 31.433594 22.097656 31.300781 22.195312 C 31.164062 22.289062 31.039062 22.371094 31.019531 22.371094 C 30.984375 22.371094 30.5 22.648438 30.144531 22.875 C 30.023438 22.953125 29.777344 23.101562 29.59375 23.207031 C 29.414062 23.308594 29.167969 23.460938 29.046875 23.539062 C 28.925781 23.617188 28.777344 23.695312 28.722656 23.710938 C 28.664062 23.726562 28.527344 23.808594 28.421875 23.890625 C 28.3125 23.972656 28.199219 24.039062 28.171875 24.039062 C 28.140625 24.039062 28.011719 24.121094 27.878906 24.214844 C 27.75 24.3125 27.621094 24.390625 27.589844 24.390625 C 27.558594 24.390625 27.445312 24.460938 27.332031 24.546875 C 27.222656 24.628906 27.113281 24.699219 27.09375 24.699219 C 27.070312 24.699219 26.949219 24.773438 26.820312 24.859375 C 26.6875 24.945312 26.535156 25.035156 26.472656 25.058594 C 26.375 25.097656 26.261719 25.167969 25.703125 25.535156 C 25.027344 25.980469 24.265625 25.976562 23.800781 25.527344 C 23.421875 25.152344 23.445312 25.339844 23.390625 22.191406 C 23.367188 20.65625 23.332031 18.828125 23.316406 18.125 C 23.273438 16.421875 23.3125 16.136719 23.605469 15.808594 C 23.984375 15.386719 24.5 15.285156 25.105469 15.507812 M 17.128906 33.800781 C 16.15625 33.960938 14.933594 34.832031 14.480469 35.683594 C 14.421875 35.796875 14.335938 35.953125 14.289062 36.027344 C 13.660156 37.054688 13.929688 38.917969 14.863281 40 C 16.460938 41.851562 19.109375 41.789062 20.65625 39.863281 C 20.894531 39.566406 21.046875 39.332031 21.089844 39.191406 C 21.128906 39.070312 21.222656 38.832031 21.296875 38.664062 C 21.699219 37.753906 21.449219 36.28125 20.726562 35.265625 C 19.980469 34.21875 18.425781 33.585938 17.128906 33.800781 "/>
<path style=" stroke:none;fill-rule:evenodd;fill:rgb(98.039216%,98.039216%,98.039216%);fill-opacity:1;" d="M 0 25.007812 L 0 46.996094 L 50 46.996094 L 50 3.019531 L 0 3.019531 L 0 25.007812 M 28.824219 8.128906 C 29.042969 8.152344 29.304688 8.207031 29.40625 8.253906 C 29.507812 8.296875 29.8125 8.375 30.085938 8.429688 C 30.359375 8.480469 30.628906 8.550781 30.683594 8.585938 C 30.738281 8.625 30.949219 8.691406 31.148438 8.742188 C 31.34375 8.792969 31.578125 8.867188 31.664062 8.914062 C 31.746094 8.957031 32.074219 9.117188 32.386719 9.265625 C 33.230469 9.667969 33.582031 9.882812 34.832031 10.757812 C 35.324219 11.101562 36.523438 12.25 36.710938 12.558594 C 36.753906 12.632812 36.839844 12.730469 36.902344 12.78125 C 37.003906 12.859375 37.394531 13.386719 37.695312 13.855469 C 37.757812 13.953125 37.832031 14.058594 37.855469 14.085938 C 37.96875 14.210938 38.269531 14.746094 38.351562 14.957031 C 38.398438 15.085938 38.476562 15.226562 38.523438 15.269531 C 38.574219 15.3125 38.644531 15.460938 38.683594 15.59375 C 38.71875 15.730469 38.796875 15.917969 38.851562 16.015625 C 38.90625 16.113281 38.996094 16.328125 39.050781 16.496094 C 39.105469 16.664062 39.183594 16.863281 39.226562 16.933594 C 39.316406 17.085938 39.488281 17.75 39.488281 17.929688 C 39.488281 17.996094 39.519531 18.074219 39.554688 18.101562 C 39.652344 18.183594 39.75 18.707031 39.796875 19.394531 C 39.820312 19.742188 39.867188 20.136719 39.902344 20.273438 C 40.007812 20.667969 40.011719 22.007812 39.910156 22.371094 C 39.851562 22.582031 39.839844 22.71875 39.867188 22.898438 C 39.914062 23.25 39.925781 23.390625 39.964844 23.972656 C 39.992188 24.351562 40.023438 24.535156 40.078125 24.617188 C 40.25 24.882812 40.308594 25.617188 40.175781 25.824219 C 40.117188 25.910156 40.117188 25.929688 40.195312 25.996094 C 40.277344 26.070312 40.277344 26.277344 40.195312 26.394531 C 40.144531 26.460938 40.046875 27.105469 40.074219 27.175781 C 40.085938 27.207031 40.078125 27.410156 40.058594 27.628906 C 40.035156 27.84375 40 28.210938 39.976562 28.445312 C 39.953125 28.679688 39.90625 28.929688 39.867188 29.003906 C 39.828125 29.078125 39.796875 29.179688 39.796875 29.230469 C 39.796875 29.28125 39.761719 29.394531 39.714844 29.484375 C 39.667969 29.574219 39.617188 29.714844 39.601562 29.800781 C 39.582031 29.886719 39.542969 29.996094 39.515625 30.042969 C 39.484375 30.089844 39.445312 30.210938 39.425781 30.304688 C 39.386719 30.519531 39.292969 30.710938 39.15625 30.855469 C 39.023438 31 38.90625 31.28125 38.941406 31.386719 C 38.976562 31.496094 38.859375 31.710938 38.699219 31.832031 C 38.617188 31.890625 38.566406 31.96875 38.566406 32.03125 C 38.566406 32.15625 38.382812 32.53125 38.28125 32.617188 C 38.242188 32.648438 38.167969 32.757812 38.117188 32.855469 C 38.066406 32.953125 37.898438 33.171875 37.742188 33.339844 C 37.574219 33.527344 37.390625 33.789062 37.28125 34 C 37.085938 34.386719 36.792969 34.695312 36.457031 34.875 C 36.257812 34.980469 35.753906 35.46875 35.753906 35.558594 C 35.753906 35.628906 35.175781 36.199219 35.023438 36.277344 C 34.949219 36.316406 34.859375 36.378906 34.828125 36.417969 C 34.796875 36.460938 34.6875 36.53125 34.589844 36.582031 C 34.492188 36.632812 34.347656 36.726562 34.273438 36.789062 C 34.027344 36.996094 33.46875 37.320312 33.351562 37.320312 C 33.296875 37.320312 33.230469 37.351562 33.199219 37.390625 C 33.128906 37.476562 32.21875 37.9375 32.125 37.9375 C 32.085938 37.9375 31.917969 38.007812 31.75 38.089844 C 31.582031 38.175781 31.402344 38.246094 31.355469 38.246094 C 31.304688 38.246094 31.140625 38.308594 30.992188 38.382812 C 30.839844 38.460938 30.644531 38.539062 30.550781 38.558594 C 30.382812 38.597656 30.179688 38.648438 29.847656 38.730469 C 29.746094 38.757812 29.523438 38.796875 29.351562 38.816406 C 29.066406 38.851562 28.914062 38.882812 28.472656 39 C 28.378906 39.023438 28.050781 39.0625 27.75 39.082031 C 27.445312 39.105469 27.101562 39.132812 26.980469 39.148438 C 26.734375 39.183594 26.222656 39.105469 25.988281 39.007812 C 25.625 38.847656 25.394531 38.871094 25.175781 39.089844 C 25.070312 39.199219 24.96875 39.277344 24.957031 39.265625 C 24.945312 39.25 24.933594 39.273438 24.933594 39.316406 C 24.933594 39.4375 24.601562 39.414062 24.4375 39.273438 C 24.359375 39.207031 24.269531 39.171875 24.222656 39.183594 C 24.179688 39.195312 24.140625 39.1875 24.140625 39.164062 C 24.140625 39.144531 24.117188 39.136719 24.082031 39.148438 C 24.046875 39.164062 24.011719 39.136719 23.996094 39.078125 C 23.980469 39.019531 23.941406 38.988281 23.894531 38.996094 C 23.808594 39.007812 23.464844 38.921875 23.339844 38.855469 C 23.214844 38.792969 23.09375 38.808594 22.875 38.925781 C 22.621094 39.0625 22.546875 39.0625 22.492188 38.9375 C 22.453125 38.851562 22.414062 38.835938 22.175781 38.832031 C 21.863281 38.824219 21.84375 38.839844 21.828125 39.121094 C 21.820312 39.230469 21.785156 39.40625 21.75 39.511719 C 21.6875 39.683594 21.6875 39.710938 21.746094 39.769531 C 21.828125 39.851562 21.796875 39.976562 21.652344 40.148438 C 21.574219 40.242188 21.550781 40.320312 21.558594 40.460938 C 21.566406 40.609375 21.542969 40.679688 21.445312 40.792969 C 21.25 41.027344 21.28125 41.195312 21.515625 41.164062 C 21.847656 41.117188 22 41.679688 21.695312 41.816406 C 21.519531 41.898438 21.515625 42.054688 21.683594 42.226562 C 21.8125 42.359375 21.820312 42.382812 21.761719 42.453125 C 21.707031 42.519531 21.613281 42.789062 21.460938 43.324219 C 21.4375 43.394531 21.40625 43.550781 21.390625 43.667969 C 21.34375 44.011719 21.128906 44.390625 20.777344 44.757812 C 20.601562 44.941406 20.445312 45.136719 20.429688 45.1875 C 20.410156 45.238281 20.378906 45.28125 20.355469 45.28125 C 20.332031 45.28125 20.320312 45.296875 20.335938 45.320312 C 20.371094 45.375 20.230469 45.480469 20.046875 45.539062 C 19.960938 45.570312 19.851562 45.628906 19.808594 45.679688 C 19.765625 45.726562 19.636719 45.792969 19.519531 45.828125 C 19.40625 45.863281 19.265625 45.914062 19.210938 45.945312 C 19.152344 45.976562 19.007812 46.015625 18.886719 46.035156 C 18.765625 46.050781 18.578125 46.089844 18.46875 46.121094 C 18.191406 46.195312 17.128906 46.222656 16.910156 46.160156 C 16.8125 46.132812 16.648438 46.070312 16.542969 46.023438 C 16.441406 45.976562 16.316406 45.941406 16.269531 45.941406 C 16.21875 45.941406 16.042969 45.871094 15.875 45.785156 C 15.707031 45.703125 15.519531 45.632812 15.457031 45.632812 C 15.382812 45.632812 15.257812 45.542969 15.050781 45.34375 C 14.886719 45.1875 14.6875 44.996094 14.609375 44.921875 C 14.53125 44.847656 14.46875 44.757812 14.46875 44.722656 C 14.46875 44.6875 14.414062 44.574219 14.347656 44.476562 C 14.230469 44.300781 14.179688 44.191406 14.066406 43.863281 C 14.039062 43.785156 13.988281 43.65625 13.957031 43.574219 C 13.921875 43.496094 13.894531 43.382812 13.894531 43.328125 C 13.894531 43.273438 13.855469 43.191406 13.808594 43.148438 C 13.761719 43.105469 13.71875 43.035156 13.71875 42.992188 C 13.71875 42.953125 13.691406 42.863281 13.65625 42.792969 C 13.613281 42.703125 13.597656 42.554688 13.609375 42.3125 C 13.617188 42.082031 13.601562 41.921875 13.5625 41.84375 C 13.320312 41.367188 13.378906 41.074219 13.710938 41.140625 C 13.765625 41.152344 13.929688 41.058594 13.925781 41.015625 C 13.917969 40.675781 14.023438 40.519531 14.257812 40.546875 C 14.347656 40.558594 14.378906 40.542969 14.378906 40.492188 C 14.378906 40.378906 14.1875 39.859375 14.085938 39.691406 C 14.03125 39.609375 13.957031 39.402344 13.914062 39.234375 C 13.875 39.066406 13.8125 38.894531 13.78125 38.859375 C 13.566406 38.609375 13.566406 36.675781 13.78125 36.332031 C 13.8125 36.28125 13.882812 36.125 13.9375 35.980469 C 13.996094 35.835938 14.078125 35.675781 14.117188 35.628906 C 14.160156 35.578125 14.238281 35.453125 14.292969 35.34375 C 14.433594 35.0625 15.066406 34.332031 15.167969 34.332031 C 15.183594 34.332031 15.292969 34.238281 15.414062 34.128906 C 15.535156 34.015625 15.695312 33.898438 15.773438 33.863281 C 15.980469 33.777344 16.011719 33.449219 15.816406 33.449219 C 15.753906 33.449219 15.515625 33.265625 15.269531 33.027344 C 15.179688 32.9375 15.128906 32.84375 15.128906 32.769531 C 15.128906 32.707031 15.089844 32.5625 15.042969 32.449219 C 14.996094 32.335938 14.945312 32.171875 14.933594 32.082031 C 14.917969 31.996094 14.855469 31.878906 14.792969 31.820312 C 14.660156 31.695312 14.554688 31.511719 14.554688 31.398438 C 14.554688 31.355469 14.457031 31.117188 14.335938 30.871094 C 14.214844 30.621094 14.117188 30.382812 14.117188 30.34375 C 14.117188 30.265625 14.050781 30.035156 13.972656 29.84375 C 13.902344 29.675781 13.832031 29.339844 13.792969 29.007812 C 13.785156 28.949219 13.765625 28.851562 13.753906 28.789062 C 13.738281 28.730469 13.703125 28.5625 13.671875 28.414062 C 13.609375 28.117188 13.613281 28.128906 13.578125 28.042969 C 13.367188 27.519531 13.230469 27.03125 13.214844 26.757812 C 13.203125 26.582031 13.183594 26.320312 13.167969 26.179688 C 13.144531 25.96875 13.152344 25.914062 13.21875 25.867188 C 13.273438 25.828125 13.289062 25.777344 13.265625 25.679688 C 13.238281 25.53125 13.296875 25.511719 13.429688 25.617188 C 13.527344 25.699219 13.566406 25.65625 13.652344 25.386719 C 13.742188 25.097656 13.671875 24.863281 13.476562 24.785156 C 13.277344 24.710938 13.382812 24.039062 13.59375 24.039062 C 13.75 24.039062 13.761719 23.9375 13.648438 23.621094 L 13.539062 23.316406 L 13.5625 21.644531 C 13.589844 19.644531 13.628906 19.148438 13.800781 18.585938 C 13.871094 18.359375 13.949219 18.035156 13.976562 17.875 C 14 17.714844 14.054688 17.515625 14.09375 17.433594 C 14.136719 17.355469 14.214844 17.113281 14.277344 16.898438 C 14.335938 16.679688 14.417969 16.445312 14.464844 16.371094 C 14.507812 16.296875 14.578125 16.125 14.621094 15.992188 C 14.664062 15.859375 14.742188 15.683594 14.800781 15.597656 C 14.855469 15.511719 14.933594 15.34375 14.976562 15.222656 C 15.015625 15.101562 15.074219 14.972656 15.105469 14.9375 C 15.136719 14.902344 15.203125 14.785156 15.257812 14.679688 C 15.339844 14.511719 15.488281 14.28125 15.84375 13.757812 C 16.363281 12.984375 17.382812 11.835938 18.050781 11.265625 C 18.191406 11.144531 18.339844 11.015625 18.378906 10.980469 C 18.839844 10.550781 20.320312 9.585938 20.746094 9.4375 C 20.875 9.390625 21.035156 9.320312 21.097656 9.273438 C 21.164062 9.226562 21.332031 9.148438 21.472656 9.09375 C 21.613281 9.042969 21.773438 8.96875 21.828125 8.933594 C 21.886719 8.894531 22.117188 8.816406 22.339844 8.753906 C 22.566406 8.691406 22.792969 8.613281 22.84375 8.582031 C 22.894531 8.546875 23.132812 8.480469 23.375 8.429688 C 23.617188 8.378906 23.886719 8.3125 23.976562 8.277344 C 24.519531 8.0625 27.472656 7.96875 28.824219 8.128906 M 24.164062 15.777344 C 23.984375 15.828125 23.730469 16.144531 23.671875 16.386719 C 23.535156 16.949219 23.675781 24.636719 23.828125 24.964844 C 24.164062 25.695312 25.046875 25.734375 25.835938 25.046875 C 25.882812 25.003906 26.035156 24.921875 26.171875 24.863281 C 26.308594 24.804688 26.433594 24.730469 26.449219 24.703125 C 26.464844 24.675781 26.59375 24.59375 26.730469 24.523438 C 27.007812 24.375 27.433594 24.113281 27.515625 24.042969 C 27.542969 24.019531 27.683594 23.9375 27.824219 23.863281 C 27.964844 23.785156 28.207031 23.648438 28.363281 23.554688 C 28.519531 23.460938 28.730469 23.34375 28.824219 23.289062 C 28.921875 23.238281 29.0625 23.152344 29.132812 23.097656 C 29.207031 23.042969 29.382812 22.945312 29.523438 22.882812 C 29.667969 22.816406 29.804688 22.734375 29.832031 22.703125 C 29.859375 22.667969 29.984375 22.585938 30.113281 22.523438 C 30.238281 22.457031 30.355469 22.386719 30.367188 22.363281 C 30.382812 22.339844 30.503906 22.265625 30.644531 22.191406 C 30.78125 22.121094 31.03125 21.972656 31.199219 21.867188 C 31.371094 21.757812 31.617188 21.605469 31.75 21.53125 C 31.882812 21.453125 32.007812 21.367188 32.023438 21.335938 C 32.042969 21.304688 32.113281 21.257812 32.1875 21.226562 C 32.445312 21.121094 32.554688 20.503906 32.398438 20.0625 C 32.332031 19.878906 32.066406 19.675781 31.617188 19.464844 C 31.511719 19.417969 31.382812 19.339844 31.332031 19.296875 C 31.285156 19.25 30.996094 19.09375 30.695312 18.941406 C 30.390625 18.792969 30.117188 18.644531 30.078125 18.609375 C 30.015625 18.558594 29.824219 18.449219 29.203125 18.125 C 29.0625 18.054688 28.914062 17.964844 28.875 17.933594 C 28.835938 17.898438 28.589844 17.765625 28.332031 17.632812 C 28.070312 17.503906 27.800781 17.347656 27.726562 17.292969 C 27.652344 17.234375 27.460938 17.128906 27.304688 17.054688 C 27.152344 16.980469 26.953125 16.875 26.867188 16.824219 C 26.785156 16.773438 26.527344 16.632812 26.300781 16.511719 C 26.070312 16.390625 25.824219 16.246094 25.75 16.191406 C 25.675781 16.136719 25.527344 16.046875 25.417969 15.996094 C 25.308594 15.945312 25.152344 15.863281 25.066406 15.816406 C 24.898438 15.722656 24.417969 15.703125 24.164062 15.777344 M 13.28125 25.148438 C 13.28125 25.199219 13.300781 25.21875 13.328125 25.203125 C 13.359375 25.183594 13.371094 25.203125 13.359375 25.253906 C 13.347656 25.300781 13.316406 25.332031 13.289062 25.328125 C 13.261719 25.320312 13.238281 25.332031 13.238281 25.351562 C 13.238281 25.414062 13.109375 25.394531 13.085938 25.328125 C 13.070312 25.292969 13.042969 25.277344 13.015625 25.292969 C 12.992188 25.308594 12.972656 25.289062 12.972656 25.25 C 12.972656 25.210938 12.992188 25.191406 13.015625 25.207031 C 13.039062 25.21875 13.0625 25.195312 13.0625 25.152344 C 13.066406 25.082031 13.070312 25.082031 13.105469 25.160156 C 13.140625 25.25 13.140625 25.25 13.144531 25.15625 C 13.148438 25.042969 13.28125 25.035156 13.28125 25.148438 M 21.007812 40.292969 C 20.980469 40.433594 21.101562 40.425781 21.15625 40.277344 C 21.1875 40.199219 21.179688 40.179688 21.113281 40.179688 C 21.058594 40.179688 21.023438 40.21875 21.007812 40.292969 "/>
<path style=" stroke:none;fill-rule:evenodd;fill:rgb(67.058825%,75.686276%,89.803922%);fill-opacity:1;" d="M 25.484375 8.167969 C 24.835938 8.195312 24.65625 8.21875 24.121094 8.355469 C 23.78125 8.441406 23.425781 8.523438 23.328125 8.539062 C 23.230469 8.554688 23.039062 8.617188 22.902344 8.675781 C 22.765625 8.730469 22.558594 8.800781 22.441406 8.824219 C 22.199219 8.875 21.832031 9.035156 20.519531 9.660156 C 20.132812 9.84375 19.570312 10.203125 19.066406 10.585938 C 18.925781 10.695312 18.769531 10.8125 18.714844 10.847656 C 18.203125 11.199219 16.730469 12.679688 16.328125 13.25 C 15.851562 13.929688 15.648438 14.238281 15.371094 14.71875 C 14.960938 15.414062 14.546875 16.371094 14.335938 17.09375 C 14.269531 17.320312 14.183594 17.589844 14.148438 17.6875 C 14.113281 17.785156 14.070312 17.953125 14.050781 18.058594 C 14.035156 18.167969 13.960938 18.503906 13.890625 18.808594 C 13.683594 19.679688 13.609375 22.125 13.761719 22.984375 C 13.8125 23.273438 14.019531 24.199219 14.097656 24.480469 C 14.132812 24.613281 14.199219 24.898438 14.246094 25.109375 C 14.292969 25.324219 14.390625 25.621094 14.460938 25.769531 C 14.53125 25.917969 14.625 26.148438 14.667969 26.28125 C 14.710938 26.417969 14.769531 26.554688 14.800781 26.589844 C 14.828125 26.628906 14.867188 26.738281 14.882812 26.839844 C 14.902344 26.941406 14.980469 27.136719 15.066406 27.273438 C 15.148438 27.414062 15.214844 27.535156 15.214844 27.546875 C 15.214844 27.558594 15.285156 27.664062 15.367188 27.78125 C 15.449219 27.898438 15.570312 28.089844 15.628906 28.210938 C 15.691406 28.328125 15.765625 28.457031 15.796875 28.488281 C 15.96875 28.667969 16.226562 29.007812 16.226562 29.050781 C 16.226562 29.148438 16.570312 29.605469 16.769531 29.765625 C 16.878906 29.855469 17.03125 30.03125 17.109375 30.152344 C 17.1875 30.273438 17.269531 30.371094 17.285156 30.371094 C 17.304688 30.371094 17.472656 30.519531 17.660156 30.703125 C 17.84375 30.882812 18.148438 31.128906 18.332031 31.25 C 18.714844 31.5 18.71875 31.5 18.863281 31.695312 C 18.925781 31.773438 19.054688 31.875 19.152344 31.917969 C 19.332031 31.996094 19.453125 32.109375 19.582031 32.3125 C 19.632812 32.398438 19.734375 32.457031 19.9375 32.523438 C 20.257812 32.625 20.542969 32.769531 20.761719 32.933594 C 20.910156 33.046875 21.160156 33.128906 21.65625 33.230469 C 22.125 33.324219 22.394531 33.421875 22.605469 33.566406 C 22.894531 33.765625 23.140625 33.832031 23.855469 33.914062 C 24.492188 33.984375 24.914062 34.0625 25.328125 34.1875 C 25.574219 34.257812 26.746094 34.28125 27 34.21875 C 27.144531 34.183594 28.496094 34.035156 29.175781 33.980469 C 30.496094 33.871094 30.914062 33.789062 31.265625 33.582031 C 31.421875 33.488281 31.75 33.339844 31.988281 33.246094 C 32.339844 33.113281 32.46875 33.039062 32.636719 32.871094 C 32.753906 32.757812 32.902344 32.648438 32.96875 32.632812 C 33.351562 32.550781 33.515625 32.464844 33.78125 32.21875 C 33.992188 32.023438 34.125 31.933594 34.335938 31.863281 C 34.5625 31.789062 34.632812 31.738281 34.734375 31.589844 C 34.804688 31.488281 34.910156 31.382812 34.964844 31.355469 C 35.023438 31.328125 35.140625 31.277344 35.230469 31.238281 C 35.335938 31.195312 35.441406 31.09375 35.535156 30.949219 C 35.613281 30.824219 35.691406 30.726562 35.707031 30.726562 C 35.808594 30.726562 36.753906 29.722656 36.785156 29.582031 C 36.828125 29.386719 36.871094 29.332031 37.082031 29.222656 C 37.214844 29.15625 37.28125 29.078125 37.378906 28.871094 C 37.449219 28.726562 37.566406 28.535156 37.640625 28.445312 C 37.945312 28.089844 38 28.011719 38.070312 27.820312 C 38.109375 27.714844 38.210938 27.519531 38.289062 27.394531 C 38.371094 27.265625 38.449219 27.128906 38.464844 27.085938 C 38.480469 27.042969 38.53125 26.960938 38.574219 26.898438 C 38.617188 26.839844 38.691406 26.632812 38.742188 26.445312 C 38.789062 26.257812 38.886719 25.976562 38.960938 25.824219 C 39.035156 25.671875 39.09375 25.519531 39.09375 25.488281 C 39.09375 25.460938 39.144531 25.332031 39.203125 25.207031 C 39.261719 25.078125 39.359375 24.722656 39.417969 24.410156 C 39.476562 24.097656 39.558594 23.753906 39.59375 23.644531 C 39.738281 23.226562 39.84375 20.933594 39.753906 20.238281 C 39.734375 20.066406 39.691406 19.644531 39.664062 19.292969 C 39.632812 18.851562 39.585938 18.566406 39.511719 18.347656 C 39.453125 18.175781 39.375 17.875 39.335938 17.675781 C 39.296875 17.472656 39.207031 17.1875 39.140625 17.035156 C 39.070312 16.886719 38.992188 16.675781 38.960938 16.566406 C 38.933594 16.457031 38.851562 16.253906 38.78125 16.117188 C 38.710938 15.976562 38.65625 15.835938 38.65625 15.804688 C 38.65625 15.773438 38.617188 15.679688 38.574219 15.59375 C 38.527344 15.511719 38.359375 15.1875 38.195312 14.871094 C 38.03125 14.558594 37.863281 14.261719 37.820312 14.210938 C 37.75 14.132812 37.554688 13.84375 37.3125 13.46875 C 37.160156 13.230469 36.878906 12.871094 36.84375 12.871094 C 36.824219 12.871094 36.761719 12.800781 36.703125 12.710938 C 36.53125 12.457031 35.859375 11.757812 35.449219 11.398438 C 34.988281 11 33.914062 10.1875 33.84375 10.1875 C 33.828125 10.1875 33.710938 10.121094 33.585938 10.042969 C 32.8125 9.550781 31.53125 8.929688 31.078125 8.828125 C 30.960938 8.800781 30.75 8.730469 30.609375 8.675781 C 30.464844 8.617188 30.207031 8.546875 30.03125 8.515625 C 29.855469 8.488281 29.511719 8.40625 29.269531 8.335938 C 28.617188 8.144531 27.355469 8.089844 25.484375 8.167969 M 27.96875 8.34375 C 28.175781 8.367188 28.511719 8.425781 28.714844 8.46875 C 28.921875 8.515625 29.238281 8.578125 29.417969 8.605469 C 29.601562 8.636719 29.964844 8.726562 30.226562 8.808594 C 30.488281 8.890625 30.757812 8.957031 30.824219 8.957031 C 30.890625 8.957031 31.074219 9.027344 31.234375 9.109375 C 31.394531 9.195312 31.550781 9.265625 31.582031 9.265625 C 31.617188 9.265625 31.761719 9.320312 31.90625 9.394531 C 32.050781 9.464844 32.277344 9.570312 32.410156 9.632812 C 32.742188 9.789062 33.203125 10.046875 33.289062 10.117188 C 33.324219 10.152344 33.441406 10.222656 33.542969 10.273438 C 33.648438 10.324219 33.816406 10.429688 33.917969 10.507812 C 34.019531 10.585938 34.273438 10.761719 34.476562 10.902344 C 35.273438 11.4375 36.890625 13.101562 37.203125 13.707031 C 37.234375 13.765625 37.316406 13.894531 37.386719 13.992188 C 37.457031 14.089844 37.578125 14.265625 37.660156 14.386719 C 37.828125 14.648438 38.476562 15.894531 38.480469 15.964844 C 38.480469 15.992188 38.570312 16.230469 38.675781 16.496094 C 38.785156 16.761719 38.875 16.996094 38.875 17.015625 C 38.875 17.039062 38.9375 17.207031 39.011719 17.394531 C 39.097656 17.601562 39.1875 17.957031 39.25 18.324219 C 39.308594 18.648438 39.386719 19.066406 39.429688 19.246094 C 39.5 19.53125 39.511719 19.78125 39.511719 21.070312 L 39.511719 22.566406 L 39.371094 23.25 C 39.296875 23.625 39.214844 24.039062 39.191406 24.171875 C 39.140625 24.441406 38.824219 25.375 38.699219 25.625 C 38.652344 25.714844 38.589844 25.882812 38.5625 26.003906 C 38.535156 26.121094 38.457031 26.304688 38.390625 26.414062 C 38.324219 26.523438 38.253906 26.664062 38.234375 26.722656 C 38.21875 26.785156 38.140625 26.941406 38.066406 27.074219 C 37.988281 27.207031 37.886719 27.386719 37.839844 27.476562 C 37.792969 27.5625 37.632812 27.8125 37.488281 28.03125 C 37.34375 28.25 37.175781 28.511719 37.117188 28.613281 C 37.054688 28.714844 36.902344 28.90625 36.773438 29.039062 C 36.648438 29.175781 36.542969 29.304688 36.542969 29.328125 C 36.542969 29.445312 35.101562 30.800781 34.496094 31.253906 C 34.382812 31.335938 34.226562 31.457031 34.152344 31.519531 C 34.078125 31.585938 33.910156 31.691406 33.78125 31.753906 C 33.652344 31.820312 33.40625 31.964844 33.230469 32.074219 C 33.058594 32.1875 32.808594 32.324219 32.675781 32.382812 C 32.542969 32.441406 32.386719 32.523438 32.324219 32.566406 C 32.261719 32.609375 32.113281 32.679688 31.992188 32.726562 C 31.871094 32.769531 31.699219 32.851562 31.609375 32.910156 C 31.519531 32.964844 31.421875 33.011719 31.398438 33.011719 C 31.375 33.011719 31.121094 33.089844 30.835938 33.183594 C 30.554688 33.28125 30.242188 33.371094 30.144531 33.386719 C 30.046875 33.402344 29.769531 33.46875 29.53125 33.539062 C 28.382812 33.871094 24.875 33.886719 23.984375 33.5625 C 23.816406 33.503906 23.570312 33.433594 23.4375 33.40625 C 22.664062 33.246094 21.054688 32.601562 20.320312 32.152344 C 19.011719 31.359375 18.109375 30.597656 16.972656 29.339844 C 16.839844 29.195312 16.71875 29.070312 16.699219 29.0625 C 16.664062 29.042969 15.988281 28.050781 15.730469 27.636719 C 15.429688 27.152344 14.890625 26.039062 14.796875 25.710938 C 14.777344 25.652344 14.699219 25.441406 14.621094 25.25 C 14.542969 25.054688 14.460938 24.789062 14.445312 24.65625 C 14.425781 24.523438 14.359375 24.265625 14.292969 24.085938 C 14.226562 23.902344 14.160156 23.636719 14.140625 23.492188 C 14.125 23.34375 14.070312 22.941406 14.023438 22.589844 C 13.898438 21.703125 13.898438 20.523438 14.027344 19.574219 C 14.1875 18.371094 14.203125 18.285156 14.3125 17.992188 C 14.371094 17.835938 14.441406 17.582031 14.46875 17.433594 C 14.496094 17.28125 14.574219 17.03125 14.644531 16.871094 C 14.710938 16.714844 14.78125 16.527344 14.800781 16.453125 C 14.816406 16.382812 14.890625 16.203125 14.964844 16.0625 C 15.035156 15.917969 15.121094 15.722656 15.15625 15.625 C 15.238281 15.390625 15.824219 14.375 16.09375 13.992188 C 16.214844 13.824219 16.390625 13.570312 16.484375 13.433594 C 17.347656 12.191406 19.347656 10.472656 20.710938 9.808594 C 21.40625 9.46875 21.746094 9.316406 21.917969 9.261719 C 22.011719 9.234375 22.203125 9.152344 22.34375 9.082031 C 22.484375 9.011719 22.640625 8.957031 22.691406 8.957031 C 22.742188 8.957031 22.964844 8.898438 23.1875 8.824219 C 23.410156 8.75 23.757812 8.660156 23.964844 8.621094 C 24.171875 8.585938 24.519531 8.515625 24.734375 8.46875 C 24.953125 8.421875 25.242188 8.367188 25.375 8.347656 C 25.714844 8.292969 27.523438 8.289062 27.96875 8.34375 M 24.03125 15.503906 C 23.34375 15.824219 23.265625 16.105469 23.316406 18.125 C 23.332031 18.828125 23.367188 20.65625 23.390625 22.191406 C 23.445312 25.339844 23.421875 25.152344 23.800781 25.527344 C 24.265625 25.976562 25.027344 25.980469 25.703125 25.535156 C 26.261719 25.167969 26.375 25.097656 26.472656 25.058594 C 26.535156 25.035156 26.6875 24.945312 26.820312 24.859375 C 26.949219 24.773438 27.070312 24.699219 27.09375 24.699219 C 27.113281 24.699219 27.222656 24.628906 27.332031 24.546875 C 27.445312 24.460938 27.558594 24.390625 27.589844 24.390625 C 27.621094 24.390625 27.75 24.3125 27.878906 24.214844 C 28.011719 24.121094 28.140625 24.039062 28.171875 24.039062 C 28.199219 24.039062 28.3125 23.972656 28.421875 23.890625 C 28.527344 23.808594 28.664062 23.726562 28.722656 23.710938 C 28.777344 23.695312 28.925781 23.617188 29.046875 23.539062 C 29.167969 23.460938 29.414062 23.308594 29.59375 23.207031 C 29.777344 23.101562 30.023438 22.953125 30.144531 22.875 C 30.5 22.648438 30.984375 22.371094 31.019531 22.371094 C 31.039062 22.371094 31.164062 22.289062 31.300781 22.195312 C 31.433594 22.097656 31.5625 22.015625 31.585938 22.015625 C 31.65625 22.015625 32.339844 21.550781 32.460938 21.417969 C 33.175781 20.632812 32.9375 19.746094 31.863281 19.199219 C 31.523438 19.023438 31.101562 18.796875 30.738281 18.585938 C 30.558594 18.484375 30.308594 18.34375 30.1875 18.277344 C 30.066406 18.214844 29.800781 18.066406 29.59375 17.949219 C 29.390625 17.832031 29.074219 17.660156 28.894531 17.566406 C 28.710938 17.472656 28.542969 17.375 28.511719 17.351562 C 28.460938 17.308594 28.371094 17.261719 27.730469 16.917969 C 27.535156 16.816406 27.238281 16.652344 27.070312 16.550781 C 26.898438 16.453125 26.660156 16.324219 26.539062 16.265625 C 26.324219 16.160156 25.957031 15.949219 25.625 15.742188 C 25.0625 15.390625 24.46875 15.300781 24.03125 15.503906 M 25.199219 15.773438 C 25.332031 15.847656 25.507812 15.9375 25.589844 15.976562 C 25.671875 16.011719 25.808594 16.101562 25.898438 16.167969 C 25.984375 16.234375 26.101562 16.304688 26.160156 16.324219 C 26.257812 16.351562 26.433594 16.449219 27.089844 16.835938 C 27.25 16.929688 27.398438 17.003906 27.421875 17.003906 C 27.445312 17.003906 27.542969 17.058594 27.640625 17.125 C 27.808594 17.238281 28.132812 17.414062 28.605469 17.652344 C 28.726562 17.714844 28.878906 17.800781 28.949219 17.847656 C 29.015625 17.894531 29.171875 17.988281 29.300781 18.054688 C 29.800781 18.320312 30.148438 18.507812 30.1875 18.542969 C 30.253906 18.59375 30.722656 18.851562 30.980469 18.976562 C 31.101562 19.03125 31.289062 19.136719 31.398438 19.203125 C 31.507812 19.269531 31.761719 19.417969 31.960938 19.535156 C 32.40625 19.792969 32.46875 19.867188 32.5625 20.253906 C 32.722656 20.902344 32.511719 21.210938 31.53125 21.78125 C 31.300781 21.917969 31.082031 22.054688 31.042969 22.089844 C 31.003906 22.125 30.871094 22.207031 30.75 22.273438 C 30.472656 22.421875 30.175781 22.597656 29.84375 22.816406 C 29.703125 22.910156 29.566406 22.984375 29.542969 22.984375 C 29.519531 22.984375 29.445312 23.023438 29.375 23.074219 C 29.242188 23.167969 28.824219 23.414062 28.472656 23.601562 C 28.199219 23.75 27.839844 23.96875 27.550781 24.160156 C 27.429688 24.238281 27.308594 24.304688 27.28125 24.304688 C 27.257812 24.304688 27.199219 24.34375 27.15625 24.390625 C 27.109375 24.441406 26.964844 24.53125 26.828125 24.59375 C 26.695312 24.660156 26.542969 24.746094 26.496094 24.789062 C 26.445312 24.835938 26.316406 24.910156 26.210938 24.960938 C 26.101562 25.011719 25.894531 25.132812 25.746094 25.226562 C 24.71875 25.90625 23.925781 25.757812 23.65625 24.832031 C 23.609375 24.667969 23.503906 17.859375 23.535156 16.871094 C 23.566406 15.9375 23.804688 15.660156 24.605469 15.648438 C 24.917969 15.640625 24.980469 15.65625 25.199219 15.773438 M 16.953125 33.582031 C 16.59375 33.632812 16.457031 33.679688 16.140625 33.863281 C 15.992188 33.953125 15.863281 34.023438 15.851562 34.023438 C 15.839844 34.023438 15.667969 34.136719 15.46875 34.273438 C 14.777344 34.746094 14.277344 35.398438 13.914062 36.308594 L 13.746094 36.726562 L 13.746094 37.539062 L 13.742188 38.355469 L 13.933594 38.859375 C 14.40625 40.105469 15.195312 41.039062 15.964844 41.261719 C 16.097656 41.300781 16.402344 41.433594 16.644531 41.554688 C 17.363281 41.917969 18.035156 41.90625 18.84375 41.523438 C 19.0625 41.417969 19.351562 41.300781 19.492188 41.261719 C 19.628906 41.222656 19.789062 41.144531 19.851562 41.089844 C 19.910156 41.035156 20.070312 40.902344 20.210938 40.796875 C 20.347656 40.6875 20.539062 40.476562 20.640625 40.332031 C 20.738281 40.1875 20.894531 39.988281 20.988281 39.890625 C 21.511719 39.34375 21.910156 37.71875 21.730469 36.851562 C 21.675781 36.605469 21.636719 36.363281 21.636719 36.316406 C 21.636719 36.269531 21.566406 36.078125 21.480469 35.894531 C 21.394531 35.710938 21.292969 35.460938 21.257812 35.339844 C 21.222656 35.21875 21.164062 35.105469 21.128906 35.09375 C 21.097656 35.082031 21.011719 34.96875 20.941406 34.84375 C 20.773438 34.550781 20.457031 34.261719 20.242188 34.203125 C 20.148438 34.175781 19.972656 34.085938 19.851562 34 C 19.734375 33.917969 19.601562 33.847656 19.5625 33.847656 C 19.523438 33.847656 19.445312 33.808594 19.382812 33.761719 C 19.179688 33.601562 17.648438 33.488281 16.953125 33.582031 M 18.886719 33.976562 C 20.050781 34.378906 20.746094 35.015625 21.195312 36.105469 C 21.527344 36.902344 21.570312 38.042969 21.296875 38.664062 C 21.222656 38.832031 21.128906 39.070312 21.089844 39.191406 C 20.933594 39.679688 20.171875 40.480469 19.496094 40.867188 C 16.710938 42.46875 13.261719 39.800781 14.074219 36.675781 C 14.144531 36.394531 14.242188 36.101562 14.289062 36.027344 C 14.335938 35.953125 14.421875 35.796875 14.480469 35.683594 C 15.28125 34.171875 17.246094 33.40625 18.886719 33.976562 "/>
<path style=" stroke:none;fill-rule:evenodd;fill:rgb(78.823531%,78.431374%,79.607844%);fill-opacity:1;" d="M 37.578125 28.519531 C 37.445312 28.6875 37.429688 28.757812 37.484375 28.878906 C 37.582031 29.082031 37.460938 29.3125 37.335938 29.164062 C 37.292969 29.113281 37.257812 29.117188 37.125 29.195312 C 36.875 29.335938 36.820312 29.398438 36.789062 29.558594 C 36.773438 29.636719 36.722656 29.75 36.679688 29.808594 C 36.636719 29.863281 36.589844 29.929688 36.582031 29.953125 C 36.574219 29.980469 36.550781 29.992188 36.53125 29.988281 C 36.511719 29.980469 36.328125 30.144531 36.121094 30.351562 C 35.910156 30.554688 35.722656 30.726562 35.699219 30.726562 C 35.675781 30.726562 35.621094 30.8125 35.574219 30.914062 C 35.492188 31.105469 35.421875 31.152344 34.964844 31.359375 C 34.910156 31.382812 34.804688 31.488281 34.734375 31.589844 C 34.632812 31.738281 34.5625 31.789062 34.335938 31.863281 C 34.125 31.933594 33.992188 32.023438 33.78125 32.21875 C 33.515625 32.464844 33.351562 32.550781 32.96875 32.632812 C 32.902344 32.648438 32.753906 32.757812 32.636719 32.871094 C 32.46875 33.039062 32.339844 33.113281 31.988281 33.246094 C 31.75 33.339844 31.421875 33.488281 31.265625 33.582031 C 30.914062 33.789062 30.496094 33.871094 29.175781 33.980469 C 28.496094 34.035156 27.144531 34.183594 27 34.21875 C 26.746094 34.28125 25.574219 34.257812 25.328125 34.1875 C 24.914062 34.0625 24.492188 33.984375 23.855469 33.914062 C 23.140625 33.832031 22.894531 33.765625 22.605469 33.566406 C 22.394531 33.421875 22.125 33.324219 21.65625 33.230469 C 21.160156 33.128906 20.910156 33.046875 20.761719 32.933594 C 20.542969 32.769531 20.257812 32.625 19.9375 32.523438 C 19.734375 32.457031 19.632812 32.398438 19.582031 32.3125 C 19.453125 32.109375 19.332031 31.996094 19.152344 31.917969 C 19.054688 31.875 18.925781 31.773438 18.863281 31.695312 C 18.71875 31.5 18.714844 31.5 18.332031 31.25 C 18.148438 31.128906 17.84375 30.882812 17.660156 30.703125 C 17.472656 30.519531 17.304688 30.371094 17.28125 30.371094 C 17.257812 30.371094 17.207031 30.3125 17.167969 30.234375 C 17.128906 30.160156 16.925781 29.925781 16.71875 29.71875 C 16.511719 29.507812 16.355469 29.367188 16.378906 29.402344 C 16.40625 29.441406 16.398438 29.453125 16.367188 29.429688 C 16.335938 29.414062 16.316406 29.371094 16.316406 29.339844 C 16.316406 29.210938 16.082031 29.050781 15.917969 29.070312 C 15.769531 29.085938 15.765625 29.082031 15.757812 28.933594 C 15.746094 28.699219 15.445312 28.441406 15.429688 28.652344 C 15.414062 28.898438 15.488281 29.039062 15.667969 29.113281 C 15.707031 29.128906 15.707031 29.144531 15.660156 29.175781 C 15.628906 29.199219 15.613281 29.238281 15.625 29.261719 C 15.640625 29.285156 15.613281 29.335938 15.5625 29.375 C 15.453125 29.472656 15.488281 29.535156 15.765625 29.734375 C 16.042969 29.929688 16.097656 29.925781 16.203125 29.699219 C 16.253906 29.597656 16.3125 29.523438 16.335938 29.539062 C 16.414062 29.578125 16.375 29.828125 16.261719 29.992188 C 16.050781 30.304688 16.128906 30.945312 16.371094 30.867188 C 16.390625 30.859375 16.445312 30.875 16.492188 30.902344 C 16.5625 30.9375 16.578125 30.933594 16.578125 30.875 C 16.578125 30.664062 16.945312 30.511719 16.992188 30.699219 C 17.027344 30.84375 16.949219 31.03125 16.855469 31.03125 C 16.601562 31.035156 16.691406 31.367188 16.964844 31.4375 C 17.039062 31.457031 17.113281 31.492188 17.128906 31.515625 C 17.144531 31.539062 17.125 31.546875 17.085938 31.535156 C 17.03125 31.511719 17.027344 31.527344 17.066406 31.640625 C 17.097656 31.734375 17.097656 31.800781 17.066406 31.859375 C 17.042969 31.90625 17.03125 31.953125 17.039062 31.960938 C 17.050781 31.972656 17 32.019531 16.929688 32.066406 C 16.773438 32.171875 16.761719 32.273438 16.902344 32.363281 C 16.957031 32.402344 17.023438 32.496094 17.046875 32.578125 C 17.078125 32.699219 17.125 32.738281 17.304688 32.808594 C 17.699219 32.957031 17.710938 32.96875 17.738281 33.144531 C 17.769531 33.328125 17.988281 33.445312 18.335938 33.457031 C 18.445312 33.460938 18.460938 33.46875 18.382812 33.480469 C 17.964844 33.542969 17.988281 33.558594 18.558594 33.59375 C 18.882812 33.613281 19.222656 33.636719 19.3125 33.644531 C 19.480469 33.65625 19.71875 33.78125 19.683594 33.839844 C 19.65625 33.882812 20.128906 34.199219 20.214844 34.199219 C 20.351562 34.199219 20.609375 34.378906 20.753906 34.566406 C 20.851562 34.703125 20.9375 34.769531 21 34.769531 C 21.097656 34.769531 21.238281 35.074219 21.242188 35.285156 C 21.242188 35.328125 21.253906 35.34375 21.273438 35.320312 C 21.339844 35.230469 21.410156 35.261719 21.457031 35.402344 C 21.503906 35.546875 21.484375 35.695312 21.417969 35.695312 C 21.398438 35.695312 21.433594 35.800781 21.492188 35.933594 L 21.605469 36.171875 L 21.6875 36.066406 C 21.808594 35.914062 21.890625 35.972656 21.972656 36.269531 C 22.109375 36.761719 22.382812 36.816406 22.445312 36.367188 C 22.492188 36.011719 22.71875 35.917969 22.824219 36.207031 C 22.90625 36.417969 23.367188 36.75 23.578125 36.75 C 23.65625 36.75 23.796875 36.835938 24.015625 37.027344 C 24.089844 37.09375 24.320312 37.078125 24.320312 37.007812 C 24.320312 36.988281 24.332031 36.972656 24.351562 36.980469 C 24.40625 36.996094 24.671875 36.875 24.671875 36.832031 C 24.671875 36.679688 24.964844 36.808594 25.128906 37.035156 C 25.222656 37.167969 25.316406 37.277344 25.332031 37.277344 C 25.347656 37.277344 25.375 37.316406 25.386719 37.363281 C 25.414062 37.476562 25.660156 37.484375 25.808594 37.378906 C 25.898438 37.320312 26.058594 37.304688 26.777344 37.296875 C 28.0625 37.277344 28.578125 37.226562 29.046875 37.070312 C 29.261719 36.996094 29.550781 36.921875 29.683594 36.90625 C 29.960938 36.871094 30.203125 36.796875 30.300781 36.722656 C 30.414062 36.632812 30.730469 36.484375 30.8125 36.484375 C 30.851562 36.484375 30.945312 36.46875 31.023438 36.445312 C 31.1875 36.394531 31.46875 36.320312 31.628906 36.289062 C 31.695312 36.273438 31.8125 36.207031 31.890625 36.140625 C 31.972656 36.070312 32.117188 35.972656 32.214844 35.921875 C 32.3125 35.871094 32.421875 35.800781 32.453125 35.757812 C 32.488281 35.71875 32.59375 35.644531 32.691406 35.597656 C 32.789062 35.546875 32.996094 35.398438 33.148438 35.269531 C 33.324219 35.121094 33.46875 35.035156 33.535156 35.035156 C 33.730469 35.035156 34.039062 34.800781 34.058594 34.636719 C 34.0625 34.625 34.085938 34.574219 34.113281 34.523438 C 34.140625 34.472656 34.15625 34.421875 34.144531 34.40625 C 34.132812 34.394531 34.171875 34.394531 34.230469 34.40625 C 34.308594 34.421875 34.351562 34.402344 34.386719 34.335938 C 34.414062 34.285156 34.457031 34.242188 34.480469 34.242188 C 34.507812 34.242188 34.578125 34.203125 34.640625 34.15625 C 34.703125 34.105469 34.78125 34.066406 34.8125 34.066406 C 34.84375 34.066406 34.910156 34.027344 34.960938 33.980469 L 35.046875 33.890625 L 34.949219 33.890625 L 34.851562 33.886719 L 34.949219 33.808594 C 35 33.761719 35.035156 33.714844 35.019531 33.703125 C 35.007812 33.691406 35.042969 33.664062 35.09375 33.648438 C 35.164062 33.625 35.175781 33.605469 35.136719 33.582031 C 35.101562 33.5625 35.152344 33.523438 35.285156 33.472656 C 35.464844 33.40625 35.515625 33.347656 35.804688 32.914062 C 36.230469 32.269531 36.332031 32.078125 36.441406 31.714844 C 36.464844 31.625 36.511719 31.578125 36.578125 31.566406 C 36.804688 31.535156 37.027344 31.246094 37.027344 30.984375 C 37.027344 30.683594 37.09375 30.558594 37.308594 30.4375 C 37.636719 30.253906 37.734375 29.9375 37.535156 29.714844 C 37.394531 29.558594 37.445312 29.40625 37.640625 29.40625 C 37.972656 29.40625 38.0625 28.867188 37.78125 28.542969 L 37.664062 28.402344 L 37.578125 28.519531 M 16.222656 41.4375 C 16.195312 41.46875 16.128906 41.5 16.074219 41.5 C 15.980469 41.5 15.832031 41.660156 15.832031 41.757812 C 15.832031 41.785156 15.914062 41.796875 16.027344 41.785156 C 16.304688 41.753906 16.460938 41.820312 16.421875 41.949219 C 16.335938 42.238281 15.832031 42.242188 15.832031 41.953125 C 15.832031 41.828125 15.800781 41.8125 15.625 41.839844 C 15.449219 41.863281 15.425781 41.953125 15.539062 42.179688 C 15.589844 42.28125 15.621094 42.425781 15.617188 42.523438 C 15.609375 42.675781 15.722656 42.902344 15.871094 43.039062 C 16.105469 43.246094 16.191406 43.546875 16.125 43.917969 C 16.089844 44.113281 16.292969 44.28125 16.457031 44.199219 C 16.527344 44.160156 16.597656 44.140625 16.609375 44.152344 C 16.652344 44.195312 16.800781 44.089844 16.769531 44.039062 C 16.753906 44.011719 16.761719 44.003906 16.789062 44.019531 C 16.816406 44.039062 16.863281 44.015625 16.894531 43.972656 C 16.925781 43.929688 16.992188 43.886719 17.039062 43.878906 C 17.089844 43.871094 17.136719 43.851562 17.148438 43.832031 C 17.234375 43.703125 18.328125 43.660156 18.464844 43.78125 C 18.519531 43.828125 18.601562 43.859375 18.648438 43.851562 C 18.703125 43.839844 18.734375 43.859375 18.734375 43.898438 C 18.734375 43.9375 18.753906 43.953125 18.773438 43.941406 C 18.796875 43.925781 18.832031 43.945312 18.851562 43.980469 C 18.878906 44.023438 18.910156 44.03125 18.953125 44.003906 C 19.007812 43.96875 19.003906 43.960938 18.929688 43.957031 C 18.882812 43.957031 18.867188 43.945312 18.898438 43.933594 C 18.929688 43.917969 18.941406 43.890625 18.929688 43.871094 C 18.914062 43.847656 18.9375 43.828125 18.976562 43.828125 C 19.015625 43.828125 19.035156 43.808594 19.019531 43.785156 C 19.003906 43.761719 19.019531 43.742188 19.054688 43.742188 C 19.089844 43.742188 19.117188 43.714844 19.117188 43.6875 C 19.109375 43.488281 19.148438 43.386719 19.304688 43.195312 C 19.574219 42.875 19.644531 42.703125 19.550781 42.605469 C 19.511719 42.5625 19.480469 42.511719 19.480469 42.492188 C 19.480469 42.472656 19.445312 42.410156 19.398438 42.351562 C 19.234375 42.144531 19.453125 42.015625 19.769531 42.132812 C 19.851562 42.164062 19.960938 42.046875 19.9375 41.953125 C 19.914062 41.863281 19.753906 41.761719 19.636719 41.761719 C 19.601562 41.761719 19.515625 41.714844 19.445312 41.652344 C 19.375 41.59375 19.285156 41.542969 19.246094 41.542969 C 19.207031 41.542969 19.160156 41.511719 19.136719 41.472656 C 19.085938 41.375 18.601562 41.59375 18.601562 41.714844 C 18.601562 41.804688 18.621094 41.796875 18.09375 41.832031 C 17.597656 41.867188 17.105469 41.792969 16.84375 41.648438 C 16.441406 41.421875 16.28125 41.367188 16.222656 41.4375 "/>
<path style=" stroke:none;fill-rule:evenodd;fill:rgb(81.568629%,84.705883%,87.843138%);fill-opacity:1;" d="M 25.570312 8.078125 C 24.671875 8.113281 24.261719 8.164062 23.976562 8.277344 C 23.886719 8.3125 23.617188 8.378906 23.375 8.429688 C 23.132812 8.480469 22.894531 8.546875 22.84375 8.582031 C 22.792969 8.613281 22.566406 8.691406 22.339844 8.753906 C 22.117188 8.816406 21.886719 8.894531 21.828125 8.933594 C 21.773438 8.96875 21.613281 9.042969 21.472656 9.09375 C 21.332031 9.148438 21.164062 9.226562 21.097656 9.273438 C 21.035156 9.320312 20.875 9.390625 20.746094 9.4375 C 20.320312 9.585938 18.839844 10.550781 18.378906 10.980469 C 18.339844 11.015625 18.191406 11.144531 18.050781 11.265625 C 17.382812 11.835938 16.363281 12.984375 15.84375 13.757812 C 15.488281 14.28125 15.339844 14.511719 15.257812 14.679688 C 15.203125 14.785156 15.136719 14.902344 15.105469 14.9375 C 15.074219 14.972656 15.015625 15.101562 14.976562 15.222656 C 14.933594 15.34375 14.855469 15.511719 14.800781 15.597656 C 14.742188 15.683594 14.664062 15.859375 14.621094 15.992188 C 14.578125 16.125 14.507812 16.296875 14.464844 16.371094 C 14.417969 16.445312 14.335938 16.679688 14.277344 16.898438 C 14.214844 17.113281 14.136719 17.355469 14.09375 17.433594 C 14.054688 17.515625 14 17.714844 13.976562 17.875 C 13.949219 18.035156 13.871094 18.359375 13.800781 18.585938 C 13.628906 19.148438 13.589844 19.644531 13.5625 21.644531 L 13.539062 23.316406 L 13.648438 23.621094 C 13.761719 23.9375 13.75 24.039062 13.59375 24.039062 C 13.382812 24.039062 13.277344 24.710938 13.476562 24.785156 C 13.671875 24.863281 13.742188 25.097656 13.652344 25.386719 C 13.566406 25.65625 13.527344 25.699219 13.429688 25.617188 C 13.296875 25.511719 13.238281 25.53125 13.265625 25.679688 C 13.289062 25.777344 13.273438 25.828125 13.21875 25.867188 C 13.152344 25.914062 13.144531 25.96875 13.167969 26.179688 C 13.183594 26.320312 13.203125 26.582031 13.214844 26.757812 C 13.230469 27.03125 13.367188 27.519531 13.578125 28.042969 C 13.613281 28.128906 13.609375 28.117188 13.671875 28.414062 C 13.703125 28.5625 13.738281 28.730469 13.753906 28.789062 C 13.765625 28.851562 13.785156 28.949219 13.792969 29.007812 C 13.832031 29.339844 13.902344 29.675781 13.972656 29.84375 C 14.050781 30.035156 14.117188 30.265625 14.117188 30.34375 C 14.117188 30.382812 14.214844 30.621094 14.335938 30.871094 C 14.457031 31.117188 14.554688 31.355469 14.554688 31.398438 C 14.554688 31.511719 14.660156 31.695312 14.792969 31.820312 C 14.855469 31.878906 14.917969 31.996094 14.933594 32.082031 C 14.945312 32.171875 14.996094 32.335938 15.042969 32.449219 C 15.089844 32.5625 15.128906 32.707031 15.128906 32.769531 C 15.128906 32.84375 15.179688 32.9375 15.269531 33.027344 C 15.515625 33.265625 15.753906 33.449219 15.816406 33.449219 C 16.011719 33.449219 15.980469 33.777344 15.773438 33.863281 C 15.695312 33.898438 15.535156 34.015625 15.414062 34.128906 C 15.292969 34.238281 15.183594 34.332031 15.167969 34.332031 C 15.066406 34.332031 14.433594 35.0625 14.292969 35.34375 C 14.238281 35.453125 14.160156 35.578125 14.117188 35.628906 C 14.078125 35.675781 13.996094 35.835938 13.9375 35.980469 C 13.882812 36.125 13.8125 36.28125 13.78125 36.332031 C 13.566406 36.675781 13.566406 38.609375 13.78125 38.859375 C 13.8125 38.894531 13.875 39.066406 13.914062 39.234375 C 13.957031 39.402344 14.03125 39.609375 14.085938 39.691406 C 14.1875 39.859375 14.378906 40.378906 14.378906 40.492188 C 14.378906 40.542969 14.347656 40.558594 14.257812 40.546875 C 14.023438 40.519531 13.917969 40.675781 13.925781 41.015625 C 13.929688 41.058594 13.765625 41.152344 13.710938 41.140625 C 13.378906 41.074219 13.320312 41.367188 13.5625 41.84375 C 13.601562 41.921875 13.617188 42.082031 13.609375 42.3125 C 13.597656 42.554688 13.613281 42.703125 13.65625 42.792969 C 13.691406 42.863281 13.71875 42.953125 13.71875 42.992188 C 13.71875 43.035156 13.761719 43.105469 13.808594 43.148438 C 13.855469 43.191406 13.894531 43.273438 13.894531 43.328125 C 13.894531 43.382812 13.921875 43.496094 13.957031 43.574219 C 13.988281 43.65625 14.039062 43.785156 14.066406 43.863281 C 14.179688 44.191406 14.230469 44.300781 14.347656 44.476562 C 14.414062 44.574219 14.46875 44.6875 14.46875 44.722656 C 14.46875 44.757812 14.53125 44.847656 14.609375 44.921875 C 14.6875 44.996094 14.886719 45.1875 15.050781 45.34375 C 15.257812 45.542969 15.382812 45.632812 15.457031 45.632812 C 15.519531 45.632812 15.707031 45.703125 15.875 45.785156 C 16.042969 45.871094 16.21875 45.941406 16.269531 45.941406 C 16.316406 45.941406 16.441406 45.976562 16.542969 46.023438 C 16.648438 46.070312 16.8125 46.132812 16.910156 46.160156 C 17.128906 46.222656 18.191406 46.195312 18.46875 46.121094 C 18.578125 46.089844 18.765625 46.050781 18.886719 46.035156 C 19.007812 46.015625 19.152344 45.976562 19.210938 45.945312 C 19.265625 45.914062 19.40625 45.863281 19.519531 45.828125 C 19.636719 45.792969 19.765625 45.726562 19.808594 45.679688 C 19.851562 45.628906 19.960938 45.570312 20.046875 45.539062 C 20.230469 45.480469 20.371094 45.375 20.335938 45.320312 C 20.320312 45.296875 20.332031 45.28125 20.355469 45.28125 C 20.378906 45.28125 20.410156 45.238281 20.429688 45.1875 C 20.445312 45.136719 20.601562 44.941406 20.777344 44.757812 C 21.128906 44.390625 21.34375 44.011719 21.390625 43.667969 C 21.40625 43.550781 21.4375 43.394531 21.460938 43.324219 C 21.613281 42.789062 21.707031 42.519531 21.761719 42.453125 C 21.820312 42.382812 21.8125 42.359375 21.683594 42.226562 C 21.515625 42.054688 21.519531 41.898438 21.695312 41.816406 C 22 41.679688 21.847656 41.117188 21.515625 41.164062 C 21.28125 41.195312 21.25 41.027344 21.445312 40.792969 C 21.542969 40.679688 21.566406 40.609375 21.558594 40.460938 C 21.550781 40.320312 21.574219 40.242188 21.652344 40.148438 C 21.796875 39.976562 21.828125 39.851562 21.746094 39.769531 C 21.6875 39.710938 21.6875 39.683594 21.75 39.511719 C 21.785156 39.40625 21.820312 39.230469 21.828125 39.121094 C 21.84375 38.839844 21.863281 38.824219 22.175781 38.832031 C 22.414062 38.835938 22.453125 38.851562 22.492188 38.9375 C 22.546875 39.0625 22.621094 39.0625 22.875 38.925781 C 23.09375 38.808594 23.214844 38.792969 23.339844 38.855469 C 23.464844 38.921875 23.808594 39.007812 23.894531 38.996094 C 23.941406 38.988281 23.980469 39.019531 23.996094 39.078125 C 24.011719 39.136719 24.046875 39.164062 24.082031 39.148438 C 24.117188 39.136719 24.140625 39.144531 24.140625 39.164062 C 24.140625 39.1875 24.179688 39.195312 24.222656 39.183594 C 24.269531 39.171875 24.359375 39.207031 24.4375 39.273438 C 24.601562 39.414062 24.933594 39.4375 24.933594 39.316406 C 24.933594 39.273438 24.945312 39.25 24.957031 39.265625 C 24.96875 39.277344 25.070312 39.199219 25.175781 39.089844 C 25.394531 38.871094 25.625 38.847656 25.988281 39.007812 C 26.222656 39.105469 26.734375 39.183594 26.980469 39.148438 C 27.101562 39.132812 27.445312 39.105469 27.75 39.082031 C 28.050781 39.0625 28.378906 39.023438 28.472656 39 C 28.914062 38.882812 29.066406 38.851562 29.351562 38.816406 C 29.523438 38.796875 29.746094 38.757812 29.847656 38.730469 C 30.179688 38.648438 30.382812 38.597656 30.550781 38.558594 C 30.644531 38.539062 30.839844 38.460938 30.992188 38.382812 C 31.140625 38.308594 31.304688 38.246094 31.355469 38.246094 C 31.402344 38.246094 31.582031 38.175781 31.75 38.089844 C 31.917969 38.007812 32.085938 37.9375 32.125 37.9375 C 32.21875 37.9375 33.128906 37.476562 33.199219 37.390625 C 33.230469 37.351562 33.296875 37.320312 33.351562 37.320312 C 33.46875 37.320312 34.027344 36.996094 34.273438 36.789062 C 34.347656 36.726562 34.492188 36.632812 34.589844 36.582031 C 34.6875 36.53125 34.796875 36.460938 34.828125 36.417969 C 34.859375 36.378906 34.949219 36.316406 35.023438 36.277344 C 35.175781 36.199219 35.753906 35.628906 35.753906 35.558594 C 35.753906 35.46875 36.257812 34.980469 36.457031 34.875 C 36.792969 34.695312 37.085938 34.386719 37.28125 34 C 37.390625 33.789062 37.574219 33.527344 37.742188 33.339844 C 37.898438 33.171875 38.066406 32.953125 38.117188 32.855469 C 38.167969 32.757812 38.242188 32.648438 38.28125 32.617188 C 38.382812 32.53125 38.566406 32.15625 38.566406 32.03125 C 38.566406 31.96875 38.617188 31.890625 38.699219 31.832031 C 38.859375 31.710938 38.976562 31.496094 38.941406 31.386719 C 38.90625 31.28125 39.023438 31 39.15625 30.855469 C 39.292969 30.710938 39.386719 30.519531 39.425781 30.304688 C 39.445312 30.210938 39.484375 30.089844 39.515625 30.042969 C 39.542969 29.996094 39.582031 29.886719 39.601562 29.800781 C 39.617188 29.714844 39.667969 29.574219 39.714844 29.484375 C 39.761719 29.394531 39.796875 29.28125 39.796875 29.230469 C 39.796875 29.179688 39.828125 29.078125 39.867188 29.003906 C 39.90625 28.929688 39.953125 28.679688 39.976562 28.445312 C 40 28.210938 40.035156 27.84375 40.058594 27.628906 C 40.078125 27.410156 40.085938 27.207031 40.074219 27.175781 C 40.046875 27.105469 40.144531 26.460938 40.195312 26.394531 C 40.277344 26.277344 40.277344 26.070312 40.195312 25.996094 C 40.117188 25.929688 40.117188 25.910156 40.175781 25.824219 C 40.308594 25.617188 40.25 24.882812 40.078125 24.617188 C 40.023438 24.535156 39.992188 24.351562 39.964844 23.972656 C 39.925781 23.390625 39.914062 23.25 39.867188 22.898438 C 39.839844 22.71875 39.851562 22.582031 39.910156 22.371094 C 40.011719 22.007812 40.007812 20.667969 39.902344 20.273438 C 39.867188 20.136719 39.820312 19.742188 39.796875 19.394531 C 39.75 18.707031 39.652344 18.183594 39.554688 18.101562 C 39.519531 18.074219 39.488281 17.996094 39.488281 17.929688 C 39.488281 17.75 39.316406 17.085938 39.226562 16.933594 C 39.183594 16.863281 39.105469 16.664062 39.050781 16.496094 C 38.996094 16.328125 38.90625 16.113281 38.851562 16.015625 C 38.796875 15.917969 38.71875 15.730469 38.683594 15.59375 C 38.644531 15.460938 38.574219 15.3125 38.523438 15.269531 C 38.476562 15.226562 38.398438 15.085938 38.351562 14.957031 C 38.269531 14.746094 37.96875 14.210938 37.855469 14.085938 C 37.832031 14.058594 37.757812 13.953125 37.695312 13.855469 C 37.394531 13.386719 37.003906 12.859375 36.902344 12.78125 C 36.839844 12.730469 36.753906 12.632812 36.710938 12.558594 C 36.523438 12.25 35.324219 11.101562 34.832031 10.757812 C 33.582031 9.882812 33.230469 9.667969 32.386719 9.265625 C 32.074219 9.117188 31.746094 8.957031 31.664062 8.914062 C 31.578125 8.867188 31.34375 8.792969 31.148438 8.742188 C 30.949219 8.691406 30.738281 8.625 30.683594 8.585938 C 30.628906 8.550781 30.359375 8.480469 30.085938 8.429688 C 29.8125 8.375 29.507812 8.296875 29.40625 8.253906 C 29.027344 8.085938 27.324219 8.007812 25.570312 8.078125 M 27.992188 8.164062 C 28.707031 8.199219 28.890625 8.222656 29.269531 8.335938 C 29.511719 8.40625 29.855469 8.488281 30.03125 8.515625 C 30.207031 8.546875 30.464844 8.617188 30.609375 8.675781 C 30.75 8.730469 30.960938 8.800781 31.078125 8.828125 C 31.53125 8.929688 32.8125 9.550781 33.585938 10.042969 C 33.710938 10.121094 33.828125 10.1875 33.84375 10.1875 C 33.914062 10.1875 34.988281 11 35.449219 11.398438 C 35.859375 11.757812 36.53125 12.457031 36.703125 12.710938 C 36.761719 12.800781 36.824219 12.871094 36.84375 12.871094 C 36.878906 12.871094 37.160156 13.230469 37.3125 13.46875 C 37.554688 13.84375 37.75 14.132812 37.820312 14.210938 C 37.863281 14.261719 38.03125 14.558594 38.195312 14.871094 C 38.359375 15.1875 38.527344 15.511719 38.574219 15.59375 C 38.617188 15.679688 38.65625 15.773438 38.65625 15.804688 C 38.65625 15.835938 38.710938 15.976562 38.78125 16.117188 C 38.851562 16.253906 38.933594 16.457031 38.960938 16.566406 C 38.992188 16.675781 39.070312 16.886719 39.140625 17.035156 C 39.207031 17.1875 39.296875 17.472656 39.335938 17.675781 C 39.375 17.875 39.453125 18.175781 39.511719 18.347656 C 39.585938 18.566406 39.632812 18.851562 39.664062 19.292969 C 39.691406 19.644531 39.734375 20.066406 39.753906 20.238281 C 39.84375 20.933594 39.738281 23.226562 39.59375 23.644531 C 39.558594 23.753906 39.476562 24.101562 39.417969 24.414062 C 39.359375 24.730469 39.277344 25.046875 39.242188 25.117188 C 39.203125 25.191406 39.125 25.398438 39.0625 25.578125 C 39.003906 25.761719 38.925781 25.9375 38.894531 25.976562 C 38.867188 26.011719 38.796875 26.210938 38.746094 26.414062 C 38.695312 26.621094 38.617188 26.839844 38.574219 26.898438 C 38.53125 26.960938 38.480469 27.042969 38.464844 27.085938 C 38.449219 27.128906 38.371094 27.265625 38.289062 27.394531 C 38.210938 27.519531 38.109375 27.714844 38.070312 27.824219 C 38.027344 27.9375 37.957031 28.066406 37.917969 28.113281 C 37.699219 28.351562 37.679688 28.421875 37.796875 28.558594 C 38.0625 28.875 37.964844 29.40625 37.640625 29.40625 C 37.445312 29.40625 37.394531 29.558594 37.535156 29.714844 C 37.734375 29.9375 37.636719 30.253906 37.308594 30.4375 C 37.09375 30.558594 37.027344 30.683594 37.027344 30.984375 C 37.027344 31.246094 36.804688 31.535156 36.578125 31.566406 C 36.511719 31.578125 36.464844 31.625 36.441406 31.714844 C 36.332031 32.078125 36.230469 32.269531 35.804688 32.914062 C 35.515625 33.347656 35.464844 33.40625 35.285156 33.472656 C 35.152344 33.523438 35.101562 33.5625 35.136719 33.582031 C 35.175781 33.605469 35.164062 33.625 35.09375 33.648438 C 35.042969 33.664062 35.007812 33.691406 35.019531 33.703125 C 35.035156 33.714844 35 33.761719 34.949219 33.808594 L 34.851562 33.886719 L 34.949219 33.890625 L 35.046875 33.890625 L 34.960938 33.980469 C 34.910156 34.027344 34.84375 34.066406 34.8125 34.066406 C 34.78125 34.066406 34.703125 34.105469 34.640625 34.15625 C 34.578125 34.203125 34.507812 34.242188 34.480469 34.242188 C 34.457031 34.242188 34.414062 34.285156 34.386719 34.335938 C 34.351562 34.402344 34.308594 34.421875 34.230469 34.40625 C 34.171875 34.394531 34.132812 34.394531 34.144531 34.40625 C 34.15625 34.421875 34.140625 34.472656 34.113281 34.523438 C 34.085938 34.574219 34.0625 34.625 34.058594 34.636719 C 34.039062 34.800781 33.730469 35.035156 33.535156 35.035156 C 33.46875 35.035156 33.324219 35.121094 33.148438 35.269531 C 32.996094 35.398438 32.789062 35.546875 32.691406 35.597656 C 32.59375 35.644531 32.488281 35.71875 32.453125 35.757812 C 32.421875 35.800781 32.3125 35.871094 32.214844 35.921875 C 32.117188 35.972656 31.972656 36.070312 31.890625 36.140625 C 31.8125 36.207031 31.695312 36.273438 31.628906 36.289062 C 31.46875 36.320312 31.1875 36.394531 31.023438 36.445312 C 30.945312 36.46875 30.851562 36.484375 30.8125 36.484375 C 30.730469 36.484375 30.414062 36.632812 30.300781 36.722656 C 30.203125 36.796875 29.960938 36.871094 29.683594 36.90625 C 29.550781 36.921875 29.261719 36.996094 29.046875 37.070312 C 28.578125 37.226562 28.0625 37.277344 26.777344 37.296875 C 26.058594 37.304688 25.898438 37.320312 25.808594 37.378906 C 25.660156 37.484375 25.414062 37.476562 25.386719 37.363281 C 25.375 37.316406 25.347656 37.277344 25.332031 37.277344 C 25.316406 37.277344 25.222656 37.167969 25.128906 37.035156 C 24.964844 36.808594 24.671875 36.679688 24.671875 36.832031 C 24.671875 36.875 24.40625 36.996094 24.351562 36.980469 C 24.332031 36.972656 24.320312 36.988281 24.320312 37.007812 C 24.320312 37.078125 24.089844 37.09375 24.015625 37.027344 C 23.796875 36.835938 23.65625 36.75 23.578125 36.75 C 23.367188 36.75 22.90625 36.417969 22.824219 36.207031 C 22.71875 35.917969 22.492188 36.011719 22.445312 36.367188 C 22.386719 36.800781 22.09375 36.757812 21.984375 36.304688 C 21.917969 36.011719 21.832031 35.925781 21.71875 36.027344 C 21.609375 36.125 21.613281 36.292969 21.730469 36.851562 C 21.910156 37.71875 21.511719 39.34375 20.988281 39.890625 C 20.894531 39.988281 20.738281 40.1875 20.640625 40.332031 C 20.539062 40.476562 20.347656 40.6875 20.210938 40.796875 C 20.070312 40.902344 19.910156 41.035156 19.851562 41.089844 C 19.792969 41.144531 19.605469 41.230469 19.433594 41.28125 C 19.117188 41.375 19.027344 41.496094 19.238281 41.535156 C 19.289062 41.546875 19.382812 41.601562 19.453125 41.65625 C 19.519531 41.714844 19.601562 41.761719 19.636719 41.761719 C 19.753906 41.761719 19.914062 41.863281 19.9375 41.953125 C 19.960938 42.046875 19.851562 42.164062 19.769531 42.132812 C 19.453125 42.015625 19.234375 42.144531 19.398438 42.351562 C 19.445312 42.410156 19.480469 42.472656 19.480469 42.492188 C 19.480469 42.511719 19.511719 42.5625 19.550781 42.605469 C 19.644531 42.703125 19.574219 42.875 19.304688 43.195312 C 19.148438 43.386719 19.109375 43.488281 19.117188 43.6875 C 19.117188 43.714844 19.089844 43.742188 19.054688 43.742188 C 19.019531 43.742188 19.003906 43.761719 19.019531 43.785156 C 19.035156 43.808594 19.015625 43.828125 18.976562 43.828125 C 18.9375 43.828125 18.914062 43.847656 18.929688 43.871094 C 18.941406 43.890625 18.929688 43.917969 18.898438 43.933594 C 18.867188 43.945312 18.882812 43.957031 18.929688 43.957031 C 19.003906 43.960938 19.007812 43.96875 18.953125 44.003906 C 18.910156 44.03125 18.878906 44.023438 18.851562 43.980469 C 18.832031 43.945312 18.796875 43.925781 18.773438 43.941406 C 18.753906 43.953125 18.734375 43.9375 18.734375 43.898438 C 18.734375 43.859375 18.703125 43.839844 18.648438 43.851562 C 18.601562 43.859375 18.519531 43.828125 18.464844 43.78125 C 18.328125 43.660156 17.234375 43.703125 17.148438 43.832031 C 17.136719 43.851562 17.089844 43.871094 17.039062 43.878906 C 16.992188 43.886719 16.925781 43.929688 16.894531 43.972656 C 16.863281 44.015625 16.816406 44.039062 16.789062 44.019531 C 16.761719 44.003906 16.753906 44.011719 16.769531 44.039062 C 16.800781 44.089844 16.652344 44.195312 16.609375 44.152344 C 16.597656 44.140625 16.527344 44.160156 16.457031 44.199219 C 16.292969 44.28125 16.089844 44.113281 16.125 43.917969 C 16.191406 43.546875 16.105469 43.246094 15.871094 43.039062 C 15.722656 42.902344 15.609375 42.675781 15.617188 42.523438 C 15.621094 42.425781 15.589844 42.28125 15.539062 42.179688 C 15.425781 41.953125 15.449219 41.863281 15.625 41.839844 C 15.800781 41.8125 15.832031 41.828125 15.832031 41.953125 C 15.832031 42.242188 16.335938 42.238281 16.421875 41.949219 C 16.460938 41.820312 16.304688 41.753906 16.027344 41.785156 C 15.914062 41.796875 15.832031 41.785156 15.832031 41.757812 C 15.832031 41.660156 15.980469 41.5 16.074219 41.5 C 16.375 41.5 16.277344 41.335938 15.929688 41.257812 C 15.265625 41.113281 14.390625 40.0625 13.933594 38.859375 L 13.742188 38.355469 L 13.746094 37.539062 L 13.746094 36.726562 L 13.914062 36.308594 C 14.277344 35.398438 14.777344 34.746094 15.46875 34.273438 C 15.667969 34.136719 15.839844 34.023438 15.851562 34.023438 C 15.863281 34.023438 15.992188 33.953125 16.136719 33.867188 C 16.53125 33.636719 16.742188 33.589844 17.632812 33.539062 C 18.078125 33.515625 18.449219 33.484375 18.460938 33.472656 C 18.472656 33.460938 18.414062 33.449219 18.332031 33.449219 C 18.003906 33.449219 17.769531 33.328125 17.738281 33.144531 C 17.710938 32.96875 17.699219 32.957031 17.304688 32.808594 C 17.125 32.738281 17.078125 32.699219 17.046875 32.578125 C 17.023438 32.496094 16.957031 32.402344 16.902344 32.363281 C 16.761719 32.273438 16.773438 32.171875 16.929688 32.066406 C 17 32.019531 17.050781 31.972656 17.039062 31.960938 C 17.03125 31.953125 17.042969 31.90625 17.066406 31.859375 C 17.097656 31.800781 17.097656 31.734375 17.066406 31.640625 C 17.027344 31.527344 17.03125 31.511719 17.085938 31.535156 C 17.125 31.546875 17.144531 31.539062 17.128906 31.515625 C 17.113281 31.492188 17.039062 31.457031 16.964844 31.4375 C 16.691406 31.367188 16.601562 31.035156 16.855469 31.03125 C 16.949219 31.03125 17.027344 30.84375 16.992188 30.699219 C 16.945312 30.511719 16.578125 30.664062 16.578125 30.875 C 16.578125 30.933594 16.5625 30.9375 16.492188 30.902344 C 16.445312 30.875 16.390625 30.859375 16.371094 30.867188 C 16.128906 30.945312 16.050781 30.304688 16.261719 29.992188 C 16.375 29.828125 16.414062 29.578125 16.335938 29.539062 C 16.3125 29.523438 16.253906 29.597656 16.203125 29.699219 C 16.097656 29.925781 16.042969 29.929688 15.765625 29.734375 C 15.488281 29.535156 15.453125 29.472656 15.5625 29.375 C 15.613281 29.335938 15.640625 29.285156 15.625 29.261719 C 15.613281 29.238281 15.628906 29.199219 15.660156 29.175781 C 15.707031 29.144531 15.707031 29.128906 15.667969 29.113281 C 15.488281 29.039062 15.414062 28.898438 15.429688 28.652344 C 15.445312 28.441406 15.746094 28.699219 15.757812 28.933594 C 15.765625 29.082031 15.769531 29.085938 15.917969 29.070312 C 16.082031 29.050781 16.316406 29.210938 16.316406 29.339844 C 16.316406 29.371094 16.332031 29.410156 16.355469 29.425781 C 16.417969 29.460938 16.386719 29.34375 16.300781 29.214844 C 16.261719 29.152344 16.226562 29.078125 16.226562 29.050781 C 16.226562 29.007812 15.96875 28.667969 15.796875 28.488281 C 15.765625 28.457031 15.691406 28.328125 15.628906 28.210938 C 15.570312 28.089844 15.449219 27.898438 15.367188 27.78125 C 15.285156 27.664062 15.214844 27.558594 15.214844 27.546875 C 15.214844 27.535156 15.148438 27.414062 15.066406 27.273438 C 14.980469 27.136719 14.902344 26.941406 14.882812 26.839844 C 14.867188 26.738281 14.828125 26.628906 14.800781 26.589844 C 14.769531 26.554688 14.710938 26.417969 14.667969 26.28125 C 14.625 26.148438 14.53125 25.917969 14.460938 25.769531 C 14.390625 25.621094 14.292969 25.324219 14.246094 25.109375 C 14.199219 24.898438 14.132812 24.613281 14.097656 24.480469 C 14.019531 24.199219 13.8125 23.273438 13.761719 22.984375 C 13.609375 22.125 13.683594 19.679688 13.890625 18.808594 C 13.960938 18.503906 14.035156 18.167969 14.050781 18.058594 C 14.070312 17.953125 14.113281 17.785156 14.148438 17.6875 C 14.183594 17.589844 14.269531 17.320312 14.335938 17.09375 C 14.546875 16.371094 14.960938 15.414062 15.371094 14.71875 C 15.648438 14.238281 15.851562 13.929688 16.328125 13.25 C 16.730469 12.679688 18.203125 11.199219 18.714844 10.847656 C 18.769531 10.8125 18.925781 10.695312 19.066406 10.585938 C 19.570312 10.203125 20.132812 9.84375 20.519531 9.660156 C 21.832031 9.035156 22.199219 8.875 22.441406 8.824219 C 22.558594 8.800781 22.765625 8.730469 22.902344 8.675781 C 23.039062 8.617188 23.230469 8.554688 23.328125 8.539062 C 23.425781 8.523438 23.78125 8.441406 24.121094 8.355469 C 24.945312 8.144531 26.253906 8.082031 27.992188 8.164062 M 24.152344 15.671875 C 23.785156 15.742188 23.558594 16.183594 23.535156 16.871094 C 23.503906 17.859375 23.609375 24.667969 23.65625 24.832031 C 23.925781 25.757812 24.71875 25.90625 25.746094 25.226562 C 25.894531 25.132812 26.101562 25.011719 26.210938 24.960938 C 26.316406 24.910156 26.445312 24.835938 26.496094 24.789062 C 26.542969 24.746094 26.695312 24.660156 26.828125 24.59375 C 26.964844 24.53125 27.109375 24.441406 27.15625 24.390625 C 27.199219 24.34375 27.257812 24.304688 27.28125 24.304688 C 27.308594 24.304688 27.429688 24.238281 27.550781 24.160156 C 27.839844 23.96875 28.199219 23.75 28.472656 23.601562 C 28.824219 23.414062 29.242188 23.167969 29.375 23.074219 C 29.445312 23.023438 29.519531 22.984375 29.542969 22.984375 C 29.566406 22.984375 29.703125 22.910156 29.84375 22.816406 C 30.175781 22.597656 30.472656 22.421875 30.75 22.273438 C 30.871094 22.207031 31.003906 22.125 31.042969 22.089844 C 31.082031 22.054688 31.300781 21.917969 31.53125 21.78125 C 32.511719 21.210938 32.722656 20.902344 32.5625 20.253906 C 32.46875 19.867188 32.40625 19.792969 31.960938 19.535156 C 31.761719 19.417969 31.507812 19.269531 31.398438 19.203125 C 31.289062 19.136719 31.101562 19.03125 30.980469 18.976562 C 30.722656 18.851562 30.253906 18.59375 30.1875 18.542969 C 30.148438 18.507812 29.800781 18.320312 29.300781 18.054688 C 29.171875 17.988281 29.015625 17.894531 28.949219 17.847656 C 28.878906 17.800781 28.726562 17.714844 28.605469 17.652344 C 28.132812 17.414062 27.808594 17.238281 27.640625 17.125 C 27.542969 17.058594 27.445312 17.003906 27.421875 17.003906 C 27.398438 17.003906 27.25 16.929688 27.089844 16.835938 C 26.433594 16.449219 26.257812 16.351562 26.160156 16.324219 C 26.101562 16.304688 25.984375 16.234375 25.898438 16.167969 C 25.808594 16.101562 25.671875 16.011719 25.589844 15.976562 C 25.507812 15.9375 25.332031 15.847656 25.199219 15.773438 C 24.957031 15.640625 24.527344 15.601562 24.152344 15.671875 M 25.066406 15.816406 C 25.152344 15.863281 25.308594 15.945312 25.417969 15.996094 C 25.527344 16.046875 25.675781 16.136719 25.75 16.191406 C 25.824219 16.246094 26.070312 16.390625 26.300781 16.511719 C 26.527344 16.632812 26.785156 16.773438 26.867188 16.824219 C 26.953125 16.875 27.152344 16.980469 27.304688 17.054688 C 27.460938 17.128906 27.652344 17.234375 27.726562 17.292969 C 27.800781 17.347656 28.070312 17.503906 28.332031 17.632812 C 28.589844 17.765625 28.835938 17.898438 28.875 17.933594 C 28.914062 17.964844 29.0625 18.054688 29.203125 18.125 C 29.824219 18.449219 30.015625 18.558594 30.078125 18.609375 C 30.117188 18.644531 30.390625 18.792969 30.695312 18.941406 C 30.996094 19.09375 31.285156 19.25 31.332031 19.296875 C 31.382812 19.339844 31.511719 19.417969 31.617188 19.464844 C 32.066406 19.675781 32.332031 19.878906 32.398438 20.0625 C 32.554688 20.503906 32.445312 21.121094 32.1875 21.226562 C 32.113281 21.257812 32.042969 21.304688 32.023438 21.335938 C 32.007812 21.367188 31.882812 21.453125 31.75 21.53125 C 31.617188 21.605469 31.371094 21.757812 31.199219 21.867188 C 31.03125 21.972656 30.78125 22.121094 30.644531 22.191406 C 30.503906 22.265625 30.382812 22.339844 30.367188 22.363281 C 30.355469 22.386719 30.238281 22.457031 30.113281 22.523438 C 29.984375 22.585938 29.859375 22.667969 29.832031 22.703125 C 29.804688 22.734375 29.667969 22.816406 29.523438 22.882812 C 29.382812 22.945312 29.207031 23.042969 29.132812 23.097656 C 29.0625 23.152344 28.921875 23.238281 28.824219 23.289062 C 28.730469 23.34375 28.519531 23.460938 28.363281 23.554688 C 28.207031 23.648438 27.964844 23.785156 27.824219 23.863281 C 27.683594 23.9375 27.542969 24.019531 27.515625 24.042969 C 27.433594 24.113281 27.007812 24.375 26.730469 24.523438 C 26.59375 24.59375 26.464844 24.675781 26.449219 24.703125 C 26.433594 24.730469 26.308594 24.804688 26.171875 24.863281 C 26.035156 24.921875 25.882812 25.003906 25.835938 25.046875 C 25.234375 25.570312 24.464844 25.695312 24.089844 25.328125 C 23.683594 24.933594 23.675781 24.859375 23.644531 19.863281 C 23.621094 16.28125 23.621094 16.308594 23.875 16.003906 C 24.109375 15.71875 24.722656 15.625 25.066406 15.816406 M 13.144531 25.15625 C 13.140625 25.25 13.140625 25.25 13.105469 25.160156 C 13.070312 25.082031 13.066406 25.082031 13.0625 25.152344 C 13.0625 25.195312 13.039062 25.21875 13.015625 25.207031 C 12.992188 25.191406 12.972656 25.210938 12.972656 25.25 C 12.972656 25.289062 12.992188 25.308594 13.015625 25.292969 C 13.042969 25.277344 13.070312 25.292969 13.085938 25.328125 C 13.109375 25.394531 13.238281 25.414062 13.238281 25.351562 C 13.238281 25.332031 13.261719 25.320312 13.289062 25.328125 C 13.316406 25.332031 13.347656 25.300781 13.359375 25.253906 C 13.371094 25.203125 13.359375 25.183594 13.328125 25.203125 C 13.300781 25.21875 13.28125 25.199219 13.28125 25.148438 C 13.28125 25.035156 13.148438 25.042969 13.144531 25.15625 M 37.355469 28.929688 C 37.292969 29.0625 37.289062 29.105469 37.332031 29.160156 C 37.457031 29.3125 37.589844 29.066406 37.484375 28.871094 C 37.429688 28.769531 37.429688 28.769531 37.355469 28.929688 M 19.328125 33.667969 C 19.289062 33.730469 19.503906 33.855469 19.621094 33.835938 C 19.714844 33.824219 19.714844 33.816406 19.570312 33.726562 C 19.398438 33.617188 19.367188 33.609375 19.328125 33.667969 M 20.933594 34.796875 C 20.933594 34.855469 21.042969 35.019531 21.144531 35.113281 C 21.230469 35.195312 21.246094 35.199219 21.21875 35.136719 C 21.203125 35.09375 21.167969 34.992188 21.144531 34.914062 C 21.109375 34.792969 20.933594 34.691406 20.933594 34.796875 M 21.285156 35.371094 C 21.285156 35.484375 21.371094 35.695312 21.417969 35.695312 C 21.484375 35.695312 21.503906 35.542969 21.460938 35.410156 C 21.40625 35.246094 21.285156 35.21875 21.285156 35.371094 M 21.15625 40.277344 C 21.101562 40.425781 20.980469 40.433594 21.007812 40.292969 C 21.023438 40.21875 21.058594 40.179688 21.113281 40.179688 C 21.179688 40.179688 21.1875 40.199219 21.15625 40.277344 M 18.359375 41.726562 C 18.289062 41.75 18.058594 41.785156 17.855469 41.804688 C 17.492188 41.839844 17.496094 41.84375 17.984375 41.824219 C 18.605469 41.804688 18.601562 41.804688 18.601562 41.734375 C 18.601562 41.664062 18.546875 41.664062 18.359375 41.726562 "/>
</g>
</svg>
