<svg id="svg" version="1.1" xmlns="http://www.w3.org/2000/svg" xmlns:xlink="http://www.w3.org/1999/xlink" width="400" height="351.67785234899327" viewBox="0, 0, 400,351.67785234899327"><g id="svgg"><path id="path0" d="M202.990 42.612 C 201.926 42.784,199.631 43.229,197.889 43.601 C 196.148 43.973,193.373 44.521,191.723 44.819 C 190.074 45.117,187.268 45.841,185.489 46.427 C 183.710 47.014,181.924 47.493,181.521 47.493 C 181.117 47.493,179.872 47.948,178.753 48.503 C 177.634 49.058,176.099 49.704,175.342 49.938 C 173.960 50.367,171.241 51.597,165.699 54.301 C 154.771 59.635,138.770 73.365,131.879 83.322 C 131.122 84.417,129.714 86.420,128.750 87.775 C 126.580 90.826,121.903 98.964,121.240 100.842 C 120.970 101.609,120.278 103.177,119.704 104.328 C 119.129 105.479,118.545 106.895,118.405 107.476 C 118.265 108.056,117.701 109.560,117.152 110.818 C 116.602 112.076,115.975 114.093,115.757 115.302 C 115.539 116.510,114.974 118.529,114.500 119.787 C 113.617 122.132,113.497 122.796,112.211 132.432 C 111.198 140.020,111.185 149.467,112.178 156.552 C 112.571 159.358,113.001 162.603,113.133 163.764 C 113.266 164.925,113.808 167.062,114.339 168.514 C 114.870 169.965,115.420 172.023,115.561 173.087 C 115.702 174.151,116.335 176.288,116.967 177.836 C 117.599 179.384,118.229 181.047,118.367 181.530 C 119.116 184.147,123.439 193.054,125.840 196.927 C 127.899 200.247,133.312 208.198,133.602 208.328 C 133.745 208.391,134.719 209.393,135.767 210.554 C 144.863 220.624,152.100 226.708,162.554 233.069 C 168.444 236.654,181.307 241.815,187.510 243.082 C 188.573 243.300,190.531 243.870,191.860 244.349 C 199.006 246.927,227.055 246.808,236.236 244.162 C 238.171 243.604,240.387 243.046,241.161 242.923 C 241.935 242.799,244.425 242.075,246.694 241.314 C 248.964 240.553,250.985 239.930,251.187 239.930 C 251.388 239.930,252.144 239.560,252.865 239.108 C 253.587 238.655,254.969 237.994,255.937 237.637 C 256.904 237.281,258.098 236.713,258.591 236.376 C 259.083 236.039,260.350 235.380,261.405 234.912 C 262.461 234.444,264.460 233.333,265.848 232.442 C 267.236 231.551,269.215 230.396,270.246 229.876 C 271.276 229.356,272.613 228.516,273.216 228.010 C 273.818 227.503,275.053 226.535,275.960 225.858 C 280.803 222.240,292.348 211.395,292.348 210.463 C 292.348 210.267,293.179 209.232,294.195 208.164 C 295.211 207.097,296.438 205.562,296.922 204.754 C 297.405 203.947,298.751 201.853,299.912 200.102 C 301.073 198.351,302.333 196.345,302.712 195.645 C 303.091 194.944,303.903 193.500,304.516 192.436 C 305.129 191.372,305.746 190.106,305.887 189.622 C 306.028 189.138,306.582 188.030,307.117 187.159 C 307.652 186.288,308.276 184.803,308.503 183.858 C 308.731 182.913,309.215 181.556,309.579 180.842 C 310.604 178.832,313.133 171.373,313.520 169.217 C 313.711 168.153,314.369 164.828,314.981 161.829 L 316.095 156.376 316.091 144.415 C 316.088 134.100,316.000 132.091,315.453 129.815 C 315.103 128.364,314.454 125.040,314.010 122.427 C 313.511 119.493,312.781 116.647,312.098 114.981 C 311.491 113.498,310.994 112.142,310.994 111.968 C 310.994 111.795,310.285 109.922,309.418 107.805 C 308.551 105.689,307.838 103.778,307.834 103.559 C 307.824 102.980,302.635 93.011,301.266 90.941 C 300.626 89.974,299.645 88.549,299.085 87.775 C 298.525 87.001,297.863 85.972,297.614 85.488 C 295.126 80.648,282.192 67.332,275.816 63.046 C 274.173 61.942,272.163 60.531,271.350 59.911 C 270.536 59.292,269.190 58.442,268.357 58.023 C 267.524 57.605,266.597 57.047,266.297 56.784 C 265.638 56.207,261.935 54.166,259.279 52.915 C 258.215 52.414,256.396 51.543,255.238 50.980 C 254.080 50.417,252.924 49.956,252.668 49.956 C 252.413 49.956,251.160 49.402,249.884 48.725 C 248.607 48.047,247.125 47.493,246.590 47.493 C 246.054 47.493,243.901 46.958,241.805 46.304 C 239.709 45.650,236.807 44.924,235.356 44.692 C 233.905 44.460,231.372 43.969,229.727 43.602 C 223.698 42.255,208.640 41.697,202.990 42.612 M200.842 99.898 C 202.396 100.471,204.267 101.316,205.000 101.774 C 207.654 103.437,210.591 105.117,212.313 105.960 C 213.281 106.433,215.189 107.468,216.554 108.259 C 217.919 109.050,220.294 110.365,221.831 111.182 C 226.979 113.919,227.694 114.314,228.105 114.655 C 228.330 114.842,229.697 115.613,231.143 116.369 C 232.590 117.125,235.119 118.503,236.763 119.433 C 238.408 120.362,240.545 121.550,241.513 122.073 C 242.480 122.595,244.459 123.706,245.910 124.541 C 248.824 126.218,252.173 128.038,254.910 129.432 C 263.506 133.812,265.412 140.917,259.672 147.178 C 258.707 148.230,253.252 151.979,252.686 151.979 C 252.505 151.979,251.473 152.612,250.392 153.386 C 249.311 154.160,248.306 154.793,248.157 154.793 C 247.865 154.793,243.985 157.041,241.161 158.847 C 240.193 159.465,238.215 160.652,236.763 161.485 C 235.312 162.318,233.333 163.514,232.366 164.143 C 231.398 164.772,230.229 165.397,229.767 165.532 C 229.306 165.667,228.225 166.314,227.366 166.969 C 226.507 167.625,225.607 168.162,225.366 168.162 C 225.126 168.162,224.080 168.795,223.043 169.569 C 222.006 170.343,220.960 170.976,220.720 170.976 C 220.479 170.976,219.557 171.530,218.669 172.208 C 217.782 172.885,216.915 173.439,216.743 173.439 C 216.571 173.439,215.583 174.011,214.547 174.709 C 213.512 175.408,212.269 176.130,211.785 176.314 C 210.988 176.617,210.094 177.170,205.629 180.122 C 200.222 183.697,194.110 183.665,190.420 180.043 C 187.385 177.064,187.568 178.554,187.138 153.371 C 186.928 141.093,186.649 126.456,186.518 120.844 C 186.200 107.214,186.488 104.922,188.849 102.296 C 191.862 98.947,196.012 98.117,200.842 99.898 M137.027 246.239 C 129.244 247.523,119.458 254.492,115.850 261.320 C 115.370 262.229,114.676 263.464,114.308 264.064 C 109.281 272.269,111.442 287.186,118.912 295.845 C 131.688 310.653,152.887 310.144,165.259 294.732 C 167.150 292.377,168.360 290.504,168.731 289.358 C 169.045 288.391,169.791 286.491,170.388 285.136 C 173.590 277.881,171.604 266.089,165.811 257.960 C 159.850 249.594,147.406 244.526,137.027 246.239 " stroke="none" fill="#296af1" fill-rule="evenodd"></path><path id="path1" d="M0.000 175.901 L 0.000 351.803 200.000 351.803 L 400.000 351.803 400.000 175.901 L 400.000 0.000 200.000 0.000 L 0.000 0.000 0.000 175.901 M230.607 40.855 C 232.348 41.056,234.434 41.510,235.243 41.864 C 236.051 42.217,238.505 42.847,240.696 43.264 C 242.887 43.681,245.040 44.255,245.480 44.541 C 245.921 44.826,247.583 45.383,249.174 45.778 C 250.765 46.173,252.621 46.785,253.298 47.139 C 253.975 47.492,256.588 48.763,259.103 49.963 C 265.841 53.178,268.658 54.897,278.668 61.904 C 282.596 64.652,292.192 73.854,293.676 76.295 C 294.035 76.886,294.734 77.687,295.228 78.076 C 296.043 78.717,299.147 82.934,301.555 86.669 C 302.071 87.471,302.658 88.310,302.859 88.535 C 303.740 89.521,306.166 93.813,306.798 95.503 C 307.179 96.521,307.808 97.641,308.195 97.991 C 308.582 98.342,309.149 99.511,309.455 100.590 C 309.761 101.668,310.368 103.184,310.806 103.958 C 311.243 104.732,311.962 106.463,312.403 107.805 C 312.844 109.147,313.484 110.730,313.825 111.323 C 314.523 112.540,315.919 117.845,315.919 119.285 C 315.919 119.805,316.146 120.419,316.424 120.650 C 317.218 121.308,318.007 125.489,318.379 131.001 C 318.566 133.784,318.950 136.945,319.232 138.027 C 320.052 141.174,320.090 151.894,319.292 154.793 C 318.825 156.491,318.731 157.578,318.926 159.015 C 319.313 161.849,319.416 162.961,319.727 167.634 C 319.929 170.664,320.180 172.117,320.615 172.780 C 321.999 174.892,322.473 180.779,321.392 182.429 C 320.931 183.133,320.947 183.273,321.549 183.818 C 322.208 184.414,322.208 186.059,321.550 186.983 C 321.170 187.517,320.374 192.676,320.587 193.230 C 320.689 193.497,320.633 195.129,320.461 196.857 C 320.290 198.586,320.001 201.529,319.819 203.398 C 319.637 205.267,319.239 207.277,318.935 207.866 C 318.631 208.454,318.382 209.267,318.382 209.671 C 318.382 210.075,318.084 210.994,317.721 211.711 C 317.358 212.429,316.946 213.571,316.807 214.248 C 316.668 214.925,316.356 215.796,316.114 216.183 C 315.871 216.570,315.557 217.514,315.414 218.282 C 315.097 219.990,314.346 221.527,313.259 222.691 C 312.181 223.847,311.261 226.091,311.524 226.921 C 311.807 227.811,310.865 229.542,309.581 230.491 C 308.935 230.968,308.531 231.584,308.531 232.092 C 308.531 233.081,307.061 236.086,306.246 236.762 C 305.927 237.027,305.337 237.888,304.936 238.675 C 304.534 239.462,303.187 241.214,301.942 242.568 C 300.579 244.051,299.113 246.151,298.258 247.845 C 296.703 250.926,294.351 253.416,291.645 254.848 C 290.059 255.687,286.016 259.604,286.016 260.301 C 286.016 260.871,281.392 265.438,280.180 266.064 C 279.588 266.370,278.889 266.880,278.626 267.197 C 278.363 267.514,277.503 268.100,276.717 268.499 C 275.930 268.898,274.795 269.638,274.194 270.144 C 272.208 271.818,267.741 274.388,266.798 274.398 C 266.386 274.403,265.840 274.658,265.585 274.966 C 265.025 275.640,257.757 279.332,256.989 279.332 C 256.691 279.332,255.347 279.886,254.002 280.563 C 252.657 281.240,251.232 281.794,250.834 281.794 C 250.437 281.794,249.127 282.295,247.923 282.907 C 246.719 283.519,245.141 284.152,244.415 284.314 C 243.064 284.616,241.426 285.018,238.786 285.696 C 237.964 285.908,236.183 286.210,234.828 286.368 C 232.528 286.636,231.320 286.887,227.792 287.832 C 227.018 288.040,224.406 288.344,221.988 288.509 C 219.569 288.674,216.803 288.912,215.841 289.037 C 213.882 289.293,209.786 288.698,207.920 287.888 C 204.997 286.618,203.163 286.806,201.416 288.553 C 200.547 289.422,199.755 290.051,199.654 289.950 C 199.554 289.850,199.472 290.032,199.472 290.355 C 199.472 291.350,196.815 291.136,195.508 290.036 C 194.882 289.510,194.161 289.201,193.786 289.299 C 193.430 289.392,193.140 289.329,193.140 289.160 C 193.140 288.991,192.923 288.935,192.658 289.037 C 192.370 289.148,192.098 288.922,191.981 288.472 C 191.858 288.001,191.546 287.755,191.143 287.810 C 190.456 287.905,187.731 287.212,186.724 286.687 C 185.731 286.168,184.765 286.314,183.012 287.247 C 180.974 288.332,180.387 288.349,179.943 287.335 C 179.639 286.643,179.317 286.538,177.391 286.498 C 174.900 286.447,174.750 286.572,174.621 288.816 C 174.570 289.695,174.285 291.100,173.989 291.939 C 173.506 293.303,173.505 293.520,173.984 293.999 C 174.629 294.644,174.377 295.646,173.223 297.027 C 172.605 297.766,172.417 298.388,172.466 299.526 C 172.518 300.719,172.329 301.282,171.578 302.175 C 169.986 304.067,170.236 305.405,172.133 305.145 C 174.773 304.783,175.993 309.271,173.556 310.381 C 172.155 311.019,172.117 312.268,173.456 313.650 C 174.501 314.728,174.566 314.911,174.106 315.472 C 173.665 316.008,172.920 318.143,171.679 322.427 C 171.511 323.008,171.264 324.248,171.130 325.183 C 170.737 327.937,169.036 330.962,166.225 333.906 C 164.816 335.382,163.556 336.926,163.426 337.336 C 163.296 337.747,163.032 338.083,162.840 338.083 C 162.648 338.083,162.576 338.220,162.680 338.387 C 162.956 338.834,161.841 339.693,160.377 340.162 C 159.675 340.387,158.817 340.884,158.472 341.266 C 158.127 341.647,157.091 342.183,156.170 342.457 C 155.250 342.730,154.128 343.156,153.678 343.403 C 153.227 343.650,152.067 343.968,151.099 344.109 C 150.132 344.250,148.628 344.560,147.757 344.796 C 145.523 345.403,137.018 345.617,135.268 345.110 C 134.494 344.886,133.184 344.401,132.356 344.031 C 131.529 343.662,130.536 343.360,130.149 343.360 C 129.762 343.360,128.346 342.806,127.001 342.128 C 125.656 341.451,124.156 340.897,123.666 340.897 C 123.048 340.897,122.053 340.197,120.403 338.601 C 119.098 337.338,117.515 335.819,116.887 335.226 C 116.258 334.633,115.743 333.914,115.743 333.628 C 115.743 333.342,115.305 332.447,114.769 331.638 C 113.845 330.243,113.449 329.376,112.531 326.737 C 112.312 326.108,111.916 325.074,111.652 324.438 C 111.387 323.803,111.170 322.917,111.170 322.470 C 111.170 322.023,110.853 321.370,110.466 321.020 C 110.079 320.670,109.763 320.116,109.763 319.788 C 109.763 319.461,109.536 318.734,109.258 318.172 C 108.913 317.473,108.788 316.263,108.862 314.336 C 108.933 312.484,108.809 311.205,108.500 310.596 C 106.554 306.771,107.044 304.426,109.679 304.957 C 110.121 305.046,111.432 304.294,111.421 303.958 C 111.331 301.231,112.200 300.007,114.072 300.229 C 114.775 300.312,115.039 300.188,115.038 299.776 C 115.036 298.878,113.494 294.712,112.672 293.382 C 112.261 292.717,111.653 291.064,111.321 289.710 C 110.989 288.355,110.512 287.007,110.260 286.714 C 108.544 284.713,108.537 269.246,110.251 266.491 C 110.492 266.104,111.060 264.837,111.513 263.676 C 111.965 262.515,112.610 261.249,112.944 260.862 C 113.279 260.475,113.909 259.449,114.345 258.581 C 115.467 256.347,120.543 250.484,121.354 250.484 C 121.469 250.484,122.351 249.752,123.315 248.858 C 124.278 247.963,125.569 247.016,126.184 246.753 C 127.831 246.047,128.094 243.448,126.517 243.448 C 126.040 243.448,124.129 241.957,122.164 240.053 C 121.437 239.349,121.020 238.603,121.020 238.007 C 121.020 237.492,120.716 236.328,120.344 235.421 C 119.972 234.515,119.574 233.205,119.459 232.510 C 119.344 231.812,118.845 230.868,118.343 230.399 C 117.290 229.416,116.447 227.919,116.447 227.035 C 116.447 226.697,115.655 224.791,114.688 222.800 C 113.720 220.809,112.929 218.913,112.929 218.586 C 112.929 217.970,112.397 216.127,111.779 214.600 C 111.234 213.252,110.650 210.549,110.336 207.916 C 110.279 207.432,110.140 206.640,110.027 206.157 C 109.915 205.673,109.621 204.327,109.374 203.166 C 108.863 200.764,108.892 200.879,108.611 200.176 C 106.935 195.983,105.839 192.088,105.714 189.886 C 105.635 188.483,105.469 186.414,105.345 185.288 C 105.158 183.577,105.222 183.167,105.737 182.790 C 106.192 182.458,106.297 182.058,106.139 181.265 C 105.906 180.102,106.386 179.923,107.425 180.784 C 108.206 181.432,108.524 181.102,109.204 178.941 C 109.938 176.609,109.390 174.736,107.797 174.131 C 106.212 173.528,107.067 168.162,108.749 168.162 C 109.998 168.162,110.106 167.345,109.192 164.808 L 108.309 162.357 108.493 148.989 C 108.713 132.990,109.023 129.040,110.415 124.538 C 110.983 122.700,111.607 120.135,111.802 118.839 C 111.997 117.543,112.424 115.960,112.752 115.321 C 113.080 114.683,113.734 112.747,114.204 111.019 C 114.675 109.292,115.352 107.392,115.710 106.798 C 116.068 106.203,116.634 104.846,116.970 103.782 C 117.305 102.718,117.948 101.293,118.400 100.616 C 118.851 99.938,119.484 98.593,119.805 97.625 C 120.127 96.658,120.593 95.629,120.840 95.339 C 121.088 95.048,121.635 94.126,122.056 93.288 C 122.730 91.948,123.909 90.087,126.737 85.899 C 130.911 79.716,139.066 70.518,144.410 65.963 C 145.545 64.996,146.727 63.967,147.037 63.676 C 150.713 60.235,162.550 52.521,165.977 51.333 C 167.000 50.978,168.266 50.388,168.791 50.020 C 169.316 49.653,170.660 49.013,171.779 48.599 C 172.898 48.185,174.185 47.603,174.640 47.305 C 175.095 47.007,176.935 46.361,178.729 45.869 C 180.523 45.378,182.330 44.753,182.744 44.482 C 183.158 44.211,185.073 43.668,186.999 43.275 C 188.925 42.882,191.086 42.330,191.800 42.047 C 196.156 40.328,219.779 39.602,230.607 40.855 M193.312 102.043 C 191.880 102.460,189.829 105.009,189.365 106.948 C 188.291 111.437,189.408 172.938,190.611 175.550 C 193.309 181.408,200.377 181.703,206.684 176.220 C 207.071 175.884,208.278 175.217,209.366 174.739 C 210.454 174.261,211.454 173.690,211.590 173.470 C 211.726 173.251,212.735 172.595,213.834 172.013 C 216.053 170.836,219.473 168.756,220.121 168.188 C 220.352 167.985,221.460 167.329,222.583 166.730 C 223.707 166.130,225.655 165.030,226.913 164.284 C 228.171 163.538,229.833 162.584,230.607 162.163 C 231.381 161.742,232.489 161.046,233.069 160.617 C 233.650 160.187,235.059 159.412,236.200 158.893 C 237.342 158.375,238.450 157.729,238.663 157.459 C 238.876 157.189,239.883 156.541,240.900 156.018 C 241.918 155.496,242.839 154.924,242.949 154.747 C 243.058 154.570,244.046 153.956,245.144 153.382 C 246.243 152.808,248.250 151.631,249.604 150.766 C 250.959 149.902,252.938 148.692,254.002 148.078 C 255.066 147.464,256.052 146.766,256.192 146.526 C 256.333 146.287,256.920 145.895,257.496 145.656 C 259.548 144.806,260.441 139.872,259.184 136.333 C 258.665 134.873,256.526 133.240,252.951 131.573 C 252.082 131.168,251.053 130.551,250.664 130.201 C 250.275 129.852,247.977 128.581,245.558 127.377 C 243.140 126.173,240.923 124.980,240.633 124.727 C 240.140 124.296,238.591 123.438,233.617 120.843 C 232.502 120.262,231.327 119.567,231.004 119.299 C 230.682 119.031,228.722 117.955,226.650 116.906 C 224.578 115.858,222.396 114.629,221.801 114.176 C 221.206 113.722,219.698 112.862,218.451 112.265 C 217.204 111.668,215.629 110.840,214.952 110.425 C 214.274 110.011,212.227 108.887,210.402 107.927 C 208.577 106.968,206.599 105.820,206.005 105.377 C 205.411 104.933,204.213 104.227,203.342 103.807 C 202.471 103.387,201.205 102.735,200.528 102.358 C 199.196 101.616,195.353 101.449,193.312 102.043 M106.245 177.036 C 106.245 177.429,106.402 177.604,106.630 177.464 C 106.872 177.315,106.962 177.471,106.873 177.883 C 106.795 178.244,106.542 178.500,106.312 178.452 C 106.081 178.404,105.893 178.496,105.893 178.657 C 105.893 179.149,104.880 178.984,104.679 178.459 C 104.575 178.189,104.331 178.066,104.136 178.187 C 103.941 178.307,103.782 178.149,103.782 177.836 C 103.782 177.523,103.940 177.365,104.134 177.485 C 104.327 177.604,104.497 177.416,104.510 177.066 C 104.532 176.498,104.567 176.505,104.837 177.133 C 105.135 177.825,105.140 177.824,105.164 177.103 C 105.195 176.188,106.245 176.122,106.245 177.036 M168.072 298.170 C 167.853 299.317,168.824 299.230,169.254 298.065 C 169.491 297.424,169.423 297.274,168.895 297.274 C 168.477 297.274,168.183 297.594,168.072 298.170 " stroke="none" fill="#fafafa" fill-rule="evenodd"></path><path id="path2" d="M203.870 41.172 C 198.680 41.387,197.238 41.585,192.964 42.668 C 190.255 43.355,187.406 44.023,186.632 44.154 C 185.858 44.285,184.328 44.769,183.232 45.231 C 182.136 45.692,180.473 46.231,179.538 46.429 C 177.580 46.841,174.651 48.116,164.143 53.127 C 161.061 54.597,156.559 57.470,152.528 60.541 C 151.407 61.395,150.144 62.331,149.720 62.621 C 145.611 65.434,133.837 77.287,130.637 81.833 C 126.816 87.262,125.202 89.730,122.956 93.580 C 119.699 99.161,116.362 106.821,114.679 112.577 C 114.142 114.415,113.469 116.554,113.185 117.331 C 112.900 118.107,112.551 119.453,112.410 120.321 C 112.269 121.189,111.685 123.879,111.112 126.297 C 109.458 133.289,108.860 152.838,110.090 159.719 C 110.502 162.019,112.167 169.427,112.779 171.680 C 113.068 172.744,113.607 175.015,113.976 176.727 C 114.345 178.438,115.116 180.813,115.689 182.004 C 116.262 183.195,117.007 185.040,117.345 186.104 C 117.683 187.168,118.156 188.276,118.396 188.566 C 118.636 188.857,118.941 189.757,119.074 190.567 C 119.207 191.377,119.857 192.940,120.520 194.040 C 121.182 195.140,121.724 196.120,121.724 196.219 C 121.724 196.317,122.270 197.157,122.936 198.086 C 123.603 199.014,124.547 200.559,125.033 201.519 C 125.520 202.479,126.123 203.480,126.373 203.743 C 127.753 205.194,129.815 207.893,129.815 208.248 C 129.815 209.031,132.569 212.673,134.148 213.977 C 135.021 214.698,136.251 216.083,136.881 217.055 C 137.510 218.026,138.147 218.821,138.296 218.821 C 138.445 218.821,139.785 220.005,141.274 221.451 C 142.763 222.897,145.187 224.869,146.661 225.833 C 149.719 227.835,149.739 227.852,150.921 229.398 C 151.403 230.030,152.437 230.829,153.217 231.174 C 154.668 231.816,155.625 232.703,156.648 234.353 C 157.057 235.014,157.890 235.500,159.502 236.021 C 162.060 236.847,164.335 237.985,166.096 239.320 C 167.281 240.218,169.283 240.879,173.263 241.686 C 177.009 242.446,179.144 243.203,180.847 244.374 C 183.141 245.952,185.123 246.502,190.853 247.149 C 195.946 247.725,199.302 248.345,202.639 249.330 C 204.593 249.907,213.955 250.094,216.007 249.597 C 217.142 249.322,227.971 248.126,233.421 247.673 C 243.979 246.795,247.328 246.159,250.132 244.500 C 251.390 243.755,253.993 242.548,255.917 241.817 C 258.730 240.748,259.746 240.159,261.103 238.809 C 262.032 237.886,263.228 237.033,263.761 236.915 C 266.812 236.241,268.116 235.571,270.239 233.588 C 271.922 232.015,273.013 231.319,274.674 230.760 C 276.486 230.151,277.056 229.758,277.890 228.546 C 278.448 227.736,279.277 226.900,279.733 226.690 C 280.190 226.479,281.138 226.059,281.840 225.756 C 282.674 225.397,283.520 224.585,284.274 223.420 C 284.910 222.439,285.538 221.636,285.668 221.636 C 286.483 221.636,294.040 213.608,294.278 212.489 C 294.611 210.924,294.973 210.489,296.658 209.629 C 297.725 209.085,298.246 208.466,299.028 206.813 C 299.579 205.647,300.526 204.112,301.132 203.402 C 303.564 200.551,303.986 199.937,304.560 198.417 C 304.888 197.546,305.684 196.002,306.328 194.986 C 306.972 193.970,307.602 192.861,307.727 192.523 C 307.853 192.185,308.242 191.513,308.591 191.029 C 308.940 190.545,309.540 188.915,309.924 187.407 C 310.308 185.898,311.101 183.659,311.687 182.431 C 312.273 181.203,312.753 179.999,312.753 179.755 C 312.753 179.511,313.142 178.489,313.618 177.484 C 314.093 176.479,314.871 173.614,315.347 171.117 C 315.822 168.621,316.454 165.866,316.750 164.996 C 317.892 161.644,318.761 143.300,318.042 137.731 C 317.868 136.376,317.545 132.982,317.325 130.189 C 317.047 126.639,316.675 124.361,316.091 122.625 C 315.632 121.259,314.998 118.833,314.684 117.234 C 314.369 115.635,313.664 113.340,313.117 112.133 C 312.570 110.926,311.932 109.230,311.699 108.364 C 311.467 107.498,310.817 105.880,310.255 104.768 C 309.694 103.656,309.235 102.538,309.235 102.283 C 309.235 102.028,308.941 101.272,308.581 100.602 C 308.222 99.932,306.862 97.326,305.560 94.811 C 304.258 92.296,302.911 89.921,302.567 89.534 C 302.004 88.900,300.422 86.585,298.505 83.588 C 297.292 81.692,295.024 78.804,294.748 78.804 C 294.603 78.804,294.094 78.230,293.617 77.528 C 292.246 75.510,286.888 69.904,283.584 67.030 C 279.897 63.824,271.310 57.344,270.747 57.344 C 270.625 57.344,269.697 56.816,268.684 56.170 C 262.506 52.232,252.249 47.265,248.613 46.452 C 247.681 46.243,245.993 45.696,244.861 45.237 C 243.730 44.777,241.656 44.207,240.253 43.971 C 238.850 43.734,236.105 43.078,234.154 42.513 C 228.925 41.000,218.833 40.553,203.870 41.172 M223.756 42.575 C 225.396 42.772,228.083 43.234,229.727 43.602 C 231.372 43.969,233.905 44.460,235.356 44.692 C 236.807 44.924,239.709 45.650,241.805 46.304 C 243.901 46.958,246.054 47.493,246.590 47.493 C 247.125 47.493,248.607 48.047,249.884 48.725 C 251.160 49.402,252.413 49.956,252.668 49.956 C 252.924 49.956,254.080 50.417,255.238 50.980 C 256.396 51.543,258.215 52.414,259.279 52.915 C 261.935 54.166,265.638 56.207,266.297 56.784 C 266.597 57.047,267.524 57.605,268.357 58.023 C 269.190 58.442,270.536 59.292,271.350 59.911 C 272.163 60.531,274.173 61.942,275.816 63.046 C 282.192 67.332,295.126 80.648,297.614 85.488 C 297.863 85.972,298.525 87.001,299.085 87.775 C 299.645 88.549,300.626 89.974,301.266 90.941 C 302.635 93.011,307.824 102.980,307.834 103.559 C 307.838 103.778,308.551 105.689,309.418 107.805 C 310.285 109.922,310.994 111.795,310.994 111.968 C 310.994 112.142,311.491 113.498,312.098 114.981 C 312.781 116.647,313.511 119.493,314.010 122.427 C 314.454 125.040,315.103 128.364,315.453 129.815 C 316.000 132.091,316.088 134.100,316.091 144.415 L 316.095 156.376 314.981 161.829 C 314.369 164.828,313.711 168.153,313.520 169.217 C 313.133 171.373,310.604 178.832,309.579 180.842 C 309.215 181.556,308.731 182.913,308.503 183.858 C 308.276 184.803,307.652 186.288,307.117 187.159 C 306.582 188.030,306.028 189.138,305.887 189.622 C 305.746 190.106,305.129 191.372,304.516 192.436 C 303.903 193.500,303.091 194.944,302.712 195.645 C 302.333 196.345,301.073 198.351,299.912 200.102 C 298.751 201.853,297.405 203.947,296.922 204.754 C 296.438 205.562,295.211 207.097,294.195 208.164 C 293.179 209.232,292.348 210.267,292.348 210.463 C 292.348 211.395,280.803 222.240,275.960 225.858 C 275.053 226.535,273.818 227.503,273.216 228.010 C 272.613 228.516,271.276 229.356,270.246 229.876 C 269.215 230.396,267.236 231.551,265.848 232.442 C 264.460 233.333,262.461 234.444,261.405 234.912 C 260.350 235.380,259.083 236.039,258.591 236.376 C 258.098 236.713,256.904 237.281,255.937 237.637 C 254.969 237.994,253.587 238.655,252.865 239.108 C 252.144 239.560,251.388 239.930,251.187 239.930 C 250.985 239.930,248.964 240.553,246.694 241.314 C 244.425 242.075,241.935 242.799,241.161 242.923 C 240.387 243.046,238.171 243.604,236.236 244.162 C 227.055 246.808,199.006 246.927,191.860 244.349 C 190.531 243.870,188.573 243.300,187.510 243.082 C 181.307 241.815,168.444 236.654,162.554 233.069 C 152.100 226.708,144.863 220.624,135.767 210.554 C 134.719 209.393,133.745 208.391,133.602 208.328 C 133.312 208.198,127.899 200.247,125.840 196.927 C 123.439 193.054,119.116 184.147,118.367 181.530 C 118.229 181.047,117.599 179.384,116.967 177.836 C 116.335 176.288,115.702 174.151,115.561 173.087 C 115.420 172.023,114.870 169.965,114.339 168.514 C 113.808 167.062,113.266 164.925,113.133 163.764 C 113.001 162.603,112.571 159.358,112.178 156.552 C 111.185 149.467,111.198 140.020,112.211 132.432 C 113.497 122.796,113.617 122.132,114.500 119.787 C 114.974 118.529,115.539 116.510,115.757 115.302 C 115.975 114.093,116.602 112.076,117.152 110.818 C 117.701 109.560,118.265 108.056,118.405 107.476 C 118.545 106.895,119.129 105.479,119.704 104.328 C 120.278 103.177,120.970 101.609,121.240 100.842 C 121.903 98.964,126.580 90.826,128.750 87.775 C 129.714 86.420,131.122 84.417,131.879 83.322 C 138.770 73.365,154.771 59.635,165.699 54.301 C 171.241 51.597,173.960 50.367,175.342 49.938 C 176.099 49.704,177.634 49.058,178.753 48.503 C 179.872 47.948,181.117 47.493,181.521 47.493 C 181.924 47.493,183.710 47.014,185.489 46.427 C 187.268 45.841,190.074 45.117,191.723 44.819 C 193.373 44.521,196.148 43.973,197.889 43.601 C 199.631 43.229,201.926 42.784,202.990 42.612 C 205.717 42.170,220.181 42.145,223.756 42.575 M192.260 99.870 C 186.754 102.429,186.140 104.671,186.518 120.844 C 186.649 126.456,186.928 141.093,187.138 153.371 C 187.568 178.554,187.385 177.064,190.420 180.043 C 194.110 183.665,200.222 183.697,205.629 180.122 C 210.094 177.170,210.988 176.617,211.785 176.314 C 212.269 176.130,213.512 175.408,214.547 174.709 C 215.583 174.011,216.571 173.439,216.743 173.439 C 216.915 173.439,217.782 172.885,218.669 172.208 C 219.557 171.530,220.479 170.976,220.720 170.976 C 220.960 170.976,222.006 170.343,223.043 169.569 C 224.080 168.795,225.126 168.162,225.366 168.162 C 225.607 168.162,226.507 167.625,227.366 166.969 C 228.225 166.314,229.306 165.667,229.767 165.532 C 230.229 165.397,231.398 164.772,232.366 164.143 C 233.333 163.514,235.312 162.318,236.763 161.485 C 238.215 160.652,240.193 159.465,241.161 158.847 C 243.985 157.041,247.865 154.793,248.157 154.793 C 248.306 154.793,249.311 154.160,250.392 153.386 C 251.473 152.612,252.505 151.979,252.686 151.979 C 253.252 151.979,258.707 148.230,259.672 147.178 C 265.412 140.917,263.506 133.812,254.910 129.432 C 252.173 128.038,248.824 126.218,245.910 124.541 C 244.459 123.706,242.480 122.595,241.513 122.073 C 240.545 121.550,238.408 120.362,236.763 119.433 C 235.119 118.503,232.590 117.125,231.143 116.369 C 229.697 115.613,228.330 114.842,228.105 114.655 C 227.694 114.314,226.979 113.919,221.831 111.182 C 220.294 110.365,217.919 109.050,216.554 108.259 C 215.189 107.468,213.281 106.433,212.313 105.960 C 210.591 105.117,207.654 103.437,205.000 101.774 C 200.500 98.956,195.753 98.247,192.260 99.870 M201.583 102.036 C 202.647 102.624,204.057 103.349,204.717 103.647 C 205.376 103.945,206.484 104.636,207.179 105.181 C 207.874 105.727,208.814 106.284,209.266 106.418 C 210.048 106.651,211.469 107.432,216.732 110.519 C 218.001 111.264,219.191 111.873,219.377 111.873 C 219.562 111.873,220.344 112.303,221.114 112.828 C 222.454 113.742,225.048 115.164,228.848 117.069 C 229.815 117.553,231.044 118.258,231.579 118.633 C 232.114 119.009,233.381 119.752,234.394 120.285 C 238.394 122.388,241.178 123.911,241.513 124.180 C 242.016 124.585,245.776 126.637,247.845 127.637 C 248.813 128.104,250.317 128.921,251.187 129.452 C 252.058 129.983,254.088 131.182,255.699 132.117 C 259.250 134.178,259.740 134.764,260.499 137.860 C 261.771 143.051,260.098 145.531,252.243 150.104 C 250.405 151.174,248.644 152.278,248.330 152.556 C 248.016 152.835,246.962 153.492,245.987 154.016 C 243.768 155.210,241.403 156.633,238.746 158.370 C 237.612 159.112,236.528 159.719,236.338 159.719 C 236.148 159.719,235.548 160.035,235.004 160.423 C 233.931 161.187,230.594 163.145,227.792 164.654 C 225.603 165.834,222.706 167.578,220.402 169.105 C 219.432 169.747,218.467 170.273,218.257 170.273 C 218.047 170.273,217.588 170.589,217.238 170.977 C 216.888 171.364,215.715 172.094,214.633 172.600 C 213.550 173.105,212.348 173.807,211.961 174.159 C 211.574 174.511,210.545 175.130,209.675 175.536 C 208.804 175.941,207.142 176.900,205.981 177.666 C 197.759 183.092,191.409 181.893,189.249 174.506 C 188.864 173.187,188.046 118.714,188.294 110.818 C 188.528 103.334,190.453 101.124,196.834 101.015 C 199.358 100.973,199.848 101.078,201.583 102.036 M135.620 244.503 C 132.754 244.893,131.641 245.279,129.119 246.758 C 127.933 247.453,126.891 248.021,126.804 248.021 C 126.716 248.021,125.339 248.918,123.744 250.013 C 118.211 253.815,114.232 259.034,111.316 266.315 L 109.978 269.657 109.958 276.165 L 109.938 282.674 111.472 286.717 C 115.248 296.675,121.572 304.164,127.704 305.939 C 128.769 306.247,131.223 307.298,133.157 308.275 C 138.896 311.172,144.267 311.094,150.748 308.019 C 152.489 307.193,154.819 306.254,155.926 305.934 C 157.032 305.614,158.327 304.999,158.802 304.567 C 159.278 304.135,160.570 303.069,161.673 302.199 C 162.777 301.328,164.325 299.666,165.112 298.505 C 165.900 297.344,167.153 295.757,167.896 294.979 C 172.104 290.574,175.270 277.591,173.830 270.645 C 173.421 268.673,173.087 266.747,173.087 266.367 C 173.087 265.986,172.524 264.473,171.837 263.004 C 171.149 261.536,170.349 259.535,170.059 258.557 C 169.768 257.579,169.309 256.694,169.038 256.590 C 168.767 256.486,168.084 255.584,167.520 254.585 C 166.199 252.244,163.671 249.924,161.930 249.455 C 161.177 249.253,159.778 248.530,158.821 247.850 C 157.865 247.170,156.826 246.614,156.513 246.614 C 156.200 246.614,155.548 246.303,155.065 245.923 C 153.433 244.639,141.183 243.745,135.620 244.503 M151.097 247.639 C 160.416 250.861,165.961 255.977,169.564 264.677 C 172.211 271.069,172.578 280.173,170.388 285.136 C 169.791 286.491,169.045 288.391,168.731 289.358 C 167.456 293.292,161.383 299.688,155.983 302.785 C 133.678 315.575,106.086 294.246,112.581 269.234 C 113.163 266.990,113.941 264.664,114.308 264.064 C 114.676 263.464,115.370 262.229,115.850 261.320 C 122.249 249.210,137.981 243.104,151.097 247.639 " stroke="none" fill="#abc1e5" fill-rule="evenodd"></path><path id="path3" d="M300.616 203.981 C 299.568 205.351,299.431 205.889,299.887 206.860 C 300.655 208.495,299.680 210.351,298.684 209.151 C 298.350 208.749,298.071 208.791,296.987 209.408 C 294.999 210.541,294.547 211.029,294.309 212.300 C 294.188 212.945,293.796 213.845,293.438 214.300 C 293.080 214.755,292.728 215.286,292.656 215.479 C 292.583 215.673,292.403 215.791,292.254 215.741 C 292.106 215.692,290.622 216.998,288.958 218.643 C 287.293 220.289,285.783 221.636,285.602 221.636 C 285.421 221.636,284.968 222.325,284.596 223.167 C 283.928 224.677,283.388 225.069,279.733 226.702 C 279.277 226.906,278.448 227.736,277.890 228.546 C 277.056 229.758,276.486 230.151,274.674 230.760 C 273.013 231.319,271.922 232.015,270.239 233.588 C 268.116 235.571,266.812 236.241,263.761 236.915 C 263.228 237.033,262.032 237.886,261.103 238.809 C 259.746 240.159,258.730 240.748,255.917 241.817 C 253.993 242.548,251.390 243.755,250.132 244.500 C 247.328 246.159,243.979 246.795,233.421 247.673 C 227.971 248.126,217.142 249.322,216.007 249.597 C 213.955 250.094,204.593 249.907,202.639 249.330 C 199.302 248.345,195.946 247.725,190.853 247.149 C 185.123 246.502,183.141 245.952,180.847 244.374 C 179.144 243.203,177.009 242.446,173.263 241.686 C 169.283 240.879,167.281 240.218,166.096 239.320 C 164.335 237.985,162.060 236.847,159.502 236.021 C 157.890 235.500,157.057 235.014,156.648 234.353 C 155.625 232.703,154.668 231.816,153.217 231.174 C 152.437 230.829,151.403 230.030,150.921 229.398 C 149.739 227.852,149.719 227.835,146.661 225.833 C 145.187 224.869,142.763 222.897,141.274 221.451 C 139.785 220.005,138.422 218.821,138.246 218.821 C 138.069 218.821,137.668 218.324,137.353 217.716 C 137.039 217.108,135.418 215.248,133.752 213.582 C 132.086 211.917,130.859 210.776,131.027 211.048 C 131.235 211.385,131.202 211.463,130.925 211.291 C 130.702 211.153,130.519 210.819,130.519 210.548 C 130.519 209.513,128.659 208.249,127.353 208.397 C 126.163 208.531,126.119 208.494,126.056 207.304 C 125.955 205.429,123.562 203.383,123.444 205.072 C 123.308 207.020,123.892 208.154,125.335 208.741 C 125.667 208.876,125.655 208.997,125.285 209.257 C 125.018 209.443,124.891 209.744,125.003 209.924 C 125.114 210.105,124.891 210.522,124.507 210.851 C 123.611 211.618,123.897 212.121,126.126 213.706 C 128.355 215.291,128.778 215.259,129.639 213.444 C 130.026 212.628,130.501 212.040,130.695 212.137 C 131.325 212.452,130.998 214.450,130.100 215.772 C 128.392 218.285,129.030 223.400,130.973 222.772 C 131.126 222.722,131.561 222.848,131.940 223.051 C 132.497 223.349,132.630 223.307,132.630 222.832 C 132.630 221.164,135.556 219.928,135.934 221.436 C 136.224 222.591,135.605 224.097,134.837 224.104 C 132.823 224.121,133.540 226.779,135.711 227.341 C 136.319 227.499,136.912 227.782,137.028 227.970 C 137.147 228.162,137.003 228.221,136.700 228.105 C 136.241 227.929,136.215 228.057,136.531 228.963 C 136.789 229.702,136.791 230.239,136.538 230.712 C 136.337 231.087,136.237 231.459,136.317 231.538 C 136.396 231.617,135.995 231.995,135.426 232.376 C 134.178 233.212,134.103 234.033,135.208 234.757 C 135.659 235.052,136.179 235.819,136.363 236.461 C 136.640 237.427,137.000 237.744,138.446 238.299 C 141.593 239.505,141.687 239.578,141.913 240.990 C 142.147 242.459,143.919 243.390,146.677 243.496 C 147.572 243.530,147.681 243.582,147.054 243.678 C 143.714 244.191,143.901 244.311,148.461 244.591 C 151.073 244.751,153.790 244.927,154.498 244.983 C 155.855 245.090,157.748 246.102,157.461 246.566 C 157.257 246.897,161.021 249.428,161.716 249.428 C 162.805 249.428,164.887 250.855,166.028 252.383 C 166.825 253.450,167.501 254.002,168.011 254.002 C 168.783 254.002,169.912 256.425,169.926 258.114 C 169.929 258.471,170.045 258.596,170.190 258.399 C 170.724 257.673,171.291 257.926,171.665 259.057 C 172.043 260.204,171.873 261.390,171.331 261.390 C 171.180 261.390,171.459 262.250,171.951 263.302 L 172.846 265.214 173.507 264.373 C 174.464 263.156,175.134 263.632,175.791 265.995 C 176.883 269.923,179.065 270.371,179.554 266.768 C 179.937 263.945,181.735 263.197,182.609 265.496 C 183.245 267.170,186.933 269.833,188.614 269.833 C 189.264 269.833,190.371 270.536,192.131 272.066 C 192.728 272.584,194.547 272.461,194.547 271.903 C 194.547 271.732,194.666 271.630,194.811 271.676 C 195.241 271.812,197.361 270.830,197.361 270.494 C 197.361 269.261,199.732 270.317,201.029 272.127 C 201.788 273.187,202.522 274.055,202.659 274.055 C 202.796 274.055,202.991 274.371,203.092 274.758 C 203.326 275.654,205.276 275.723,206.482 274.878 C 207.178 274.390,208.456 274.279,214.212 274.205 C 224.511 274.071,228.620 273.662,232.366 272.397 C 234.107 271.808,236.403 271.216,237.467 271.080 C 239.691 270.795,241.631 270.223,242.392 269.625 C 243.308 268.907,245.857 267.722,246.487 267.722 C 246.820 267.722,247.578 267.574,248.172 267.394 C 249.504 266.990,251.747 266.416,253.028 266.151 C 253.556 266.042,254.506 265.502,255.139 264.950 C 255.771 264.398,256.932 263.621,257.719 263.222 C 258.506 262.823,259.366 262.236,259.631 261.917 C 259.895 261.599,260.754 261.010,261.540 260.609 C 262.326 260.208,263.969 259.032,265.190 257.996 C 266.580 256.817,267.738 256.113,268.287 256.113 C 269.850 256.113,272.315 254.249,272.475 252.946 C 272.487 252.850,272.683 252.435,272.911 252.025 C 273.139 251.615,273.247 251.201,273.150 251.104 C 273.054 251.008,273.362 251.002,273.835 251.093 C 274.456 251.212,274.806 251.051,275.091 250.519 C 275.309 250.113,275.654 249.780,275.858 249.780 C 276.063 249.780,276.633 249.464,277.125 249.077 C 277.617 248.690,278.235 248.373,278.500 248.373 C 278.764 248.373,279.296 248.056,279.683 247.669 L 280.387 246.966 279.595 246.954 L 278.804 246.942 279.580 246.294 C 280.008 245.938,280.273 245.561,280.170 245.458 C 280.067 245.355,280.332 245.160,280.759 245.024 C 281.302 244.852,281.404 244.697,281.099 244.508 C 280.817 244.334,281.230 244.022,282.267 243.626 C 283.704 243.077,284.137 242.611,286.438 239.136 C 289.845 233.991,290.651 232.471,291.520 229.551 C 291.731 228.845,292.098 228.458,292.632 228.382 C 294.426 228.125,296.218 225.796,296.223 223.713 C 296.230 221.310,296.745 220.308,298.469 219.346 C 301.094 217.881,301.889 215.340,300.279 213.561 C 299.146 212.310,299.570 211.082,301.134 211.082 C 303.785 211.082,304.488 206.780,302.263 204.169 L 301.319 203.062 300.616 203.981 M129.792 307.328 C 129.564 307.603,129.019 307.828,128.581 307.828 C 127.833 307.828,126.649 309.106,126.649 309.915 C 126.649 310.122,127.299 310.202,128.223 310.109 C 130.440 309.884,131.691 310.409,131.387 311.434 C 130.702 313.737,126.649 313.770,126.649 311.472 C 126.649 310.476,126.393 310.333,124.997 310.545 C 123.584 310.760,123.406 311.467,124.308 313.281 C 124.712 314.094,124.975 315.258,124.932 316.041 C 124.866 317.242,125.775 319.058,126.984 320.141 C 128.843 321.805,129.531 324.200,129.005 327.177 C 128.731 328.730,130.347 330.098,131.657 329.421 C 132.228 329.126,132.780 328.969,132.885 329.073 C 133.222 329.411,134.416 328.561,134.168 328.160 C 134.029 327.935,134.088 327.871,134.310 328.008 C 134.520 328.138,134.901 327.964,135.156 327.622 C 135.411 327.281,135.937 326.945,136.324 326.878 C 136.711 326.810,137.106 326.637,137.203 326.492 C 137.888 325.471,146.613 325.129,147.710 326.081 C 148.151 326.462,148.816 326.716,149.189 326.644 C 149.616 326.562,149.868 326.709,149.868 327.042 C 149.868 327.332,150.017 327.478,150.198 327.366 C 150.380 327.254,150.659 327.396,150.819 327.681 C 151.020 328.041,151.270 328.099,151.632 327.870 C 152.062 327.598,152.030 327.533,151.451 327.506 C 151.064 327.488,150.946 327.393,151.190 327.295 C 151.433 327.197,151.542 326.972,151.433 326.795 C 151.323 326.618,151.490 326.473,151.803 326.473 C 152.116 326.473,152.274 326.315,152.155 326.121 C 152.035 325.928,152.167 325.770,152.447 325.770 C 152.727 325.770,152.949 325.572,152.940 325.330 C 152.881 323.743,153.196 322.922,154.445 321.410 C 156.580 318.827,157.145 317.472,156.421 316.672 C 156.106 316.324,155.849 315.919,155.849 315.771 C 155.849 315.623,155.547 315.119,155.179 314.651 C 153.869 312.986,155.610 311.954,158.150 312.891 C 158.822 313.139,159.694 312.205,159.496 311.450 C 159.310 310.739,158.037 309.938,157.090 309.938 C 156.824 309.938,156.136 309.543,155.561 309.059 C 154.986 308.575,154.270 308.179,153.968 308.179 C 153.667 308.179,153.279 307.926,153.106 307.616 C 152.676 306.848,148.813 308.591,148.813 309.554 C 148.813 310.261,148.965 310.226,144.757 310.508 C 140.785 310.774,136.843 310.190,134.763 309.028 C 131.517 307.214,130.247 306.780,129.792 307.328 " stroke="none" fill="#c9c8cb" fill-rule="evenodd"></path><path id="path4" d="M204.573 40.454 C 197.376 40.732,194.095 41.141,191.800 42.047 C 191.086 42.330,188.925 42.882,186.999 43.275 C 185.073 43.668,183.158 44.211,182.744 44.482 C 182.330 44.753,180.523 45.378,178.729 45.869 C 176.935 46.361,175.095 47.007,174.640 47.305 C 174.185 47.603,172.898 48.185,171.779 48.599 C 170.660 49.013,169.316 49.653,168.791 50.020 C 168.266 50.388,167.000 50.978,165.977 51.333 C 162.550 52.521,150.713 60.235,147.037 63.676 C 146.727 63.967,145.545 64.996,144.410 65.963 C 139.066 70.518,130.911 79.716,126.737 85.899 C 123.909 90.087,122.730 91.948,122.056 93.288 C 121.635 94.126,121.088 95.048,120.840 95.339 C 120.593 95.629,120.127 96.658,119.805 97.625 C 119.484 98.593,118.851 99.938,118.400 100.616 C 117.948 101.293,117.305 102.718,116.970 103.782 C 116.634 104.846,116.068 106.203,115.710 106.798 C 115.352 107.392,114.675 109.292,114.204 111.019 C 113.734 112.747,113.080 114.683,112.752 115.321 C 112.424 115.960,111.997 117.543,111.802 118.839 C 111.607 120.135,110.983 122.700,110.415 124.538 C 109.023 129.040,108.713 132.990,108.493 148.989 L 108.309 162.357 109.192 164.808 C 110.106 167.345,109.998 168.162,108.749 168.162 C 107.067 168.162,106.212 173.528,107.797 174.131 C 109.390 174.736,109.938 176.609,109.204 178.941 C 108.524 181.102,108.206 181.432,107.425 180.784 C 106.386 179.923,105.906 180.102,106.139 181.265 C 106.297 182.058,106.192 182.458,105.737 182.790 C 105.222 183.167,105.158 183.577,105.345 185.288 C 105.469 186.414,105.635 188.483,105.714 189.886 C 105.839 192.088,106.935 195.983,108.611 200.176 C 108.892 200.879,108.863 200.764,109.374 203.166 C 109.621 204.327,109.915 205.673,110.027 206.157 C 110.140 206.640,110.279 207.432,110.336 207.916 C 110.650 210.549,111.234 213.252,111.779 214.600 C 112.397 216.127,112.929 217.970,112.929 218.586 C 112.929 218.913,113.720 220.809,114.688 222.800 C 115.655 224.791,116.447 226.697,116.447 227.035 C 116.447 227.919,117.290 229.416,118.343 230.399 C 118.845 230.868,119.344 231.812,119.459 232.510 C 119.574 233.205,119.972 234.515,120.344 235.421 C 120.716 236.328,121.020 237.492,121.020 238.007 C 121.020 238.603,121.437 239.349,122.164 240.053 C 124.129 241.957,126.040 243.448,126.517 243.448 C 128.094 243.448,127.831 246.047,126.184 246.753 C 125.569 247.016,124.278 247.963,123.315 248.858 C 122.351 249.752,121.469 250.484,121.354 250.484 C 120.543 250.484,115.467 256.347,114.345 258.581 C 113.909 259.449,113.279 260.475,112.944 260.862 C 112.610 261.249,111.965 262.515,111.513 263.676 C 111.060 264.837,110.492 266.104,110.251 266.491 C 108.537 269.246,108.544 284.713,110.260 286.714 C 110.512 287.007,110.989 288.355,111.321 289.710 C 111.653 291.064,112.261 292.717,112.672 293.382 C 113.494 294.712,115.036 298.878,115.038 299.776 C 115.039 300.188,114.775 300.312,114.072 300.229 C 112.200 300.007,111.331 301.231,111.421 303.958 C 111.432 304.294,110.121 305.046,109.679 304.957 C 107.044 304.426,106.554 306.771,108.500 310.596 C 108.809 311.205,108.933 312.484,108.862 314.336 C 108.788 316.263,108.913 317.473,109.258 318.172 C 109.536 318.734,109.763 319.461,109.763 319.788 C 109.763 320.116,110.079 320.670,110.466 321.020 C 110.853 321.370,111.170 322.023,111.170 322.470 C 111.170 322.917,111.387 323.803,111.652 324.438 C 111.916 325.074,112.312 326.108,112.531 326.737 C 113.449 329.376,113.845 330.243,114.769 331.638 C 115.305 332.447,115.743 333.342,115.743 333.628 C 115.743 333.914,116.258 334.633,116.887 335.226 C 117.515 335.819,119.098 337.338,120.403 338.601 C 122.053 340.197,123.048 340.897,123.666 340.897 C 124.156 340.897,125.656 341.451,127.001 342.128 C 128.346 342.806,129.762 343.360,130.149 343.360 C 130.536 343.360,131.529 343.662,132.356 344.031 C 133.184 344.401,134.494 344.886,135.268 345.110 C 137.018 345.617,145.523 345.403,147.757 344.796 C 148.628 344.560,150.132 344.250,151.099 344.109 C 152.067 343.968,153.227 343.650,153.678 343.403 C 154.128 343.156,155.250 342.730,156.170 342.457 C 157.091 342.183,158.127 341.647,158.472 341.266 C 158.817 340.884,159.675 340.387,160.377 340.162 C 161.841 339.693,162.956 338.834,162.680 338.387 C 162.576 338.220,162.648 338.083,162.840 338.083 C 163.032 338.083,163.296 337.747,163.426 337.336 C 163.556 336.926,164.816 335.382,166.225 333.906 C 169.036 330.962,170.737 327.937,171.130 325.183 C 171.264 324.248,171.511 323.008,171.679 322.427 C 172.920 318.143,173.665 316.008,174.106 315.472 C 174.566 314.911,174.501 314.728,173.456 313.650 C 172.117 312.268,172.155 311.019,173.556 310.381 C 175.993 309.271,174.773 304.783,172.133 305.145 C 170.236 305.405,169.986 304.067,171.578 302.175 C 172.329 301.282,172.518 300.719,172.466 299.526 C 172.417 298.388,172.605 297.766,173.223 297.027 C 174.377 295.646,174.629 294.644,173.984 293.999 C 173.505 293.520,173.506 293.303,173.989 291.939 C 174.285 291.100,174.570 289.695,174.621 288.816 C 174.750 286.572,174.900 286.447,177.391 286.498 C 179.317 286.538,179.639 286.643,179.943 287.335 C 180.387 288.349,180.974 288.332,183.012 287.247 C 184.765 286.314,185.731 286.168,186.724 286.687 C 187.731 287.212,190.456 287.905,191.143 287.810 C 191.546 287.755,191.858 288.001,191.981 288.472 C 192.098 288.922,192.370 289.148,192.658 289.037 C 192.923 288.935,193.140 288.991,193.140 289.160 C 193.140 289.329,193.430 289.392,193.786 289.299 C 194.161 289.201,194.882 289.510,195.508 290.036 C 196.815 291.136,199.472 291.350,199.472 290.355 C 199.472 290.032,199.554 289.850,199.654 289.950 C 199.755 290.051,200.547 289.422,201.416 288.553 C 203.163 286.806,204.997 286.618,207.920 287.888 C 209.786 288.698,213.882 289.293,215.841 289.037 C 216.803 288.912,219.569 288.674,221.988 288.509 C 224.406 288.344,227.018 288.040,227.792 287.832 C 231.320 286.887,232.528 286.636,234.828 286.368 C 236.183 286.210,237.964 285.908,238.786 285.696 C 241.426 285.018,243.064 284.616,244.415 284.314 C 245.141 284.152,246.719 283.519,247.923 282.907 C 249.127 282.295,250.437 281.794,250.834 281.794 C 251.232 281.794,252.657 281.240,254.002 280.563 C 255.347 279.886,256.691 279.332,256.989 279.332 C 257.757 279.332,265.025 275.640,265.585 274.966 C 265.840 274.658,266.386 274.403,266.798 274.398 C 267.741 274.388,272.208 271.818,274.194 270.144 C 274.795 269.638,275.930 268.898,276.717 268.499 C 277.503 268.100,278.363 267.514,278.626 267.197 C 278.889 266.880,279.588 266.370,280.180 266.064 C 281.392 265.438,286.016 260.871,286.016 260.301 C 286.016 259.604,290.059 255.687,291.645 254.848 C 294.351 253.416,296.703 250.926,298.258 247.845 C 299.113 246.151,300.579 244.051,301.942 242.568 C 303.187 241.214,304.534 239.462,304.936 238.675 C 305.337 237.888,305.927 237.027,306.246 236.762 C 307.061 236.086,308.531 233.081,308.531 232.092 C 308.531 231.584,308.935 230.968,309.581 230.491 C 310.865 229.542,311.807 227.811,311.524 226.921 C 311.261 226.091,312.181 223.847,313.259 222.691 C 314.346 221.527,315.097 219.990,315.414 218.282 C 315.557 217.514,315.871 216.570,316.114 216.183 C 316.356 215.796,316.668 214.925,316.807 214.248 C 316.946 213.571,317.358 212.429,317.721 211.711 C 318.084 210.994,318.382 210.075,318.382 209.671 C 318.382 209.267,318.631 208.454,318.935 207.866 C 319.239 207.277,319.637 205.267,319.819 203.398 C 320.001 201.529,320.290 198.586,320.461 196.857 C 320.633 195.129,320.689 193.497,320.587 193.230 C 320.374 192.676,321.170 187.517,321.550 186.983 C 322.208 186.059,322.208 184.414,321.549 183.818 C 320.947 183.273,320.931 183.133,321.392 182.429 C 322.473 180.779,321.999 174.892,320.615 172.780 C 320.180 172.117,319.929 170.664,319.727 167.634 C 319.416 162.961,319.313 161.849,318.926 159.015 C 318.731 157.578,318.825 156.491,319.292 154.793 C 320.090 151.894,320.052 141.174,319.232 138.027 C 318.950 136.945,318.566 133.784,318.379 131.001 C 318.007 125.489,317.218 121.308,316.424 120.650 C 316.146 120.419,315.919 119.805,315.919 119.285 C 315.919 117.845,314.523 112.540,313.825 111.323 C 313.484 110.730,312.844 109.147,312.403 107.805 C 311.962 106.463,311.243 104.732,310.806 103.958 C 310.368 103.184,309.761 101.668,309.455 100.590 C 309.149 99.511,308.582 98.342,308.195 97.991 C 307.808 97.641,307.179 96.521,306.798 95.503 C 306.166 93.813,303.740 89.521,302.859 88.535 C 302.658 88.310,302.071 87.471,301.555 86.669 C 299.147 82.934,296.043 78.717,295.228 78.076 C 294.734 77.687,294.035 76.886,293.676 76.295 C 292.192 73.854,282.596 64.652,278.668 61.904 C 268.658 54.897,265.841 53.178,259.103 49.963 C 256.588 48.763,253.975 47.492,253.298 47.139 C 252.621 46.785,250.765 46.173,249.174 45.778 C 247.583 45.383,245.921 44.826,245.480 44.541 C 245.040 44.255,242.887 43.681,240.696 43.264 C 238.505 42.847,236.051 42.217,235.243 41.864 C 232.213 40.539,218.581 39.913,204.573 40.454 M223.923 41.161 C 229.654 41.440,231.113 41.633,234.154 42.513 C 236.105 43.078,238.850 43.734,240.253 43.971 C 241.656 44.207,243.730 44.777,244.861 45.237 C 245.993 45.696,247.681 46.243,248.613 46.452 C 252.249 47.265,262.506 52.232,268.684 56.170 C 269.697 56.816,270.625 57.344,270.747 57.344 C 271.310 57.344,279.897 63.824,283.584 67.030 C 286.888 69.904,292.246 75.510,293.617 77.528 C 294.094 78.230,294.603 78.804,294.748 78.804 C 295.024 78.804,297.292 81.692,298.505 83.588 C 300.422 86.585,302.004 88.900,302.567 89.534 C 302.911 89.921,304.258 92.296,305.560 94.811 C 306.862 97.326,308.222 99.932,308.581 100.602 C 308.941 101.272,309.235 102.028,309.235 102.283 C 309.235 102.538,309.694 103.656,310.255 104.768 C 310.817 105.880,311.467 107.498,311.699 108.364 C 311.932 109.230,312.570 110.926,313.117 112.133 C 313.664 113.340,314.369 115.635,314.684 117.234 C 314.998 118.833,315.632 121.259,316.091 122.625 C 316.675 124.361,317.047 126.639,317.325 130.189 C 317.545 132.982,317.868 136.376,318.042 137.731 C 318.761 143.300,317.892 161.644,316.750 164.996 C 316.454 165.866,315.820 168.637,315.342 171.152 C 314.864 173.668,314.230 176.201,313.934 176.781 C 313.637 177.361,312.995 179.024,312.506 180.475 C 312.017 181.926,311.415 183.351,311.168 183.641 C 310.922 183.931,310.385 185.515,309.975 187.159 C 309.565 188.804,308.943 190.545,308.593 191.029 C 308.243 191.513,307.853 192.185,307.727 192.523 C 307.602 192.861,306.972 193.970,306.328 194.986 C 305.684 196.002,304.885 197.559,304.551 198.445 C 304.218 199.332,303.670 200.361,303.333 200.732 C 301.590 202.655,301.437 203.219,302.360 204.316 C 304.489 206.847,303.722 211.082,301.134 211.082 C 299.570 211.082,299.146 212.310,300.279 213.561 C 301.889 215.340,301.094 217.881,298.469 219.346 C 296.745 220.308,296.230 221.310,296.223 223.713 C 296.218 225.796,294.426 228.125,292.632 228.382 C 292.098 228.458,291.731 228.845,291.520 229.551 C 290.651 232.471,289.845 233.991,286.438 239.136 C 284.137 242.611,283.704 243.077,282.267 243.626 C 281.230 244.022,280.817 244.334,281.099 244.508 C 281.404 244.697,281.302 244.852,280.759 245.024 C 280.332 245.160,280.067 245.355,280.170 245.458 C 280.273 245.561,280.008 245.938,279.580 246.294 L 278.804 246.942 279.595 246.954 L 280.387 246.966 279.683 247.669 C 279.296 248.056,278.764 248.373,278.500 248.373 C 278.235 248.373,277.617 248.690,277.125 249.077 C 276.633 249.464,276.063 249.780,275.858 249.780 C 275.654 249.780,275.309 250.113,275.091 250.519 C 274.806 251.051,274.456 251.212,273.835 251.093 C 273.362 251.002,273.054 251.008,273.150 251.104 C 273.247 251.201,273.139 251.615,272.911 252.025 C 272.683 252.435,272.487 252.850,272.475 252.946 C 272.315 254.249,269.850 256.113,268.287 256.113 C 267.738 256.113,266.580 256.817,265.190 257.996 C 263.969 259.032,262.326 260.208,261.540 260.609 C 260.754 261.010,259.895 261.599,259.631 261.917 C 259.366 262.236,258.506 262.823,257.719 263.222 C 256.932 263.621,255.771 264.398,255.139 264.950 C 254.506 265.502,253.556 266.042,253.028 266.151 C 251.747 266.416,249.504 266.990,248.172 267.394 C 247.578 267.574,246.820 267.722,246.487 267.722 C 245.857 267.722,243.308 268.907,242.392 269.625 C 241.631 270.223,239.691 270.795,237.467 271.080 C 236.403 271.216,234.107 271.808,232.366 272.397 C 228.620 273.662,224.511 274.071,214.212 274.205 C 208.456 274.279,207.178 274.390,206.482 274.878 C 205.276 275.723,203.326 275.654,203.092 274.758 C 202.991 274.371,202.796 274.055,202.659 274.055 C 202.522 274.055,201.788 273.187,201.029 272.127 C 199.732 270.317,197.361 269.261,197.361 270.494 C 197.361 270.830,195.241 271.812,194.811 271.676 C 194.666 271.630,194.547 271.732,194.547 271.903 C 194.547 272.461,192.728 272.584,192.131 272.066 C 190.371 270.536,189.264 269.833,188.614 269.833 C 186.933 269.833,183.245 267.170,182.609 265.496 C 181.735 263.197,179.937 263.945,179.554 266.768 C 179.084 270.233,176.765 269.915,175.890 266.265 C 175.333 263.945,174.654 263.247,173.749 264.066 C 172.890 264.844,172.906 266.186,173.830 270.645 C 175.270 277.591,172.104 290.574,167.896 294.979 C 167.153 295.757,165.900 297.344,165.112 298.505 C 164.325 299.666,162.777 301.328,161.673 302.199 C 160.570 303.069,159.281 304.132,158.810 304.559 C 158.339 304.987,156.837 305.670,155.472 306.076 C 152.950 306.827,152.213 307.802,153.918 308.130 C 154.303 308.204,155.065 308.641,155.612 309.102 C 156.159 309.562,156.824 309.938,157.090 309.938 C 158.037 309.938,159.310 310.739,159.496 311.450 C 159.694 312.205,158.822 313.139,158.150 312.891 C 155.610 311.954,153.869 312.986,155.179 314.651 C 155.547 315.119,155.849 315.623,155.849 315.771 C 155.849 315.919,156.106 316.324,156.421 316.672 C 157.145 317.472,156.580 318.827,154.445 321.410 C 153.196 322.922,152.881 323.743,152.940 325.330 C 152.949 325.572,152.727 325.770,152.447 325.770 C 152.167 325.770,152.035 325.928,152.155 326.121 C 152.274 326.315,152.116 326.473,151.803 326.473 C 151.490 326.473,151.323 326.618,151.433 326.795 C 151.542 326.972,151.433 327.197,151.190 327.295 C 150.946 327.393,151.064 327.488,151.451 327.506 C 152.030 327.533,152.062 327.598,151.632 327.870 C 151.270 328.099,151.020 328.041,150.819 327.681 C 150.659 327.396,150.380 327.254,150.198 327.366 C 150.017 327.478,149.868 327.332,149.868 327.042 C 149.868 326.709,149.616 326.562,149.189 326.644 C 148.816 326.716,148.151 326.462,147.710 326.081 C 146.613 325.129,137.888 325.471,137.203 326.492 C 137.106 326.637,136.711 326.810,136.324 326.878 C 135.937 326.945,135.411 327.281,135.156 327.622 C 134.901 327.964,134.520 328.138,134.310 328.008 C 134.088 327.871,134.029 327.935,134.168 328.160 C 134.416 328.561,133.222 329.411,132.885 329.073 C 132.780 328.969,132.228 329.126,131.657 329.421 C 130.347 330.098,128.731 328.730,129.005 327.177 C 129.531 324.200,128.843 321.805,126.984 320.141 C 125.775 319.058,124.866 317.242,124.932 316.041 C 124.975 315.258,124.712 314.094,124.308 313.281 C 123.406 311.467,123.584 310.760,124.997 310.545 C 126.393 310.333,126.649 310.476,126.649 311.472 C 126.649 313.770,130.702 313.737,131.387 311.434 C 131.691 310.409,130.440 309.884,128.223 310.109 C 127.299 310.202,126.649 310.122,126.649 309.915 C 126.649 309.106,127.833 307.828,128.581 307.828 C 131.005 307.828,130.230 306.516,127.448 305.911 C 122.125 304.753,115.120 296.337,111.472 286.717 L 109.938 282.674 109.958 276.165 L 109.978 269.657 111.316 266.315 C 114.232 259.034,118.211 253.815,123.744 250.013 C 125.339 248.918,126.716 248.021,126.804 248.021 C 126.891 248.021,127.925 247.458,129.100 246.769 C 132.257 244.918,133.949 244.550,141.064 244.161 C 144.611 243.968,147.594 243.728,147.694 243.629 C 147.793 243.529,147.322 243.448,146.647 243.448 C 144.032 243.448,142.149 242.471,141.913 240.990 C 141.687 239.578,141.593 239.505,138.446 238.299 C 137.000 237.744,136.640 237.427,136.363 236.461 C 136.179 235.819,135.659 235.052,135.208 234.757 C 134.103 234.033,134.178 233.212,135.426 232.376 C 135.995 231.995,136.396 231.617,136.317 231.538 C 136.237 231.459,136.337 231.087,136.538 230.712 C 136.791 230.239,136.789 229.702,136.531 228.963 C 136.215 228.057,136.241 227.929,136.700 228.105 C 137.003 228.221,137.147 228.162,137.028 227.970 C 136.912 227.782,136.319 227.499,135.711 227.341 C 133.540 226.779,132.823 224.121,134.837 224.104 C 135.605 224.097,136.224 222.591,135.934 221.436 C 135.556 219.928,132.630 221.164,132.630 222.832 C 132.630 223.307,132.497 223.349,131.940 223.051 C 131.561 222.848,131.126 222.722,130.973 222.772 C 129.030 223.400,128.392 218.285,130.100 215.772 C 130.998 214.450,131.325 212.452,130.695 212.137 C 130.501 212.040,130.026 212.628,129.639 213.444 C 128.778 215.259,128.355 215.291,126.126 213.706 C 123.897 212.121,123.611 211.618,124.507 210.851 C 124.891 210.522,125.114 210.105,125.003 209.924 C 124.891 209.744,125.018 209.443,125.285 209.257 C 125.655 208.997,125.667 208.876,125.335 208.741 C 123.892 208.154,123.308 207.020,123.444 205.072 C 123.562 203.383,125.955 205.429,126.056 207.304 C 126.119 208.494,126.163 208.531,127.353 208.397 C 128.659 208.249,130.519 209.513,130.519 210.548 C 130.519 210.819,130.663 211.130,130.840 211.239 C 131.331 211.542,131.092 210.593,130.418 209.564 C 130.087 209.058,129.815 208.462,129.815 208.241 C 129.815 207.892,127.742 205.183,126.373 203.743 C 126.123 203.480,125.520 202.479,125.033 201.519 C 124.547 200.559,123.603 199.014,122.936 198.086 C 122.270 197.157,121.724 196.317,121.724 196.219 C 121.724 196.120,121.182 195.140,120.520 194.040 C 119.857 192.940,119.207 191.377,119.074 190.567 C 118.941 189.757,118.636 188.857,118.396 188.566 C 118.156 188.276,117.683 187.168,117.345 186.104 C 117.007 185.040,116.262 183.195,115.689 182.004 C 115.116 180.813,114.345 178.438,113.976 176.727 C 113.607 175.015,113.068 172.744,112.779 171.680 C 112.167 169.427,110.502 162.019,110.090 159.719 C 108.860 152.838,109.458 133.289,111.112 126.297 C 111.685 123.879,112.269 121.189,112.410 120.321 C 112.551 119.453,112.900 118.107,113.185 117.331 C 113.469 116.554,114.142 114.415,114.679 112.577 C 116.362 106.821,119.699 99.161,122.956 93.580 C 125.202 89.730,126.816 87.262,130.637 81.833 C 133.837 77.287,145.611 65.434,149.720 62.621 C 150.144 62.331,151.407 61.395,152.528 60.541 C 156.559 57.470,161.061 54.597,164.143 53.127 C 174.651 48.116,177.580 46.841,179.538 46.429 C 180.473 46.231,182.136 45.692,183.232 45.231 C 184.328 44.769,185.858 44.285,186.632 44.154 C 187.406 44.023,190.255 43.355,192.964 42.668 C 199.571 40.993,210.032 40.484,223.923 41.161 M193.232 101.215 C 190.279 101.785,188.466 105.311,188.294 110.818 C 188.046 118.714,188.864 173.187,189.249 174.506 C 191.409 181.893,197.759 183.092,205.981 177.666 C 207.142 176.900,208.804 175.941,209.675 175.536 C 210.545 175.130,211.574 174.511,211.961 174.159 C 212.348 173.807,213.550 173.105,214.633 172.600 C 215.715 172.094,216.888 171.364,217.238 170.977 C 217.588 170.589,218.047 170.273,218.257 170.273 C 218.467 170.273,219.432 169.747,220.402 169.105 C 222.706 167.578,225.603 165.834,227.792 164.654 C 230.594 163.145,233.931 161.187,235.004 160.423 C 235.548 160.035,236.148 159.719,236.338 159.719 C 236.528 159.719,237.612 159.112,238.746 158.370 C 241.403 156.633,243.768 155.210,245.987 154.016 C 246.962 153.492,248.016 152.835,248.330 152.556 C 248.644 152.278,250.405 151.174,252.243 150.104 C 260.098 145.531,261.771 143.051,260.499 137.860 C 259.740 134.764,259.250 134.178,255.699 132.117 C 254.088 131.182,252.058 129.983,251.187 129.452 C 250.317 128.921,248.813 128.104,247.845 127.637 C 245.776 126.637,242.016 124.585,241.513 124.180 C 241.178 123.911,238.394 122.388,234.394 120.285 C 233.381 119.752,232.114 119.009,231.579 118.633 C 231.044 118.258,229.815 117.553,228.848 117.069 C 225.048 115.164,222.454 113.742,221.114 112.828 C 220.344 112.303,219.562 111.873,219.377 111.873 C 219.191 111.873,218.001 111.264,216.732 110.519 C 211.469 107.432,210.048 106.651,209.266 106.418 C 208.814 106.284,207.874 105.727,207.179 105.181 C 206.484 104.636,205.376 103.945,204.717 103.647 C 204.057 103.349,202.647 102.624,201.583 102.036 C 199.668 100.978,196.218 100.639,193.232 101.215 M200.528 102.358 C 201.205 102.735,202.471 103.387,203.342 103.807 C 204.213 104.227,205.411 104.933,206.005 105.377 C 206.599 105.820,208.577 106.968,210.402 107.927 C 212.227 108.887,214.274 110.011,214.952 110.425 C 215.629 110.840,217.204 111.668,218.451 112.265 C 219.698 112.862,221.206 113.722,221.801 114.176 C 222.396 114.629,224.578 115.858,226.650 116.906 C 228.722 117.955,230.682 119.031,231.004 119.299 C 231.327 119.567,232.502 120.262,233.617 120.843 C 238.591 123.438,240.140 124.296,240.633 124.727 C 240.923 124.980,243.140 126.173,245.558 127.377 C 247.977 128.581,250.275 129.852,250.664 130.201 C 251.053 130.551,252.082 131.168,252.951 131.573 C 256.526 133.240,258.665 134.873,259.184 136.333 C 260.441 139.872,259.548 144.806,257.496 145.656 C 256.920 145.895,256.333 146.287,256.192 146.526 C 256.052 146.766,255.066 147.464,254.002 148.078 C 252.938 148.692,250.959 149.902,249.604 150.766 C 248.250 151.631,246.243 152.808,245.144 153.382 C 244.046 153.956,243.058 154.570,242.949 154.747 C 242.839 154.924,241.918 155.496,240.900 156.018 C 239.883 156.541,238.876 157.189,238.663 157.459 C 238.450 157.729,237.342 158.375,236.200 158.893 C 235.059 159.412,233.650 160.187,233.069 160.617 C 232.489 161.046,231.381 161.742,230.607 162.163 C 229.833 162.584,228.171 163.538,226.913 164.284 C 225.655 165.030,223.707 166.130,222.583 166.730 C 221.460 167.329,220.352 167.985,220.121 168.188 C 219.473 168.756,216.053 170.836,213.834 172.013 C 212.735 172.595,211.726 173.251,211.590 173.470 C 211.454 173.690,210.454 174.261,209.366 174.739 C 208.278 175.217,207.071 175.884,206.684 176.220 C 201.874 180.401,195.711 181.391,192.706 178.464 C 189.454 175.296,189.405 174.700,189.152 134.741 C 188.971 106.095,188.958 106.308,190.998 103.858 C 192.882 101.596,197.776 100.826,200.528 102.358 M105.164 177.103 C 105.140 177.824,105.135 177.825,104.837 177.133 C 104.567 176.505,104.532 176.498,104.510 177.066 C 104.497 177.416,104.327 177.604,104.134 177.485 C 103.940 177.365,103.782 177.523,103.782 177.836 C 103.782 178.149,103.941 178.307,104.136 178.187 C 104.331 178.066,104.575 178.189,104.679 178.459 C 104.880 178.984,105.893 179.149,105.893 178.657 C 105.893 178.496,106.081 178.404,106.312 178.452 C 106.542 178.500,106.795 178.244,106.873 177.883 C 106.962 177.471,106.872 177.315,106.630 177.464 C 106.402 177.604,106.245 177.429,106.245 177.036 C 106.245 176.122,105.195 176.188,105.164 177.103 M298.832 207.291 C 298.336 208.331,298.300 208.688,298.649 209.109 C 299.667 210.336,300.725 208.379,299.889 206.817 C 299.450 205.996,299.449 205.997,298.832 207.291 M154.627 245.191 C 154.316 245.694,156.040 246.687,156.972 246.541 C 157.734 246.422,157.709 246.367,156.552 245.636 C 155.175 244.765,154.926 244.708,154.627 245.191 M167.458 254.201 C 167.458 254.669,168.334 255.998,169.143 256.756 C 169.845 257.414,169.966 257.448,169.755 256.932 C 169.611 256.578,169.344 255.774,169.163 255.145 C 168.881 254.172,167.458 253.383,167.458 254.201 M170.273 258.793 C 170.273 259.717,170.965 261.390,171.347 261.390 C 171.866 261.390,172.041 260.197,171.681 259.108 C 171.253 257.808,170.273 257.589,170.273 258.793 M169.254 298.065 C 168.824 299.230,167.853 299.317,168.072 298.170 C 168.183 297.594,168.477 297.274,168.895 297.274 C 169.423 297.274,169.491 297.424,169.254 298.065 M146.878 309.644 C 146.297 309.836,144.477 310.125,142.832 310.286 C 139.928 310.572,139.959 310.576,143.887 310.446 C 148.829 310.281,148.813 310.283,148.813 309.704 C 148.813 309.166,148.368 309.152,146.878 309.644 " stroke="none" fill="#d0d8e0" fill-rule="evenodd"></path></g></svg>