<svg id="svg" version="1.1" xmlns="http://www.w3.org/2000/svg" xmlns:xlink="http://www.w3.org/1999/xlink" width="50" height="50" viewBox="0, 0, 400,400"><g id="svgg"><path id="path0" d="M129.200 106.000 C 129.200 106.237,130.675 106.400,132.824 106.400 C 135.137 106.400,136.358 106.255,136.200 106.000 C 136.064 105.780,134.433 105.600,132.576 105.600 C 130.592 105.600,129.200 105.765,129.200 106.000 M98.934 109.189 C 97.358 109.367,94.838 109.888,93.334 110.348 C 88.930 111.695,85.630 112.352,82.000 112.604 C 75.166 113.077,71.875 113.673,69.600 114.845 C 67.911 115.716,66.118 116.161,61.880 116.761 C 57.219 117.420,56.069 117.727,54.480 118.734 C 53.242 119.520,51.439 120.152,49.200 120.585 C 45.589 121.284,43.600 121.919,43.600 122.375 C 43.600 122.820,40.748 124.287,38.956 124.763 C 37.249 125.217,33.511 128.439,30.631 131.938 C 28.292 134.778,28.598 139.351,31.328 142.373 C 32.040 143.161,32.864 144.389,33.159 145.101 C 33.561 146.073,34.083 146.513,35.245 146.861 C 36.097 147.116,37.695 148.094,38.796 149.034 C 40.103 150.150,41.597 150.971,43.099 151.401 C 44.365 151.763,46.082 152.600,46.916 153.261 C 48.060 154.169,49.323 154.642,52.069 155.193 C 54.279 155.636,56.116 156.253,56.753 156.765 C 58.289 158.000,59.418 158.401,63.200 159.050 C 67.625 159.810,69.082 160.272,70.878 161.482 C 71.952 162.206,73.427 162.634,76.278 163.049 C 80.920 163.724,82.109 164.090,84.053 165.437 C 85.147 166.195,86.659 166.632,90.111 167.186 C 94.655 167.915,95.777 168.282,97.461 169.586 C 98.292 170.231,100.021 170.704,104.924 171.628 C 106.456 171.917,107.683 172.448,108.524 173.185 C 109.434 173.982,110.718 174.501,113.000 174.991 C 116.241 175.688,119.600 177.009,119.600 177.587 C 119.600 178.006,121.416 178.702,123.400 179.042 C 125.916 179.474,128.101 180.350,129.194 181.365 C 129.800 181.927,131.369 182.578,133.138 183.001 C 135.063 183.462,136.660 184.150,137.768 184.997 C 138.699 185.707,140.637 186.680,142.074 187.158 C 143.511 187.636,145.098 188.465,145.601 189.001 C 146.104 189.536,147.748 190.445,149.254 191.021 C 151.089 191.722,152.268 192.452,152.823 193.233 C 153.280 193.874,154.136 194.514,154.727 194.656 C 156.552 195.095,159.374 196.689,159.917 197.587 C 160.201 198.058,161.215 198.778,162.170 199.187 C 163.126 199.597,164.386 200.560,164.971 201.327 C 165.557 202.094,166.482 202.834,167.028 202.971 C 167.574 203.108,168.691 203.820,169.510 204.553 C 170.330 205.285,171.810 206.381,172.800 206.988 C 173.790 207.595,175.320 208.793,176.200 209.650 C 177.080 210.507,178.913 212.242,180.274 213.504 C 183.342 216.351,183.661 216.671,186.492 219.726 C 187.753 221.087,189.407 222.854,190.167 223.652 C 190.927 224.451,192.171 226.071,192.930 227.252 C 193.690 228.434,194.777 229.831,195.344 230.359 C 195.912 230.886,196.583 231.966,196.836 232.759 C 197.088 233.551,197.968 234.830,198.791 235.600 C 199.613 236.370,200.614 237.810,201.015 238.800 C 201.416 239.790,202.330 241.230,203.046 242.000 C 203.817 242.829,204.544 244.187,204.828 245.327 C 205.093 246.387,205.911 247.975,206.647 248.856 C 207.383 249.737,208.190 251.210,208.440 252.129 C 209.497 256.009,210.079 257.567,210.648 258.040 C 211.673 258.891,212.258 260.452,212.990 264.286 C 213.453 266.711,214.023 268.417,214.656 269.275 C 215.863 270.912,216.204 272.223,216.965 278.168 C 217.300 280.790,217.742 283.102,217.946 283.306 C 218.987 284.347,219.200 278.859,219.194 251.080 C 219.187 220.790,219.066 218.622,217.306 217.389 C 216.875 217.087,216.025 215.436,215.419 213.720 C 214.734 211.784,213.893 210.221,213.202 209.600 C 212.590 209.050,211.708 207.790,211.244 206.800 C 210.759 205.768,209.884 204.708,209.192 204.315 C 208.529 203.938,207.867 203.308,207.721 202.915 C 207.398 202.042,201.361 196.000,200.813 196.000 C 200.597 196.000,200.142 195.461,199.801 194.802 C 199.430 194.084,198.396 193.206,197.220 192.610 C 196.142 192.064,195.139 191.239,194.993 190.778 C 194.836 190.284,193.963 189.614,192.864 189.144 C 191.839 188.707,190.155 187.638,189.123 186.770 C 188.091 185.902,186.460 184.855,185.500 184.443 C 184.540 184.031,183.465 183.253,183.111 182.713 C 182.718 182.113,181.508 181.382,179.998 180.832 C 178.640 180.336,176.886 179.324,176.100 178.583 C 175.314 177.842,174.115 177.120,173.435 176.978 C 172.017 176.684,168.800 174.924,168.800 174.444 C 168.800 174.089,166.647 173.110,164.281 172.389 C 163.446 172.134,161.945 171.218,160.945 170.352 C 159.945 169.487,158.457 168.437,157.637 168.019 C 155.131 166.741,154.813 166.073,156.189 164.976 C 157.879 163.629,160.550 163.477,173.600 163.987 C 186.656 164.497,215.851 164.489,229.400 163.971 C 234.460 163.778,245.710 163.433,254.400 163.204 C 270.744 162.775,276.183 162.377,279.056 161.402 C 281.385 160.611,289.174 159.722,298.350 159.201 C 307.140 158.701,309.300 158.373,311.630 157.185 C 313.213 156.377,314.565 156.172,327.200 154.826 C 329.721 154.557,331.220 154.144,333.000 153.227 C 334.804 152.298,336.483 151.841,339.763 151.387 C 345.333 150.617,346.028 150.445,347.000 149.597 C 348.321 148.446,349.485 147.984,352.527 147.401 C 356.321 146.676,357.332 146.265,358.244 145.080 C 358.748 144.424,359.966 143.810,361.900 143.237 C 365.146 142.274,365.441 141.874,363.399 141.200 C 361.533 140.584,357.337 141.236,354.858 142.528 C 352.406 143.806,349.984 144.289,343.543 144.784 C 336.047 145.360,334.628 145.573,331.000 146.668 C 326.609 147.993,323.767 148.294,309.000 149.002 C 299.819 149.443,295.126 149.840,292.400 150.407 C 277.798 153.447,186.822 153.584,172.965 150.587 C 169.494 149.837,163.139 149.328,150.800 148.812 C 139.409 148.336,138.562 148.241,133.000 146.814 C 127.395 145.376,126.921 145.301,120.200 144.797 C 113.275 144.277,110.656 143.785,108.600 142.620 C 106.672 141.527,106.028 141.365,101.400 140.807 C 97.200 140.301,95.525 139.819,93.600 138.560 C 92.830 138.056,90.792 137.270,89.071 136.812 C 85.891 135.967,84.218 135.145,83.879 134.262 C 83.776 133.993,82.882 133.356,81.893 132.848 C 76.308 129.975,77.988 120.941,84.464 119.018 C 85.670 118.660,86.917 117.909,87.721 117.057 C 88.745 115.970,89.447 115.620,91.012 115.415 C 94.464 114.962,96.744 114.350,97.251 113.738 C 98.407 112.345,99.769 112.018,109.589 110.769 C 111.452 110.532,113.141 110.237,113.340 110.113 C 114.915 109.140,105.003 108.503,98.934 109.189 " stroke="none" fill="#f0f0f0" fill-rule="evenodd"></path><path id="path1" d="M0.000 200.000 L 0.000 400.000 200.000 400.000 L 400.000 400.000 400.000 200.000 L 400.000 0.000 200.000 0.000 L 0.000 0.000 0.000 200.000 M216.402 100.038 C 217.525 100.279,218.912 100.879,219.485 101.372 L 220.526 102.267 218.563 103.234 L 216.600 104.200 196.600 104.462 C 176.451 104.725,174.226 104.880,169.447 106.356 C 165.089 107.702,154.825 108.634,138.510 109.163 C 128.975 109.473,128.795 109.494,127.310 110.515 C 125.587 111.699,120.930 112.628,114.800 113.010 C 109.150 113.362,105.699 113.966,105.437 114.648 C 105.128 115.453,102.080 116.781,100.516 116.791 C 96.909 116.816,93.091 117.721,91.796 118.857 C 90.339 120.137,88.062 121.200,86.781 121.200 C 86.281 121.200,84.953 122.183,83.531 123.605 L 81.127 126.009 81.663 127.705 C 82.154 129.253,82.455 129.527,85.156 130.864 C 86.781 131.670,88.513 132.762,89.004 133.291 C 89.666 134.005,90.659 134.383,92.848 134.755 C 96.786 135.425,99.288 136.250,100.334 137.224 C 101.274 138.100,103.665 138.611,108.600 138.991 C 114.066 139.411,117.838 140.287,119.224 141.459 C 120.037 142.146,124.383 142.689,131.600 143.004 C 138.483 143.305,144.808 144.116,147.242 145.010 C 150.744 146.295,152.019 146.418,165.800 146.797 C 173.500 147.009,187.090 147.502,196.000 147.891 C 215.194 148.731,248.572 148.840,262.000 148.106 C 266.950 147.836,278.290 147.429,287.200 147.202 C 306.239 146.716,312.179 146.298,315.203 145.232 C 318.366 144.118,324.991 143.284,334.339 142.824 C 342.352 142.429,342.506 142.405,344.233 141.261 C 346.172 139.977,348.930 139.431,356.773 138.777 C 360.015 138.507,361.626 138.193,362.310 137.698 C 365.778 135.186,369.117 134.823,371.247 136.726 C 372.668 137.995,372.503 138.916,370.637 140.139 C 370.089 140.498,369.291 141.582,368.864 142.549 C 368.183 144.089,367.832 144.391,366.042 144.986 C 364.918 145.359,363.265 146.277,362.370 147.025 C 360.740 148.387,359.326 148.927,356.046 149.444 C 354.988 149.610,353.783 150.166,353.009 150.846 C 351.277 152.367,350.371 152.661,345.653 153.233 C 342.160 153.656,341.434 153.877,340.351 154.844 C 338.853 156.181,336.918 156.617,329.800 157.220 C 325.402 157.593,324.219 157.844,322.134 158.847 C 319.057 160.327,316.937 160.665,307.358 161.197 C 299.662 161.626,298.654 161.782,295.884 162.972 C 293.202 164.126,286.526 164.751,272.009 165.210 C 264.204 165.456,257.004 165.841,256.009 166.064 C 246.740 168.145,231.615 168.829,195.600 168.799 C 180.750 168.786,168.108 168.916,167.508 169.088 C 166.038 169.508,166.082 170.143,167.601 170.454 C 170.305 171.007,172.421 172.080,172.994 173.189 C 173.409 173.990,173.991 174.384,175.056 174.584 C 177.591 175.060,179.576 176.043,180.433 177.247 C 180.982 178.018,181.846 178.551,183.025 178.848 C 183.998 179.093,185.560 179.952,186.497 180.756 C 187.434 181.561,189.116 182.637,190.237 183.148 C 191.415 183.686,192.555 184.554,192.942 185.209 C 193.318 185.847,194.215 186.541,194.992 186.797 C 195.752 187.048,196.851 187.826,197.435 188.527 C 198.019 189.227,199.000 190.070,199.616 190.400 C 200.944 191.111,205.974 195.544,207.983 197.772 C 212.390 202.662,213.150 203.636,213.584 204.953 C 213.847 205.749,214.287 206.400,214.561 206.400 C 215.361 206.400,216.660 208.068,217.208 209.800 C 217.487 210.680,218.241 212.005,218.884 212.744 C 220.438 214.531,220.632 215.127,221.358 220.350 C 221.699 222.804,222.143 225.124,222.344 225.506 C 223.405 227.523,223.886 308.247,222.851 310.700 C 221.815 313.156,221.034 311.742,220.167 305.838 C 219.762 303.079,219.321 301.483,218.774 300.800 C 216.567 298.042,215.857 295.333,215.209 287.200 C 214.568 279.163,214.159 276.821,213.222 275.823 C 212.091 274.619,211.297 272.110,210.977 268.725 C 210.697 265.769,209.921 263.200,209.307 263.200 C 208.628 263.200,207.610 260.836,206.879 257.564 C 206.254 254.765,205.891 253.964,204.717 252.793 C 203.530 251.610,203.223 250.920,202.782 248.456 C 202.349 246.032,202.102 245.467,201.350 245.181 C 200.286 244.776,199.480 243.601,198.802 241.466 C 198.534 240.622,197.542 239.060,196.596 237.995 C 195.650 236.931,194.754 235.503,194.605 234.823 C 194.428 234.018,193.925 233.375,193.163 232.981 C 192.463 232.619,191.648 231.642,191.135 230.551 C 190.664 229.548,189.855 228.535,189.339 228.300 C 188.823 228.064,187.968 227.136,187.438 226.236 C 186.188 224.113,175.887 213.812,173.764 212.562 C 172.864 212.032,171.936 211.177,171.700 210.661 C 171.465 210.145,170.452 209.336,169.449 208.865 C 168.379 208.362,167.380 207.535,167.034 206.866 C 166.655 206.133,165.819 205.487,164.693 205.057 C 163.730 204.689,162.553 203.862,162.078 203.219 C 161.603 202.577,160.135 201.567,158.816 200.975 C 157.421 200.349,156.004 199.357,155.430 198.604 C 154.726 197.680,154.001 197.238,152.904 197.063 C 151.907 196.904,150.950 196.375,150.183 195.558 C 148.876 194.167,146.293 192.822,144.901 192.809 C 144.407 192.804,143.300 192.165,142.441 191.389 C 141.011 190.098,139.108 189.239,136.341 188.636 C 135.759 188.509,134.540 187.786,133.634 187.028 C 132.400 185.997,131.220 185.481,128.935 184.973 C 126.574 184.447,125.542 183.984,124.364 182.920 C 123.129 181.805,122.358 181.477,120.270 181.181 C 117.037 180.723,115.675 180.211,114.362 178.959 C 113.589 178.222,112.334 177.770,109.443 177.189 C 105.116 176.318,104.562 176.092,103.365 174.709 C 102.667 173.902,101.916 173.668,98.765 173.275 C 93.810 172.657,92.397 172.228,90.593 170.794 C 89.766 170.138,88.890 169.597,88.645 169.592 C 84.720 169.524,78.484 167.908,77.787 166.778 C 77.354 166.078,75.814 165.649,72.105 165.194 C 67.335 164.609,65.684 164.121,64.509 162.945 C 63.205 161.641,61.975 161.200,59.647 161.200 C 57.026 161.200,53.999 160.230,52.227 158.821 C 51.285 158.073,50.056 157.546,48.870 157.383 C 45.440 156.913,43.865 156.340,42.766 155.164 C 42.071 154.419,40.721 153.703,39.032 153.181 C 36.771 152.482,36.242 152.134,35.389 150.782 C 34.839 149.912,34.072 149.200,33.684 149.200 C 32.566 149.200,31.165 148.013,30.552 146.548 C 30.243 145.806,29.753 145.200,29.464 145.200 C 27.306 145.200,26.023 138.174,26.997 131.683 C 27.420 128.858,34.361 122.400,36.974 122.400 C 37.308 122.400,38.147 121.778,38.838 121.018 C 40.085 119.648,41.072 119.298,45.650 118.603 C 46.481 118.476,47.621 117.884,48.322 117.214 C 49.761 115.839,51.302 115.373,56.268 114.813 C 60.450 114.341,60.945 114.197,62.600 112.966 C 64.141 111.820,66.170 111.309,70.400 111.001 C 76.010 110.594,79.078 110.045,80.527 109.190 C 82.638 107.944,87.130 107.269,96.330 106.813 C 105.164 106.375,105.169 106.374,107.952 105.130 C 111.016 103.761,117.688 103.180,134.600 102.811 C 148.874 102.499,150.918 102.372,153.550 101.637 C 156.510 100.809,164.574 100.085,173.200 99.872 C 186.735 99.538,214.570 99.645,216.402 100.038 " stroke="none" fill="#040404" fill-rule="evenodd"></path><path id="path2" d="M173.200 99.872 C 164.574 100.085,156.510 100.809,153.550 101.637 C 150.918 102.372,148.874 102.499,134.600 102.811 C 117.688 103.180,111.016 103.761,107.952 105.130 C 105.169 106.374,105.164 106.375,96.330 106.813 C 87.130 107.269,82.638 107.944,80.527 109.190 C 79.078 110.045,76.010 110.594,70.400 111.001 C 66.170 111.309,64.141 111.820,62.600 112.966 C 60.945 114.197,60.450 114.341,56.268 114.813 C 51.302 115.373,49.761 115.839,48.322 117.214 C 47.621 117.884,46.481 118.476,45.650 118.603 C 41.072 119.298,40.085 119.648,38.838 121.018 C 38.147 121.778,37.308 122.400,36.974 122.400 C 34.361 122.400,27.420 128.858,26.997 131.683 C 26.023 138.174,27.306 145.200,29.464 145.200 C 29.753 145.200,30.243 145.806,30.552 146.548 C 31.165 148.013,32.566 149.200,33.684 149.200 C 34.072 149.200,34.839 149.912,35.389 150.782 C 36.242 152.134,36.771 152.482,39.032 153.181 C 40.721 153.703,42.071 154.419,42.766 155.164 C 43.865 156.340,45.440 156.913,48.870 157.383 C 50.056 157.546,51.285 158.073,52.227 158.821 C 53.999 160.230,57.026 161.200,59.647 161.200 C 61.975 161.200,63.205 161.641,64.509 162.945 C 65.684 164.121,67.335 164.609,72.105 165.194 C 75.814 165.649,77.354 166.078,77.787 166.778 C 78.484 167.908,84.720 169.524,88.645 169.592 C 88.890 169.597,89.766 170.138,90.593 170.794 C 92.397 172.228,93.810 172.657,98.765 173.275 C 101.916 173.668,102.667 173.902,103.365 174.709 C 104.562 176.092,105.116 176.318,109.443 177.189 C 112.334 177.770,113.589 178.222,114.362 178.959 C 115.675 180.211,117.037 180.723,120.270 181.181 C 122.358 181.477,123.129 181.805,124.364 182.920 C 125.542 183.984,126.574 184.447,128.935 184.973 C 131.220 185.481,132.400 185.997,133.634 187.028 C 134.540 187.786,135.759 188.509,136.341 188.636 C 139.108 189.239,141.011 190.098,142.441 191.389 C 143.300 192.165,144.407 192.804,144.901 192.809 C 146.293 192.822,148.876 194.167,150.183 195.558 C 150.950 196.375,151.907 196.904,152.904 197.063 C 154.001 197.238,154.726 197.680,155.430 198.604 C 156.004 199.357,157.421 200.349,158.816 200.975 C 160.135 201.567,161.603 202.577,162.078 203.219 C 162.553 203.862,163.730 204.689,164.693 205.057 C 165.819 205.487,166.655 206.133,167.034 206.866 C 167.380 207.535,168.379 208.362,169.449 208.865 C 170.452 209.336,171.465 210.145,171.700 210.661 C 171.936 211.177,172.864 212.032,173.764 212.562 C 175.887 213.812,186.188 224.113,187.438 226.236 C 187.968 227.136,188.823 228.064,189.339 228.300 C 189.855 228.535,190.664 229.548,191.135 230.551 C 191.648 231.642,192.463 232.619,193.163 232.981 C 193.925 233.375,194.428 234.018,194.605 234.823 C 194.754 235.503,195.650 236.931,196.596 237.995 C 197.542 239.060,198.534 240.622,198.802 241.466 C 199.480 243.601,200.286 244.776,201.350 245.181 C 202.102 245.467,202.349 246.032,202.782 248.456 C 203.223 250.920,203.530 251.610,204.717 252.793 C 205.891 253.964,206.254 254.765,206.879 257.564 C 207.610 260.836,208.628 263.200,209.307 263.200 C 209.921 263.200,210.697 265.769,210.977 268.725 C 211.297 272.110,212.091 274.619,213.222 275.823 C 214.159 276.821,214.568 279.163,215.209 287.200 C 215.857 295.333,216.567 298.042,218.774 300.800 C 219.321 301.483,219.762 303.079,220.167 305.838 C 221.034 311.742,221.815 313.156,222.851 310.700 C 223.886 308.247,223.405 227.523,222.344 225.506 C 222.143 225.124,221.699 222.804,221.358 220.350 C 220.632 215.127,220.438 214.531,218.884 212.744 C 218.241 212.005,217.487 210.680,217.208 209.800 C 216.660 208.068,215.361 206.400,214.561 206.400 C 214.287 206.400,213.847 205.749,213.584 204.953 C 213.150 203.636,212.390 202.662,207.983 197.772 C 205.974 195.544,200.944 191.111,199.616 190.400 C 199.000 190.070,198.019 189.227,197.435 188.527 C 196.851 187.826,195.752 187.048,194.992 186.797 C 194.215 186.541,193.318 185.847,192.942 185.209 C 192.555 184.554,191.415 183.686,190.237 183.148 C 189.116 182.637,187.434 181.561,186.497 180.756 C 185.560 179.952,183.998 179.093,183.025 178.848 C 181.846 178.551,180.982 178.018,180.433 177.247 C 179.576 176.043,177.591 175.060,175.056 174.584 C 173.991 174.384,173.409 173.990,172.994 173.189 C 172.421 172.080,170.305 171.007,167.601 170.454 C 166.082 170.143,166.038 169.508,167.508 169.088 C 168.108 168.916,180.750 168.786,195.600 168.799 C 231.615 168.829,246.740 168.145,256.009 166.064 C 257.004 165.841,264.204 165.456,272.009 165.210 C 286.526 164.751,293.202 164.126,295.884 162.972 C 298.654 161.782,299.662 161.626,307.358 161.197 C 316.937 160.665,319.057 160.327,322.134 158.847 C 324.219 157.844,325.402 157.593,329.800 157.220 C 336.918 156.617,338.853 156.181,340.351 154.844 C 341.434 153.877,342.160 153.656,345.653 153.233 C 350.371 152.661,351.277 152.367,353.009 150.846 C 353.783 150.166,354.988 149.610,356.046 149.444 C 359.326 148.927,360.740 148.387,362.370 147.025 C 363.265 146.277,364.918 145.359,366.042 144.986 C 367.832 144.391,368.183 144.089,368.864 142.549 C 369.291 141.582,370.089 140.498,370.637 140.139 C 372.503 138.916,372.668 137.995,371.247 136.726 C 369.117 134.823,365.778 135.186,362.310 137.698 C 361.626 138.193,360.015 138.507,356.773 138.777 C 348.930 139.431,346.172 139.977,344.233 141.261 C 342.506 142.405,342.352 142.429,334.339 142.824 C 324.991 143.284,318.366 144.118,315.203 145.232 C 312.179 146.298,306.239 146.716,287.200 147.202 C 278.290 147.429,266.950 147.836,262.000 148.106 C 248.572 148.840,215.194 148.731,196.000 147.891 C 187.090 147.502,173.500 147.009,165.800 146.797 C 152.019 146.418,150.744 146.295,147.242 145.010 C 144.808 144.116,138.483 143.305,131.600 143.004 C 124.383 142.689,120.037 142.146,119.224 141.459 C 117.838 140.287,114.066 139.411,108.600 138.991 C 103.665 138.611,101.274 138.100,100.334 137.224 C 99.288 136.250,96.786 135.425,92.848 134.755 C 90.659 134.383,89.666 134.005,89.004 133.291 C 88.513 132.762,86.781 131.670,85.156 130.864 C 82.455 129.527,82.154 129.253,81.663 127.705 L 81.127 126.009 83.531 123.605 C 84.953 122.183,86.281 121.200,86.781 121.200 C 88.062 121.200,90.339 120.137,91.796 118.857 C 93.091 117.721,96.909 116.816,100.516 116.791 C 102.080 116.781,105.128 115.453,105.437 114.648 C 105.699 113.966,109.150 113.362,114.800 113.010 C 120.930 112.628,125.587 111.699,127.310 110.515 C 128.795 109.494,128.975 109.473,138.510 109.163 C 154.825 108.634,165.089 107.702,169.447 106.356 C 174.226 104.880,176.451 104.725,196.600 104.462 L 216.600 104.200 218.563 103.234 L 220.526 102.267 219.485 101.372 C 217.499 99.663,202.004 99.162,173.200 99.872 M199.400 102.000 C 199.544 102.233,199.137 102.400,198.424 102.400 C 197.751 102.400,197.200 102.220,197.200 102.000 C 197.200 101.780,197.639 101.600,198.176 101.600 C 198.713 101.600,199.264 101.780,199.400 102.000 M145.600 104.408 C 151.723 104.821,156.063 105.651,154.600 106.129 C 152.369 106.858,144.999 107.628,138.400 107.823 C 128.984 108.100,124.903 108.628,121.400 110.022 C 119.860 110.635,117.160 111.338,115.400 111.584 C 113.640 111.830,110.446 112.275,108.301 112.573 C 106.096 112.880,103.663 113.489,102.701 113.975 C 101.766 114.449,98.510 115.438,95.467 116.175 C 91.205 117.206,89.687 117.750,88.861 118.541 C 88.271 119.107,86.994 119.849,86.022 120.192 C 80.443 122.161,78.269 128.490,82.311 130.997 C 83.022 131.439,84.769 132.545,86.192 133.454 C 87.833 134.504,89.844 135.366,91.690 135.812 C 93.290 136.198,95.633 137.030,96.896 137.661 C 98.361 138.392,100.606 139.032,103.096 139.427 C 107.778 140.169,112.332 141.172,113.315 141.677 C 114.654 142.365,120.146 143.216,128.382 144.013 C 132.902 144.450,137.590 145.080,138.800 145.412 C 142.661 146.470,148.752 147.166,158.000 147.605 C 171.904 148.265,184.804 149.151,191.400 149.898 C 200.519 150.932,263.126 150.934,271.400 149.901 C 277.190 149.178,283.357 148.751,298.800 148.004 C 311.015 147.413,320.007 146.549,323.547 145.625 C 325.167 145.202,329.667 144.564,333.547 144.208 C 342.191 143.415,346.443 142.721,350.605 141.424 C 352.362 140.876,356.314 140.059,359.387 139.607 C 362.460 139.155,365.151 138.609,365.367 138.393 C 366.592 137.168,367.600 137.956,367.600 140.138 C 367.600 142.690,367.227 143.109,363.683 144.541 C 362.298 145.100,360.647 145.994,360.014 146.527 C 359.368 147.071,357.403 147.889,355.531 148.393 C 353.699 148.887,351.195 149.813,349.966 150.452 C 348.638 151.142,346.106 151.922,343.726 152.376 C 341.523 152.796,338.658 153.583,337.360 154.126 C 334.628 155.269,332.106 155.816,326.800 156.418 C 324.710 156.655,320.396 157.483,317.212 158.258 C 313.180 159.239,309.419 159.839,304.812 160.235 C 296.915 160.915,289.565 161.881,288.123 162.429 C 286.534 163.034,276.103 163.935,265.400 164.392 C 250.297 165.038,241.119 165.578,234.200 166.227 C 220.361 167.524,181.551 167.430,165.100 166.058 C 161.451 165.754,160.634 165.914,162.285 166.609 C 163.243 167.011,163.534 167.429,163.736 168.689 C 164.006 170.376,164.379 170.657,167.991 171.885 C 168.976 172.220,170.497 173.105,171.370 173.853 C 172.243 174.600,173.615 175.389,174.418 175.605 C 175.222 175.821,176.491 176.439,177.240 176.977 C 177.988 177.515,179.995 178.706,181.700 179.622 C 183.405 180.539,184.800 181.446,184.800 181.639 C 184.800 181.831,185.845 182.516,187.122 183.161 C 188.399 183.805,190.231 184.991,191.194 185.795 C 192.157 186.599,193.626 187.605,194.459 188.030 C 195.292 188.455,196.165 189.160,196.398 189.597 C 196.632 190.034,197.384 190.681,198.069 191.036 C 200.396 192.239,212.800 204.836,212.800 205.996 C 212.800 206.218,213.476 207.096,214.302 207.947 C 215.142 208.812,216.140 210.443,216.566 211.647 C 216.985 212.831,217.848 214.536,218.485 215.435 C 220.868 218.801,220.971 220.389,220.986 254.000 C 221.001 285.871,220.971 286.469,219.144 290.730 C 218.709 291.744,218.227 292.372,218.041 292.166 C 217.653 291.737,216.147 284.378,215.798 281.200 C 215.365 277.272,214.726 274.639,213.721 272.650 C 213.180 271.578,212.474 269.418,212.154 267.850 C 211.323 263.784,210.858 262.438,209.581 260.400 C 208.961 259.410,208.150 257.386,207.779 255.903 C 207.378 254.303,206.550 252.433,205.741 251.303 C 204.992 250.256,204.097 248.443,203.753 247.272 C 203.409 246.102,202.600 244.545,201.956 243.811 C 201.312 243.077,200.250 241.297,199.596 239.854 C 198.941 238.412,198.045 237.038,197.604 236.802 C 197.163 236.566,196.419 235.614,195.949 234.687 C 195.480 233.759,194.445 232.247,193.648 231.327 C 192.143 229.587,190.003 226.881,187.596 223.672 C 185.996 221.540,178.301 213.940,175.600 211.826 C 174.610 211.051,173.017 209.828,172.060 209.108 C 171.103 208.389,169.573 207.150,168.660 206.357 C 167.747 205.563,166.226 204.430,165.281 203.839 C 164.335 203.249,163.458 202.495,163.331 202.164 C 163.204 201.834,162.178 201.097,161.050 200.529 C 159.923 199.960,158.389 198.960,157.641 198.308 C 156.894 197.655,155.454 196.768,154.441 196.336 C 153.429 195.904,152.060 195.034,151.400 194.403 C 150.740 193.772,149.210 192.871,148.000 192.400 C 146.790 191.930,144.900 190.944,143.800 190.211 C 142.700 189.477,140.866 188.579,139.724 188.214 C 138.583 187.850,136.873 187.022,135.924 186.374 C 134.976 185.725,132.720 184.737,130.911 184.177 C 129.102 183.616,127.514 182.985,127.384 182.773 C 126.945 182.064,124.225 180.919,121.306 180.215 C 119.714 179.831,117.644 179.010,116.706 178.390 C 115.768 177.770,113.518 176.886,111.706 176.425 C 109.895 175.964,107.195 174.958,105.706 174.191 C 104.110 173.367,101.702 172.553,99.833 172.204 C 98.092 171.879,95.482 171.055,94.033 170.372 C 92.585 169.690,89.600 168.785,87.400 168.361 C 84.978 167.894,82.475 167.110,81.056 166.374 C 79.542 165.590,77.249 164.896,74.585 164.415 C 72.035 163.956,69.258 163.129,67.318 162.253 C 65.493 161.429,62.686 160.575,60.619 160.214 C 58.131 159.781,56.510 159.243,55.230 158.427 C 54.224 157.785,51.921 156.893,50.113 156.446 C 46.848 155.639,44.660 154.744,44.223 154.037 C 44.097 153.834,42.707 153.176,41.132 152.574 C 39.558 151.973,37.624 150.902,36.835 150.195 C 36.046 149.488,34.829 148.617,34.132 148.261 C 33.434 147.904,32.461 147.024,31.969 146.306 C 31.477 145.588,30.483 144.370,29.759 143.600 C 24.673 138.188,28.639 127.541,37.179 123.679 C 38.400 123.127,40.120 122.173,41.000 121.559 C 41.895 120.935,44.062 120.075,45.920 119.608 C 47.746 119.149,50.266 118.247,51.520 117.603 C 53.051 116.819,55.332 116.167,58.461 115.621 C 61.024 115.173,64.444 114.279,66.061 113.634 C 68.256 112.757,70.671 112.245,75.600 111.613 C 79.230 111.147,83.145 110.503,84.300 110.183 C 85.455 109.862,87.345 109.346,88.500 109.035 C 89.655 108.724,93.120 108.264,96.200 108.012 C 107.356 107.101,110.289 106.762,115.400 105.794 C 124.730 104.025,133.776 103.610,145.600 104.408 " stroke="none" fill="#545454" fill-rule="evenodd"></path><path id="path3" d="M128.600 104.650 C 120.250 105.588,119.480 105.730,118.863 106.451 C 118.359 107.040,117.665 107.201,115.611 107.203 C 107.636 107.213,91.524 108.822,87.800 109.982 C 84.550 110.994,84.356 111.029,76.600 112.005 C 71.445 112.653,69.091 113.143,66.871 114.030 C 65.259 114.673,61.839 115.568,59.271 116.019 C 56.319 116.537,53.717 117.265,52.200 117.997 C 50.880 118.634,48.360 119.537,46.600 120.003 C 44.840 120.469,42.860 121.198,42.200 121.621 C 41.540 122.045,39.841 122.941,38.425 123.613 C 28.975 128.094,25.138 137.519,30.348 143.455 C 31.146 144.366,32.123 145.580,32.518 146.154 C 32.913 146.728,33.813 147.495,34.518 147.858 C 35.223 148.221,36.482 149.099,37.315 149.810 C 38.149 150.521,39.679 151.413,40.715 151.793 C 41.752 152.172,43.594 153.079,44.809 153.809 C 46.024 154.539,48.544 155.525,50.409 155.999 C 52.274 156.474,54.700 157.374,55.800 158.000 C 56.954 158.656,59.174 159.396,61.047 159.750 C 62.833 160.087,65.218 160.732,66.347 161.182 C 67.476 161.632,69.257 162.343,70.305 162.762 C 71.353 163.182,73.751 163.790,75.633 164.115 C 77.569 164.449,80.173 165.244,81.628 165.944 C 83.042 166.625,86.000 167.546,88.200 167.991 C 90.400 168.436,93.386 169.341,94.835 170.002 C 96.284 170.662,99.157 171.563,101.219 172.004 C 103.282 172.445,105.606 173.215,106.384 173.715 C 108.394 175.007,109.513 175.444,112.220 175.992 C 113.529 176.257,115.692 177.077,117.026 177.815 C 118.360 178.553,120.880 179.539,122.626 180.007 C 124.372 180.475,126.586 181.378,127.546 182.014 C 128.506 182.650,130.306 183.458,131.546 183.810 C 132.786 184.161,134.790 185.043,136.000 185.768 C 137.210 186.493,139.484 187.570,141.054 188.160 C 142.623 188.751,144.215 189.574,144.590 189.989 C 144.966 190.405,146.472 191.221,147.937 191.803 C 149.402 192.385,151.140 193.379,151.800 194.011 C 152.460 194.642,153.720 195.459,154.600 195.824 C 155.480 196.190,157.253 197.279,158.540 198.245 C 159.826 199.210,161.035 200.000,161.226 200.000 C 161.417 200.000,162.481 200.806,163.591 201.792 C 164.701 202.778,166.102 203.839,166.705 204.151 C 167.308 204.463,168.161 205.118,168.601 205.607 C 169.040 206.096,170.300 207.103,171.400 207.845 C 175.729 210.767,185.163 219.563,188.296 223.600 C 192.091 228.490,192.862 229.466,194.144 231.000 C 194.880 231.880,195.869 233.359,196.342 234.287 C 196.815 235.214,197.536 236.151,197.942 236.369 C 198.349 236.587,199.263 237.980,199.972 239.465 C 200.681 240.949,201.758 242.730,202.365 243.421 C 202.971 244.112,203.786 245.650,204.174 246.839 C 204.562 248.027,205.407 249.717,206.051 250.594 C 206.695 251.470,207.596 253.450,208.053 254.994 C 208.510 256.537,209.476 258.880,210.200 260.200 C 210.943 261.556,211.879 264.209,212.351 266.299 C 212.810 268.334,213.645 270.904,214.206 272.011 C 214.913 273.407,215.478 275.681,216.047 279.424 C 217.522 289.127,217.996 290.153,219.268 286.410 C 220.676 282.268,220.842 277.933,220.622 251.140 C 220.379 221.724,220.173 218.976,217.972 215.800 C 217.362 214.920,216.534 213.225,216.132 212.033 C 215.729 210.841,214.839 209.311,214.154 208.633 C 213.469 207.955,212.618 206.831,212.262 206.135 C 211.414 204.475,199.359 192.288,197.759 191.473 C 197.077 191.125,196.236 190.409,195.889 189.880 C 195.543 189.352,194.609 188.611,193.814 188.233 C 193.018 187.856,191.790 187.043,191.084 186.428 C 190.378 185.812,188.720 184.715,187.400 183.989 C 186.080 183.264,184.550 182.259,184.000 181.757 C 183.450 181.254,182.284 180.543,181.408 180.177 C 180.533 179.812,178.850 178.820,177.668 177.974 C 176.486 177.128,174.862 176.228,174.060 175.974 C 173.257 175.720,171.904 174.967,171.054 174.300 C 170.203 173.634,168.600 172.743,167.491 172.322 C 164.225 171.081,163.342 170.507,162.497 169.074 C 161.967 168.176,161.076 167.464,159.850 166.960 C 158.834 166.542,158.002 166.078,158.001 165.929 C 157.999 165.408,162.566 165.093,166.369 165.351 C 168.476 165.493,172.990 165.794,176.400 166.019 C 184.437 166.549,219.377 166.353,229.078 165.724 C 236.912 165.216,257.043 164.210,267.400 163.809 C 274.549 163.532,284.138 162.555,287.200 161.791 C 289.187 161.295,293.332 160.818,306.016 159.626 C 308.336 159.408,312.746 158.616,315.816 157.866 C 318.887 157.115,322.660 156.383,324.200 156.239 C 329.259 155.764,332.556 155.116,335.600 153.997 C 337.250 153.391,340.490 152.513,342.800 152.046 C 345.205 151.561,347.943 150.708,349.206 150.051 C 350.420 149.420,352.920 148.523,354.762 148.057 C 356.639 147.583,358.689 146.769,359.428 146.206 C 360.153 145.653,361.883 144.719,363.273 144.130 C 366.909 142.590,367.734 141.494,366.320 140.080 C 365.339 139.099,355.652 140.310,351.400 141.944 C 349.093 142.831,343.627 143.707,334.800 144.606 C 331.390 144.953,327.130 145.581,325.333 146.003 C 320.828 147.060,316.733 147.512,307.400 147.985 C 296.802 148.521,283.127 149.511,276.200 150.243 C 262.193 151.723,203.940 151.829,188.400 150.403 C 186.310 150.211,181.630 149.774,178.000 149.431 C 174.370 149.088,166.200 148.534,159.845 148.201 C 146.509 147.502,142.550 147.106,137.919 146.006 C 136.083 145.570,131.165 144.853,126.990 144.412 C 117.284 143.388,114.505 142.924,111.053 141.750 C 109.511 141.226,106.083 140.433,103.436 139.989 C 100.435 139.485,97.638 138.739,96.011 138.009 C 94.575 137.364,92.140 136.474,90.600 136.031 C 88.112 135.315,83.852 132.977,81.297 130.925 C 77.899 128.195,80.682 120.881,85.523 119.817 C 86.115 119.687,87.378 118.965,88.328 118.212 C 89.473 117.306,90.823 116.690,92.328 116.387 C 94.708 115.907,99.071 114.603,102.800 113.257 C 104.010 112.820,107.192 112.178,109.871 111.831 C 117.415 110.853,118.825 110.448,119.284 109.132 C 119.782 107.702,119.879 107.690,132.400 107.432 C 149.334 107.083,156.064 105.709,144.200 105.022 C 138.766 104.708,129.955 104.497,128.600 104.650 M136.200 106.000 C 136.358 106.255,135.137 106.400,132.824 106.400 C 130.675 106.400,129.200 106.237,129.200 106.000 C 129.200 105.765,130.592 105.600,132.576 105.600 C 134.433 105.600,136.064 105.780,136.200 106.000 M112.951 109.460 C 114.006 110.063,113.457 110.277,109.589 110.769 C 99.769 112.018,98.407 112.345,97.251 113.738 C 96.744 114.350,94.464 114.962,91.012 115.415 C 89.447 115.620,88.745 115.970,87.721 117.057 C 86.917 117.909,85.670 118.660,84.464 119.018 C 77.988 120.941,76.308 129.975,81.893 132.848 C 82.882 133.356,83.776 133.993,83.879 134.262 C 84.218 135.145,85.891 135.967,89.071 136.812 C 90.792 137.270,92.830 138.056,93.600 138.560 C 95.525 139.819,97.200 140.301,101.400 140.807 C 106.028 141.365,106.672 141.527,108.600 142.620 C 110.656 143.785,113.275 144.277,120.200 144.797 C 126.921 145.301,127.395 145.376,133.000 146.814 C 138.562 148.241,139.409 148.336,150.800 148.812 C 163.139 149.328,169.494 149.837,172.965 150.587 C 186.822 153.584,277.798 153.447,292.400 150.407 C 295.126 149.840,299.819 149.443,309.000 149.002 C 323.767 148.294,326.609 147.993,331.000 146.668 C 334.628 145.573,336.047 145.360,343.543 144.784 C 349.984 144.289,352.406 143.806,354.858 142.528 C 357.337 141.236,361.533 140.584,363.399 141.200 C 365.441 141.874,365.146 142.274,361.900 143.237 C 359.966 143.810,358.748 144.424,358.244 145.080 C 357.332 146.265,356.321 146.676,352.527 147.401 C 349.485 147.984,348.321 148.446,347.000 149.597 C 346.028 150.445,345.333 150.617,339.763 151.387 C 336.483 151.841,334.804 152.298,333.000 153.227 C 331.220 154.144,329.721 154.557,327.200 154.826 C 314.565 156.172,313.213 156.377,311.630 157.185 C 309.300 158.373,307.140 158.701,298.350 159.201 C 289.174 159.722,281.385 160.611,279.056 161.402 C 276.183 162.377,270.744 162.775,254.400 163.204 C 245.710 163.433,234.460 163.778,229.400 163.971 C 215.851 164.489,186.656 164.497,173.600 163.987 C 160.550 163.477,157.879 163.629,156.189 164.976 C 154.813 166.073,155.131 166.741,157.637 168.019 C 158.457 168.437,159.945 169.487,160.945 170.352 C 161.945 171.218,163.446 172.134,164.281 172.389 C 166.647 173.110,168.800 174.089,168.800 174.444 C 168.800 174.924,172.017 176.684,173.435 176.978 C 174.115 177.120,175.314 177.842,176.100 178.583 C 176.886 179.324,178.640 180.336,179.998 180.832 C 181.508 181.382,182.718 182.113,183.111 182.713 C 183.465 183.253,184.540 184.031,185.500 184.443 C 186.460 184.855,188.091 185.902,189.123 186.770 C 190.155 187.638,191.839 188.707,192.864 189.144 C 193.963 189.614,194.836 190.284,194.993 190.778 C 195.139 191.239,196.142 192.064,197.220 192.610 C 198.396 193.206,199.430 194.084,199.801 194.802 C 200.142 195.461,200.597 196.000,200.813 196.000 C 201.361 196.000,207.398 202.042,207.721 202.915 C 207.867 203.308,208.529 203.938,209.192 204.315 C 209.884 204.708,210.759 205.768,211.244 206.800 C 211.708 207.790,212.590 209.050,213.202 209.600 C 213.893 210.221,214.734 211.784,215.419 213.720 C 216.025 215.436,216.875 217.087,217.306 217.389 C 219.066 218.622,219.187 220.790,219.194 251.080 C 219.200 278.859,218.987 284.347,217.946 283.306 C 217.742 283.102,217.300 280.790,216.965 278.168 C 216.204 272.223,215.863 270.912,214.656 269.275 C 214.023 268.417,213.453 266.711,212.990 264.286 C 212.258 260.452,211.673 258.891,210.648 258.040 C 210.079 257.567,209.497 256.009,208.440 252.129 C 208.190 251.210,207.383 249.737,206.647 248.856 C 205.911 247.975,205.093 246.387,204.828 245.327 C 204.544 244.187,203.817 242.829,203.046 242.000 C 202.330 241.230,201.416 239.790,201.015 238.800 C 200.614 237.810,199.613 236.370,198.791 235.600 C 197.968 234.830,197.088 233.551,196.836 232.759 C 196.583 231.966,195.912 230.886,195.344 230.359 C 194.777 229.831,193.690 228.434,192.930 227.252 C 192.171 226.071,190.927 224.451,190.167 223.652 C 189.407 222.854,187.753 221.087,186.492 219.726 C 183.661 216.671,183.342 216.351,180.274 213.504 C 178.913 212.242,177.080 210.507,176.200 209.650 C 175.320 208.793,173.790 207.595,172.800 206.988 C 171.810 206.381,170.330 205.285,169.510 204.553 C 168.691 203.820,167.574 203.108,167.028 202.971 C 166.482 202.834,165.557 202.094,164.971 201.327 C 164.386 200.560,163.126 199.597,162.170 199.187 C 161.215 198.778,160.201 198.058,159.917 197.587 C 159.374 196.689,156.552 195.095,154.727 194.656 C 154.136 194.514,153.280 193.874,152.823 193.233 C 152.268 192.452,151.089 191.722,149.254 191.021 C 147.748 190.445,146.104 189.536,145.601 189.001 C 145.098 188.465,143.511 187.636,142.074 187.158 C 140.637 186.680,138.699 185.707,137.768 184.997 C 136.660 184.150,135.063 183.462,133.138 183.001 C 131.369 182.578,129.800 181.927,129.194 181.365 C 128.101 180.350,125.916 179.474,123.400 179.042 C 121.416 178.702,119.600 178.006,119.600 177.587 C 119.600 177.009,116.241 175.688,113.000 174.991 C 110.718 174.501,109.434 173.982,108.524 173.185 C 107.683 172.448,106.456 171.917,104.924 171.628 C 100.021 170.704,98.292 170.231,97.461 169.586 C 95.777 168.282,94.655 167.915,90.111 167.186 C 86.659 166.632,85.147 166.195,84.053 165.437 C 82.109 164.090,80.920 163.724,76.278 163.049 C 73.427 162.634,71.952 162.206,70.878 161.482 C 69.082 160.272,67.625 159.810,63.200 159.050 C 59.418 158.401,58.289 158.000,56.753 156.765 C 56.116 156.253,54.279 155.636,52.069 155.193 C 49.323 154.642,48.060 154.169,46.916 153.261 C 46.082 152.600,44.365 151.763,43.099 151.401 C 41.597 150.971,40.103 150.150,38.796 149.034 C 37.695 148.094,36.097 147.116,35.245 146.861 C 34.083 146.513,33.561 146.073,33.159 145.101 C 32.864 144.389,32.040 143.161,31.328 142.373 C 28.598 139.351,28.292 134.778,30.631 131.938 C 33.511 128.439,37.249 125.217,38.956 124.763 C 40.748 124.287,43.600 122.820,43.600 122.375 C 43.600 121.919,45.589 121.284,49.200 120.585 C 51.439 120.152,53.242 119.520,54.480 118.734 C 56.069 117.727,57.219 117.420,61.880 116.761 C 66.118 116.161,67.911 115.716,69.600 114.845 C 71.875 113.673,75.166 113.077,82.000 112.604 C 85.630 112.352,88.930 111.695,93.334 110.348 C 98.066 108.901,110.953 108.318,112.951 109.460 " stroke="none" fill="#8c8c8c" fill-rule="evenodd"></path><path id="path4" d="M197.200 102.000 C 197.200 102.220,197.751 102.400,198.424 102.400 C 199.137 102.400,199.544 102.233,199.400 102.000 C 199.264 101.780,198.713 101.600,198.176 101.600 C 197.639 101.600,197.200 101.780,197.200 102.000 M124.000 104.457 C 122.130 104.650,118.260 105.251,115.400 105.794 C 110.289 106.762,107.356 107.101,96.200 108.012 C 93.120 108.264,89.655 108.724,88.500 109.035 C 87.345 109.346,85.455 109.862,84.300 110.183 C 83.145 110.503,79.230 111.147,75.600 111.613 C 70.671 112.245,68.256 112.757,66.061 113.634 C 64.444 114.279,61.024 115.173,58.461 115.621 C 55.332 116.167,53.051 116.819,51.520 117.603 C 50.266 118.247,47.746 119.149,45.920 119.608 C 44.062 120.075,41.895 120.935,41.000 121.559 C 40.120 122.173,38.400 123.127,37.179 123.679 C 28.639 127.541,24.673 138.188,29.759 143.600 C 30.483 144.370,31.477 145.588,31.969 146.306 C 32.461 147.024,33.434 147.904,34.132 148.261 C 34.829 148.617,36.046 149.488,36.835 150.195 C 37.624 150.902,39.558 151.973,41.132 152.574 C 42.707 153.176,44.097 153.834,44.223 154.037 C 44.660 154.744,46.848 155.639,50.113 156.446 C 51.921 156.893,54.224 157.785,55.230 158.427 C 56.510 159.243,58.131 159.781,60.619 160.214 C 62.686 160.575,65.493 161.429,67.318 162.253 C 69.258 163.129,72.035 163.956,74.585 164.415 C 77.249 164.896,79.542 165.590,81.056 166.374 C 82.475 167.110,84.978 167.894,87.400 168.361 C 89.600 168.785,92.585 169.690,94.033 170.372 C 95.482 171.055,98.092 171.879,99.833 172.204 C 101.702 172.553,104.110 173.367,105.706 174.191 C 107.195 174.958,109.895 175.964,111.706 176.425 C 113.518 176.886,115.768 177.770,116.706 178.390 C 117.644 179.010,119.714 179.831,121.306 180.215 C 124.225 180.919,126.945 182.064,127.384 182.773 C 127.514 182.985,129.102 183.616,130.911 184.177 C 132.720 184.737,134.976 185.725,135.924 186.374 C 136.873 187.022,138.583 187.850,139.724 188.214 C 140.866 188.579,142.700 189.477,143.800 190.211 C 144.900 190.944,146.790 191.930,148.000 192.400 C 149.210 192.871,150.740 193.772,151.400 194.403 C 152.060 195.034,153.429 195.904,154.441 196.336 C 155.454 196.768,156.894 197.655,157.641 198.308 C 158.389 198.960,159.923 199.960,161.050 200.529 C 162.178 201.097,163.204 201.834,163.331 202.164 C 163.458 202.495,164.335 203.249,165.281 203.839 C 166.226 204.430,167.747 205.563,168.660 206.357 C 169.573 207.150,171.103 208.389,172.060 209.108 C 173.017 209.828,174.610 211.051,175.600 211.826 C 178.301 213.940,185.996 221.540,187.596 223.672 C 190.003 226.881,192.143 229.587,193.648 231.327 C 194.445 232.247,195.480 233.759,195.949 234.687 C 196.419 235.614,197.163 236.566,197.604 236.802 C 198.045 237.038,198.941 238.412,199.596 239.854 C 200.250 241.297,201.312 243.077,201.956 243.811 C 202.600 244.545,203.409 246.102,203.753 247.272 C 204.097 248.443,204.992 250.256,205.741 251.303 C 206.550 252.433,207.378 254.303,207.779 255.903 C 208.150 257.386,208.961 259.410,209.581 260.400 C 210.858 262.438,211.323 263.784,212.154 267.850 C 212.474 269.418,213.180 271.578,213.721 272.650 C 214.726 274.639,215.365 277.272,215.798 281.200 C 216.147 284.378,217.653 291.737,218.041 292.166 C 218.227 292.372,218.709 291.744,219.144 290.730 C 220.971 286.469,221.001 285.871,220.986 254.000 C 220.971 220.389,220.868 218.801,218.485 215.435 C 217.848 214.536,216.985 212.831,216.566 211.647 C 216.140 210.443,215.142 208.812,214.302 207.947 C 213.476 207.096,212.800 206.218,212.800 205.996 C 212.800 204.836,200.396 192.239,198.069 191.036 C 197.384 190.681,196.632 190.034,196.398 189.597 C 196.165 189.160,195.292 188.455,194.459 188.030 C 193.626 187.605,192.157 186.599,191.194 185.795 C 190.231 184.991,188.399 183.805,187.122 183.161 C 185.845 182.516,184.800 181.831,184.800 181.639 C 184.800 181.446,183.405 180.539,181.700 179.622 C 179.995 178.706,177.988 177.515,177.240 176.977 C 176.491 176.439,175.222 175.821,174.418 175.605 C 173.615 175.389,172.243 174.600,171.370 173.853 C 170.497 173.105,168.976 172.220,167.991 171.885 C 164.379 170.657,164.006 170.376,163.736 168.689 C 163.534 167.429,163.243 167.011,162.285 166.609 C 160.634 165.914,161.451 165.754,165.100 166.058 C 181.551 167.430,220.361 167.524,234.200 166.227 C 241.119 165.578,250.297 165.038,265.400 164.392 C 276.103 163.935,286.534 163.034,288.123 162.429 C 289.565 161.881,296.915 160.915,304.812 160.235 C 309.419 159.839,313.180 159.239,317.212 158.258 C 320.396 157.483,324.710 156.655,326.800 156.418 C 332.106 155.816,334.628 155.269,337.360 154.126 C 338.658 153.583,341.523 152.796,343.726 152.376 C 346.106 151.922,348.638 151.142,349.966 150.452 C 351.195 149.813,353.699 148.887,355.531 148.393 C 357.403 147.889,359.368 147.071,360.014 146.527 C 360.647 145.994,362.298 145.100,363.683 144.541 C 367.227 143.109,367.600 142.690,367.600 140.138 C 367.600 137.956,366.592 137.168,365.367 138.393 C 365.151 138.609,362.460 139.155,359.387 139.607 C 356.314 140.059,352.362 140.876,350.605 141.424 C 346.443 142.721,342.191 143.415,333.547 144.208 C 329.667 144.564,325.167 145.202,323.547 145.625 C 320.007 146.549,311.015 147.413,298.800 148.004 C 283.357 148.751,277.190 149.178,271.400 149.901 C 263.126 150.934,200.519 150.932,191.400 149.898 C 184.804 149.151,171.904 148.265,158.000 147.605 C 148.752 147.166,142.661 146.470,138.800 145.412 C 137.590 145.080,132.902 144.450,128.382 144.013 C 120.146 143.216,114.654 142.365,113.315 141.677 C 112.332 141.172,107.778 140.169,103.096 139.427 C 100.606 139.032,98.361 138.392,96.896 137.661 C 95.633 137.030,93.290 136.198,91.690 135.812 C 89.844 135.366,87.833 134.504,86.192 133.454 C 84.769 132.545,83.022 131.439,82.311 130.997 C 78.269 128.490,80.443 122.161,86.022 120.192 C 86.994 119.849,88.271 119.107,88.861 118.541 C 89.687 117.750,91.205 117.206,95.467 116.175 C 98.510 115.438,101.766 114.449,102.701 113.975 C 103.663 113.489,106.096 112.880,108.301 112.573 C 110.446 112.275,113.640 111.830,115.400 111.584 C 117.160 111.338,119.860 110.635,121.400 110.022 C 124.903 108.628,128.984 108.100,138.400 107.823 C 144.999 107.628,152.369 106.858,154.600 106.129 C 158.763 104.768,134.061 103.419,124.000 104.457 M144.200 105.022 C 156.064 105.709,149.334 107.083,132.400 107.432 C 119.879 107.690,119.782 107.702,119.284 109.132 C 118.825 110.448,117.415 110.853,109.871 111.831 C 107.192 112.178,104.010 112.820,102.800 113.257 C 99.071 114.603,94.708 115.907,92.328 116.387 C 90.823 116.690,89.473 117.306,88.328 118.212 C 87.378 118.965,86.115 119.687,85.523 119.817 C 80.682 120.881,77.899 128.195,81.297 130.925 C 83.852 132.977,88.112 135.315,90.600 136.031 C 92.140 136.474,94.575 137.364,96.011 138.009 C 97.638 138.739,100.435 139.485,103.436 139.989 C 106.083 140.433,109.511 141.226,111.053 141.750 C 114.505 142.924,117.284 143.388,126.990 144.412 C 131.165 144.853,136.083 145.570,137.919 146.006 C 142.550 147.106,146.509 147.502,159.845 148.201 C 166.200 148.534,174.370 149.088,178.000 149.431 C 181.630 149.774,186.310 150.211,188.400 150.403 C 203.940 151.829,262.193 151.723,276.200 150.243 C 283.127 149.511,296.802 148.521,307.400 147.985 C 316.733 147.512,320.828 147.060,325.333 146.003 C 327.130 145.581,331.390 144.953,334.800 144.606 C 343.627 143.707,349.093 142.831,351.400 141.944 C 355.652 140.310,365.339 139.099,366.320 140.080 C 367.734 141.494,366.909 142.590,363.273 144.130 C 361.883 144.719,360.153 145.653,359.428 146.206 C 358.689 146.769,356.639 147.583,354.762 148.057 C 352.920 148.523,350.420 149.420,349.206 150.051 C 347.943 150.708,345.205 151.561,342.800 152.046 C 340.490 152.513,337.250 153.391,335.600 153.997 C 332.556 155.116,329.259 155.764,324.200 156.239 C 322.660 156.383,318.887 157.115,315.816 157.866 C 312.746 158.616,308.336 159.408,306.016 159.626 C 293.332 160.818,289.187 161.295,287.200 161.791 C 284.138 162.555,274.549 163.532,267.400 163.809 C 257.043 164.210,236.912 165.216,229.078 165.724 C 219.377 166.353,184.437 166.549,176.400 166.019 C 172.990 165.794,168.476 165.493,166.369 165.351 C 162.566 165.093,157.999 165.408,158.001 165.929 C 158.002 166.078,158.834 166.542,159.850 166.960 C 161.076 167.464,161.967 168.176,162.497 169.074 C 163.342 170.507,164.225 171.081,167.491 172.322 C 168.600 172.743,170.203 173.634,171.054 174.300 C 171.904 174.967,173.257 175.720,174.060 175.974 C 174.862 176.228,176.486 177.128,177.668 177.974 C 178.850 178.820,180.533 179.812,181.408 180.177 C 182.284 180.543,183.450 181.254,184.000 181.757 C 184.550 182.259,186.080 183.264,187.400 183.989 C 188.720 184.715,190.378 185.812,191.084 186.428 C 191.790 187.043,193.018 187.856,193.814 188.233 C 194.609 188.611,195.543 189.352,195.889 189.880 C 196.236 190.409,197.077 191.125,197.759 191.473 C 199.359 192.288,211.414 204.475,212.262 206.135 C 212.618 206.831,213.469 207.955,214.154 208.633 C 214.839 209.311,215.729 210.841,216.132 212.033 C 216.534 213.225,217.362 214.920,217.972 215.800 C 220.173 218.976,220.379 221.724,220.622 251.140 C 220.842 277.933,220.676 282.268,219.268 286.410 C 217.996 290.153,217.522 289.127,216.047 279.424 C 215.478 275.681,214.913 273.407,214.206 272.011 C 213.645 270.904,212.810 268.334,212.351 266.299 C 211.879 264.209,210.943 261.556,210.200 260.200 C 209.476 258.880,208.510 256.537,208.053 254.994 C 207.596 253.450,206.695 251.470,206.051 250.594 C 205.407 249.717,204.562 248.027,204.174 246.839 C 203.786 245.650,202.971 244.112,202.365 243.421 C 201.758 242.730,200.681 240.949,199.972 239.465 C 199.263 237.980,198.349 236.587,197.942 236.369 C 197.536 236.151,196.815 235.214,196.342 234.287 C 195.869 233.359,194.880 231.880,194.144 231.000 C 192.862 229.466,192.091 228.490,188.296 223.600 C 185.163 219.563,175.729 210.767,171.400 207.845 C 170.300 207.103,169.040 206.096,168.601 205.607 C 168.161 205.118,167.308 204.463,166.705 204.151 C 166.102 203.839,164.701 202.778,163.591 201.792 C 162.481 200.806,161.417 200.000,161.226 200.000 C 161.035 200.000,159.826 199.210,158.540 198.245 C 157.253 197.279,155.480 196.190,154.600 195.824 C 153.720 195.459,152.460 194.642,151.800 194.011 C 151.140 193.379,149.402 192.385,147.937 191.803 C 146.472 191.221,144.966 190.405,144.590 189.989 C 144.215 189.574,142.623 188.751,141.054 188.160 C 139.484 187.570,137.210 186.493,136.000 185.768 C 134.790 185.043,132.786 184.161,131.546 183.810 C 130.306 183.458,128.506 182.650,127.546 182.014 C 126.586 181.378,124.372 180.475,122.626 180.007 C 120.880 179.539,118.360 178.553,117.026 177.815 C 115.692 177.077,113.529 176.257,112.220 175.992 C 109.513 175.444,108.394 175.007,106.384 173.715 C 105.606 173.215,103.282 172.445,101.219 172.004 C 99.157 171.563,96.284 170.662,94.835 170.002 C 93.386 169.341,90.400 168.436,88.200 167.991 C 86.000 167.546,83.042 166.625,81.628 165.944 C 80.173 165.244,77.569 164.449,75.633 164.115 C 73.751 163.790,71.353 163.182,70.305 162.762 C 69.257 162.343,67.476 161.632,66.347 161.182 C 65.218 160.732,62.833 160.087,61.047 159.750 C 59.174 159.396,56.954 158.656,55.800 158.000 C 54.700 157.374,52.274 156.474,50.409 155.999 C 48.544 155.525,46.024 154.539,44.809 153.809 C 43.594 153.079,41.752 152.172,40.715 151.793 C 39.679 151.413,38.149 150.521,37.315 149.810 C 36.482 149.099,35.223 148.221,34.518 147.858 C 33.813 147.495,32.913 146.728,32.518 146.154 C 32.123 145.580,31.146 144.366,30.348 143.455 C 25.138 137.519,28.975 128.094,38.425 123.613 C 39.841 122.941,41.540 122.045,42.200 121.621 C 42.860 121.198,44.840 120.469,46.600 120.003 C 48.360 119.537,50.880 118.634,52.200 117.997 C 53.717 117.265,56.319 116.537,59.271 116.019 C 61.839 115.568,65.259 114.673,66.871 114.030 C 69.091 113.143,71.445 112.653,76.600 112.005 C 84.356 111.029,84.550 110.994,87.800 109.982 C 91.524 108.822,107.636 107.213,115.611 107.203 C 117.665 107.201,118.359 107.040,118.863 106.451 C 119.480 105.730,120.250 105.588,128.600 104.650 C 129.955 104.497,138.766 104.708,144.200 105.022 " stroke="none" fill="#7c7c7c" fill-rule="evenodd"></path></g></svg>