<?xml version="1.0" encoding="UTF-8"?>
<svg xmlns="http://www.w3.org/2000/svg" xmlns:xlink="http://www.w3.org/1999/xlink" width="50px" height="50px" viewBox="0 0 50 50" version="1.1">
<g id="surface1">
<path style=" stroke:none;fill-rule:evenodd;fill:rgb(94.117647%,94.117647%,94.117647%);fill-opacity:1;" d="M 16.148438 13.25 C 16.148438 13.28125 16.335938 13.300781 16.601562 13.300781 C 16.890625 13.300781 17.042969 13.28125 17.023438 13.25 C 17.007812 13.222656 16.804688 13.199219 16.570312 13.199219 C 16.324219 13.199219 16.148438 13.21875 16.148438 13.25 M 12.367188 13.648438 C 12.167969 13.671875 11.855469 13.734375 11.667969 13.792969 C 11.117188 13.960938 10.703125 14.042969 10.25 14.074219 C 9.394531 14.132812 8.984375 14.210938 8.699219 14.355469 C 8.488281 14.464844 8.265625 14.519531 7.734375 14.59375 C 7.152344 14.675781 7.007812 14.714844 6.808594 14.839844 C 6.65625 14.941406 6.429688 15.019531 6.148438 15.074219 C 5.699219 15.160156 5.449219 15.238281 5.449219 15.296875 C 5.449219 15.351562 5.09375 15.535156 4.871094 15.59375 C 4.65625 15.652344 4.1875 16.054688 3.828125 16.492188 C 3.535156 16.847656 3.574219 17.417969 3.914062 17.796875 C 4.003906 17.894531 4.109375 18.046875 4.144531 18.136719 C 4.195312 18.257812 4.261719 18.3125 4.40625 18.359375 C 4.511719 18.390625 4.710938 18.511719 4.847656 18.628906 C 5.011719 18.769531 5.199219 18.871094 5.386719 18.925781 C 5.546875 18.96875 5.761719 19.074219 5.863281 19.15625 C 6.007812 19.269531 6.164062 19.332031 6.507812 19.398438 C 6.785156 19.453125 7.015625 19.53125 7.09375 19.59375 C 7.285156 19.75 7.425781 19.800781 7.898438 19.882812 C 8.453125 19.976562 8.636719 20.035156 8.859375 20.183594 C 8.992188 20.277344 9.179688 20.328125 9.535156 20.382812 C 10.113281 20.464844 10.261719 20.511719 10.507812 20.679688 C 10.644531 20.773438 10.832031 20.828125 11.265625 20.898438 C 11.832031 20.988281 11.972656 21.035156 12.183594 21.199219 C 12.285156 21.277344 12.503906 21.339844 13.117188 21.453125 C 13.308594 21.488281 13.460938 21.554688 13.566406 21.648438 C 13.679688 21.746094 13.839844 21.8125 14.125 21.875 C 14.53125 21.960938 14.949219 22.125 14.949219 22.199219 C 14.949219 22.25 15.175781 22.335938 15.425781 22.378906 C 15.738281 22.433594 16.011719 22.542969 16.148438 22.671875 C 16.226562 22.742188 16.421875 22.820312 16.640625 22.875 C 16.882812 22.933594 17.082031 23.019531 17.222656 23.125 C 17.335938 23.214844 17.578125 23.335938 17.757812 23.394531 C 17.9375 23.453125 18.136719 23.558594 18.199219 23.625 C 18.261719 23.691406 18.46875 23.804688 18.65625 23.878906 C 18.886719 23.964844 19.035156 24.054688 19.101562 24.152344 C 19.160156 24.234375 19.265625 24.3125 19.339844 24.332031 C 19.570312 24.386719 19.921875 24.585938 19.988281 24.699219 C 20.023438 24.757812 20.152344 24.847656 20.269531 24.898438 C 20.390625 24.949219 20.546875 25.070312 20.621094 25.164062 C 20.695312 25.261719 20.808594 25.355469 20.878906 25.371094 C 20.945312 25.386719 21.085938 25.476562 21.1875 25.570312 C 21.292969 25.660156 21.476562 25.796875 21.601562 25.875 C 21.722656 25.949219 21.914062 26.097656 22.023438 26.207031 C 22.136719 26.3125 22.363281 26.53125 22.535156 26.6875 C 22.917969 27.042969 22.957031 27.082031 23.3125 27.464844 C 23.46875 27.636719 23.675781 27.855469 23.769531 27.957031 C 23.867188 28.054688 24.019531 28.257812 24.117188 28.40625 C 24.210938 28.554688 24.347656 28.730469 24.417969 28.792969 C 24.488281 28.859375 24.574219 28.996094 24.605469 29.09375 C 24.636719 29.195312 24.746094 29.355469 24.847656 29.449219 C 24.953125 29.546875 25.078125 29.726562 25.125 29.851562 C 25.175781 29.972656 25.292969 30.152344 25.378906 30.25 C 25.476562 30.355469 25.566406 30.523438 25.601562 30.664062 C 25.636719 30.796875 25.738281 30.996094 25.832031 31.105469 C 25.921875 31.21875 26.023438 31.402344 26.054688 31.515625 C 26.1875 32 26.261719 32.195312 26.332031 32.253906 C 26.460938 32.363281 26.53125 32.554688 26.625 33.035156 C 26.679688 33.339844 26.753906 33.550781 26.832031 33.660156 C 26.984375 33.863281 27.027344 34.027344 27.121094 34.769531 C 27.164062 35.097656 27.21875 35.386719 27.242188 35.414062 C 27.375 35.542969 27.398438 34.855469 27.398438 31.386719 C 27.398438 27.597656 27.382812 27.328125 27.164062 27.171875 C 27.109375 27.136719 27.003906 26.929688 26.925781 26.714844 C 26.839844 26.472656 26.738281 26.277344 26.648438 26.199219 C 26.574219 26.132812 26.464844 25.972656 26.40625 25.851562 C 26.34375 25.722656 26.234375 25.589844 26.148438 25.539062 C 26.066406 25.492188 25.984375 25.414062 25.964844 25.363281 C 25.925781 25.253906 25.171875 24.5 25.101562 24.5 C 25.074219 24.5 25.019531 24.433594 24.976562 24.351562 C 24.929688 24.261719 24.800781 24.152344 24.652344 24.078125 C 24.519531 24.007812 24.390625 23.90625 24.375 23.847656 C 24.355469 23.785156 24.246094 23.703125 24.109375 23.644531 C 23.980469 23.589844 23.769531 23.453125 23.640625 23.347656 C 23.511719 23.238281 23.308594 23.105469 23.1875 23.054688 C 23.066406 23.003906 22.933594 22.90625 22.890625 22.839844 C 22.839844 22.765625 22.6875 22.671875 22.5 22.605469 C 22.328125 22.542969 22.109375 22.414062 22.011719 22.324219 C 21.914062 22.230469 21.765625 22.140625 21.679688 22.121094 C 21.503906 22.085938 21.101562 21.867188 21.101562 21.804688 C 21.101562 21.761719 20.832031 21.640625 20.535156 21.546875 C 20.429688 21.515625 20.242188 21.402344 20.117188 21.292969 C 19.992188 21.1875 19.808594 21.054688 19.703125 21.003906 C 19.390625 20.84375 19.351562 20.757812 19.523438 20.621094 C 19.734375 20.453125 20.070312 20.433594 21.699219 20.5 C 23.332031 20.5625 26.980469 20.5625 28.675781 20.496094 C 29.308594 20.472656 30.714844 20.429688 31.800781 20.402344 C 33.84375 20.347656 34.523438 20.296875 34.882812 20.175781 C 35.171875 20.078125 36.148438 19.964844 37.292969 19.898438 C 38.390625 19.835938 38.664062 19.796875 38.953125 19.648438 C 39.152344 19.546875 39.320312 19.523438 40.898438 19.351562 C 41.214844 19.320312 41.402344 19.269531 41.625 19.152344 C 41.851562 19.039062 42.058594 18.980469 42.46875 18.921875 C 43.167969 18.828125 43.253906 18.804688 43.375 18.699219 C 43.539062 18.554688 43.6875 18.496094 44.066406 18.425781 C 44.539062 18.335938 44.667969 18.28125 44.78125 18.136719 C 44.84375 18.054688 44.996094 17.976562 45.238281 17.90625 C 45.644531 17.785156 45.679688 17.734375 45.425781 17.648438 C 45.191406 17.574219 44.667969 17.65625 44.355469 17.816406 C 44.050781 17.976562 43.746094 18.035156 42.941406 18.097656 C 42.007812 18.171875 41.828125 18.195312 41.375 18.332031 C 40.824219 18.5 40.472656 18.535156 38.625 18.625 C 37.476562 18.679688 36.890625 18.730469 36.550781 18.800781 C 34.726562 19.179688 23.351562 19.199219 21.621094 18.824219 C 21.1875 18.730469 20.390625 18.664062 18.851562 18.601562 C 17.425781 18.542969 17.320312 18.53125 16.625 18.351562 C 15.925781 18.171875 15.863281 18.164062 15.023438 18.101562 C 14.160156 18.035156 13.832031 17.972656 13.574219 17.828125 C 13.335938 17.691406 13.253906 17.671875 12.675781 17.601562 C 12.148438 17.539062 11.941406 17.476562 11.699219 17.320312 C 11.605469 17.257812 11.347656 17.160156 11.132812 17.101562 C 10.738281 16.996094 10.527344 16.894531 10.484375 16.78125 C 10.472656 16.75 10.359375 16.667969 10.238281 16.605469 C 9.539062 16.246094 9.75 15.117188 10.558594 14.878906 C 10.707031 14.832031 10.863281 14.738281 10.964844 14.632812 C 11.09375 14.496094 11.179688 14.453125 11.375 14.425781 C 11.808594 14.371094 12.09375 14.292969 12.15625 14.21875 C 12.300781 14.042969 12.472656 14.003906 13.699219 13.847656 C 13.929688 13.816406 14.144531 13.78125 14.167969 13.765625 C 14.363281 13.640625 13.125 13.5625 12.367188 13.648438 "/>
<path style=" stroke:none;fill-rule:evenodd;fill:rgb(1.568628%,1.568628%,1.568628%);fill-opacity:1;" d="M 0 25 L 0 50 L 50 50 L 50 0 L 0 0 L 0 25 M 27.050781 12.503906 C 27.191406 12.535156 27.363281 12.609375 27.4375 12.671875 L 27.566406 12.785156 L 27.320312 12.902344 L 27.074219 13.023438 L 24.574219 13.058594 C 22.054688 13.089844 21.777344 13.109375 21.179688 13.292969 C 20.636719 13.460938 19.351562 13.578125 17.3125 13.644531 C 16.121094 13.683594 16.097656 13.6875 15.914062 13.8125 C 15.699219 13.960938 15.117188 14.078125 14.351562 14.125 C 13.644531 14.171875 13.210938 14.246094 13.179688 14.332031 C 13.140625 14.429688 12.761719 14.597656 12.566406 14.597656 C 12.113281 14.601562 11.636719 14.714844 11.472656 14.855469 C 11.292969 15.015625 11.007812 15.148438 10.847656 15.148438 C 10.785156 15.148438 10.617188 15.273438 10.441406 15.449219 L 10.140625 15.75 L 10.207031 15.964844 C 10.269531 16.15625 10.308594 16.191406 10.644531 16.359375 C 10.847656 16.457031 11.0625 16.59375 11.125 16.660156 C 11.207031 16.75 11.332031 16.796875 11.605469 16.84375 C 12.097656 16.929688 12.410156 17.03125 12.542969 17.152344 C 12.660156 17.261719 12.957031 17.328125 13.574219 17.375 C 14.257812 17.425781 14.730469 17.535156 14.902344 17.683594 C 15.003906 17.769531 15.546875 17.835938 16.449219 17.875 C 17.308594 17.914062 18.101562 18.015625 18.40625 18.125 C 18.84375 18.285156 19.003906 18.300781 20.726562 18.351562 C 21.6875 18.375 23.386719 18.4375 24.5 18.488281 C 26.898438 18.589844 31.070312 18.605469 32.75 18.511719 C 33.367188 18.480469 34.785156 18.429688 35.898438 18.398438 C 38.28125 18.339844 39.023438 18.289062 39.398438 18.152344 C 39.796875 18.015625 40.625 17.910156 41.792969 17.851562 C 42.792969 17.804688 42.8125 17.800781 43.027344 17.65625 C 43.273438 17.496094 43.617188 17.429688 44.597656 17.347656 C 45 17.3125 45.203125 17.273438 45.289062 17.210938 C 45.722656 16.898438 46.140625 16.851562 46.40625 17.089844 C 46.582031 17.25 46.5625 17.363281 46.328125 17.515625 C 46.261719 17.5625 46.160156 17.699219 46.109375 17.820312 C 46.023438 18.011719 45.980469 18.050781 45.753906 18.125 C 45.613281 18.167969 45.40625 18.285156 45.296875 18.378906 C 45.09375 18.546875 44.914062 18.617188 44.503906 18.679688 C 44.375 18.703125 44.222656 18.769531 44.125 18.855469 C 43.910156 19.046875 43.796875 19.082031 43.207031 19.152344 C 42.769531 19.207031 42.679688 19.234375 42.542969 19.355469 C 42.355469 19.523438 42.113281 19.578125 41.226562 19.652344 C 40.675781 19.699219 40.527344 19.730469 40.265625 19.855469 C 39.882812 20.039062 39.617188 20.082031 38.417969 20.148438 C 37.457031 20.203125 37.332031 20.222656 36.984375 20.371094 C 36.648438 20.515625 35.816406 20.59375 34 20.652344 C 33.027344 20.683594 32.125 20.730469 32 20.757812 C 30.84375 21.019531 28.953125 21.105469 24.449219 21.101562 C 22.59375 21.097656 21.011719 21.113281 20.9375 21.136719 C 20.753906 21.1875 20.761719 21.269531 20.949219 21.308594 C 21.289062 21.375 21.550781 21.511719 21.625 21.648438 C 21.675781 21.75 21.75 21.796875 21.882812 21.824219 C 22.199219 21.882812 22.445312 22.003906 22.554688 22.15625 C 22.621094 22.253906 22.730469 22.320312 22.878906 22.355469 C 23 22.386719 23.195312 22.492188 23.3125 22.59375 C 23.429688 22.695312 23.640625 22.828125 23.78125 22.894531 C 23.925781 22.960938 24.070312 23.070312 24.117188 23.152344 C 24.164062 23.230469 24.277344 23.316406 24.375 23.351562 C 24.46875 23.382812 24.605469 23.476562 24.679688 23.566406 C 24.753906 23.652344 24.875 23.757812 24.953125 23.800781 C 25.117188 23.890625 25.746094 24.441406 25.996094 24.722656 C 26.546875 25.332031 26.644531 25.453125 26.699219 25.617188 C 26.730469 25.71875 26.785156 25.800781 26.820312 25.800781 C 26.921875 25.800781 27.082031 26.007812 27.152344 26.226562 C 27.1875 26.335938 27.28125 26.5 27.359375 26.59375 C 27.554688 26.816406 27.578125 26.890625 27.667969 27.542969 C 27.710938 27.851562 27.769531 28.140625 27.792969 28.1875 C 27.925781 28.441406 27.984375 38.53125 27.855469 38.835938 C 27.726562 39.144531 27.628906 38.96875 27.519531 38.230469 C 27.46875 37.886719 27.414062 37.683594 27.347656 37.601562 C 27.070312 37.253906 26.980469 36.917969 26.902344 35.898438 C 26.820312 34.894531 26.769531 34.601562 26.652344 34.476562 C 26.511719 34.328125 26.414062 34.015625 26.371094 33.589844 C 26.335938 33.222656 26.238281 32.898438 26.164062 32.898438 C 26.078125 32.898438 25.953125 32.605469 25.859375 32.195312 C 25.78125 31.84375 25.738281 31.746094 25.589844 31.597656 C 25.441406 31.453125 25.402344 31.363281 25.347656 31.058594 C 25.292969 30.753906 25.261719 30.683594 25.167969 30.648438 C 25.035156 30.597656 24.933594 30.449219 24.851562 30.183594 C 24.816406 30.078125 24.691406 29.882812 24.574219 29.75 C 24.457031 29.617188 24.34375 29.4375 24.324219 29.351562 C 24.304688 29.253906 24.242188 29.171875 24.144531 29.121094 C 24.058594 29.078125 23.957031 28.957031 23.890625 28.820312 C 23.832031 28.695312 23.730469 28.566406 23.667969 28.539062 C 23.601562 28.507812 23.496094 28.390625 23.429688 28.28125 C 23.273438 28.015625 21.984375 26.726562 21.71875 26.570312 C 21.609375 26.503906 21.492188 26.398438 21.460938 26.332031 C 21.433594 26.269531 21.304688 26.167969 21.179688 26.109375 C 21.046875 26.046875 20.921875 25.941406 20.878906 25.859375 C 20.832031 25.765625 20.726562 25.6875 20.585938 25.632812 C 20.464844 25.585938 20.320312 25.484375 20.257812 25.402344 C 20.199219 25.320312 20.015625 25.195312 19.851562 25.121094 C 19.675781 25.042969 19.5 24.917969 19.429688 24.824219 C 19.339844 24.710938 19.25 24.65625 19.113281 24.632812 C 18.988281 24.613281 18.867188 24.546875 18.773438 24.445312 C 18.609375 24.269531 18.285156 24.101562 18.113281 24.101562 C 18.050781 24.101562 17.914062 24.019531 17.804688 23.921875 C 17.625 23.761719 17.386719 23.65625 17.042969 23.578125 C 16.96875 23.5625 16.816406 23.472656 16.703125 23.378906 C 16.550781 23.25 16.402344 23.183594 16.117188 23.121094 C 15.820312 23.054688 15.691406 22.996094 15.546875 22.863281 C 15.390625 22.726562 15.292969 22.683594 15.035156 22.648438 C 14.628906 22.589844 14.460938 22.527344 14.296875 22.371094 C 14.199219 22.277344 14.042969 22.222656 13.679688 22.148438 C 13.140625 22.039062 13.070312 22.011719 12.921875 21.839844 C 12.832031 21.738281 12.738281 21.707031 12.34375 21.660156 C 11.726562 21.582031 11.550781 21.527344 11.324219 21.347656 C 11.222656 21.265625 11.109375 21.199219 11.082031 21.199219 C 10.589844 21.191406 9.808594 20.988281 9.722656 20.847656 C 9.667969 20.757812 9.476562 20.707031 9.011719 20.648438 C 8.417969 20.574219 8.210938 20.515625 8.0625 20.367188 C 7.902344 20.207031 7.746094 20.148438 7.457031 20.148438 C 7.128906 20.148438 6.75 20.027344 6.527344 19.851562 C 6.410156 19.757812 6.257812 19.691406 6.109375 19.671875 C 5.679688 19.613281 5.484375 19.542969 5.347656 19.394531 C 5.257812 19.300781 5.089844 19.210938 4.878906 19.148438 C 4.597656 19.058594 4.53125 19.015625 4.421875 18.847656 C 4.355469 18.738281 4.257812 18.648438 4.210938 18.648438 C 4.070312 18.648438 3.894531 18.5 3.820312 18.320312 C 3.78125 18.226562 3.71875 18.148438 3.683594 18.148438 C 3.414062 18.148438 3.253906 17.273438 3.375 16.460938 C 3.425781 16.105469 4.296875 15.300781 4.621094 15.300781 C 4.664062 15.300781 4.769531 15.222656 4.855469 15.128906 C 5.011719 14.957031 5.132812 14.914062 5.707031 14.824219 C 5.808594 14.808594 5.953125 14.734375 6.039062 14.652344 C 6.21875 14.480469 6.414062 14.421875 7.035156 14.351562 C 7.554688 14.292969 7.617188 14.273438 7.824219 14.121094 C 8.019531 13.976562 8.269531 13.914062 8.800781 13.875 C 9.5 13.824219 9.882812 13.753906 10.066406 13.648438 C 10.328125 13.492188 10.890625 13.410156 12.042969 13.351562 C 13.144531 13.296875 13.144531 13.296875 13.492188 13.140625 C 13.878906 12.96875 14.710938 12.898438 16.824219 12.851562 C 18.609375 12.8125 18.863281 12.796875 19.195312 12.703125 C 19.5625 12.601562 20.570312 12.511719 21.648438 12.484375 C 23.34375 12.441406 26.820312 12.457031 27.050781 12.503906 "/>
<path style=" stroke:none;fill-rule:evenodd;fill:rgb(32.941177%,32.941177%,32.941177%);fill-opacity:1;" d="M 21.648438 12.484375 C 20.570312 12.511719 19.5625 12.601562 19.195312 12.703125 C 18.863281 12.796875 18.609375 12.8125 16.824219 12.851562 C 14.710938 12.898438 13.878906 12.96875 13.492188 13.140625 C 13.144531 13.296875 13.144531 13.296875 12.042969 13.351562 C 10.890625 13.410156 10.328125 13.492188 10.066406 13.648438 C 9.882812 13.753906 9.5 13.824219 8.800781 13.875 C 8.269531 13.914062 8.019531 13.976562 7.824219 14.121094 C 7.617188 14.273438 7.554688 14.292969 7.035156 14.351562 C 6.414062 14.421875 6.21875 14.480469 6.039062 14.652344 C 5.953125 14.734375 5.808594 14.808594 5.707031 14.824219 C 5.132812 14.914062 5.011719 14.957031 4.855469 15.128906 C 4.769531 15.222656 4.664062 15.300781 4.621094 15.300781 C 4.296875 15.300781 3.425781 16.105469 3.375 16.460938 C 3.253906 17.273438 3.414062 18.148438 3.683594 18.148438 C 3.71875 18.148438 3.78125 18.226562 3.820312 18.320312 C 3.894531 18.5 4.070312 18.648438 4.210938 18.648438 C 4.257812 18.648438 4.355469 18.738281 4.421875 18.847656 C 4.53125 19.015625 4.597656 19.058594 4.878906 19.148438 C 5.089844 19.210938 5.257812 19.300781 5.347656 19.394531 C 5.484375 19.542969 5.679688 19.613281 6.109375 19.671875 C 6.257812 19.691406 6.410156 19.757812 6.527344 19.851562 C 6.75 20.027344 7.128906 20.148438 7.457031 20.148438 C 7.746094 20.148438 7.902344 20.207031 8.0625 20.367188 C 8.210938 20.515625 8.417969 20.574219 9.011719 20.648438 C 9.476562 20.707031 9.667969 20.757812 9.722656 20.847656 C 9.808594 20.988281 10.589844 21.191406 11.082031 21.199219 C 11.109375 21.199219 11.222656 21.265625 11.324219 21.347656 C 11.550781 21.527344 11.726562 21.582031 12.34375 21.660156 C 12.738281 21.707031 12.832031 21.738281 12.921875 21.839844 C 13.070312 22.011719 13.140625 22.039062 13.679688 22.148438 C 14.042969 22.222656 14.199219 22.277344 14.296875 22.371094 C 14.460938 22.527344 14.628906 22.589844 15.035156 22.648438 C 15.292969 22.683594 15.390625 22.726562 15.546875 22.863281 C 15.691406 22.996094 15.820312 23.054688 16.117188 23.121094 C 16.402344 23.183594 16.550781 23.25 16.703125 23.378906 C 16.816406 23.472656 16.96875 23.5625 17.042969 23.578125 C 17.386719 23.65625 17.625 23.761719 17.804688 23.921875 C 17.914062 24.019531 18.050781 24.101562 18.113281 24.101562 C 18.285156 24.101562 18.609375 24.269531 18.773438 24.445312 C 18.867188 24.546875 18.988281 24.613281 19.113281 24.632812 C 19.25 24.65625 19.339844 24.710938 19.429688 24.824219 C 19.5 24.917969 19.675781 25.042969 19.851562 25.121094 C 20.015625 25.195312 20.199219 25.320312 20.257812 25.402344 C 20.320312 25.484375 20.464844 25.585938 20.585938 25.632812 C 20.726562 25.6875 20.832031 25.765625 20.878906 25.859375 C 20.921875 25.941406 21.046875 26.046875 21.179688 26.109375 C 21.304688 26.167969 21.433594 26.269531 21.460938 26.332031 C 21.492188 26.398438 21.609375 26.503906 21.71875 26.570312 C 21.984375 26.726562 23.273438 28.015625 23.429688 28.28125 C 23.496094 28.390625 23.601562 28.507812 23.667969 28.539062 C 23.730469 28.566406 23.832031 28.695312 23.890625 28.820312 C 23.957031 28.957031 24.058594 29.078125 24.144531 29.121094 C 24.242188 29.171875 24.304688 29.253906 24.324219 29.351562 C 24.34375 29.4375 24.457031 29.617188 24.574219 29.75 C 24.691406 29.882812 24.816406 30.078125 24.851562 30.183594 C 24.933594 30.449219 25.035156 30.597656 25.167969 30.648438 C 25.261719 30.683594 25.292969 30.753906 25.347656 31.058594 C 25.402344 31.363281 25.441406 31.453125 25.589844 31.597656 C 25.738281 31.746094 25.78125 31.84375 25.859375 32.195312 C 25.953125 32.605469 26.078125 32.898438 26.164062 32.898438 C 26.238281 32.898438 26.335938 33.222656 26.371094 33.589844 C 26.414062 34.015625 26.511719 34.328125 26.652344 34.476562 C 26.769531 34.601562 26.820312 34.894531 26.902344 35.898438 C 26.980469 36.917969 27.070312 37.253906 27.347656 37.601562 C 27.414062 37.683594 27.46875 37.886719 27.519531 38.230469 C 27.628906 38.96875 27.726562 39.144531 27.855469 38.835938 C 27.984375 38.53125 27.925781 28.441406 27.792969 28.1875 C 27.769531 28.140625 27.710938 27.851562 27.667969 27.542969 C 27.578125 26.890625 27.554688 26.816406 27.359375 26.59375 C 27.28125 26.5 27.1875 26.335938 27.152344 26.226562 C 27.082031 26.007812 26.921875 25.800781 26.820312 25.800781 C 26.785156 25.800781 26.730469 25.71875 26.699219 25.617188 C 26.644531 25.453125 26.546875 25.332031 25.996094 24.722656 C 25.746094 24.441406 25.117188 23.890625 24.953125 23.800781 C 24.875 23.757812 24.753906 23.652344 24.679688 23.566406 C 24.605469 23.476562 24.46875 23.382812 24.375 23.351562 C 24.277344 23.316406 24.164062 23.230469 24.117188 23.152344 C 24.070312 23.070312 23.925781 22.960938 23.78125 22.894531 C 23.640625 22.828125 23.429688 22.695312 23.3125 22.59375 C 23.195312 22.492188 23 22.386719 22.878906 22.355469 C 22.730469 22.320312 22.621094 22.253906 22.554688 22.15625 C 22.445312 22.003906 22.199219 21.882812 21.882812 21.824219 C 21.75 21.796875 21.675781 21.75 21.625 21.648438 C 21.550781 21.511719 21.289062 21.375 20.949219 21.308594 C 20.761719 21.269531 20.753906 21.1875 20.9375 21.136719 C 21.011719 21.113281 22.59375 21.097656 24.449219 21.101562 C 28.953125 21.105469 30.84375 21.019531 32 20.757812 C 32.125 20.730469 33.027344 20.683594 34 20.652344 C 35.816406 20.59375 36.648438 20.515625 36.984375 20.371094 C 37.332031 20.222656 37.457031 20.203125 38.417969 20.148438 C 39.617188 20.082031 39.882812 20.039062 40.265625 19.855469 C 40.527344 19.730469 40.675781 19.699219 41.226562 19.652344 C 42.113281 19.578125 42.355469 19.523438 42.542969 19.355469 C 42.679688 19.234375 42.769531 19.207031 43.207031 19.152344 C 43.796875 19.082031 43.910156 19.046875 44.125 18.855469 C 44.222656 18.769531 44.375 18.703125 44.503906 18.679688 C 44.914062 18.617188 45.09375 18.546875 45.296875 18.378906 C 45.40625 18.285156 45.613281 18.167969 45.753906 18.125 C 45.980469 18.050781 46.023438 18.011719 46.109375 17.820312 C 46.160156 17.699219 46.261719 17.5625 46.328125 17.515625 C 46.5625 17.363281 46.582031 17.25 46.40625 17.089844 C 46.140625 16.851562 45.722656 16.898438 45.289062 17.210938 C 45.203125 17.273438 45 17.3125 44.597656 17.347656 C 43.617188 17.429688 43.273438 17.496094 43.027344 17.65625 C 42.8125 17.800781 42.792969 17.804688 41.792969 17.851562 C 40.625 17.910156 39.796875 18.015625 39.398438 18.152344 C 39.023438 18.289062 38.28125 18.339844 35.898438 18.398438 C 34.785156 18.429688 33.367188 18.480469 32.75 18.511719 C 31.070312 18.605469 26.898438 18.589844 24.5 18.488281 C 23.386719 18.4375 21.6875 18.375 20.726562 18.351562 C 19.003906 18.300781 18.84375 18.285156 18.40625 18.125 C 18.101562 18.015625 17.308594 17.914062 16.449219 17.875 C 15.546875 17.835938 15.003906 17.769531 14.902344 17.683594 C 14.730469 17.535156 14.257812 17.425781 13.574219 17.375 C 12.957031 17.328125 12.660156 17.261719 12.542969 17.152344 C 12.410156 17.03125 12.097656 16.929688 11.605469 16.84375 C 11.332031 16.796875 11.207031 16.75 11.125 16.660156 C 11.0625 16.59375 10.847656 16.457031 10.644531 16.359375 C 10.308594 16.191406 10.269531 16.15625 10.207031 15.964844 L 10.140625 15.75 L 10.441406 15.449219 C 10.617188 15.273438 10.785156 15.148438 10.847656 15.148438 C 11.007812 15.148438 11.292969 15.015625 11.472656 14.855469 C 11.636719 14.714844 12.113281 14.601562 12.566406 14.597656 C 12.761719 14.597656 13.140625 14.429688 13.179688 14.332031 C 13.210938 14.246094 13.644531 14.171875 14.351562 14.125 C 15.117188 14.078125 15.699219 13.960938 15.914062 13.8125 C 16.097656 13.6875 16.121094 13.683594 17.3125 13.644531 C 19.351562 13.578125 20.636719 13.460938 21.179688 13.292969 C 21.777344 13.109375 22.054688 13.089844 24.574219 13.058594 L 27.074219 13.023438 L 27.320312 12.902344 L 27.566406 12.785156 L 27.4375 12.671875 C 27.1875 12.457031 25.25 12.394531 21.648438 12.484375 M 24.925781 12.75 C 24.941406 12.777344 24.890625 12.800781 24.804688 12.800781 C 24.71875 12.800781 24.648438 12.777344 24.648438 12.75 C 24.648438 12.722656 24.703125 12.699219 24.773438 12.699219 C 24.839844 12.699219 24.90625 12.722656 24.925781 12.75 M 18.199219 13.050781 C 18.964844 13.101562 19.507812 13.207031 19.324219 13.265625 C 19.046875 13.355469 18.125 13.453125 17.300781 13.476562 C 16.121094 13.511719 15.613281 13.578125 15.175781 13.753906 C 14.984375 13.828125 14.644531 13.917969 14.425781 13.949219 C 14.203125 13.980469 13.804688 14.035156 13.539062 14.070312 C 13.261719 14.109375 12.957031 14.1875 12.835938 14.246094 C 12.722656 14.304688 12.3125 14.429688 11.933594 14.523438 C 11.402344 14.652344 11.210938 14.71875 11.109375 14.816406 C 11.035156 14.886719 10.875 14.980469 10.753906 15.023438 C 10.054688 15.269531 9.785156 16.0625 10.289062 16.375 C 10.378906 16.429688 10.597656 16.566406 10.773438 16.683594 C 10.980469 16.8125 11.230469 16.921875 11.460938 16.976562 C 11.660156 17.023438 11.953125 17.128906 12.113281 17.207031 C 12.296875 17.300781 12.574219 17.378906 12.886719 17.429688 C 13.472656 17.519531 14.042969 17.648438 14.164062 17.710938 C 14.332031 17.796875 15.019531 17.902344 16.046875 18 C 16.613281 18.054688 17.199219 18.136719 17.351562 18.175781 C 17.832031 18.308594 18.59375 18.394531 19.75 18.449219 C 21.488281 18.53125 23.101562 18.644531 23.925781 18.738281 C 25.066406 18.867188 32.890625 18.867188 33.925781 18.738281 C 34.648438 18.648438 35.417969 18.59375 37.351562 18.5 C 38.875 18.425781 40 18.320312 40.445312 18.203125 C 40.644531 18.148438 41.207031 18.070312 41.695312 18.027344 C 42.773438 17.925781 43.304688 17.839844 43.824219 17.679688 C 44.046875 17.609375 44.539062 17.507812 44.921875 17.449219 C 45.308594 17.394531 45.644531 17.324219 45.671875 17.300781 C 45.824219 17.144531 45.949219 17.246094 45.949219 17.515625 C 45.949219 17.835938 45.902344 17.886719 45.460938 18.066406 C 45.289062 18.136719 45.082031 18.25 45 18.316406 C 44.921875 18.382812 44.675781 18.484375 44.441406 18.550781 C 44.210938 18.609375 43.898438 18.726562 43.746094 18.804688 C 43.578125 18.894531 43.261719 18.992188 42.964844 19.046875 C 42.691406 19.097656 42.332031 19.199219 42.171875 19.265625 C 41.828125 19.410156 41.511719 19.476562 40.851562 19.550781 C 40.589844 19.582031 40.050781 19.683594 39.652344 19.78125 C 39.148438 19.90625 38.675781 19.980469 38.101562 20.03125 C 37.113281 20.113281 36.195312 20.234375 36.015625 20.304688 C 35.816406 20.378906 34.511719 20.492188 33.175781 20.550781 C 31.289062 20.628906 30.140625 20.695312 29.273438 20.777344 C 27.546875 20.941406 22.695312 20.929688 20.636719 20.757812 C 20.179688 20.71875 20.078125 20.738281 20.285156 20.824219 C 20.40625 20.875 20.441406 20.929688 20.46875 21.085938 C 20.5 21.296875 20.546875 21.332031 21 21.484375 C 21.121094 21.527344 21.3125 21.636719 21.421875 21.730469 C 21.53125 21.824219 21.703125 21.921875 21.800781 21.949219 C 21.902344 21.976562 22.0625 22.054688 22.15625 22.121094 C 22.25 22.1875 22.5 22.339844 22.710938 22.453125 C 22.925781 22.566406 23.101562 22.679688 23.101562 22.703125 C 23.101562 22.730469 23.230469 22.816406 23.390625 22.894531 C 23.550781 22.976562 23.777344 23.125 23.898438 23.222656 C 24.019531 23.324219 24.203125 23.449219 24.308594 23.503906 C 24.410156 23.558594 24.519531 23.644531 24.550781 23.699219 C 24.578125 23.753906 24.671875 23.835938 24.757812 23.878906 C 25.050781 24.03125 26.601562 25.605469 26.601562 25.75 C 26.601562 25.777344 26.683594 25.886719 26.789062 25.992188 C 26.894531 26.101562 27.015625 26.304688 27.070312 26.457031 C 27.125 26.605469 27.230469 26.816406 27.3125 26.929688 C 27.609375 27.351562 27.621094 27.546875 27.625 31.75 C 27.625 35.734375 27.621094 35.808594 27.394531 36.339844 C 27.339844 36.46875 27.277344 36.546875 27.253906 36.519531 C 27.207031 36.46875 27.019531 35.546875 26.976562 35.148438 C 26.921875 34.660156 26.839844 34.328125 26.714844 34.082031 C 26.648438 33.945312 26.558594 33.675781 26.519531 33.480469 C 26.414062 32.972656 26.355469 32.804688 26.199219 32.550781 C 26.121094 32.425781 26.019531 32.171875 25.972656 31.988281 C 25.921875 31.789062 25.820312 31.554688 25.71875 31.414062 C 25.625 31.28125 25.511719 31.054688 25.46875 30.910156 C 25.425781 30.761719 25.324219 30.566406 25.246094 30.476562 C 25.164062 30.382812 25.03125 30.164062 24.949219 29.980469 C 24.867188 29.800781 24.753906 29.628906 24.699219 29.601562 C 24.644531 29.570312 24.550781 29.453125 24.492188 29.335938 C 24.433594 29.21875 24.304688 29.03125 24.207031 28.914062 C 24.019531 28.699219 23.75 28.359375 23.449219 27.960938 C 23.25 27.691406 22.289062 26.742188 21.949219 26.476562 C 21.828125 26.382812 21.628906 26.226562 21.507812 26.136719 C 21.386719 26.046875 21.195312 25.894531 21.082031 25.792969 C 20.96875 25.695312 20.777344 25.554688 20.660156 25.480469 C 20.542969 25.40625 20.433594 25.3125 20.417969 25.269531 C 20.402344 25.230469 20.273438 25.136719 20.132812 25.066406 C 19.992188 24.996094 19.796875 24.871094 19.707031 24.789062 C 19.613281 24.707031 19.433594 24.597656 19.304688 24.542969 C 19.179688 24.488281 19.007812 24.378906 18.925781 24.300781 C 18.84375 24.222656 18.652344 24.109375 18.5 24.050781 C 18.347656 23.992188 18.113281 23.867188 17.976562 23.777344 C 17.835938 23.683594 17.609375 23.574219 17.464844 23.527344 C 17.324219 23.480469 17.109375 23.378906 16.992188 23.296875 C 16.871094 23.214844 16.589844 23.09375 16.363281 23.023438 C 16.136719 22.953125 15.9375 22.875 15.921875 22.847656 C 15.867188 22.757812 15.527344 22.613281 15.164062 22.527344 C 14.964844 22.480469 14.707031 22.375 14.589844 22.296875 C 14.472656 22.222656 14.191406 22.109375 13.964844 22.054688 C 13.738281 21.996094 13.398438 21.871094 13.214844 21.773438 C 13.015625 21.671875 12.710938 21.570312 12.480469 21.527344 C 12.261719 21.484375 11.933594 21.382812 11.753906 21.296875 C 11.574219 21.210938 11.199219 21.097656 10.925781 21.046875 C 10.621094 20.988281 10.308594 20.890625 10.132812 20.796875 C 9.941406 20.699219 9.65625 20.613281 9.324219 20.550781 C 9.003906 20.496094 8.65625 20.390625 8.414062 20.28125 C 8.1875 20.179688 7.835938 20.070312 7.578125 20.027344 C 7.265625 19.972656 7.0625 19.90625 6.902344 19.804688 C 6.777344 19.722656 6.488281 19.613281 6.265625 19.554688 C 5.855469 19.453125 5.582031 19.34375 5.527344 19.253906 C 5.511719 19.230469 5.339844 19.148438 5.140625 19.070312 C 4.945312 18.996094 4.703125 18.863281 4.605469 18.773438 C 4.503906 18.6875 4.355469 18.578125 4.265625 18.53125 C 4.179688 18.488281 4.058594 18.378906 3.996094 18.289062 C 3.933594 18.199219 3.808594 18.046875 3.71875 17.949219 C 3.085938 17.273438 3.578125 15.941406 4.648438 15.460938 C 4.800781 15.390625 5.015625 15.273438 5.125 15.195312 C 5.238281 15.117188 5.507812 15.007812 5.738281 14.949219 C 5.96875 14.894531 6.285156 14.78125 6.441406 14.699219 C 6.632812 14.601562 6.917969 14.519531 7.308594 14.453125 C 7.628906 14.398438 8.054688 14.285156 8.257812 14.203125 C 8.53125 14.09375 8.832031 14.03125 9.449219 13.953125 C 9.902344 13.894531 10.394531 13.8125 10.539062 13.773438 C 10.683594 13.734375 10.917969 13.667969 11.0625 13.628906 C 11.207031 13.589844 11.640625 13.53125 12.023438 13.5 C 13.417969 13.386719 13.785156 13.34375 14.425781 13.222656 C 15.589844 13.003906 16.722656 12.953125 18.199219 13.050781 "/>
<path style=" stroke:none;fill-rule:evenodd;fill:rgb(54.901963%,54.901963%,54.901963%);fill-opacity:1;" d="M 16.074219 13.082031 C 15.03125 13.199219 14.933594 13.214844 14.859375 13.304688 C 14.792969 13.378906 14.707031 13.398438 14.453125 13.398438 C 13.453125 13.402344 11.441406 13.601562 10.976562 13.746094 C 10.570312 13.875 10.542969 13.878906 9.574219 14 C 8.929688 14.082031 8.636719 14.144531 8.359375 14.253906 C 8.15625 14.335938 7.730469 14.445312 7.410156 14.503906 C 7.039062 14.566406 6.714844 14.65625 6.523438 14.75 C 6.359375 14.828125 6.046875 14.941406 5.824219 15 C 5.605469 15.058594 5.359375 15.148438 5.273438 15.203125 C 5.191406 15.253906 4.980469 15.367188 4.804688 15.453125 C 3.621094 16.011719 3.140625 17.191406 3.792969 17.933594 C 3.894531 18.046875 4.015625 18.199219 4.066406 18.269531 C 4.113281 18.339844 4.226562 18.4375 4.316406 18.480469 C 4.402344 18.527344 4.558594 18.636719 4.664062 18.726562 C 4.769531 18.816406 4.960938 18.925781 5.089844 18.972656 C 5.21875 19.023438 5.449219 19.136719 5.601562 19.226562 C 5.753906 19.316406 6.066406 19.441406 6.300781 19.5 C 6.535156 19.558594 6.835938 19.671875 6.976562 19.75 C 7.121094 19.832031 7.398438 19.925781 7.632812 19.96875 C 7.855469 20.011719 8.152344 20.089844 8.292969 20.148438 C 8.433594 20.203125 8.65625 20.292969 8.789062 20.34375 C 8.917969 20.398438 9.21875 20.472656 9.453125 20.515625 C 9.695312 20.554688 10.023438 20.65625 10.203125 20.742188 C 10.378906 20.828125 10.75 20.941406 11.023438 21 C 11.300781 21.054688 11.671875 21.167969 11.855469 21.25 C 12.035156 21.332031 12.394531 21.445312 12.652344 21.5 C 12.910156 21.554688 13.199219 21.652344 13.296875 21.714844 C 13.550781 21.875 13.6875 21.929688 14.027344 22 C 14.191406 22.03125 14.460938 22.132812 14.628906 22.226562 C 14.796875 22.320312 15.109375 22.441406 15.328125 22.5 C 15.546875 22.558594 15.824219 22.671875 15.941406 22.75 C 16.0625 22.832031 16.289062 22.933594 16.441406 22.976562 C 16.597656 23.019531 16.847656 23.128906 17 23.222656 C 17.152344 23.3125 17.433594 23.445312 17.632812 23.519531 C 17.828125 23.59375 18.027344 23.695312 18.074219 23.75 C 18.121094 23.800781 18.308594 23.902344 18.492188 23.976562 C 18.675781 24.046875 18.890625 24.171875 18.976562 24.25 C 19.058594 24.332031 19.214844 24.433594 19.324219 24.476562 C 19.433594 24.523438 19.65625 24.660156 19.816406 24.78125 C 19.976562 24.902344 20.128906 25 20.152344 25 C 20.175781 25 20.308594 25.101562 20.449219 25.222656 C 20.585938 25.347656 20.761719 25.480469 20.839844 25.519531 C 20.914062 25.558594 21.019531 25.640625 21.074219 25.699219 C 21.128906 25.761719 21.289062 25.886719 21.425781 25.980469 C 21.964844 26.347656 23.144531 27.445312 23.535156 27.949219 C 24.011719 28.5625 24.109375 28.683594 24.269531 28.875 C 24.359375 28.984375 24.484375 29.167969 24.542969 29.285156 C 24.601562 29.402344 24.691406 29.519531 24.742188 29.546875 C 24.792969 29.574219 24.90625 29.746094 24.996094 29.933594 C 25.085938 30.117188 25.21875 30.339844 25.296875 30.425781 C 25.371094 30.515625 25.472656 30.707031 25.523438 30.855469 C 25.570312 31.003906 25.675781 31.214844 25.757812 31.324219 C 25.835938 31.433594 25.949219 31.679688 26.007812 31.875 C 26.0625 32.066406 26.183594 32.359375 26.273438 32.523438 C 26.367188 32.695312 26.484375 33.027344 26.542969 33.289062 C 26.601562 33.542969 26.707031 33.863281 26.777344 34 C 26.863281 34.175781 26.933594 34.460938 27.007812 34.929688 C 27.191406 36.140625 27.25 36.269531 27.410156 35.800781 C 27.585938 35.285156 27.605469 34.742188 27.578125 31.390625 C 27.546875 27.714844 27.523438 27.371094 27.246094 26.976562 C 27.171875 26.863281 27.066406 26.652344 27.015625 26.503906 C 26.964844 26.355469 26.855469 26.164062 26.769531 26.078125 C 26.683594 25.996094 26.578125 25.855469 26.53125 25.765625 C 26.425781 25.558594 24.917969 24.035156 24.71875 23.933594 C 24.632812 23.890625 24.53125 23.800781 24.484375 23.734375 C 24.441406 23.667969 24.324219 23.578125 24.226562 23.527344 C 24.128906 23.480469 23.972656 23.378906 23.886719 23.304688 C 23.796875 23.226562 23.589844 23.089844 23.425781 23 C 23.261719 22.90625 23.070312 22.78125 23 22.71875 C 22.929688 22.65625 22.785156 22.566406 22.675781 22.523438 C 22.566406 22.476562 22.355469 22.351562 22.207031 22.246094 C 22.0625 22.140625 21.859375 22.027344 21.757812 21.996094 C 21.65625 21.964844 21.488281 21.871094 21.382812 21.789062 C 21.273438 21.703125 21.074219 21.59375 20.9375 21.539062 C 20.527344 21.386719 20.417969 21.3125 20.3125 21.132812 C 20.246094 21.023438 20.132812 20.933594 19.980469 20.871094 C 19.855469 20.816406 19.75 20.757812 19.75 20.742188 C 19.75 20.675781 20.320312 20.636719 20.796875 20.667969 C 21.058594 20.6875 21.625 20.722656 22.050781 20.753906 C 23.054688 20.820312 27.421875 20.792969 28.632812 20.714844 C 29.613281 20.652344 32.128906 20.527344 33.425781 20.476562 C 34.320312 20.441406 35.515625 20.320312 35.898438 20.222656 C 36.148438 20.160156 36.667969 20.101562 38.253906 19.953125 C 38.542969 19.925781 39.09375 19.828125 39.476562 19.734375 C 39.859375 19.640625 40.332031 19.546875 40.523438 19.53125 C 41.15625 19.46875 41.570312 19.390625 41.949219 19.25 C 42.15625 19.175781 42.5625 19.0625 42.851562 19.003906 C 43.152344 18.945312 43.492188 18.839844 43.652344 18.757812 C 43.800781 18.675781 44.113281 18.566406 44.34375 18.507812 C 44.578125 18.449219 44.835938 18.347656 44.929688 18.277344 C 45.019531 18.207031 45.234375 18.089844 45.410156 18.015625 C 45.863281 17.824219 45.964844 17.6875 45.789062 17.511719 C 45.667969 17.386719 44.457031 17.539062 43.925781 17.742188 C 43.636719 17.855469 42.953125 17.964844 41.851562 18.074219 C 41.421875 18.117188 40.890625 18.199219 40.667969 18.25 C 40.101562 18.382812 39.589844 18.4375 38.425781 18.5 C 37.101562 18.566406 35.390625 18.6875 34.523438 18.78125 C 32.773438 18.964844 25.492188 18.980469 23.550781 18.800781 C 23.289062 18.777344 22.703125 18.722656 22.25 18.679688 C 21.796875 18.636719 20.773438 18.566406 19.980469 18.523438 C 18.3125 18.4375 17.820312 18.386719 17.238281 18.25 C 17.011719 18.195312 16.394531 18.105469 15.875 18.050781 C 14.660156 17.921875 14.3125 17.867188 13.882812 17.71875 C 13.6875 17.652344 13.261719 17.554688 12.929688 17.5 C 12.554688 17.4375 12.203125 17.34375 12 17.25 C 11.820312 17.171875 11.515625 17.058594 11.324219 17.003906 C 11.015625 16.914062 10.480469 16.621094 10.164062 16.367188 C 9.738281 16.023438 10.085938 15.109375 10.691406 14.976562 C 10.765625 14.960938 10.921875 14.871094 11.039062 14.777344 C 11.183594 14.664062 11.351562 14.585938 11.539062 14.546875 C 11.839844 14.488281 12.382812 14.324219 12.851562 14.15625 C 13 14.101562 13.398438 14.023438 13.734375 13.980469 C 14.675781 13.855469 14.851562 13.804688 14.910156 13.640625 C 14.972656 13.460938 14.984375 13.460938 16.550781 13.429688 C 18.667969 13.386719 19.507812 13.214844 18.023438 13.128906 C 17.347656 13.089844 16.246094 13.0625 16.074219 13.082031 M 17.023438 13.25 C 17.042969 13.28125 16.890625 13.300781 16.601562 13.300781 C 16.335938 13.300781 16.148438 13.28125 16.148438 13.25 C 16.148438 13.21875 16.324219 13.199219 16.570312 13.199219 C 16.804688 13.199219 17.007812 13.222656 17.023438 13.25 M 14.117188 13.683594 C 14.25 13.757812 14.183594 13.785156 13.699219 13.847656 C 12.472656 14.003906 12.300781 14.042969 12.15625 14.21875 C 12.09375 14.292969 11.808594 14.371094 11.375 14.425781 C 11.179688 14.453125 11.09375 14.496094 10.964844 14.632812 C 10.863281 14.738281 10.707031 14.832031 10.558594 14.878906 C 9.75 15.117188 9.539062 16.246094 10.238281 16.605469 C 10.359375 16.667969 10.472656 16.75 10.484375 16.78125 C 10.527344 16.894531 10.738281 16.996094 11.132812 17.101562 C 11.347656 17.160156 11.605469 17.257812 11.699219 17.320312 C 11.941406 17.476562 12.148438 17.539062 12.675781 17.601562 C 13.253906 17.671875 13.335938 17.691406 13.574219 17.828125 C 13.832031 17.972656 14.160156 18.035156 15.023438 18.101562 C 15.863281 18.164062 15.925781 18.171875 16.625 18.351562 C 17.320312 18.53125 17.425781 18.542969 18.851562 18.601562 C 20.390625 18.664062 21.1875 18.730469 21.621094 18.824219 C 23.351562 19.199219 34.726562 19.179688 36.550781 18.800781 C 36.890625 18.730469 37.476562 18.679688 38.625 18.625 C 40.472656 18.535156 40.824219 18.5 41.375 18.332031 C 41.828125 18.195312 42.007812 18.171875 42.941406 18.097656 C 43.746094 18.035156 44.050781 17.976562 44.355469 17.816406 C 44.667969 17.65625 45.191406 17.574219 45.425781 17.648438 C 45.679688 17.734375 45.644531 17.785156 45.238281 17.90625 C 44.996094 17.976562 44.84375 18.054688 44.78125 18.136719 C 44.667969 18.28125 44.539062 18.335938 44.066406 18.425781 C 43.6875 18.496094 43.539062 18.554688 43.375 18.699219 C 43.253906 18.804688 43.167969 18.828125 42.46875 18.921875 C 42.058594 18.980469 41.851562 19.039062 41.625 19.152344 C 41.402344 19.269531 41.214844 19.320312 40.898438 19.351562 C 39.320312 19.523438 39.152344 19.546875 38.953125 19.648438 C 38.664062 19.796875 38.390625 19.835938 37.292969 19.898438 C 36.148438 19.964844 35.171875 20.078125 34.882812 20.175781 C 34.523438 20.296875 33.84375 20.347656 31.800781 20.402344 C 30.714844 20.429688 29.308594 20.472656 28.675781 20.496094 C 26.980469 20.5625 23.332031 20.5625 21.699219 20.5 C 20.070312 20.433594 19.734375 20.453125 19.523438 20.621094 C 19.351562 20.757812 19.390625 20.84375 19.703125 21.003906 C 19.808594 21.054688 19.992188 21.1875 20.117188 21.292969 C 20.242188 21.402344 20.429688 21.515625 20.535156 21.546875 C 20.832031 21.640625 21.101562 21.761719 21.101562 21.804688 C 21.101562 21.867188 21.503906 22.085938 21.679688 22.121094 C 21.765625 22.140625 21.914062 22.230469 22.011719 22.324219 C 22.109375 22.414062 22.328125 22.542969 22.5 22.605469 C 22.6875 22.671875 22.839844 22.765625 22.890625 22.839844 C 22.933594 22.90625 23.066406 23.003906 23.1875 23.054688 C 23.308594 23.105469 23.511719 23.238281 23.640625 23.347656 C 23.769531 23.453125 23.980469 23.589844 24.109375 23.644531 C 24.246094 23.703125 24.355469 23.785156 24.375 23.847656 C 24.390625 23.90625 24.519531 24.007812 24.652344 24.078125 C 24.800781 24.152344 24.929688 24.261719 24.976562 24.351562 C 25.019531 24.433594 25.074219 24.5 25.101562 24.5 C 25.171875 24.5 25.925781 25.253906 25.964844 25.363281 C 25.984375 25.414062 26.066406 25.492188 26.148438 25.539062 C 26.234375 25.589844 26.34375 25.722656 26.40625 25.851562 C 26.464844 25.972656 26.574219 26.132812 26.648438 26.199219 C 26.738281 26.277344 26.839844 26.472656 26.925781 26.714844 C 27.003906 26.929688 27.109375 27.136719 27.164062 27.171875 C 27.382812 27.328125 27.398438 27.597656 27.398438 31.386719 C 27.398438 34.855469 27.375 35.542969 27.242188 35.414062 C 27.21875 35.386719 27.164062 35.097656 27.121094 34.769531 C 27.027344 34.027344 26.984375 33.863281 26.832031 33.660156 C 26.753906 33.550781 26.679688 33.339844 26.625 33.035156 C 26.53125 32.554688 26.460938 32.363281 26.332031 32.253906 C 26.261719 32.195312 26.1875 32 26.054688 31.515625 C 26.023438 31.402344 25.921875 31.21875 25.832031 31.105469 C 25.738281 30.996094 25.636719 30.796875 25.601562 30.664062 C 25.566406 30.523438 25.476562 30.355469 25.378906 30.25 C 25.292969 30.152344 25.175781 29.972656 25.125 29.851562 C 25.078125 29.726562 24.953125 29.546875 24.847656 29.449219 C 24.746094 29.355469 24.636719 29.195312 24.605469 29.09375 C 24.574219 28.996094 24.488281 28.859375 24.417969 28.792969 C 24.347656 28.730469 24.210938 28.554688 24.117188 28.40625 C 24.019531 28.257812 23.867188 28.054688 23.769531 27.957031 C 23.675781 27.855469 23.46875 27.636719 23.3125 27.464844 C 22.957031 27.082031 22.917969 27.042969 22.535156 26.6875 C 22.363281 26.53125 22.136719 26.3125 22.023438 26.207031 C 21.914062 26.097656 21.722656 25.949219 21.601562 25.875 C 21.476562 25.796875 21.292969 25.660156 21.1875 25.570312 C 21.085938 25.476562 20.945312 25.386719 20.878906 25.371094 C 20.808594 25.355469 20.695312 25.261719 20.621094 25.164062 C 20.546875 25.070312 20.390625 24.949219 20.269531 24.898438 C 20.152344 24.847656 20.023438 24.757812 19.988281 24.699219 C 19.921875 24.585938 19.570312 24.386719 19.339844 24.332031 C 19.265625 24.3125 19.160156 24.234375 19.101562 24.152344 C 19.035156 24.054688 18.886719 23.964844 18.65625 23.878906 C 18.46875 23.804688 18.261719 23.691406 18.199219 23.625 C 18.136719 23.558594 17.9375 23.453125 17.757812 23.394531 C 17.578125 23.335938 17.335938 23.214844 17.222656 23.125 C 17.082031 23.019531 16.882812 22.933594 16.640625 22.875 C 16.421875 22.820312 16.226562 22.742188 16.148438 22.671875 C 16.011719 22.542969 15.738281 22.433594 15.425781 22.378906 C 15.175781 22.335938 14.949219 22.25 14.949219 22.199219 C 14.949219 22.125 14.53125 21.960938 14.125 21.875 C 13.839844 21.8125 13.679688 21.746094 13.566406 21.648438 C 13.460938 21.554688 13.308594 21.488281 13.117188 21.453125 C 12.503906 21.339844 12.285156 21.277344 12.183594 21.199219 C 11.972656 21.035156 11.832031 20.988281 11.265625 20.898438 C 10.832031 20.828125 10.644531 20.773438 10.507812 20.679688 C 10.261719 20.511719 10.113281 20.464844 9.535156 20.382812 C 9.179688 20.328125 8.992188 20.277344 8.859375 20.183594 C 8.636719 20.035156 8.453125 19.976562 7.898438 19.882812 C 7.425781 19.800781 7.285156 19.75 7.09375 19.59375 C 7.015625 19.53125 6.785156 19.453125 6.507812 19.398438 C 6.164062 19.332031 6.007812 19.269531 5.863281 19.15625 C 5.761719 19.074219 5.546875 18.96875 5.386719 18.925781 C 5.199219 18.871094 5.011719 18.769531 4.847656 18.628906 C 4.710938 18.511719 4.511719 18.390625 4.40625 18.359375 C 4.261719 18.3125 4.195312 18.257812 4.144531 18.136719 C 4.109375 18.046875 4.003906 17.894531 3.914062 17.796875 C 3.574219 17.417969 3.535156 16.847656 3.828125 16.492188 C 4.1875 16.054688 4.65625 15.652344 4.871094 15.59375 C 5.09375 15.535156 5.449219 15.351562 5.449219 15.296875 C 5.449219 15.238281 5.699219 15.160156 6.148438 15.074219 C 6.429688 15.019531 6.65625 14.941406 6.808594 14.839844 C 7.007812 14.714844 7.152344 14.675781 7.734375 14.59375 C 8.265625 14.519531 8.488281 14.464844 8.699219 14.355469 C 8.984375 14.210938 9.394531 14.132812 10.25 14.074219 C 10.703125 14.042969 11.117188 13.960938 11.667969 13.792969 C 12.257812 13.613281 13.867188 13.539062 14.117188 13.683594 "/>
<path style=" stroke:none;fill-rule:evenodd;fill:rgb(48.627451%,48.627451%,48.627451%);fill-opacity:1;" d="M 24.648438 12.75 C 24.648438 12.777344 24.71875 12.800781 24.804688 12.800781 C 24.890625 12.800781 24.941406 12.777344 24.925781 12.75 C 24.90625 12.722656 24.839844 12.699219 24.773438 12.699219 C 24.703125 12.699219 24.648438 12.722656 24.648438 12.75 M 15.5 13.058594 C 15.265625 13.082031 14.78125 13.15625 14.425781 13.222656 C 13.785156 13.34375 13.417969 13.386719 12.023438 13.5 C 11.640625 13.53125 11.207031 13.589844 11.0625 13.628906 C 10.917969 13.667969 10.683594 13.734375 10.539062 13.773438 C 10.394531 13.8125 9.902344 13.894531 9.449219 13.953125 C 8.832031 14.03125 8.53125 14.09375 8.257812 14.203125 C 8.054688 14.285156 7.628906 14.398438 7.308594 14.453125 C 6.917969 14.519531 6.632812 14.601562 6.441406 14.699219 C 6.285156 14.78125 5.96875 14.894531 5.738281 14.949219 C 5.507812 15.007812 5.238281 15.117188 5.125 15.195312 C 5.015625 15.273438 4.800781 15.390625 4.648438 15.460938 C 3.578125 15.941406 3.085938 17.273438 3.71875 17.949219 C 3.808594 18.046875 3.933594 18.199219 3.996094 18.289062 C 4.058594 18.378906 4.179688 18.488281 4.265625 18.53125 C 4.355469 18.578125 4.503906 18.6875 4.605469 18.773438 C 4.703125 18.863281 4.945312 18.996094 5.140625 19.070312 C 5.339844 19.148438 5.511719 19.230469 5.527344 19.253906 C 5.582031 19.34375 5.855469 19.453125 6.265625 19.554688 C 6.488281 19.613281 6.777344 19.722656 6.902344 19.804688 C 7.0625 19.90625 7.265625 19.972656 7.578125 20.027344 C 7.835938 20.070312 8.1875 20.179688 8.414062 20.28125 C 8.65625 20.390625 9.003906 20.496094 9.324219 20.550781 C 9.65625 20.613281 9.941406 20.699219 10.132812 20.796875 C 10.308594 20.890625 10.621094 20.988281 10.925781 21.046875 C 11.199219 21.097656 11.574219 21.210938 11.753906 21.296875 C 11.933594 21.382812 12.261719 21.484375 12.480469 21.527344 C 12.710938 21.570312 13.015625 21.671875 13.214844 21.773438 C 13.398438 21.871094 13.738281 21.996094 13.964844 22.054688 C 14.191406 22.109375 14.472656 22.222656 14.589844 22.296875 C 14.707031 22.375 14.964844 22.480469 15.164062 22.527344 C 15.527344 22.613281 15.867188 22.757812 15.921875 22.847656 C 15.9375 22.875 16.136719 22.953125 16.363281 23.023438 C 16.589844 23.09375 16.871094 23.214844 16.992188 23.296875 C 17.109375 23.378906 17.324219 23.480469 17.464844 23.527344 C 17.609375 23.574219 17.835938 23.683594 17.976562 23.777344 C 18.113281 23.867188 18.347656 23.992188 18.5 24.050781 C 18.652344 24.109375 18.84375 24.222656 18.925781 24.300781 C 19.007812 24.378906 19.179688 24.488281 19.304688 24.542969 C 19.433594 24.597656 19.613281 24.707031 19.707031 24.789062 C 19.796875 24.871094 19.992188 24.996094 20.132812 25.066406 C 20.273438 25.136719 20.402344 25.230469 20.417969 25.269531 C 20.433594 25.3125 20.542969 25.40625 20.660156 25.480469 C 20.777344 25.554688 20.96875 25.695312 21.082031 25.792969 C 21.195312 25.894531 21.386719 26.046875 21.507812 26.136719 C 21.628906 26.226562 21.828125 26.382812 21.949219 26.476562 C 22.289062 26.742188 23.25 27.691406 23.449219 27.960938 C 23.75 28.359375 24.019531 28.699219 24.207031 28.914062 C 24.304688 29.03125 24.433594 29.21875 24.492188 29.335938 C 24.550781 29.453125 24.644531 29.570312 24.699219 29.601562 C 24.753906 29.628906 24.867188 29.800781 24.949219 29.980469 C 25.03125 30.164062 25.164062 30.382812 25.246094 30.476562 C 25.324219 30.566406 25.425781 30.761719 25.46875 30.910156 C 25.511719 31.054688 25.625 31.28125 25.71875 31.414062 C 25.820312 31.554688 25.921875 31.789062 25.972656 31.988281 C 26.019531 32.171875 26.121094 32.425781 26.199219 32.550781 C 26.355469 32.804688 26.414062 32.972656 26.519531 33.480469 C 26.558594 33.675781 26.648438 33.945312 26.714844 34.082031 C 26.839844 34.328125 26.921875 34.660156 26.976562 35.148438 C 27.019531 35.546875 27.207031 36.46875 27.253906 36.519531 C 27.277344 36.546875 27.339844 36.46875 27.394531 36.339844 C 27.621094 35.808594 27.625 35.734375 27.625 31.75 C 27.621094 27.546875 27.609375 27.351562 27.3125 26.929688 C 27.230469 26.816406 27.125 26.605469 27.070312 26.457031 C 27.015625 26.304688 26.894531 26.101562 26.789062 25.992188 C 26.683594 25.886719 26.601562 25.777344 26.601562 25.75 C 26.601562 25.605469 25.050781 24.03125 24.757812 23.878906 C 24.671875 23.835938 24.578125 23.753906 24.550781 23.699219 C 24.519531 23.644531 24.410156 23.558594 24.308594 23.503906 C 24.203125 23.449219 24.019531 23.324219 23.898438 23.222656 C 23.777344 23.125 23.550781 22.976562 23.390625 22.894531 C 23.230469 22.816406 23.101562 22.730469 23.101562 22.703125 C 23.101562 22.679688 22.925781 22.566406 22.710938 22.453125 C 22.5 22.339844 22.25 22.1875 22.15625 22.121094 C 22.0625 22.054688 21.902344 21.976562 21.800781 21.949219 C 21.703125 21.921875 21.53125 21.824219 21.421875 21.730469 C 21.3125 21.636719 21.121094 21.527344 21 21.484375 C 20.546875 21.332031 20.5 21.296875 20.46875 21.085938 C 20.441406 20.929688 20.40625 20.875 20.285156 20.824219 C 20.078125 20.738281 20.179688 20.71875 20.636719 20.757812 C 22.695312 20.929688 27.546875 20.941406 29.273438 20.777344 C 30.140625 20.695312 31.289062 20.628906 33.175781 20.550781 C 34.511719 20.492188 35.816406 20.378906 36.015625 20.304688 C 36.195312 20.234375 37.113281 20.113281 38.101562 20.03125 C 38.675781 19.980469 39.148438 19.90625 39.652344 19.78125 C 40.050781 19.683594 40.589844 19.582031 40.851562 19.550781 C 41.511719 19.476562 41.828125 19.410156 42.171875 19.265625 C 42.332031 19.199219 42.691406 19.097656 42.964844 19.046875 C 43.261719 18.992188 43.578125 18.894531 43.746094 18.804688 C 43.898438 18.726562 44.210938 18.609375 44.441406 18.550781 C 44.675781 18.484375 44.921875 18.382812 45 18.316406 C 45.082031 18.25 45.289062 18.136719 45.460938 18.066406 C 45.902344 17.886719 45.949219 17.835938 45.949219 17.515625 C 45.949219 17.246094 45.824219 17.144531 45.671875 17.300781 C 45.644531 17.324219 45.308594 17.394531 44.921875 17.449219 C 44.539062 17.507812 44.046875 17.609375 43.824219 17.679688 C 43.304688 17.839844 42.773438 17.925781 41.695312 18.027344 C 41.207031 18.070312 40.644531 18.148438 40.445312 18.203125 C 40 18.320312 38.875 18.425781 37.351562 18.5 C 35.417969 18.59375 34.648438 18.648438 33.925781 18.738281 C 32.890625 18.867188 25.066406 18.867188 23.925781 18.738281 C 23.101562 18.644531 21.488281 18.53125 19.75 18.449219 C 18.59375 18.394531 17.832031 18.308594 17.351562 18.175781 C 17.199219 18.136719 16.613281 18.054688 16.046875 18 C 15.019531 17.902344 14.332031 17.796875 14.164062 17.710938 C 14.042969 17.648438 13.472656 17.519531 12.886719 17.429688 C 12.574219 17.378906 12.296875 17.300781 12.113281 17.207031 C 11.953125 17.128906 11.660156 17.023438 11.460938 16.976562 C 11.230469 16.921875 10.980469 16.8125 10.773438 16.683594 C 10.597656 16.566406 10.378906 16.429688 10.289062 16.375 C 9.785156 16.0625 10.054688 15.269531 10.753906 15.023438 C 10.875 14.980469 11.035156 14.886719 11.109375 14.816406 C 11.210938 14.71875 11.402344 14.652344 11.933594 14.523438 C 12.3125 14.429688 12.722656 14.304688 12.835938 14.246094 C 12.957031 14.1875 13.261719 14.109375 13.539062 14.070312 C 13.804688 14.035156 14.203125 13.980469 14.425781 13.949219 C 14.644531 13.917969 14.984375 13.828125 15.175781 13.753906 C 15.613281 13.578125 16.121094 13.511719 17.300781 13.476562 C 18.125 13.453125 19.046875 13.355469 19.324219 13.265625 C 19.84375 13.097656 16.757812 12.925781 15.5 13.058594 M 18.023438 13.128906 C 19.507812 13.214844 18.667969 13.386719 16.550781 13.429688 C 14.984375 13.460938 14.972656 13.460938 14.910156 13.640625 C 14.851562 13.804688 14.675781 13.855469 13.734375 13.980469 C 13.398438 14.023438 13 14.101562 12.851562 14.15625 C 12.382812 14.324219 11.839844 14.488281 11.539062 14.546875 C 11.351562 14.585938 11.183594 14.664062 11.039062 14.777344 C 10.921875 14.871094 10.765625 14.960938 10.691406 14.976562 C 10.085938 15.109375 9.738281 16.023438 10.164062 16.367188 C 10.480469 16.621094 11.015625 16.914062 11.324219 17.003906 C 11.515625 17.058594 11.820312 17.171875 12 17.25 C 12.203125 17.34375 12.554688 17.4375 12.929688 17.5 C 13.261719 17.554688 13.6875 17.652344 13.882812 17.71875 C 14.3125 17.867188 14.660156 17.921875 15.875 18.050781 C 16.394531 18.105469 17.011719 18.195312 17.238281 18.25 C 17.820312 18.386719 18.3125 18.4375 19.980469 18.523438 C 20.773438 18.566406 21.796875 18.636719 22.25 18.679688 C 22.703125 18.722656 23.289062 18.777344 23.550781 18.800781 C 25.492188 18.980469 32.773438 18.964844 34.523438 18.78125 C 35.390625 18.6875 37.101562 18.566406 38.425781 18.5 C 39.589844 18.4375 40.101562 18.382812 40.667969 18.25 C 40.890625 18.199219 41.421875 18.117188 41.851562 18.074219 C 42.953125 17.964844 43.636719 17.855469 43.925781 17.742188 C 44.457031 17.539062 45.667969 17.386719 45.789062 17.511719 C 45.964844 17.6875 45.863281 17.824219 45.410156 18.015625 C 45.234375 18.089844 45.019531 18.207031 44.929688 18.277344 C 44.835938 18.347656 44.578125 18.449219 44.34375 18.507812 C 44.113281 18.566406 43.800781 18.675781 43.652344 18.757812 C 43.492188 18.839844 43.152344 18.945312 42.851562 19.003906 C 42.5625 19.0625 42.15625 19.175781 41.949219 19.25 C 41.570312 19.390625 41.15625 19.46875 40.523438 19.53125 C 40.332031 19.546875 39.859375 19.640625 39.476562 19.734375 C 39.09375 19.828125 38.542969 19.925781 38.253906 19.953125 C 36.667969 20.101562 36.148438 20.160156 35.898438 20.222656 C 35.515625 20.320312 34.320312 20.441406 33.425781 20.476562 C 32.128906 20.527344 29.613281 20.652344 28.632812 20.714844 C 27.421875 20.792969 23.054688 20.820312 22.050781 20.753906 C 21.625 20.722656 21.058594 20.6875 20.796875 20.667969 C 20.320312 20.636719 19.75 20.675781 19.75 20.742188 C 19.75 20.757812 19.855469 20.816406 19.980469 20.871094 C 20.132812 20.933594 20.246094 21.023438 20.3125 21.132812 C 20.417969 21.3125 20.527344 21.386719 20.9375 21.539062 C 21.074219 21.59375 21.273438 21.703125 21.382812 21.789062 C 21.488281 21.871094 21.65625 21.964844 21.757812 21.996094 C 21.859375 22.027344 22.0625 22.140625 22.207031 22.246094 C 22.355469 22.351562 22.566406 22.476562 22.675781 22.523438 C 22.785156 22.566406 22.929688 22.65625 23 22.71875 C 23.070312 22.78125 23.261719 22.90625 23.425781 23 C 23.589844 23.089844 23.796875 23.226562 23.886719 23.304688 C 23.972656 23.378906 24.128906 23.480469 24.226562 23.527344 C 24.324219 23.578125 24.441406 23.667969 24.484375 23.734375 C 24.53125 23.800781 24.632812 23.890625 24.71875 23.933594 C 24.917969 24.035156 26.425781 25.558594 26.53125 25.765625 C 26.578125 25.855469 26.683594 25.996094 26.769531 26.078125 C 26.855469 26.164062 26.964844 26.355469 27.015625 26.503906 C 27.066406 26.652344 27.171875 26.863281 27.246094 26.976562 C 27.523438 27.371094 27.546875 27.714844 27.578125 31.390625 C 27.605469 34.742188 27.585938 35.285156 27.410156 35.800781 C 27.25 36.269531 27.191406 36.140625 27.007812 34.929688 C 26.933594 34.460938 26.863281 34.175781 26.777344 34 C 26.707031 33.863281 26.601562 33.542969 26.542969 33.289062 C 26.484375 33.027344 26.367188 32.695312 26.273438 32.523438 C 26.183594 32.359375 26.0625 32.066406 26.007812 31.875 C 25.949219 31.679688 25.835938 31.433594 25.757812 31.324219 C 25.675781 31.214844 25.570312 31.003906 25.523438 30.855469 C 25.472656 30.707031 25.371094 30.515625 25.296875 30.425781 C 25.21875 30.339844 25.085938 30.117188 24.996094 29.933594 C 24.90625 29.746094 24.792969 29.574219 24.742188 29.546875 C 24.691406 29.519531 24.601562 29.402344 24.542969 29.285156 C 24.484375 29.167969 24.359375 28.984375 24.269531 28.875 C 24.109375 28.683594 24.011719 28.5625 23.535156 27.949219 C 23.144531 27.445312 21.964844 26.347656 21.425781 25.980469 C 21.289062 25.886719 21.128906 25.761719 21.074219 25.699219 C 21.019531 25.640625 20.914062 25.558594 20.839844 25.519531 C 20.761719 25.480469 20.585938 25.347656 20.449219 25.222656 C 20.308594 25.101562 20.175781 25 20.152344 25 C 20.128906 25 19.976562 24.902344 19.816406 24.78125 C 19.65625 24.660156 19.433594 24.523438 19.324219 24.476562 C 19.214844 24.433594 19.058594 24.332031 18.976562 24.25 C 18.890625 24.171875 18.675781 24.046875 18.492188 23.976562 C 18.308594 23.902344 18.121094 23.800781 18.074219 23.75 C 18.027344 23.695312 17.828125 23.59375 17.632812 23.519531 C 17.433594 23.445312 17.152344 23.3125 17 23.222656 C 16.847656 23.128906 16.597656 23.019531 16.441406 22.976562 C 16.289062 22.933594 16.0625 22.832031 15.941406 22.75 C 15.824219 22.671875 15.546875 22.558594 15.328125 22.5 C 15.109375 22.441406 14.796875 22.320312 14.628906 22.226562 C 14.460938 22.132812 14.191406 22.03125 14.027344 22 C 13.6875 21.929688 13.550781 21.875 13.296875 21.714844 C 13.199219 21.652344 12.910156 21.554688 12.652344 21.5 C 12.394531 21.445312 12.035156 21.332031 11.855469 21.25 C 11.671875 21.167969 11.300781 21.054688 11.023438 21 C 10.75 20.941406 10.378906 20.828125 10.203125 20.742188 C 10.023438 20.65625 9.695312 20.554688 9.453125 20.515625 C 9.21875 20.472656 8.917969 20.398438 8.789062 20.34375 C 8.65625 20.292969 8.433594 20.203125 8.292969 20.148438 C 8.152344 20.089844 7.855469 20.011719 7.632812 19.96875 C 7.398438 19.925781 7.121094 19.832031 6.976562 19.75 C 6.835938 19.671875 6.535156 19.558594 6.300781 19.5 C 6.066406 19.441406 5.753906 19.316406 5.601562 19.226562 C 5.449219 19.136719 5.21875 19.023438 5.089844 18.972656 C 4.960938 18.925781 4.769531 18.816406 4.664062 18.726562 C 4.558594 18.636719 4.402344 18.527344 4.316406 18.480469 C 4.226562 18.4375 4.113281 18.339844 4.066406 18.269531 C 4.015625 18.199219 3.894531 18.046875 3.792969 17.933594 C 3.140625 17.191406 3.621094 16.011719 4.804688 15.453125 C 4.980469 15.367188 5.191406 15.253906 5.273438 15.203125 C 5.359375 15.148438 5.605469 15.058594 5.824219 15 C 6.046875 14.941406 6.359375 14.828125 6.523438 14.75 C 6.714844 14.65625 7.039062 14.566406 7.410156 14.503906 C 7.730469 14.445312 8.15625 14.335938 8.359375 14.253906 C 8.636719 14.144531 8.929688 14.082031 9.574219 14 C 10.542969 13.878906 10.570312 13.875 10.976562 13.746094 C 11.441406 13.601562 13.453125 13.402344 14.453125 13.398438 C 14.707031 13.398438 14.792969 13.378906 14.859375 13.304688 C 14.933594 13.214844 15.03125 13.199219 16.074219 13.082031 C 16.246094 13.0625 17.347656 13.089844 18.023438 13.128906 "/>
</g>
</svg>
